<svg width="178" height="60" viewBox="0 0 178 60" fill="none" xmlns="http://www.w3.org/2000/svg">
<path d="M154.553 47.6609C154.553 49.7053 152.913 51.3627 150.89 51.3627C148.866 51.3627 147.226 49.7053 147.226 47.6609C147.226 45.6165 148.866 43.9592 150.89 43.9592C152.913 43.9592 154.553 45.6165 154.553 47.6609Z" fill="#DBDBDB"/>
<path d="M146.493 42.1084C146.493 43.1306 145.673 43.9592 144.662 43.9592C143.65 43.9592 142.83 43.1306 142.83 42.1084C142.83 41.0862 143.65 40.2575 144.662 40.2575C145.673 40.2575 146.493 41.0862 146.493 42.1084Z" fill="#DBDBDB"/>
<path d="M161.88 52.72C161.88 53.4696 161.279 54.0773 160.537 54.0773C159.795 54.0773 159.194 53.4696 159.194 52.72C159.194 51.9703 159.795 51.3627 160.537 51.3627C161.279 51.3627 161.88 51.9703 161.88 52.72Z" fill="#DBDBDB"/>
<path d="M139.166 25.4506C139.166 28.3128 136.87 30.633 134.037 30.633C131.205 30.633 128.908 28.3128 128.908 25.4506C128.908 22.5885 131.205 20.2682 134.037 20.2682C136.87 20.2682 139.166 22.5885 139.166 25.4506Z" fill="#DBDBDB"/>
<path d="M143.563 22.4893C143.563 23.7159 142.578 24.7103 141.364 24.7103C140.15 24.7103 139.166 23.7159 139.166 22.4893C139.166 21.2626 140.15 20.2682 141.364 20.2682C142.578 20.2682 143.563 21.2626 143.563 22.4893Z" fill="#DBDBDB"/>
<path d="M128.908 19.0343C128.908 19.9884 128.143 20.7618 127.199 20.7618C126.254 20.7618 125.489 19.9884 125.489 19.0343C125.489 18.0803 126.254 17.3069 127.199 17.3069C128.143 17.3069 128.908 18.0803 128.908 19.0343Z" fill="#DBDBDB"/>
<path d="M135.259 17.4303C135.259 17.771 134.985 18.0472 134.648 18.0472C134.311 18.0472 134.037 17.771 134.037 17.4303C134.037 17.0895 134.311 16.8133 134.648 16.8133C134.985 16.8133 135.259 17.0895 135.259 17.4303Z" fill="#DBDBDB"/>
<path d="M139.166 54.0773C139.166 54.7587 138.62 55.3112 137.945 55.3112C137.271 55.3112 136.724 54.7587 136.724 54.0773C136.724 53.3958 137.271 52.8433 137.945 52.8433C138.62 52.8433 139.166 53.3958 139.166 54.0773Z" fill="#DBDBDB"/>
<path d="M125.489 35.9388C125.489 36.5522 124.997 37.0494 124.39 37.0494C123.783 37.0494 123.291 36.5522 123.291 35.9388C123.291 35.3255 123.783 34.8283 124.39 34.8283C124.997 34.8283 125.489 35.3255 125.489 35.9388Z" fill="#DBDBDB"/>
<path d="M157.484 39.5172C157.484 39.926 157.156 40.2575 156.751 40.2575C156.347 40.2575 156.019 39.926 156.019 39.5172C156.019 39.1083 156.347 38.7768 156.751 38.7768C157.156 38.7768 157.484 39.1083 157.484 39.5172Z" fill="#DBDBDB"/>
<path d="M167.986 48.2779C167.986 48.6186 167.713 48.8948 167.376 48.8948C167.038 48.8948 166.765 48.6186 166.765 48.2779C166.765 47.9372 167.038 47.6609 167.376 47.6609C167.713 47.6609 167.986 47.9372 167.986 48.2779Z" fill="#DBDBDB"/>
<path d="M150.89 7.80579C150.89 8.82799 150.07 9.65665 149.058 9.65665C148.046 9.65665 147.226 8.82799 147.226 7.80579C147.226 6.78359 148.046 5.95494 149.058 5.95494C150.07 5.95494 150.89 6.78359 150.89 7.80579Z" fill="#DBDBDB"/>
<path d="M154.553 11.7543C154.553 12.2313 154.171 12.618 153.698 12.618C153.226 12.618 152.844 12.2313 152.844 11.7543C152.844 11.2773 153.226 10.8906 153.698 10.8906C154.171 10.8906 154.553 11.2773 154.553 11.7543Z" fill="#DBDBDB"/>
<path d="M163.102 17.4303C163.102 18.9976 161.844 20.2682 160.293 20.2682C158.742 20.2682 157.484 18.9976 157.484 17.4303C157.484 15.8629 158.742 14.5923 160.293 14.5923C161.844 14.5923 163.102 15.8629 163.102 17.4303Z" fill="#DBDBDB"/>
<path d="M165.544 22.9828C165.544 23.6643 164.997 24.2167 164.323 24.2167C163.648 24.2167 163.102 23.6643 163.102 22.9828C163.102 22.3014 163.648 21.7489 164.323 21.7489C164.997 21.7489 165.544 22.3014 165.544 22.9828Z" fill="#DBDBDB"/>
<path d="M159.682 12.8648C159.682 13.0011 159.573 13.1116 159.438 13.1116C159.303 13.1116 159.194 13.0011 159.194 12.8648C159.194 12.7285 159.303 12.618 159.438 12.618C159.573 12.618 159.682 12.7285 159.682 12.8648Z" fill="#DBDBDB"/>
<path d="M168.719 16.8133C168.719 17.3585 168.282 17.8004 167.742 17.8004C167.202 17.8004 166.765 17.3585 166.765 16.8133C166.765 16.2681 167.202 15.8262 167.742 15.8262C168.282 15.8262 168.719 16.2681 168.719 16.8133Z" fill="#DBDBDB"/>
<path d="M176.535 27.7951C176.535 29.0899 175.496 30.1395 174.214 30.1395C172.933 30.1395 171.894 29.0899 171.894 27.7951C171.894 26.5003 172.933 25.4506 174.214 25.4506C175.496 25.4506 176.535 26.5003 176.535 27.7951Z" fill="#DBDBDB"/>
<path d="M123.258 3.125L124.177 5.63406L126.66 6.5625L124.177 7.49094L123.258 10L122.339 7.49094L119.856 6.5625L122.339 5.63406L123.258 3.125Z" fill="#FFDE6A"/>
<path d="M127.269 43.1341L126.351 40.625L125.432 43.1341L123.896 43.7083C124.035 44.0012 124.18 44.2913 124.329 44.5786L125.432 44.9909L126.351 47.5L127.269 44.9909L129.753 44.0625L127.269 43.1341Z" fill="#FFDE6A"/>
<path d="M124.329 44.5786C124.18 44.2913 124.035 44.0012 123.896 43.7083L122.948 44.0625L124.329 44.5786Z" fill="#FFDE6A"/>
<path d="M135.629 47.5L136.214 49.0967L137.794 49.6875L136.214 50.2783L135.629 51.875L135.044 50.2783L133.464 49.6875L135.044 49.0967L135.629 47.5Z" fill="#FFDE6A"/>
<path d="M139.959 38.125L140.543 39.7217L142.124 40.3125L140.543 40.9033L139.959 42.5L139.374 40.9033L137.794 40.3125L139.374 39.7217L139.959 38.125Z" fill="#FFDE6A"/>
<path d="M118.928 8.125L119.178 8.80929L119.856 9.0625L119.178 9.31571L118.928 10L118.677 9.31571L118 9.0625L118.677 8.80929L118.928 8.125Z" fill="#FFDE6A"/>
<path d="M123.876 11.25L124.127 11.9343L124.804 12.1875L124.127 12.4407L123.876 13.125L123.626 12.4407L122.948 12.1875L123.626 11.9343L123.876 11.25Z" fill="#FFDE6A"/>
<path d="M132.536 0.625L132.787 1.30929L133.464 1.5625L132.787 1.81571L132.536 2.5L132.285 1.81571L131.608 1.5625L132.285 1.30929L132.536 0.625Z" fill="#FFDE6A"/>
<path d="M159.134 1.25L159.385 1.93429L160.062 2.1875L159.385 2.44071L159.134 3.125L158.883 2.44071L158.206 2.1875L158.883 1.93429L159.134 1.25Z" fill="#FFDE6A"/>
<path d="M172.541 11.7655L172.124 10.625L171.706 11.7655L170.78 12.1117C170.846 12.1864 170.912 12.2615 170.977 12.3368L171.706 12.6095L172.124 13.75L172.541 12.6095L173.67 12.1875L172.541 11.7655Z" fill="#FFDE6A"/>
<path d="M170.78 12.1117L170.577 12.1875L170.977 12.3368C170.912 12.2615 170.846 12.1864 170.78 12.1117Z" fill="#FFDE6A"/>
<path d="M170.887 51.875L171.304 53.0155L172.433 53.4375L171.304 53.8595L170.887 55L170.469 53.8595L169.34 53.4375L170.469 53.0155L170.887 51.875Z" fill="#FFDE6A"/>
<path fill-rule="evenodd" clip-rule="evenodd" d="M149.546 60C165.261 60 178 47.1282 178 31.25C178 24.0083 175.35 17.3919 170.977 12.3368L170.577 12.1875L170.78 12.1117C169.477 10.6372 168.026 9.29916 166.451 8.12158L166.409 8.09013L165.938 9.375L165.141 7.19882C160.663 4.22803 155.304 2.5 149.546 2.5C133.832 2.5 121.093 15.3718 121.093 31.25C121.093 35.7134 122.099 39.9392 123.896 43.7083L125.432 43.1341L126.351 40.625L127.269 43.1341L129.753 44.0625L127.269 44.9909L126.351 47.5L125.432 44.9909L124.329 44.5786C129.084 53.7457 138.592 60 149.546 60ZM134.037 30.633C136.87 30.633 139.166 28.3128 139.166 25.4506C139.166 22.5885 136.87 20.2682 134.037 20.2682C131.205 20.2682 128.908 22.5885 128.908 25.4506C128.908 28.3128 131.205 30.633 134.037 30.633ZM141.364 24.7103C142.578 24.7103 143.563 23.7159 143.563 22.4893C143.563 21.2626 142.578 20.2682 141.364 20.2682C140.15 20.2682 139.166 21.2626 139.166 22.4893C139.166 23.7159 140.15 24.7103 141.364 24.7103ZM160.293 20.2682C161.844 20.2682 163.102 18.9976 163.102 17.4303C163.102 15.8629 161.844 14.5923 160.293 14.5923C158.742 14.5923 157.484 15.8629 157.484 17.4303C157.484 18.9976 158.742 20.2682 160.293 20.2682ZM153.698 12.618C154.171 12.618 154.553 12.2313 154.553 11.7543C154.553 11.2773 154.171 10.8906 153.698 10.8906C153.226 10.8906 152.844 11.2773 152.844 11.7543C152.844 12.2313 153.226 12.618 153.698 12.618ZM149.058 9.65665C150.07 9.65665 150.89 8.82799 150.89 7.80579C150.89 6.78359 150.07 5.95494 149.058 5.95494C148.046 5.95494 147.226 6.78359 147.226 7.80579C147.226 8.82799 148.046 9.65665 149.058 9.65665ZM167.742 17.8004C168.282 17.8004 168.719 17.3585 168.719 16.8133C168.719 16.2681 168.282 15.8262 167.742 15.8262C167.202 15.8262 166.765 16.2681 166.765 16.8133C166.765 17.3585 167.202 17.8004 167.742 17.8004ZM159.438 13.1116C159.573 13.1116 159.682 13.0011 159.682 12.8648C159.682 12.7285 159.573 12.618 159.438 12.618C159.303 12.618 159.194 12.7285 159.194 12.8648C159.194 13.0011 159.303 13.1116 159.438 13.1116ZM164.323 24.2167C164.997 24.2167 165.544 23.6643 165.544 22.9828C165.544 22.3014 164.997 21.7489 164.323 21.7489C163.648 21.7489 163.102 22.3014 163.102 22.9828C163.102 23.6643 163.648 24.2167 164.323 24.2167ZM174.214 30.1395C175.496 30.1395 176.535 29.0899 176.535 27.7951C176.535 26.5003 175.496 25.4506 174.214 25.4506C172.933 25.4506 171.894 26.5003 171.894 27.7951C171.894 29.0899 172.933 30.1395 174.214 30.1395ZM150.89 51.3627C152.913 51.3627 154.553 49.7053 154.553 47.6609C154.553 45.6165 152.913 43.9592 150.89 43.9592C148.866 43.9592 147.226 45.6165 147.226 47.6609C147.226 49.7053 148.866 51.3627 150.89 51.3627ZM156.751 40.2575C157.156 40.2575 157.484 39.926 157.484 39.5172C157.484 39.1083 157.156 38.7768 156.751 38.7768C156.347 38.7768 156.019 39.1083 156.019 39.5172C156.019 39.926 156.347 40.2575 156.751 40.2575ZM144.662 43.9592C145.673 43.9592 146.493 43.1306 146.493 42.1084C146.493 41.0862 145.673 40.2575 144.662 40.2575C143.65 40.2575 142.83 41.0862 142.83 42.1084C142.83 43.1306 143.65 43.9592 144.662 43.9592ZM167.376 48.8948C167.713 48.8948 167.986 48.6186 167.986 48.2779C167.986 47.9372 167.713 47.6609 167.376 47.6609C167.038 47.6609 166.765 47.9372 166.765 48.2779C166.765 48.6186 167.038 48.8948 167.376 48.8948ZM160.537 54.0773C161.279 54.0773 161.88 53.4696 161.88 52.72C161.88 51.9703 161.279 51.3627 160.537 51.3627C159.795 51.3627 159.194 51.9703 159.194 52.72C159.194 53.4696 159.795 54.0773 160.537 54.0773ZM137.945 55.3112C138.62 55.3112 139.166 54.7587 139.166 54.0773C139.166 53.3958 138.62 52.8433 137.945 52.8433C137.271 52.8433 136.724 53.3958 136.724 54.0773C136.724 54.7587 137.271 55.3112 137.945 55.3112ZM124.39 37.0494C124.997 37.0494 125.489 36.5522 125.489 35.9388C125.489 35.3255 124.997 34.8283 124.39 34.8283C123.783 34.8283 123.291 35.3255 123.291 35.9388C123.291 36.5522 123.783 37.0494 124.39 37.0494ZM134.648 18.0472C134.985 18.0472 135.259 17.771 135.259 17.4303C135.259 17.0895 134.985 16.8133 134.648 16.8133C134.311 16.8133 134.037 17.0895 134.037 17.4303C134.037 17.771 134.311 18.0472 134.648 18.0472ZM127.199 20.7618C128.143 20.7618 128.908 19.9884 128.908 19.0343C128.908 18.0803 128.143 17.3069 127.199 17.3069C126.254 17.3069 125.489 18.0803 125.489 19.0343C125.489 19.9884 126.254 20.7618 127.199 20.7618ZM134.358 9.09668L133.773 7.5L133.188 9.09668L131.608 9.6875L133.188 10.2783L133.773 11.875L134.358 10.2783L135.938 9.6875L134.358 9.09668ZM140.543 39.7217L139.959 38.125L139.374 39.7217L137.794 40.3125L139.374 40.9033L139.959 42.5L140.543 40.9033L142.124 40.3125L140.543 39.7217ZM136.214 49.0967L135.629 47.5L135.044 49.0967L133.464 49.6875L135.044 50.2783L135.629 51.875L136.214 50.2783L137.794 49.6875L136.214 49.0967Z" fill="#F4F4F4"/>
<path d="M165.141 7.19882L165.938 9.375L166.409 8.09013C165.995 7.78182 165.572 7.48457 165.141 7.19882Z" fill="#FFDE6A"/>
<path fill-rule="evenodd" clip-rule="evenodd" d="M165.938 0L167.191 3.42145L170.577 4.6875L167.191 5.95355L166.409 8.09013C165.995 7.78182 165.572 7.48457 165.141 7.19882L164.685 5.95355L161.299 4.6875L164.685 3.42145L165.938 0Z" fill="#FFDE6A"/>
<path d="M133.773 7.5L134.358 9.09668L135.938 9.6875L134.358 10.2783L133.773 11.875L133.188 10.2783L131.608 9.6875L133.188 9.09668L133.773 7.5Z" fill="#FFDE6A"/>
<path d="M170.887 51.875L171.304 53.0155L172.433 53.4375L171.304 53.8595L170.887 55L170.469 53.8595L169.34 53.4375L170.469 53.0155L170.887 51.875Z" fill="#FFDE6A"/>
<path d="M127.604 53.1649L127.938 54.0773L128.841 54.4149L127.938 54.7525L127.604 55.6649L127.269 54.7525L126.366 54.4149L127.269 54.0773L127.604 53.1649Z" fill="#FFDE6A"/>
<path d="M29.747 0.258174L36.4655 7.66325L46.0358 4.93616L47.7243 14.8347L57.235 17.7669L53.3575 27.0162L59.789 34.6768L51.5765 40.3403L52.8868 50.2971L42.9468 50.5766L38.7199 59.6683L30.2082 54.4751L21.7861 59.8153L17.4052 50.7982L7.46187 50.6913L8.6026 40.7132L0.294978 35.1932L6.5952 27.4221L2.56088 18.2415L12.0203 15.1446L13.5402 5.2182L23.1555 7.77877L29.747 0.258174Z" fill="#FFC736"/>
<path d="M48.7383 30.6983C48.6398 41.3344 40.0241 49.8761 29.4944 49.7766C18.9647 49.6772 10.5085 40.9743 10.6069 30.3382C10.7053 19.7021 19.3211 11.1604 29.8508 11.2599C40.3805 11.3593 48.8367 20.0622 48.7383 30.6983Z" fill="#E86A23"/>
<path fill-rule="evenodd" clip-rule="evenodd" d="M29.5363 2.96069C29.8932 2.96069 30.1826 3.25299 30.1826 3.61355V8.50996C30.1826 8.87053 29.8932 9.16282 29.5363 9.16282C29.1793 9.16282 28.89 8.87053 28.89 8.50996V3.61355C28.89 3.25299 29.1793 2.96069 29.5363 2.96069Z" fill="#FFE5A1"/>
<path fill-rule="evenodd" clip-rule="evenodd" d="M44.1245 7.37145C44.4246 7.56662 44.5113 7.9706 44.3181 8.27378L41.6942 12.3909C41.501 12.694 41.1011 12.7816 40.8009 12.5864C40.5008 12.3913 40.4141 11.9873 40.6073 11.6841L43.2312 7.56701C43.4244 7.26384 43.8244 7.17628 44.1245 7.37145Z" fill="#FFE5A1"/>
<path fill-rule="evenodd" clip-rule="evenodd" d="M14.9043 8.05332C15.2011 7.853 15.6024 7.93365 15.8007 8.23345L18.4938 12.3047C18.6921 12.6045 18.6122 13.0099 18.3154 13.2102C18.0186 13.4105 17.6173 13.3299 17.419 13.0301L14.7259 8.95885C14.5276 8.65905 14.6075 8.25363 14.9043 8.05332Z" fill="#FFE5A1"/>
<path fill-rule="evenodd" clip-rule="evenodd" d="M4.40534 18.9756C4.57293 18.6572 4.96428 18.5364 5.27945 18.7057L9.55941 21.0045C9.87458 21.1738 9.99422 21.5691 9.82663 21.8874C9.65904 22.2058 9.26769 22.3266 8.95252 22.1573L4.67256 19.8585C4.35739 19.6892 4.23775 19.2939 4.40534 18.9756Z" fill="#FFE5A1"/>
<path fill-rule="evenodd" clip-rule="evenodd" d="M3.26225 34.1098C3.18994 33.7567 3.4147 33.4113 3.76425 33.3383L8.51118 32.3464C8.86073 32.2734 9.20272 32.5004 9.27503 32.8535C9.34733 33.2066 9.12258 33.552 8.77303 33.6251L4.0261 34.6169C3.67654 34.6899 3.33456 34.4629 3.26225 34.1098Z" fill="#FFE5A1"/>
<path fill-rule="evenodd" clip-rule="evenodd" d="M48.969 21.5897C48.8226 21.2609 48.9677 20.8744 49.2932 20.7264L53.7137 18.7172C54.0392 18.5692 54.4219 18.7159 54.5683 19.0447C54.7148 19.3735 54.5697 19.76 54.2442 19.9079L49.8237 21.9172C49.4981 22.0651 49.1155 21.9185 48.969 21.5897Z" fill="#FFE5A1"/>
<path fill-rule="evenodd" clip-rule="evenodd" d="M50.2305 32.8672C50.2988 32.5133 50.6381 32.2823 50.9885 32.3512L55.7465 33.2873C56.0969 33.3562 56.3256 33.699 56.2574 34.0529C56.1891 34.4068 55.8498 34.6379 55.4994 34.5689L50.7414 33.6329C50.391 33.5639 50.1623 33.2212 50.2305 32.8672Z" fill="#FFE5A1"/>
<path fill-rule="evenodd" clip-rule="evenodd" d="M45.8691 44.2969C46.1133 44.0339 46.5223 44.0205 46.7827 44.2671L50.3191 47.6159C50.5795 47.8625 50.5927 48.2757 50.3486 48.5387C50.1045 48.8018 49.6955 48.8151 49.4351 48.5685L45.8986 45.2197C45.6382 44.9731 45.625 44.56 45.8691 44.2969Z" fill="#FFE5A1"/>
<path fill-rule="evenodd" clip-rule="evenodd" d="M9.66774 48.4707C9.42798 48.2036 9.448 47.7907 9.71246 47.5485L13.3037 44.2597C13.5681 44.0176 13.9769 44.0378 14.2166 44.3049C14.4564 44.572 14.4364 44.9849 14.1719 45.2271L10.5807 48.5158C10.3162 48.758 9.90749 48.7378 9.66774 48.4707Z" fill="#FFE5A1"/>
<path fill-rule="evenodd" clip-rule="evenodd" d="M35.7671 50.6628C36.1002 50.5331 36.4742 50.7007 36.6026 51.0372L38.3459 55.606C38.4743 55.9424 38.3084 56.3203 37.9753 56.4499C37.6422 56.5796 37.2681 56.412 37.1398 56.0756L35.3964 51.5068C35.2681 51.1703 35.434 50.7925 35.7671 50.6628Z" fill="#FFE5A1"/>
<path fill-rule="evenodd" clip-rule="evenodd" d="M50.2305 32.8672C50.2988 32.5133 50.6381 32.2823 50.9885 32.3512L55.7465 33.2873C56.0969 33.3562 56.3256 33.699 56.2574 34.0529C56.1891 34.4068 55.8498 34.6379 55.4994 34.5689L50.7414 33.6329C50.391 33.5639 50.1623 33.2212 50.2305 32.8672Z" fill="#FFE5A1"/>
<path fill-rule="evenodd" clip-rule="evenodd" d="M22.2315 56.5621C21.8912 56.4532 21.7028 56.0862 21.8106 55.7425L23.2749 51.0748C23.3827 50.7311 23.746 50.5408 24.0862 50.6497C24.4265 50.7586 24.615 51.1255 24.5071 51.4692L23.0428 56.1369C22.935 56.4806 22.5718 56.671 22.2315 56.5621Z" fill="#FFE5A1"/>
</svg>
