<svg width="199" height="29" viewBox="0 0 199 29" fill="none" xmlns="http://www.w3.org/2000/svg">
<path fill-rule="evenodd" clip-rule="evenodd" d="M13.6697 13.5848C3.56656 10.9275 -2.59298 19.009 1.06263 26.6522C1.81606 28.2275 3.54195 29 5.28716 29H16.3797C16.7863 26.1761 19.6319 24.595 22.8841 24.9903C24.2394 21.7421 29.5242 21.3468 31.7601 24.0021C35.6221 17.5918 46.8016 17.5918 49.1051 23.4093C53.5769 23.014 56.9648 25.3856 56.9648 29H83.4585C84.6715 29 85.8005 28.2262 85.9432 27.0208C86.6201 21.3058 81.0937 18.6494 77.3587 20.7977C76.8385 17.5102 75.7837 16.3886 73.8356 14.2788C69.6941 9.7935 63.0474 8.43784 56.9648 12.2013C56.2935 5.02176 51.8669 1.09749 46.8016 0.200226C43.9743 -0.300605 40.9479 0.141653 38.2645 1.4873C35.5657 2.84071 33.2137 5.10798 31.7601 8.24869C30.2547 6.95385 28.3204 6.30048 26.272 6.17897C21.1297 5.8739 15.2687 8.92074 13.6697 13.5848Z" fill="#F1F1F1"/>
<path d="M22.8841 24.9903C19.6319 24.595 16.7863 26.1761 16.3797 29H56.9648C56.9648 25.3856 53.5769 23.014 49.1051 23.4093C46.8016 17.5918 35.6221 17.5918 31.7601 24.0021C29.5242 21.3468 24.2394 21.7421 22.8841 24.9903Z" fill="#D9D9D9"/>
<path fill-rule="evenodd" clip-rule="evenodd" d="M126.67 13.5848C116.567 10.9275 110.407 19.009 114.063 26.6522C114.816 28.2275 116.542 29 118.287 29H129.38C129.786 26.1761 132.632 24.595 135.884 24.9903C137.239 21.7421 142.524 21.3468 144.76 24.0021C148.622 17.5918 159.802 17.5918 162.105 23.4093C166.577 23.014 169.965 25.3856 169.965 29H196.458C197.671 29 198.8 28.2262 198.943 27.0208C199.62 21.3058 194.094 18.6494 190.359 20.7977C189.839 17.5102 188.784 16.3886 186.836 14.2788C182.694 9.7935 176.047 8.43784 169.965 12.2013C169.293 5.02176 164.867 1.09749 159.802 0.200226C156.974 -0.300605 153.948 0.141653 151.265 1.4873C148.566 2.84071 146.214 5.10798 144.76 8.24869C143.255 6.95385 141.32 6.30048 139.272 6.17897C134.13 5.8739 128.269 8.92074 126.67 13.5848Z" fill="#F1F1F1"/>
<path d="M135.884 24.9903C132.632 24.595 129.786 26.1761 129.38 29H169.965C169.965 25.3856 166.577 23.014 162.105 23.4093C159.802 17.5918 148.622 17.5918 144.76 24.0021C142.524 21.3468 137.239 21.7421 135.884 24.9903Z" fill="#D9D9D9"/>
</svg>
