<svg width="266" height="105" viewBox="0 0 266 105" fill="none" xmlns="http://www.w3.org/2000/svg">
<path d="M196.714 63.6609C196.714 65.7053 195.021 67.3627 192.934 67.3627C190.846 67.3627 189.154 65.7053 189.154 63.6609C189.154 61.6165 190.846 59.9592 192.934 59.9592C195.021 59.9592 196.714 61.6165 196.714 63.6609Z" fill="#C1C1C1"/>
<path d="M188.398 58.1084C188.398 59.1306 187.552 59.9592 186.508 59.9592C185.464 59.9592 184.618 59.1306 184.618 58.1084C184.618 57.0862 185.464 56.2575 186.508 56.2575C187.552 56.2575 188.398 57.0862 188.398 58.1084Z" fill="#C1C1C1"/>
<path d="M204.273 68.72C204.273 69.4696 203.653 70.0773 202.887 70.0773C202.122 70.0773 201.501 69.4696 201.501 68.72C201.501 67.9703 202.122 67.3627 202.887 67.3627C203.653 67.3627 204.273 67.9703 204.273 68.72Z" fill="#C1C1C1"/>
<path d="M180.838 41.4506C180.838 44.3128 178.469 46.633 175.546 46.633C172.624 46.633 170.255 44.3128 170.255 41.4506C170.255 38.5885 172.624 36.2682 175.546 36.2682C178.469 36.2682 180.838 38.5885 180.838 41.4506Z" fill="#C1C1C1"/>
<path d="M185.374 38.4893C185.374 39.7159 184.359 40.7103 183.106 40.7103C181.854 40.7103 180.838 39.7159 180.838 38.4893C180.838 37.2626 181.854 36.2682 183.106 36.2682C184.359 36.2682 185.374 37.2626 185.374 38.4893Z" fill="#C1C1C1"/>
<path d="M170.255 35.0343C170.255 35.9884 169.465 36.7618 168.491 36.7618C167.517 36.7618 166.727 35.9884 166.727 35.0343C166.727 34.0803 167.517 33.3069 168.491 33.3069C169.465 33.3069 170.255 34.0803 170.255 35.0343Z" fill="#C1C1C1"/>
<path d="M176.806 33.4303C176.806 33.771 176.524 34.0472 176.176 34.0472C175.829 34.0472 175.546 33.771 175.546 33.4303C175.546 33.0895 175.829 32.8133 176.176 32.8133C176.524 32.8133 176.806 33.0895 176.806 33.4303Z" fill="#C1C1C1"/>
<path d="M180.838 70.0773C180.838 70.7587 180.274 71.3112 179.578 71.3112C178.882 71.3112 178.318 70.7587 178.318 70.0773C178.318 69.3958 178.882 68.8433 179.578 68.8433C180.274 68.8433 180.838 69.3958 180.838 70.0773Z" fill="#C1C1C1"/>
<path d="M166.727 51.9388C166.727 52.5522 166.219 53.0494 165.593 53.0494C164.967 53.0494 164.459 52.5522 164.459 51.9388C164.459 51.3255 164.967 50.8283 165.593 50.8283C166.219 50.8283 166.727 51.3255 166.727 51.9388Z" fill="#C1C1C1"/>
<path d="M199.738 55.5172C199.738 55.926 199.399 56.2575 198.982 56.2575C198.564 56.2575 198.226 55.926 198.226 55.5172C198.226 55.1083 198.564 54.7768 198.982 54.7768C199.399 54.7768 199.738 55.1083 199.738 55.5172Z" fill="#C1C1C1"/>
<path d="M210.573 64.2779C210.573 64.6186 210.291 64.8948 209.943 64.8948C209.595 64.8948 209.313 64.6186 209.313 64.2779C209.313 63.9372 209.595 63.6609 209.943 63.6609C210.291 63.6609 210.573 63.9372 210.573 64.2779Z" fill="#C1C1C1"/>
<path d="M192.934 23.8058C192.934 24.828 192.088 25.6567 191.044 25.6567C190 25.6567 189.154 24.828 189.154 23.8058C189.154 22.7836 190 21.9549 191.044 21.9549C192.088 21.9549 192.934 22.7836 192.934 23.8058Z" fill="#C1C1C1"/>
<path d="M196.714 27.7543C196.714 28.2313 196.319 28.618 195.832 28.618C195.345 28.618 194.95 28.2313 194.95 27.7543C194.95 27.2773 195.345 26.8906 195.832 26.8906C196.319 26.8906 196.714 27.2773 196.714 27.7543Z" fill="#C1C1C1"/>
<path d="M205.533 33.4303C205.533 34.9976 204.236 36.2682 202.635 36.2682C201.035 36.2682 199.738 34.9976 199.738 33.4303C199.738 31.8629 201.035 30.5923 202.635 30.5923C204.236 30.5923 205.533 31.8629 205.533 33.4303Z" fill="#C1C1C1"/>
<path d="M208.053 38.9828C208.053 39.6643 207.489 40.2167 206.793 40.2167C206.097 40.2167 205.533 39.6643 205.533 38.9828C205.533 38.3014 206.097 37.7489 206.793 37.7489C207.489 37.7489 208.053 38.3014 208.053 38.9828Z" fill="#C1C1C1"/>
<path d="M202.005 28.8648C202.005 29.0011 201.753 29.1116 201.753 29.1116C201.753 29.1116 201.501 29.0011 201.501 28.8648C201.501 28.7285 201.614 28.618 201.753 28.618C201.893 28.618 202.005 28.7285 202.005 28.8648Z" fill="#C1C1C1"/>
<path d="M211.329 32.8133C211.329 33.3585 210.878 33.8004 210.321 33.8004C209.764 33.8004 209.313 33.3585 209.313 32.8133C209.313 32.2681 209.764 31.8262 210.321 31.8262C210.878 31.8262 211.329 32.2681 211.329 32.8133Z" fill="#C1C1C1"/>
<path d="M219.393 43.7951C219.393 45.0899 218.321 46.1395 216.999 46.1395C215.677 46.1395 214.605 45.0899 214.605 43.7951C214.605 42.5003 215.677 41.4506 216.999 41.4506C218.321 41.4506 219.393 42.5003 219.393 43.7951Z" fill="#C1C1C1"/>
<path d="M164.425 19.125L165.373 21.6341L167.935 22.5625L165.373 23.4909L164.425 26L163.477 23.4909L160.915 22.5625L163.477 21.6341L164.425 19.125Z" fill="#FFDE6A"/>
<path d="M168.564 59.1341L167.616 56.625L166.668 59.1341L165.083 59.7083C165.227 60.0012 165.376 60.2913 165.53 60.5786L166.668 60.9909L167.616 63.5L168.564 60.9909L171.126 60.0625L168.564 59.1341Z" fill="#FFDE6A"/>
<path d="M165.53 60.5786C165.376 60.2913 165.227 60.0012 165.083 59.7083L164.106 60.0625L165.53 60.5786Z" fill="#FFDE6A"/>
<path d="M177.189 63.5L177.792 65.0967L179.422 65.6875L177.792 66.2783L177.189 67.875L176.585 66.2783L174.955 65.6875L176.585 65.0967L177.189 63.5Z" fill="#FFDE6A"/>
<path d="M181.656 54.125L182.259 55.7217L183.89 56.3125L182.259 56.9033L181.656 58.5L181.053 56.9033L179.422 56.3125L181.053 55.7217L181.656 54.125Z" fill="#FFDE6A"/>
<path d="M159.957 24.125L160.216 24.8093L160.915 25.0625L160.216 25.3157L159.957 26L159.699 25.3157L159 25.0625L159.699 24.8093L159.957 24.125Z" fill="#FFDE6A"/>
<path d="M165.063 27.25L165.321 27.9343L166.02 28.1875L165.321 28.4407L165.063 29.125L164.804 28.4407L164.106 28.1875L164.804 27.9343L165.063 27.25Z" fill="#FFDE6A"/>
<path d="M173.998 16.625L174.256 17.3093L174.955 17.5625L174.256 17.8157L173.998 18.5L173.739 17.8157L173.04 17.5625L173.739 17.3093L173.998 16.625Z" fill="#FFDE6A"/>
<path d="M201.44 17.25L201.698 17.9343L202.397 18.1875L201.698 18.4407L201.44 19.125L201.181 18.4407L200.483 18.1875L201.181 17.9343L201.44 17.25Z" fill="#FFDE6A"/>
<path d="M215.273 27.7655L214.842 26.625L214.411 27.7655L213.456 28.1117C213.524 28.1864 213.591 28.2615 213.659 28.3368L214.411 28.6095L214.842 29.75L215.273 28.6095L216.437 28.1875L215.273 27.7655Z" fill="#FFDE6A"/>
<path d="M213.456 28.1117L213.246 28.1875L213.659 28.3368C213.591 28.2615 213.524 28.1864 213.456 28.1117Z" fill="#FFDE6A"/>
<path d="M213.566 67.875L213.996 69.0155L215.161 69.4375L213.996 69.8595L213.566 71L213.135 69.8595L211.97 69.4375L213.135 69.0155L213.566 67.875Z" fill="#FFDE6A"/>
<path fill-rule="evenodd" clip-rule="evenodd" d="M191.548 76C207.761 76 220.905 63.1282 220.905 47.25C220.905 40.0083 218.171 33.3919 213.659 28.3368L213.246 28.1875L213.456 28.1117C212.111 26.6372 210.614 25.2992 208.989 24.1216L208.945 24.0901L208.46 25.375L207.638 23.1988C203.017 20.228 197.488 18.5 191.548 18.5C175.334 18.5 162.191 31.3718 162.191 47.25C162.191 51.7134 163.23 55.9392 165.083 59.7083L166.668 59.1341L167.616 56.625L168.564 59.1341L171.126 60.0625L168.564 60.9909L167.616 63.5L166.668 60.9909L165.53 60.5786C170.436 69.7457 180.246 76 191.548 76ZM175.546 46.633C178.469 46.633 180.838 44.3128 180.838 41.4506C180.838 38.5885 178.469 36.2682 175.546 36.2682C172.624 36.2682 170.255 38.5885 170.255 41.4506C170.255 44.3128 172.624 46.633 175.546 46.633ZM183.106 40.7103C184.359 40.7103 185.374 39.7159 185.374 38.4893C185.374 37.2626 184.359 36.2682 183.106 36.2682C181.854 36.2682 180.838 37.2626 180.838 38.4893C180.838 39.7159 181.854 40.7103 183.106 40.7103ZM202.635 36.2682C204.236 36.2682 205.533 34.9976 205.533 33.4303C205.533 31.8629 204.236 30.5923 202.635 30.5923C201.035 30.5923 199.738 31.8629 199.738 33.4303C199.738 34.9976 201.035 36.2682 202.635 36.2682ZM195.832 28.618C196.319 28.618 196.714 28.2313 196.714 27.7543C196.714 27.2773 196.319 26.8906 195.832 26.8906C195.345 26.8906 194.95 27.2773 194.95 27.7543C194.95 28.2313 195.345 28.618 195.832 28.618ZM191.044 25.6567C192.088 25.6567 192.934 24.828 192.934 23.8058C192.934 22.7836 192.088 21.9549 191.044 21.9549C190 21.9549 189.154 22.7836 189.154 23.8058C189.154 24.828 190 25.6567 191.044 25.6567ZM210.321 33.8004C210.878 33.8004 211.329 33.3585 211.329 32.8133C211.329 32.2681 210.878 31.8262 210.321 31.8262C209.764 31.8262 209.313 32.2681 209.313 32.8133C209.313 33.3585 209.764 33.8004 210.321 33.8004ZM201.753 29.1116C201.753 29.1116 202.005 29.0011 202.005 28.8648C202.005 28.7285 201.893 28.618 201.753 28.618C201.614 28.618 201.501 28.7285 201.501 28.8648C201.501 29.0011 201.753 29.1116 201.753 29.1116ZM206.793 40.2167C207.489 40.2167 208.053 39.6643 208.053 38.9828C208.053 38.3014 207.489 37.7489 206.793 37.7489C206.097 37.7489 205.533 38.3014 205.533 38.9828C205.533 39.6643 206.097 40.2167 206.793 40.2167ZM216.999 46.1395C218.321 46.1395 219.393 45.0899 219.393 43.7951C219.393 42.5003 218.321 41.4506 216.999 41.4506C215.677 41.4506 214.605 42.5003 214.605 43.7951C214.605 45.0899 215.677 46.1395 216.999 46.1395ZM192.934 67.3627C195.021 67.3627 196.714 65.7053 196.714 63.6609C196.714 61.6165 195.021 59.9592 192.934 59.9592C190.846 59.9592 189.154 61.6165 189.154 63.6609C189.154 65.7053 190.846 67.3627 192.934 67.3627ZM198.982 56.2575C199.399 56.2575 199.738 55.926 199.738 55.5172C199.738 55.1083 199.399 54.7768 198.982 54.7768C198.564 54.7768 198.226 55.1083 198.226 55.5172C198.226 55.926 198.564 56.2575 198.982 56.2575ZM186.508 59.9592C187.552 59.9592 188.398 59.1306 188.398 58.1084C188.398 57.0862 187.552 56.2575 186.508 56.2575C185.464 56.2575 184.618 57.0862 184.618 58.1084C184.618 59.1306 185.464 59.9592 186.508 59.9592ZM209.943 64.8948C210.291 64.8948 210.573 64.6186 210.573 64.2779C210.573 63.9372 210.291 63.6609 209.943 63.6609C209.595 63.6609 209.313 63.9372 209.313 64.2779C209.313 64.6186 209.595 64.8948 209.943 64.8948ZM202.887 70.0773C203.653 70.0773 204.273 69.4696 204.273 68.72C204.273 67.9703 203.653 67.3627 202.887 67.3627C202.122 67.3627 201.501 67.9703 201.501 68.72C201.501 69.4696 202.122 70.0773 202.887 70.0773ZM179.578 71.3112C180.274 71.3112 180.838 70.7587 180.838 70.0773C180.838 69.3958 180.274 68.8433 179.578 68.8433C178.882 68.8433 178.318 69.3958 178.318 70.0773C178.318 70.7587 178.882 71.3112 179.578 71.3112ZM165.593 53.0494C166.219 53.0494 166.727 52.5522 166.727 51.9388C166.727 51.3255 166.219 50.8283 165.593 50.8283C164.967 50.8283 164.459 51.3255 164.459 51.9388C164.459 52.5522 164.967 53.0494 165.593 53.0494ZM176.176 34.0472C176.524 34.0472 176.806 33.771 176.806 33.4303C176.806 33.0895 176.524 32.8133 176.176 32.8133C175.829 32.8133 175.546 33.0895 175.546 33.4303C175.546 33.771 175.829 34.0472 176.176 34.0472ZM168.491 36.7618C169.465 36.7618 170.255 35.9884 170.255 35.0343C170.255 34.0803 169.465 33.3069 168.491 33.3069C167.517 33.3069 166.727 34.0803 166.727 35.0343C166.727 35.9884 167.517 36.7618 168.491 36.7618ZM175.877 25.0967L175.274 23.5L174.671 25.0967L173.04 25.6875L174.671 26.2783L175.274 27.875L175.877 26.2783L177.508 25.6875L175.877 25.0967ZM182.259 55.7217L181.656 54.125L181.053 55.7217L179.422 56.3125L181.053 56.9033L181.656 58.5L182.259 56.9033L183.89 56.3125L182.259 55.7217ZM177.792 65.0967L177.189 63.5L176.585 65.0967L174.955 65.6875L176.585 66.2783L177.189 67.875L177.792 66.2783L179.422 65.6875L177.792 65.0967Z" fill="#E0E0E0"/>
<path d="M207.638 23.1988L208.46 25.375L208.945 24.0901C208.518 23.7818 208.082 23.4846 207.638 23.1988Z" fill="#FFDE6A"/>
<path fill-rule="evenodd" clip-rule="evenodd" d="M208.46 16L209.753 19.4214L213.246 20.6875L209.753 21.9536L208.945 24.0901C208.518 23.7818 208.082 23.4846 207.638 23.1988L207.167 21.9536L203.674 20.6875L207.167 19.4214L208.46 16Z" fill="#FFDE6A"/>
<path d="M175.274 23.5L175.877 25.0967L177.508 25.6875L175.877 26.2783L175.274 27.875L174.671 26.2783L173.04 25.6875L174.671 25.0967L175.274 23.5Z" fill="#FFDE6A"/>
<path d="M213.566 67.875L213.996 69.0155L215.161 69.4375L213.996 69.8595L213.566 71L213.135 69.8595L211.97 69.4375L213.135 69.0155L213.566 67.875Z" fill="#FFDE6A"/>
<path d="M168.908 69.1649L169.253 70.0773L170.185 70.4149L169.253 70.7525L168.908 71.6649L168.564 70.7525L167.632 70.4149L168.564 70.0773L168.908 69.1649Z" fill="#FFDE6A"/>
<path d="M71.747 14.2582L78.4655 21.6632L88.0358 18.9362L89.7243 28.8347L99.235 31.7669L95.3575 41.0162L101.789 48.6768L93.5765 54.3403L94.8868 64.2971L84.9468 64.5766L80.7199 73.6683L72.2082 68.4751L63.7861 73.8153L59.4052 64.7982L49.4619 64.6913L50.6026 54.7132L42.295 49.1932L48.5952 41.4221L44.5609 32.2415L54.0203 29.1446L55.5402 19.2182L65.1555 21.7788L71.747 14.2582Z" fill="#FFC736"/>
<path d="M90.7383 44.6983C90.6398 55.3344 82.0241 63.8761 71.4944 63.7766C60.9647 63.6772 52.5085 54.9743 52.6069 44.3382C52.7053 33.7021 61.3211 25.1604 71.8508 25.2599C82.3805 25.3593 90.8367 34.0622 90.7383 44.6983Z" fill="#E86A23"/>
<path fill-rule="evenodd" clip-rule="evenodd" d="M71.5363 16.9607C71.8932 16.9607 72.1826 17.253 72.1826 17.6135V22.51C72.1826 22.8705 71.8932 23.1628 71.5363 23.1628C71.1793 23.1628 70.89 22.8705 70.89 22.51V17.6135C70.89 17.253 71.1793 16.9607 71.5363 16.9607Z" fill="#FFE5A1"/>
<path fill-rule="evenodd" clip-rule="evenodd" d="M86.1245 21.3714C86.4246 21.5666 86.5113 21.9706 86.3181 22.2738L83.6942 26.3909C83.501 26.694 83.1011 26.7816 82.8009 26.5864C82.5008 26.3913 82.4141 25.9873 82.6073 25.6841L85.2312 21.567C85.4244 21.2638 85.8244 21.1763 86.1245 21.3714Z" fill="#FFE5A1"/>
<path fill-rule="evenodd" clip-rule="evenodd" d="M56.9043 22.0533C57.2011 21.853 57.6024 21.9336 57.8007 22.2334L60.4938 26.3047C60.6921 26.6045 60.6122 27.0099 60.3154 27.2102C60.0186 27.4105 59.6173 27.3299 59.419 27.0301L56.7259 22.9588C56.5276 22.6591 56.6075 22.2536 56.9043 22.0533Z" fill="#FFE5A1"/>
<path fill-rule="evenodd" clip-rule="evenodd" d="M46.4053 32.9756C46.5729 32.6572 46.9643 32.5364 47.2794 32.7057L51.5594 35.0045C51.8746 35.1738 51.9942 35.5691 51.8266 35.8874C51.659 36.2058 51.2677 36.3266 50.9525 36.1573L46.6726 33.8585C46.3574 33.6892 46.2378 33.2939 46.4053 32.9756Z" fill="#FFE5A1"/>
<path fill-rule="evenodd" clip-rule="evenodd" d="M45.2623 48.1098C45.1899 47.7567 45.4147 47.4113 45.7643 47.3383L50.5112 46.3464C50.8607 46.2734 51.2027 46.5004 51.275 46.8535C51.3473 47.2066 51.1226 47.552 50.773 47.6251L46.0261 48.6169C45.6765 48.6899 45.3346 48.4629 45.2623 48.1098Z" fill="#FFE5A1"/>
<path fill-rule="evenodd" clip-rule="evenodd" d="M90.969 35.5897C90.8226 35.2609 90.9677 34.8744 91.2932 34.7264L95.7137 32.7172C96.0392 32.5692 96.4219 32.7159 96.5683 33.0447C96.7148 33.3735 96.5697 33.76 96.2442 33.9079L91.8237 35.9172C91.4981 36.0651 91.1155 35.9185 90.969 35.5897Z" fill="#FFE5A1"/>
<path fill-rule="evenodd" clip-rule="evenodd" d="M92.2305 46.8672C92.2988 46.5133 92.6381 46.2823 92.9885 46.3512L97.7465 47.2873C98.0969 47.3562 98.3256 47.699 98.2574 48.0529C98.1891 48.4068 97.8498 48.6379 97.4994 48.5689L92.7414 47.6329C92.391 47.5639 92.1623 47.2212 92.2305 46.8672Z" fill="#FFE5A1"/>
<path fill-rule="evenodd" clip-rule="evenodd" d="M87.8691 58.2969C88.1133 58.0339 88.5223 58.0205 88.7827 58.2671L92.3191 61.6159C92.5795 61.8625 92.5927 62.2757 92.3486 62.5387C92.1045 62.8018 91.6955 62.8151 91.4351 62.5685L87.8986 59.2197C87.6382 58.9731 87.625 58.56 87.8691 58.2969Z" fill="#FFE5A1"/>
<path fill-rule="evenodd" clip-rule="evenodd" d="M51.6677 62.4707C51.428 62.2036 51.448 61.7907 51.7125 61.5485L55.3037 58.2597C55.5681 58.0176 55.9769 58.0378 56.2166 58.3049C56.4564 58.572 56.4364 58.9849 56.1719 59.2271L52.5807 62.5158C52.3162 62.758 51.9075 62.7378 51.6677 62.4707Z" fill="#FFE5A1"/>
<path fill-rule="evenodd" clip-rule="evenodd" d="M77.7671 64.6628C78.1002 64.5331 78.4742 64.7007 78.6026 65.0372L80.3459 69.606C80.4743 69.9424 80.3084 70.3203 79.9753 70.4499C79.6422 70.5796 79.2681 70.412 79.1398 70.0756L77.3964 65.5068C77.2681 65.1703 77.434 64.7925 77.7671 64.6628Z" fill="#FFE5A1"/>
<path fill-rule="evenodd" clip-rule="evenodd" d="M92.2305 46.8672C92.2988 46.5133 92.6381 46.2823 92.9885 46.3512L97.7465 47.2873C98.0969 47.3562 98.3256 47.699 98.2574 48.0529C98.1891 48.4068 97.8498 48.6379 97.4994 48.5689L92.7414 47.6329C92.391 47.5639 92.1623 47.2212 92.2305 46.8672Z" fill="#FFE5A1"/>
<path fill-rule="evenodd" clip-rule="evenodd" d="M64.2315 70.5621C63.8912 70.4532 63.7028 70.0862 63.8106 69.7425L65.2749 65.0748C65.3827 64.7311 65.746 64.5408 66.0862 64.6497C66.4265 64.7586 66.615 65.1255 66.5071 65.4692L65.0428 70.1369C64.935 70.4806 64.5718 70.671 64.2315 70.5621Z" fill="#FFE5A1"/>
<g filter="url(#filter0_f_8_566)">
<path d="M24 22.5L67 16L116 19.5L111.5 31.5L130 37.5L118 53.5L130 62L111.5 70L118.1 74.1029C121.518 76.2272 120.012 81.5 115.989 81.5H103L70.5 88.5L40 83.5L35.1829 83.1789C27.0146 82.6343 24.1885 72.041 31 67.5L16.5 58L27.5 48.5L19 42.5L36.5 34.5L24 22.5Z" fill="url(#paint0_linear_8_566)"/>
</g>
<g filter="url(#filter1_f_8_566)">
<path d="M144 22.5L187 16L236 19.5L231.5 31.5L250 37.5L238 53.5L250 62L231.5 70L238.1 74.1029C241.518 76.2272 240.012 81.5 235.989 81.5H223L190.5 88.5L160 83.5L155.183 83.1789C147.015 82.6343 144.188 72.041 151 67.5L136.5 58L147.5 48.5L139 42.5L156.5 34.5L144 22.5Z" fill="url(#paint1_linear_8_566)"/>
</g>
<defs>
<filter id="filter0_f_8_566" x="0.5" y="0" width="145.5" height="104.5" filterUnits="userSpaceOnUse" color-interpolation-filters="sRGB">
<feFlood flood-opacity="0" result="BackgroundImageFix"/>
<feBlend mode="normal" in="SourceGraphic" in2="BackgroundImageFix" result="shape"/>
<feGaussianBlur stdDeviation="8" result="effect1_foregroundBlur_8_566"/>
</filter>
<filter id="filter1_f_8_566" x="120.5" y="0" width="145.5" height="104.5" filterUnits="userSpaceOnUse" color-interpolation-filters="sRGB">
<feFlood flood-opacity="0" result="BackgroundImageFix"/>
<feBlend mode="normal" in="SourceGraphic" in2="BackgroundImageFix" result="shape"/>
<feGaussianBlur stdDeviation="8" result="effect1_foregroundBlur_8_566"/>
</filter>
<linearGradient id="paint0_linear_8_566" x1="70" y1="10.5" x2="70" y2="43" gradientUnits="userSpaceOnUse">
<stop stop-color="#D9D9D9" stop-opacity="0"/>
<stop offset="1" stop-color="#D9D9D9" stop-opacity="0.56"/>
</linearGradient>
<linearGradient id="paint1_linear_8_566" x1="190" y1="10.5" x2="190" y2="43" gradientUnits="userSpaceOnUse">
<stop stop-color="#D9D9D9" stop-opacity="0"/>
<stop offset="1" stop-color="#D9D9D9" stop-opacity="0.56"/>
</linearGradient>
</defs>
</svg>
