<svg width="351" height="204" viewBox="0 0 351 204" fill="none" xmlns="http://www.w3.org/2000/svg">
<path d="M155.714 58.6609C155.714 60.7053 154.021 62.3627 151.934 62.3627C149.846 62.3627 148.154 60.7053 148.154 58.6609C148.154 56.6165 149.846 54.9592 151.934 54.9592C154.021 54.9592 155.714 56.6165 155.714 58.6609Z" fill="#DBDBDB"/>
<path d="M147.398 53.1084C147.398 54.1306 146.552 54.9592 145.508 54.9592C144.464 54.9592 143.618 54.1306 143.618 53.1084C143.618 52.0862 144.464 51.2575 145.508 51.2575C146.552 51.2575 147.398 52.0862 147.398 53.1084Z" fill="#DBDBDB"/>
<path d="M163.273 63.72C163.273 64.4696 162.653 65.0773 161.887 65.0773C161.122 65.0773 160.501 64.4696 160.501 63.72C160.501 62.9703 161.122 62.3627 161.887 62.3627C162.653 62.3627 163.273 62.9703 163.273 63.72Z" fill="#DBDBDB"/>
<path d="M139.838 36.4506C139.838 39.3128 137.469 41.633 134.546 41.633C131.624 41.633 129.255 39.3128 129.255 36.4506C129.255 33.5885 131.624 31.2682 134.546 31.2682C137.469 31.2682 139.838 33.5885 139.838 36.4506Z" fill="#C1C1C1"/>
<path d="M144.374 33.4893C144.374 34.7159 143.359 35.7103 142.106 35.7103C140.854 35.7103 139.838 34.7159 139.838 33.4893C139.838 32.2626 140.854 31.2682 142.106 31.2682C143.359 31.2682 144.374 32.2626 144.374 33.4893Z" fill="#C1C1C1"/>
<path d="M129.255 30.0343C129.255 30.9884 128.465 31.7618 127.491 31.7618C126.517 31.7618 125.727 30.9884 125.727 30.0343C125.727 29.0803 126.517 28.3069 127.491 28.3069C128.465 28.3069 129.255 29.0803 129.255 30.0343Z" fill="#C1C1C1"/>
<path d="M135.806 28.4303C135.806 28.771 135.524 29.0472 135.176 29.0472C134.829 29.0472 134.546 28.771 134.546 28.4303C134.546 28.0895 134.829 27.8133 135.176 27.8133C135.524 27.8133 135.806 28.0895 135.806 28.4303Z" fill="#C1C1C1"/>
<path d="M139.838 65.0773C139.838 65.7587 139.274 66.3112 138.578 66.3112C137.882 66.3112 137.318 65.7587 137.318 65.0773C137.318 64.3958 137.882 63.8433 138.578 63.8433C139.274 63.8433 139.838 64.3958 139.838 65.0773Z" fill="#DBDBDB"/>
<path d="M125.727 46.9388C125.727 47.5522 125.219 48.0494 124.593 48.0494C123.967 48.0494 123.459 47.5522 123.459 46.9388C123.459 46.3255 123.967 45.8283 124.593 45.8283C125.219 45.8283 125.727 46.3255 125.727 46.9388Z" fill="#C1C1C1"/>
<path d="M158.738 50.5172C158.738 50.926 158.399 51.2575 157.982 51.2575C157.564 51.2575 157.226 50.926 157.226 50.5172C157.226 50.1083 157.564 49.7768 157.982 49.7768C158.399 49.7768 158.738 50.1083 158.738 50.5172Z" fill="#DBDBDB"/>
<path d="M169.573 59.2779C169.573 59.6186 169.291 59.8948 168.943 59.8948C168.595 59.8948 168.313 59.6186 168.313 59.2779C168.313 58.9372 168.595 58.6609 168.943 58.6609C169.291 58.6609 169.573 58.9372 169.573 59.2779Z" fill="#DBDBDB"/>
<path d="M151.934 18.8058C151.934 19.828 151.088 20.6567 150.044 20.6567C149 20.6567 148.154 19.828 148.154 18.8058C148.154 17.7836 149 16.9549 150.044 16.9549C151.088 16.9549 151.934 17.7836 151.934 18.8058Z" fill="#C1C1C1"/>
<path d="M155.714 22.7543C155.714 23.2313 155.319 23.618 154.832 23.618C154.345 23.618 153.95 23.2313 153.95 22.7543C153.95 22.2773 154.345 21.8906 154.832 21.8906C155.319 21.8906 155.714 22.2773 155.714 22.7543Z" fill="#C1C1C1"/>
<path d="M164.533 28.4303C164.533 29.9976 163.236 31.2682 161.635 31.2682C160.035 31.2682 158.738 29.9976 158.738 28.4303C158.738 26.8629 160.035 25.5923 161.635 25.5923C163.236 25.5923 164.533 26.8629 164.533 28.4303Z" fill="#C1C1C1"/>
<path d="M167.053 33.9828C167.053 34.6643 166.489 35.2167 165.793 35.2167C165.097 35.2167 164.533 34.6643 164.533 33.9828C164.533 33.3014 165.097 32.7489 165.793 32.7489C166.489 32.7489 167.053 33.3014 167.053 33.9828Z" fill="#DBDBDB"/>
<path d="M161.005 23.8648C161.005 24.0011 160.753 24.1116 160.753 24.1116C160.753 24.1116 160.501 24.0011 160.501 23.8648C160.501 23.7285 160.614 23.618 160.753 23.618C160.893 23.618 161.005 23.7285 161.005 23.8648Z" fill="#C1C1C1"/>
<path d="M170.329 27.8133C170.329 28.3585 169.878 28.8004 169.321 28.8004C168.764 28.8004 168.313 28.3585 168.313 27.8133C168.313 27.2681 168.764 26.8262 169.321 26.8262C169.878 26.8262 170.329 27.2681 170.329 27.8133Z" fill="#C1C1C1"/>
<path d="M178.393 38.7951C178.393 40.0899 177.321 41.1395 175.999 41.1395C174.677 41.1395 173.605 40.0899 173.605 38.7951C173.605 37.5003 174.677 36.4506 175.999 36.4506C177.321 36.4506 178.393 37.5003 178.393 38.7951Z" fill="#DBDBDB"/>
<path d="M123.425 14.125L124.373 16.6341L126.935 17.5625L124.373 18.4909L123.425 21L122.477 18.4909L119.915 17.5625L122.477 16.6341L123.425 14.125Z" fill="#FFDE6A"/>
<path d="M127.564 54.1341L126.616 51.625L125.668 54.1341L124.083 54.7083C124.227 55.0012 124.376 55.2913 124.53 55.5786L125.668 55.9909L126.616 58.5L127.564 55.9909L130.126 55.0625L127.564 54.1341Z" fill="#FFDE6A"/>
<path d="M124.53 55.5786C124.376 55.2913 124.227 55.0012 124.083 54.7083L123.106 55.0625L124.53 55.5786Z" fill="#FFDE6A"/>
<path d="M136.189 58.5L136.792 60.0967L138.422 60.6875L136.792 61.2783L136.189 62.875L135.585 61.2783L133.955 60.6875L135.585 60.0967L136.189 58.5Z" fill="#FFDE6A"/>
<path d="M140.656 49.125L141.259 50.7217L142.89 51.3125L141.259 51.9033L140.656 53.5L140.053 51.9033L138.422 51.3125L140.053 50.7217L140.656 49.125Z" fill="#FFDE6A"/>
<path d="M118.957 19.125L119.216 19.8093L119.915 20.0625L119.216 20.3157L118.957 21L118.699 20.3157L118 20.0625L118.699 19.8093L118.957 19.125Z" fill="#FFDE6A"/>
<path d="M124.063 22.25L124.321 22.9343L125.02 23.1875L124.321 23.4407L124.063 24.125L123.804 23.4407L123.106 23.1875L123.804 22.9343L124.063 22.25Z" fill="#FFDE6A"/>
<path d="M132.998 11.625L133.256 12.3093L133.955 12.5625L133.256 12.8157L132.998 13.5L132.739 12.8157L132.04 12.5625L132.739 12.3093L132.998 11.625Z" fill="#FFDE6A"/>
<path d="M160.44 12.25L160.698 12.9343L161.397 13.1875L160.698 13.4407L160.44 14.125L160.181 13.4407L159.483 13.1875L160.181 12.9343L160.44 12.25Z" fill="#FFDE6A"/>
<path d="M174.273 22.7655L173.842 21.625L173.411 22.7655L172.456 23.1117C172.524 23.1864 172.591 23.2615 172.659 23.3368L173.411 23.6095L173.842 24.75L174.273 23.6095L175.437 23.1875L174.273 22.7655Z" fill="#FFDE6A"/>
<path d="M172.456 23.1117L172.246 23.1875L172.659 23.3368C172.591 23.2615 172.524 23.1864 172.456 23.1117Z" fill="#FFDE6A"/>
<path d="M172.566 62.875L172.996 64.0155L174.161 64.4375L172.996 64.8595L172.566 66L172.135 64.8595L170.97 64.4375L172.135 64.0155L172.566 62.875Z" fill="#FFDE6A"/>
<path fill-rule="evenodd" clip-rule="evenodd" d="M150.548 71C166.761 71 179.905 58.1282 179.905 42.25C179.905 35.0083 177.171 28.3919 172.659 23.3368L172.246 23.1875L172.456 23.1117C171.111 21.6372 169.614 20.2992 167.989 19.1216L167.945 19.0901L167.46 20.375L166.638 18.1988C162.017 15.228 156.488 13.5 150.548 13.5C134.334 13.5 121.191 26.3718 121.191 42.25C121.191 46.7134 122.23 50.9392 124.083 54.7083L125.668 54.1341L126.616 51.625L127.564 54.1341L130.126 55.0625L127.564 55.9909L126.616 58.5L125.668 55.9909L124.53 55.5786C129.436 64.7457 139.246 71 150.548 71ZM134.546 41.633C137.469 41.633 139.838 39.3128 139.838 36.4506C139.838 33.5885 137.469 31.2682 134.546 31.2682C131.624 31.2682 129.255 33.5885 129.255 36.4506C129.255 39.3128 131.624 41.633 134.546 41.633ZM142.106 35.7103C143.359 35.7103 144.374 34.7159 144.374 33.4893C144.374 32.2626 143.359 31.2682 142.106 31.2682C140.854 31.2682 139.838 32.2626 139.838 33.4893C139.838 34.7159 140.854 35.7103 142.106 35.7103ZM161.635 31.2682C163.236 31.2682 164.533 29.9976 164.533 28.4303C164.533 26.8629 163.236 25.5923 161.635 25.5923C160.035 25.5923 158.738 26.8629 158.738 28.4303C158.738 29.9976 160.035 31.2682 161.635 31.2682ZM154.832 23.618C155.319 23.618 155.714 23.2313 155.714 22.7543C155.714 22.2773 155.319 21.8906 154.832 21.8906C154.345 21.8906 153.95 22.2773 153.95 22.7543C153.95 23.2313 154.345 23.618 154.832 23.618ZM150.044 20.6567C151.088 20.6567 151.934 19.828 151.934 18.8058C151.934 17.7836 151.088 16.9549 150.044 16.9549C149 16.9549 148.154 17.7836 148.154 18.8058C148.154 19.828 149 20.6567 150.044 20.6567ZM169.321 28.8004C169.878 28.8004 170.329 28.3585 170.329 27.8133C170.329 27.2681 169.878 26.8262 169.321 26.8262C168.764 26.8262 168.313 27.2681 168.313 27.8133C168.313 28.3585 168.764 28.8004 169.321 28.8004ZM160.753 24.1116C160.753 24.1116 161.005 24.0011 161.005 23.8648C161.005 23.7285 160.893 23.618 160.753 23.618C160.614 23.618 160.501 23.7285 160.501 23.8648C160.501 24.0011 160.753 24.1116 160.753 24.1116ZM165.793 35.2167C166.489 35.2167 167.053 34.6643 167.053 33.9828C167.053 33.3014 166.489 32.7489 165.793 32.7489C165.097 32.7489 164.533 33.3014 164.533 33.9828C164.533 34.6643 165.097 35.2167 165.793 35.2167ZM175.999 41.1395C177.321 41.1395 178.393 40.0899 178.393 38.7951C178.393 37.5003 177.321 36.4506 175.999 36.4506C174.677 36.4506 173.605 37.5003 173.605 38.7951C173.605 40.0899 174.677 41.1395 175.999 41.1395ZM151.934 62.3627C154.021 62.3627 155.714 60.7053 155.714 58.6609C155.714 56.6165 154.021 54.9592 151.934 54.9592C149.846 54.9592 148.154 56.6165 148.154 58.6609C148.154 60.7053 149.846 62.3627 151.934 62.3627ZM157.982 51.2575C158.399 51.2575 158.738 50.926 158.738 50.5172C158.738 50.1083 158.399 49.7768 157.982 49.7768C157.564 49.7768 157.226 50.1083 157.226 50.5172C157.226 50.926 157.564 51.2575 157.982 51.2575ZM145.508 54.9592C146.552 54.9592 147.398 54.1306 147.398 53.1084C147.398 52.0862 146.552 51.2575 145.508 51.2575C144.464 51.2575 143.618 52.0862 143.618 53.1084C143.618 54.1306 144.464 54.9592 145.508 54.9592ZM168.943 59.8948C169.291 59.8948 169.573 59.6186 169.573 59.2779C169.573 58.9372 169.291 58.6609 168.943 58.6609C168.595 58.6609 168.313 58.9372 168.313 59.2779C168.313 59.6186 168.595 59.8948 168.943 59.8948ZM161.887 65.0773C162.653 65.0773 163.273 64.4696 163.273 63.72C163.273 62.9703 162.653 62.3627 161.887 62.3627C161.122 62.3627 160.501 62.9703 160.501 63.72C160.501 64.4696 161.122 65.0773 161.887 65.0773ZM138.578 66.3112C139.274 66.3112 139.838 65.7587 139.838 65.0773C139.838 64.3958 139.274 63.8433 138.578 63.8433C137.882 63.8433 137.318 64.3958 137.318 65.0773C137.318 65.7587 137.882 66.3112 138.578 66.3112ZM124.593 48.0494C125.219 48.0494 125.727 47.5522 125.727 46.9388C125.727 46.3255 125.219 45.8283 124.593 45.8283C123.967 45.8283 123.459 46.3255 123.459 46.9388C123.459 47.5522 123.967 48.0494 124.593 48.0494ZM135.176 29.0472C135.524 29.0472 135.806 28.771 135.806 28.4303C135.806 28.0895 135.524 27.8133 135.176 27.8133C134.829 27.8133 134.546 28.0895 134.546 28.4303C134.546 28.771 134.829 29.0472 135.176 29.0472ZM127.491 31.7618C128.465 31.7618 129.255 30.9884 129.255 30.0343C129.255 29.0803 128.465 28.3069 127.491 28.3069C126.517 28.3069 125.727 29.0803 125.727 30.0343C125.727 30.9884 126.517 31.7618 127.491 31.7618ZM134.877 20.0967L134.274 18.5L133.671 20.0967L132.04 20.6875L133.671 21.2783L134.274 22.875L134.877 21.2783L136.508 20.6875L134.877 20.0967ZM141.259 50.7217L140.656 49.125L140.053 50.7217L138.422 51.3125L140.053 51.9033L140.656 53.5L141.259 51.9033L142.89 51.3125L141.259 50.7217ZM136.792 60.0967L136.189 58.5L135.585 60.0967L133.955 60.6875L135.585 61.2783L136.189 62.875L136.792 61.2783L138.422 60.6875L136.792 60.0967Z" fill="#E0E0E0"/>
<path d="M166.638 18.1988L167.46 20.375L167.945 19.0901C167.518 18.7818 167.082 18.4846 166.638 18.1988Z" fill="#FFDE6A"/>
<path fill-rule="evenodd" clip-rule="evenodd" d="M167.46 11L168.753 14.4214L172.246 15.6875L168.753 16.9536L167.945 19.0901C167.518 18.7818 167.082 18.4846 166.638 18.1988L166.167 16.9536L162.674 15.6875L166.167 14.4214L167.46 11Z" fill="#FFDE6A"/>
<path d="M134.274 18.5L134.877 20.0967L136.508 20.6875L134.877 21.2783L134.274 22.875L133.671 21.2783L132.04 20.6875L133.671 20.0967L134.274 18.5Z" fill="#FFDE6A"/>
<path d="M172.566 62.875L172.996 64.0155L174.161 64.4375L172.996 64.8595L172.566 66L172.135 64.8595L170.97 64.4375L172.135 64.0155L172.566 62.875Z" fill="#FFDE6A"/>
<path d="M127.908 64.1649L128.253 65.0773L129.185 65.4149L128.253 65.7525L127.908 66.6649L127.564 65.7525L126.632 65.4149L127.564 65.0773L127.908 64.1649Z" fill="#FFDE6A"/>
<path d="M29.747 11.2582L36.4655 18.6632L46.0358 15.9362L47.7243 25.8347L57.235 28.7669L53.3575 38.0162L59.789 45.6768L51.5765 51.3403L52.8868 61.2971L42.9468 61.5766L38.7199 70.6683L30.2082 65.4751L21.7861 70.8153L17.4052 61.7982L7.46187 61.6913L8.6026 51.7132L0.294978 46.1932L6.5952 38.4221L2.56088 29.2415L12.0203 26.1446L13.5402 16.2182L23.1555 18.7788L29.747 11.2582Z" fill="#FFC736"/>
<path d="M48.7383 41.6983C48.6398 52.3344 40.0241 60.8761 29.4944 60.7766C18.9647 60.6772 10.5085 51.9743 10.6069 41.3382C10.7053 30.7021 19.3211 22.1604 29.8508 22.2599C40.3805 22.3593 48.8367 31.0622 48.7383 41.6983Z" fill="#E86A23"/>
<path fill-rule="evenodd" clip-rule="evenodd" d="M29.5363 13.9607C29.8932 13.9607 30.1826 14.253 30.1826 14.6135V19.51C30.1826 19.8705 29.8932 20.1628 29.5363 20.1628C29.1793 20.1628 28.89 19.8705 28.89 19.51V14.6135C28.89 14.253 29.1793 13.9607 29.5363 13.9607Z" fill="#FFE5A1"/>
<path fill-rule="evenodd" clip-rule="evenodd" d="M44.1245 18.3714C44.4246 18.5666 44.5113 18.9706 44.3181 19.2738L41.6942 23.3909C41.501 23.694 41.1011 23.7816 40.8009 23.5864C40.5008 23.3913 40.4141 22.9873 40.6073 22.6841L43.2312 18.567C43.4244 18.2638 43.8244 18.1763 44.1245 18.3714Z" fill="#FFE5A1"/>
<path fill-rule="evenodd" clip-rule="evenodd" d="M14.9043 19.0533C15.2011 18.853 15.6024 18.9336 15.8007 19.2334L18.4938 23.3047C18.6921 23.6045 18.6122 24.0099 18.3154 24.2102C18.0186 24.4105 17.6173 24.3299 17.419 24.0301L14.7259 19.9588C14.5276 19.6591 14.6075 19.2536 14.9043 19.0533Z" fill="#FFE5A1"/>
<path fill-rule="evenodd" clip-rule="evenodd" d="M4.40534 29.9756C4.57293 29.6572 4.96428 29.5364 5.27945 29.7057L9.55941 32.0045C9.87458 32.1738 9.99422 32.5691 9.82663 32.8874C9.65904 33.2058 9.26769 33.3266 8.95252 33.1573L4.67256 30.8585C4.35739 30.6892 4.23775 30.2939 4.40534 29.9756Z" fill="#FFE5A1"/>
<path fill-rule="evenodd" clip-rule="evenodd" d="M3.26225 45.1098C3.18994 44.7567 3.4147 44.4113 3.76425 44.3383L8.51118 43.3464C8.86073 43.2734 9.20272 43.5004 9.27503 43.8535C9.34733 44.2066 9.12258 44.552 8.77303 44.6251L4.0261 45.6169C3.67654 45.6899 3.33456 45.4629 3.26225 45.1098Z" fill="#FFE5A1"/>
<path fill-rule="evenodd" clip-rule="evenodd" d="M48.969 32.5897C48.8226 32.2609 48.9677 31.8744 49.2932 31.7264L53.7137 29.7172C54.0392 29.5692 54.4219 29.7159 54.5683 30.0447C54.7148 30.3735 54.5697 30.76 54.2442 30.9079L49.8237 32.9172C49.4981 33.0651 49.1155 32.9185 48.969 32.5897Z" fill="#FFE5A1"/>
<path fill-rule="evenodd" clip-rule="evenodd" d="M50.2305 43.8672C50.2988 43.5133 50.6381 43.2823 50.9885 43.3512L55.7465 44.2873C56.0969 44.3562 56.3256 44.699 56.2574 45.0529C56.1891 45.4068 55.8498 45.6379 55.4994 45.5689L50.7414 44.6329C50.391 44.5639 50.1623 44.2212 50.2305 43.8672Z" fill="#FFE5A1"/>
<path fill-rule="evenodd" clip-rule="evenodd" d="M45.8691 55.2969C46.1133 55.0339 46.5223 55.0205 46.7827 55.2671L50.3191 58.6159C50.5795 58.8625 50.5927 59.2757 50.3486 59.5387C50.1045 59.8018 49.6955 59.8151 49.4351 59.5685L45.8986 56.2197C45.6382 55.9731 45.625 55.56 45.8691 55.2969Z" fill="#FFE5A1"/>
<path fill-rule="evenodd" clip-rule="evenodd" d="M9.66774 59.4707C9.42798 59.2036 9.448 58.7907 9.71246 58.5485L13.3037 55.2597C13.5681 55.0176 13.9769 55.0378 14.2166 55.3049C14.4564 55.572 14.4364 55.9849 14.1719 56.2271L10.5807 59.5158C10.3162 59.758 9.90749 59.7378 9.66774 59.4707Z" fill="#FFE5A1"/>
<path fill-rule="evenodd" clip-rule="evenodd" d="M35.7671 61.6628C36.1002 61.5331 36.4742 61.7007 36.6026 62.0372L38.3459 66.606C38.4743 66.9424 38.3084 67.3203 37.9753 67.4499C37.6422 67.5796 37.2681 67.412 37.1398 67.0756L35.3964 62.5068C35.2681 62.1703 35.434 61.7925 35.7671 61.6628Z" fill="#FFE5A1"/>
<path fill-rule="evenodd" clip-rule="evenodd" d="M50.2305 43.8672C50.2988 43.5133 50.6381 43.2823 50.9885 43.3512L55.7465 44.2873C56.0969 44.3562 56.3256 44.699 56.2574 45.0529C56.1891 45.4068 55.8498 45.6379 55.4994 45.5689L50.7414 44.6329C50.391 44.5639 50.1623 44.2212 50.2305 43.8672Z" fill="#FFE5A1"/>
<path fill-rule="evenodd" clip-rule="evenodd" d="M22.2315 67.5621C21.8912 67.4532 21.7028 67.0862 21.8106 66.7425L23.2749 62.0748C23.3827 61.7311 23.746 61.5408 24.0862 61.6497C24.4265 61.7586 24.615 62.1255 24.5071 62.4692L23.0428 67.1369C22.935 67.4806 22.5718 67.671 22.2315 67.5621Z" fill="#FFE5A1"/>
<path fill-rule="evenodd" clip-rule="evenodd" d="M21.9212 59.209C13.1104 56.8381 7.73868 64.0486 10.9267 70.8682C11.5838 72.2737 13.0889 72.9629 14.6109 72.9629H24.2846C24.6392 70.4433 27.1209 69.0327 29.9571 69.3853C31.139 66.4872 35.7479 66.1345 37.6978 68.5037C41.0658 62.7842 50.8154 62.7842 52.8242 67.9747C56.7241 67.622 59.6786 69.738 59.6786 72.9629H82.7835C83.8414 72.9629 84.826 72.2725 84.9505 71.197C85.5407 66.0979 80.7213 63.7278 77.464 65.6446C77.0103 62.7114 76.0904 61.7106 74.3915 59.8283C70.7797 55.8263 64.9832 54.6167 59.6786 57.9746C59.0932 51.5688 55.2328 48.0675 50.8154 47.2669C48.3497 46.82 45.7104 47.2146 43.3702 48.4153C41.0166 49.6228 38.9655 51.6457 37.6978 54.448C36.3849 53.2927 34.698 52.7097 32.9116 52.6013C28.4271 52.3291 23.3157 55.0476 21.9212 59.209Z" fill="#F1F1F1"/>
<path d="M29.9571 69.3853C27.1209 69.0327 24.6392 70.4433 24.2846 72.9629H59.6786C59.6786 69.738 56.7241 67.622 52.8242 67.9747C50.8154 62.7842 41.0658 62.7842 37.6978 68.5037C35.7479 66.1345 31.139 66.4872 29.9571 69.3853Z" fill="#D9D9D9"/>
<path fill-rule="evenodd" clip-rule="evenodd" d="M25.0348 79.9553C25.3386 80.1108 25.4617 80.489 25.3098 80.8L21.6199 88.3556C21.468 88.6666 21.0986 88.7926 20.7948 88.6371C20.491 88.4816 20.3678 88.1034 20.5197 87.7924L24.2097 80.2369C24.3616 79.9258 24.731 79.7998 25.0348 79.9553Z" fill="#94D2FF"/>
<path fill-rule="evenodd" clip-rule="evenodd" d="M57.0143 74.9182C57.3181 75.0737 57.4412 75.4519 57.2893 75.7629L54.8293 80.7999C54.6774 81.111 54.308 81.237 54.0042 81.0815C53.7005 80.926 53.5773 80.5478 53.7292 80.2368L56.1892 75.1998C56.3411 74.8887 56.7105 74.7627 57.0143 74.9182Z" fill="#94D2FF"/>
<path fill-rule="evenodd" clip-rule="evenodd" d="M57.0143 88.7701C57.3181 88.9256 57.4412 89.3038 57.2893 89.6148L54.8293 94.6519C54.6774 94.9629 54.308 95.0889 54.0042 94.9334C53.7005 94.7779 53.5773 94.3997 53.7292 94.0887L56.1892 89.0517C56.3411 88.7407 56.7105 88.6146 57.0143 88.7701Z" fill="#94D2FF"/>
<path fill-rule="evenodd" clip-rule="evenodd" d="M77.9948 79.9891C78.3007 80.1403 78.4289 80.5167 78.2811 80.8299L75.0494 87.6805C74.9016 87.9937 74.534 88.1249 74.2281 87.9737C73.9223 87.8224 73.7941 87.446 73.9418 87.1329L77.1736 80.2822C77.3213 79.9691 77.689 79.8378 77.9948 79.9891Z" fill="#94D2FF"/>
<path fill-rule="evenodd" clip-rule="evenodd" d="M68.7707 84.3954C69.0775 84.5447 69.208 84.9203 69.0622 85.2343L67.0518 89.5652C66.9061 89.8793 66.5392 90.0129 66.2324 89.8637C65.9256 89.7144 65.7951 89.3388 65.9409 89.0247L67.9513 84.6938C68.0971 84.3798 68.464 84.2461 68.7707 84.3954Z" fill="#94D2FF"/>
<path fill-rule="evenodd" clip-rule="evenodd" d="M34.8746 74.9182C35.1784 75.0737 35.3016 75.4519 35.1497 75.7629L33.9197 78.2814C33.7678 78.5924 33.3984 78.7185 33.0946 78.563C32.7908 78.4075 32.6677 78.0293 32.8195 77.7183L34.0495 75.1998C34.2014 74.8887 34.5708 74.7627 34.8746 74.9182Z" fill="#94D2FF"/>
<path fill-rule="evenodd" clip-rule="evenodd" d="M71.774 76.1774C72.0778 76.333 72.201 76.7112 72.0491 77.0222L70.8191 79.5407C70.6672 79.8517 70.2978 79.9778 69.994 79.8223C69.6902 79.6668 69.5671 79.2886 69.719 78.9775L70.9489 76.459C71.1008 76.148 71.4702 76.0219 71.774 76.1774Z" fill="#94D2FF"/>
<path fill-rule="evenodd" clip-rule="evenodd" d="M20.017 74.8574C20.3135 75.027 20.4196 75.4105 20.254 75.7141L17.4245 80.8998C17.2589 81.2033 16.8842 81.312 16.5877 81.1424C16.2912 80.9728 16.1851 80.5892 16.3507 80.2856L19.1802 75.1C19.3458 74.7964 19.7205 74.6878 20.017 74.8574Z" fill="#94D2FF"/>
<path fill-rule="evenodd" clip-rule="evenodd" d="M64.3942 79.9553C64.6979 80.1108 64.8211 80.489 64.6692 80.8L62.2092 85.837C62.0573 86.1481 61.6879 86.2741 61.3841 86.1186C61.0803 85.9631 60.9572 85.5849 61.1091 85.2739L63.5691 80.2369C63.721 79.9258 64.0904 79.7998 64.3942 79.9553Z" fill="#94D2FF"/>
<path fill-rule="evenodd" clip-rule="evenodd" d="M33.6641 83.7435C33.9623 83.91 34.0722 84.2925 33.9095 84.5977L30.2196 91.5237C30.057 91.8289 29.6834 91.9414 29.3852 91.7749C29.087 91.6084 28.9772 91.2259 29.1398 90.9207L32.8297 83.9948C32.9924 83.6895 33.366 83.577 33.6641 83.7435Z" fill="#94D2FF"/>
<path fill-rule="evenodd" clip-rule="evenodd" d="M48.4044 83.733C48.7082 83.8885 48.8313 84.2667 48.6794 84.5777L44.9895 92.1333C44.8376 92.4443 44.4682 92.5704 44.1644 92.4148C43.8606 92.2593 43.7375 91.8811 43.8894 91.5701L47.5793 84.0146C47.7312 83.7035 48.1006 83.5775 48.4044 83.733Z" fill="#94D2FF"/>
<path fill-rule="evenodd" clip-rule="evenodd" d="M43.4845 74.9182C43.7883 75.0737 43.9114 75.4519 43.7595 75.7629L40.0696 83.3184C39.9177 83.6295 39.5483 83.7555 39.2445 83.6C38.9407 83.4445 38.8176 83.0663 38.9694 82.7553L42.6594 75.1998C42.8113 74.8887 43.1807 74.7627 43.4845 74.9182Z" fill="#94D2FF"/>
<path fill-rule="evenodd" clip-rule="evenodd" d="M148.378 80.0661C148.689 80.2205 148.815 80.5959 148.659 80.9046L144.885 88.4046C144.73 88.7134 144.352 88.8385 144.041 88.6842C143.731 88.5298 143.605 88.1544 143.76 87.8456L147.534 80.3456C147.69 80.0369 148.067 79.9118 148.378 80.0661Z" fill="#94D2FF"/>
<path fill-rule="evenodd" clip-rule="evenodd" d="M181.088 75.0661C181.398 75.2205 181.524 75.5959 181.369 75.9046L178.853 80.9046C178.698 81.2134 178.32 81.3385 178.009 81.1842C177.698 81.0298 177.572 80.6544 177.728 80.3456L180.244 75.3456C180.399 75.0369 180.777 74.9118 181.088 75.0661Z" fill="#94D2FF"/>
<path fill-rule="evenodd" clip-rule="evenodd" d="M181.088 88.8161C181.398 88.9705 181.524 89.3459 181.369 89.6546L178.853 94.6546C178.698 94.9634 178.32 95.0885 178.009 94.9342C177.698 94.7798 177.572 94.4044 177.728 94.0956L180.244 89.0956C180.399 88.7869 180.777 88.6618 181.088 88.8161Z" fill="#94D2FF"/>
<path fill-rule="evenodd" clip-rule="evenodd" d="M202.547 80.0997C202.86 80.2498 202.991 80.6234 202.84 80.9343L199.535 87.7346C199.384 88.0454 199.007 88.1757 198.695 88.0256C198.382 87.8754 198.251 87.5018 198.402 87.1909L201.707 80.3906C201.858 80.0798 202.235 79.9495 202.547 80.0997Z" fill="#94D2FF"/>
<path fill-rule="evenodd" clip-rule="evenodd" d="M193.113 84.4736C193.426 84.6218 193.56 84.9946 193.411 85.3064L191.355 89.6054C191.205 89.9172 190.83 90.0498 190.516 89.9017C190.203 89.7535 190.069 89.3806 190.218 89.0689L192.275 84.7698C192.424 84.4581 192.799 84.3254 193.113 84.4736Z" fill="#94D2FF"/>
<path fill-rule="evenodd" clip-rule="evenodd" d="M158.443 75.0661C158.753 75.2205 158.879 75.5959 158.724 75.9046L157.466 78.4046C157.31 78.7134 156.933 78.8385 156.622 78.6842C156.311 78.5298 156.185 78.1544 156.341 77.8456L157.599 75.3456C157.754 75.0369 158.132 74.9118 158.443 75.0661Z" fill="#94D2FF"/>
<path fill-rule="evenodd" clip-rule="evenodd" d="M196.185 76.3161C196.495 76.4705 196.621 76.8459 196.466 77.1546L195.208 79.6546C195.052 79.9634 194.675 80.0885 194.364 79.9342C194.053 79.7798 193.927 79.4044 194.083 79.0956L195.341 76.5956C195.496 76.2869 195.874 76.1618 196.185 76.3161Z" fill="#94D2FF"/>
<path fill-rule="evenodd" clip-rule="evenodd" d="M143.246 75.0057C143.549 75.1741 143.658 75.5548 143.488 75.8562L140.594 81.0037C140.425 81.305 140.041 81.4129 139.738 81.2445C139.435 81.0762 139.326 80.6954 139.496 80.3941L142.39 75.2466C142.559 74.9452 142.942 74.8374 143.246 75.0057Z" fill="#94D2FF"/>
<path fill-rule="evenodd" clip-rule="evenodd" d="M188.636 80.0661C188.947 80.2205 189.073 80.5959 188.917 80.9046L186.401 85.9046C186.246 86.2134 185.868 86.3385 185.557 86.1842C185.247 86.0298 185.121 85.6544 185.276 85.3456L187.792 80.3456C187.948 80.0369 188.325 79.9118 188.636 80.0661Z" fill="#94D2FF"/>
<path fill-rule="evenodd" clip-rule="evenodd" d="M157.204 83.8264C157.509 83.9917 157.622 84.3714 157.455 84.6744L153.681 91.5494C153.515 91.8524 153.133 91.9641 152.828 91.7988C152.523 91.6335 152.41 91.2539 152.577 90.9508L156.351 84.0758C156.517 83.7728 156.899 83.6611 157.204 83.8264Z" fill="#94D2FF"/>
<path fill-rule="evenodd" clip-rule="evenodd" d="M172.281 83.8161C172.592 83.9705 172.718 84.3459 172.563 84.6546L168.788 92.1546C168.633 92.4634 168.255 92.5885 167.944 92.4342C167.634 92.2798 167.508 91.9044 167.663 91.5956L171.437 84.0956C171.593 83.7869 171.971 83.6618 172.281 83.8161Z" fill="#94D2FF"/>
<path fill-rule="evenodd" clip-rule="evenodd" d="M167.249 75.0661C167.56 75.2205 167.686 75.5959 167.53 75.9046L163.756 83.4046C163.601 83.7134 163.223 83.8385 162.912 83.6842C162.601 83.5298 162.476 83.1544 162.631 82.8456L166.405 75.3456C166.56 75.0369 166.938 74.9118 167.249 75.0661Z" fill="#94D2FF"/>
<g filter="url(#filter0_d_8_570)">
<path fill-rule="evenodd" clip-rule="evenodd" d="M146.456 57.2965C137.241 54.838 131.702 62.5352 135.436 69.5838C136.02 70.6863 137.239 71.25 138.487 71.25H148.874C149.237 68.6939 151.777 67.2628 154.679 67.6205C155.888 64.6803 160.604 64.3225 162.599 66.7261C166.045 60.9236 176.021 60.9236 178.077 66.1894C182.067 65.8316 185.09 67.9783 185.09 71.25H209.098C209.961 71.25 210.754 70.6961 210.895 69.8443C211.796 64.4061 206.704 61.8332 203.289 63.8255C202.825 60.8498 201.883 59.8345 200.145 57.9248C196.449 53.8648 190.518 52.6377 185.09 56.0443C184.491 49.5456 180.541 45.9934 176.021 45.1812C173.498 44.7279 170.798 45.1282 168.403 46.3463C165.995 47.5713 163.896 49.6236 162.599 52.4665C161.256 51.2944 159.53 50.703 157.702 50.593C153.113 50.3169 147.883 53.0748 146.456 57.2965Z" fill="#F1F1F1"/>
<path d="M154.679 67.6205C151.777 67.2628 149.237 68.6939 148.874 71.25H185.09C185.09 67.9783 182.067 65.8316 178.077 66.1894C176.021 60.9236 166.045 60.9236 162.599 66.7261C160.604 64.3225 155.888 64.6803 154.679 67.6205Z" fill="#D9D9D9"/>
</g>
<path d="M350 0V204" stroke="white" stroke-opacity="0.47"/>
<defs>
<filter id="filter0_d_8_570" x="131.258" y="42" width="79.7419" height="29.25" filterUnits="userSpaceOnUse" color-interpolation-filters="sRGB">
<feFlood flood-opacity="0" result="BackgroundImageFix"/>
<feColorMatrix in="SourceAlpha" type="matrix" values="0 0 0 0 0 0 0 0 0 0 0 0 0 0 0 0 0 0 127 0" result="hardAlpha"/>
<feOffset dx="-2" dy="-2"/>
<feGaussianBlur stdDeviation="0.5"/>
<feComposite in2="hardAlpha" operator="out"/>
<feColorMatrix type="matrix" values="0 0 0 0 0 0 0 0 0 0 0 0 0 0 0 0 0 0 0.14 0"/>
<feBlend mode="normal" in2="BackgroundImageFix" result="effect1_dropShadow_8_570"/>
<feBlend mode="normal" in="SourceGraphic" in2="effect1_dropShadow_8_570" result="shape"/>
</filter>
</defs>
</svg>
