<svg width="199" height="54" viewBox="0 0 199 54" fill="none" xmlns="http://www.w3.org/2000/svg">
<path fill-rule="evenodd" clip-rule="evenodd" d="M13.6941 13.9224C3.59304 11.2644 -2.53883 19.4475 1.13423 27.1614C1.89126 28.7512 3.61767 29.5272 5.36127 29.5225L16.4437 29.4926C16.8421 26.6379 19.6809 25.0326 22.9312 25.4232C24.2763 22.1371 29.5552 21.7235 31.7963 24.4008C35.6373 17.9125 46.8065 17.8824 49.1238 23.7549C53.5904 23.3435 56.9816 25.7309 56.9914 29.3834L83.4608 29.3121C84.6727 29.3088 85.7986 28.5238 85.9379 27.3053C86.5985 21.5283 81.0701 18.8588 77.3443 21.0398C76.8157 17.7191 75.7587 16.5885 73.8067 14.4618C69.6567 9.94041 63.0124 8.58837 56.9457 12.4079C56.2555 5.15451 51.8223 1.20085 46.7592 0.307776C43.9331 -0.190716 40.9107 0.264346 38.2335 1.63138C35.5407 3.00631 33.1971 5.30377 31.7534 8.48147C30.2458 7.17704 28.3115 6.52201 26.2647 6.40473C21.1263 6.1103 15.2789 9.205 13.6941 13.9224Z" fill="#F1F1F1"/>
<path d="M22.9312 25.4232C19.6809 25.0326 16.8421 26.6379 16.4437 29.4926L56.9914 29.3834C56.9816 25.7309 53.5904 23.3435 49.1238 23.7549C46.8065 17.8824 35.6373 17.9125 31.7963 24.4008C29.5552 21.7235 24.2763 22.1371 22.9312 25.4232Z" fill="#D9D9D9"/>
<path fill-rule="evenodd" clip-rule="evenodd" d="M62.567 34.1074C62.6564 34.1418 62.7011 34.2421 62.6668 34.3315L62.3764 35.0881L62.7849 34.9554C62.8761 34.9258 62.9739 34.9757 63.0035 35.0668C63.0331 35.1579 62.9833 35.2558 62.8921 35.2854L62.2164 35.5048L61.9582 36.1775L62.71 35.921C62.8006 35.8901 62.8992 35.9385 62.9302 36.0292C62.9611 36.1199 62.9127 36.2185 62.822 36.2494L61.7962 36.5993L61.1311 38.3321L62.8318 37.603L63.0942 36.5152C63.1166 36.4221 63.2104 36.3648 63.3035 36.3873C63.3966 36.4098 63.4539 36.5035 63.4315 36.5966L63.2299 37.4324L63.9125 37.1397L64.089 36.4585C64.1131 36.3657 64.2077 36.31 64.3005 36.3341C64.3933 36.3581 64.449 36.4528 64.4249 36.5455L64.3157 36.9669L65.0698 36.6436C65.1579 36.6058 65.2599 36.6466 65.2976 36.7347C65.3354 36.8227 65.2946 36.9247 65.2065 36.9625L64.4617 37.2818L64.8417 37.4821C64.9265 37.5268 64.959 37.6317 64.9143 37.7165C64.8696 37.8012 64.7647 37.8337 64.6799 37.789L64.0514 37.4577L63.3891 37.7416L64.0972 38.1017C64.1826 38.1451 64.2166 38.2495 64.1732 38.3349C64.1298 38.4203 64.0253 38.4543 63.9399 38.4109L62.9738 37.9197L61.2843 38.6439L62.9968 39.2962L63.9419 38.697C64.0228 38.6457 64.13 38.6697 64.1813 38.7506C64.2326 38.8315 64.2086 38.9387 64.1277 38.99L63.4016 39.4504L64.0957 39.7148L64.6963 39.348C64.7781 39.2981 64.8849 39.3239 64.9348 39.4057C64.9848 39.4874 64.959 39.5942 64.8772 39.6441L64.5057 39.8709L65.2724 40.163C65.362 40.1971 65.4069 40.2973 65.3728 40.3869C65.3387 40.4764 65.2385 40.5213 65.1489 40.4872L64.3916 40.1987L64.5254 40.6069C64.5552 40.698 64.5056 40.796 64.4145 40.8258C64.3235 40.8556 64.2255 40.806 64.1956 40.715L63.9744 40.0398L63.301 39.7833L63.5595 40.5344C63.5906 40.625 63.5425 40.7237 63.4519 40.7549C63.3613 40.7861 63.2625 40.7379 63.2314 40.6473L62.8787 39.6225L61.1645 38.9695L61.9504 40.6205L63.0477 40.8401C63.1417 40.859 63.2026 40.9504 63.1838 41.0443C63.165 41.1382 63.0736 41.1992 62.9796 41.1804L62.1366 41.0116L62.4558 41.6822L63.1435 41.832C63.2371 41.8524 63.2965 41.9448 63.2761 42.0384C63.2557 42.132 63.1633 42.1914 63.0696 42.171L62.6443 42.0784L62.997 42.8191C63.0381 42.9057 63.0014 43.0092 62.9149 43.0503C62.8284 43.0915 62.7248 43.0547 62.6837 42.9682L62.3354 42.2365L62.1501 42.6241C62.1087 42.7105 62.0052 42.7471 61.9187 42.7057C61.8323 42.6644 61.7957 42.5608 61.837 42.4744L62.1435 41.8334L61.8338 41.1828L61.5018 41.9044C61.4617 41.9914 61.3587 42.0295 61.2716 41.9895C61.1846 41.9494 61.1465 41.8464 61.1865 41.7593L61.6396 40.7748L60.8397 39.0945L60.1802 40.8284L60.78 41.7732C60.8313 41.8541 60.8074 41.9613 60.7265 42.0126C60.6456 42.064 60.5384 42.04 60.487 41.9591L60.0262 41.2332L59.7622 41.9274L60.1293 42.5278C60.1793 42.6096 60.1535 42.7164 60.0718 42.7663C59.99 42.8163 59.8833 42.7905 59.8333 42.7088L59.6062 42.3375L59.3146 43.1042C59.2805 43.1938 59.1803 43.2388 59.0908 43.2047C59.0012 43.1706 58.9562 43.0704 58.9903 42.9809L59.2784 42.2235L58.8702 42.3574C58.7792 42.3873 58.6811 42.3377 58.6513 42.2467C58.6214 42.1556 58.671 42.0576 58.762 42.0277L59.4371 41.8062L59.6932 41.1328L58.9422 41.3915C58.8516 41.4227 58.7529 41.3746 58.7217 41.284C58.6904 41.1935 58.7386 41.0947 58.8291 41.0635L59.8539 40.7104L60.5126 38.9785L58.8209 39.7205L58.5675 40.8104C58.5458 40.9037 58.4526 40.9618 58.3593 40.9401C58.2659 40.9184 58.2079 40.8252 58.2296 40.7318L58.4242 39.8945L57.744 40.1928L57.5732 40.8755C57.5499 40.9684 57.4557 41.0249 57.3627 41.0016C57.2698 40.9784 57.2133 40.8841 57.2366 40.7912L57.3422 40.369L56.5909 40.6985C56.5032 40.737 56.4008 40.6971 56.3623 40.6093C56.3238 40.5216 56.3638 40.4193 56.4515 40.3808L57.1936 40.0553L56.812 39.8581C56.7268 39.8141 56.6935 39.7095 56.7375 39.6244C56.7814 39.5393 56.8861 39.5059 56.9712 39.5499L57.6025 39.876L58.2624 39.5865L57.5513 39.2324C57.4655 39.1897 57.4306 39.0856 57.4733 38.9998C57.5161 38.914 57.6202 38.8791 57.706 38.9219L58.6762 39.405L60.3627 38.6653L58.6453 38.0163L57.7018 38.618C57.621 38.6695 57.5138 38.6458 57.4622 38.565C57.4107 38.4843 57.4344 38.377 57.5152 38.3255L58.2401 37.8632L57.5453 37.6007L56.9456 37.969C56.864 38.0192 56.7572 37.9936 56.707 37.912C56.6568 37.8304 56.6824 37.7235 56.764 37.6734L57.1349 37.4456L56.3674 37.1556C56.2778 37.1217 56.2326 37.0216 56.2664 36.9319C56.3003 36.8423 56.4004 36.7971 56.49 36.831L57.2481 37.1175L57.1133 36.7096C57.0832 36.6187 57.1326 36.5205 57.2235 36.4905C57.3145 36.4604 57.4126 36.5098 57.4427 36.6007L57.6657 37.2753L58.3398 37.53L58.0794 36.7796C58.048 36.6891 58.0959 36.5903 58.1864 36.5588C58.2769 36.5274 58.3758 36.5753 58.4072 36.6659L58.7626 37.6898L60.4843 38.3404L59.7082 36.6779L58.6126 36.45C58.5188 36.4305 58.4585 36.3386 58.478 36.2448C58.4975 36.151 58.5894 36.0908 58.6832 36.1103L59.525 36.2854L59.2108 35.6124L58.5243 35.4575C58.4308 35.4364 58.3721 35.3435 58.3932 35.25C58.4143 35.1566 58.5072 35.0979 58.6006 35.119L59.0252 35.2148L58.6782 34.4714C58.6377 34.3846 58.6752 34.2814 58.762 34.2408C58.8488 34.2003 58.9521 34.2379 58.9926 34.3247L59.3354 35.059L59.5236 34.6729C59.5656 34.5867 59.6694 34.551 59.7556 34.5929C59.8417 34.6349 59.8775 34.7388 59.8355 34.8249L59.5242 35.4635L59.8291 36.1165L60.1665 35.3974C60.2072 35.3107 60.3105 35.2733 60.3972 35.314C60.484 35.3547 60.5213 35.458 60.4806 35.5448L60.0202 36.5259L60.8063 38.2099L61.4702 36.4804L60.8734 35.5337C60.8223 35.4527 60.8466 35.3456 60.9276 35.2945C61.0087 35.2434 61.1158 35.2677 61.1669 35.3487L61.6255 36.076L61.8916 35.3826L61.5263 34.7811C61.4766 34.6992 61.5027 34.5925 61.5846 34.5428C61.6665 34.493 61.7732 34.5191 61.8229 34.601L62.0488 34.9731L62.3428 34.2072C62.3772 34.1177 62.4775 34.0731 62.567 34.1074Z" fill="#FDFDFD"/>
<path fill-rule="evenodd" clip-rule="evenodd" d="M74.1833 44.4923C74.1835 44.5287 74.1543 44.5583 74.1179 44.5585L73.8106 44.5602L73.9138 44.6863C73.9368 44.7144 73.9327 44.7558 73.9046 44.7789C73.8765 44.8019 73.835 44.7978 73.812 44.7697L73.6413 44.5612L73.368 44.5627L73.5623 44.793C73.5857 44.8207 73.5822 44.8622 73.5545 44.8857C73.5267 44.9091 73.4852 44.9056 73.4617 44.8778L73.1966 44.5637L72.4927 44.5677L72.9849 45.068L73.4054 45.0107C73.4414 45.0057 73.4745 45.031 73.4794 45.067C73.4843 45.103 73.4591 45.1361 73.4231 45.141L73.1001 45.1851L73.2976 45.3859L73.5626 45.3543C73.5987 45.35 73.6314 45.3758 73.6357 45.4119C73.64 45.448 73.6143 45.4807 73.5782 45.485L73.4143 45.5045L73.6325 45.7263C73.658 45.7522 73.6576 45.7939 73.6317 45.8194C73.6058 45.8449 73.5641 45.8445 73.5387 45.8186L73.3231 45.5995L73.3048 45.7614C73.3007 45.7975 73.2681 45.8235 73.232 45.8194C73.1959 45.8153 73.1699 45.7827 73.174 45.7466L73.2044 45.4788L73.0128 45.284L72.9832 45.5838C72.9796 45.62 72.9474 45.6464 72.9113 45.6428C72.8751 45.6393 72.8487 45.6071 72.8523 45.5709L72.8926 45.1618L72.4037 44.6648L72.4094 45.3598L72.7514 45.611C72.7807 45.6326 72.787 45.6737 72.7655 45.703C72.744 45.7323 72.7028 45.7386 72.6736 45.7171L72.4108 45.5241L72.4131 45.8057L72.6255 45.9674C72.6544 45.9894 72.66 46.0307 72.638 46.0596C72.616 46.0885 72.5747 46.0941 72.5458 46.0721L72.4145 45.9721L72.417 46.2833C72.4173 46.3196 72.3881 46.3493 72.3518 46.3496C72.3154 46.3499 72.2857 46.3207 72.2854 46.2844L72.2829 45.977L72.1571 46.0806C72.1291 46.1037 72.0876 46.0997 72.0645 46.0716C72.0414 46.0436 72.0454 46.0021 72.0735 45.979L72.2815 45.8077L72.2793 45.5344L72.0495 45.7293C72.0218 45.7528 71.9803 45.7494 71.9568 45.7217C71.9333 45.694 71.9367 45.6525 71.9644 45.629L72.2779 45.363L72.2721 44.6674L71.7972 45.1727L71.871 45.5907C71.8773 45.6265 71.8534 45.6606 71.8176 45.6669C71.7818 45.6732 71.7477 45.6494 71.7414 45.6136L71.6847 45.2924L71.4918 45.4977L71.5337 45.7613C71.5395 45.7972 71.515 45.8309 71.4791 45.8366C71.4432 45.8423 71.4095 45.8179 71.4038 45.782L71.3779 45.619L71.1648 45.8457C71.1399 45.8722 71.0983 45.8735 71.0718 45.8486C71.0453 45.8237 71.044 45.7821 71.0689 45.7556L71.2794 45.5316L71.1169 45.5196C71.0807 45.5169 71.0535 45.4854 71.0561 45.4491C71.0588 45.4129 71.0904 45.3857 71.1266 45.3883L71.3953 45.4082L71.5825 45.2091L71.2818 45.1913C71.2455 45.1891 71.2178 45.158 71.22 45.1217C71.2221 45.0854 71.2533 45.0578 71.2895 45.0599L71.6998 45.0842L72.1832 44.5699L71.4796 44.576L71.2286 44.9182C71.2071 44.9475 71.1659 44.9538 71.1366 44.9323C71.1073 44.9108 71.101 44.8696 71.1225 44.8403L71.3154 44.5774L71.0337 44.5799L70.8722 44.7924C70.8502 44.8213 70.8089 44.8269 70.78 44.805C70.7511 44.783 70.7455 44.7417 70.7674 44.7127L70.8673 44.5813L70.5562 44.584C70.5199 44.5843 70.4902 44.5551 70.4898 44.5188C70.4895 44.4825 70.5187 44.4528 70.5551 44.4524L70.8624 44.4498L70.7588 44.324C70.7357 44.296 70.7397 44.2545 70.7677 44.2314C70.7957 44.2083 70.8372 44.2123 70.8603 44.2403L71.0317 44.4483L71.305 44.4459L71.11 44.2163C71.0864 44.1886 71.0898 44.147 71.1175 44.1235C71.1452 44.1 71.1867 44.1034 71.2102 44.1311L71.4763 44.4444L72.1791 44.4383L71.6836 43.9429L71.2636 44.0037C71.2276 44.009 71.1943 43.984 71.189 43.9481C71.1838 43.9121 71.2088 43.8787 71.2447 43.8735L71.5674 43.8268L71.3682 43.6276L71.1035 43.6614C71.0674 43.666 71.0345 43.6405 71.0299 43.6045C71.0253 43.5684 71.0508 43.5355 71.0868 43.5309L71.2506 43.51L71.0305 43.29C71.0048 43.2643 71.0048 43.2226 71.0305 43.1969C71.0562 43.1712 71.0978 43.1712 71.1235 43.1969L71.3409 43.4142L71.3579 43.2522C71.3617 43.216 71.3941 43.1898 71.4302 43.1936C71.4664 43.1974 71.4926 43.2298 71.4888 43.2659L71.4606 43.5339L71.6539 43.7272L71.6809 43.4271C71.6842 43.3909 71.7162 43.3642 71.7524 43.3675C71.7886 43.3707 71.8153 43.4027 71.812 43.4389L71.7751 43.8483L72.269 44.3422L72.2615 43.6459L71.9188 43.3955C71.8894 43.3741 71.883 43.3329 71.9044 43.3036C71.9259 43.2742 71.967 43.2678 71.9964 43.2893L72.2597 43.4816L72.2566 43.1999L72.0438 43.0389C72.0148 43.0169 72.0091 42.9757 72.031 42.9467C72.0529 42.9177 72.0942 42.912 72.1232 42.9339L72.2548 43.0335L72.2514 42.7224C72.251 42.686 72.2802 42.6563 72.3165 42.6559C72.3528 42.6555 72.3826 42.6846 72.383 42.721L72.3863 43.0283L72.5118 42.9244C72.5398 42.9012 72.5813 42.9051 72.6045 42.9331C72.6276 42.9611 72.6237 43.0026 72.5957 43.0258L72.3882 43.1976L72.3912 43.4709L72.6203 43.2754C72.648 43.2518 72.6895 43.2551 72.7131 43.2827C72.7367 43.3104 72.7334 43.3519 72.7057 43.3755L72.393 43.6423L72.4006 44.3403L72.8809 43.8368L72.8103 43.4183C72.8043 43.3825 72.8285 43.3485 72.8643 43.3425C72.9001 43.3364 72.9341 43.3606 72.9401 43.3964L72.9943 43.718L73.1888 43.5141L73.1488 43.2502C73.1434 43.2143 73.1681 43.1808 73.204 43.1753C73.24 43.1699 73.2735 43.1946 73.2789 43.2305L73.3036 43.3937L73.5184 43.1686C73.5435 43.1423 73.5852 43.1413 73.6114 43.1664C73.6377 43.1915 73.6387 43.2332 73.6136 43.2595L73.4015 43.4818L73.5638 43.4951C73.6001 43.498 73.627 43.5298 73.6241 43.566C73.6211 43.6022 73.5894 43.6292 73.5531 43.6262L73.2846 43.6043L73.0959 43.8021L73.3965 43.8221C73.4328 43.8245 73.4602 43.8559 73.4578 43.8922C73.4554 43.9284 73.424 43.9559 73.3878 43.9534L72.9776 43.9261L72.4911 44.4361L73.1937 44.4321L73.4458 44.0907C73.4674 44.0615 73.5086 44.0553 73.5379 44.0768C73.5671 44.0984 73.5733 44.1396 73.5517 44.1689L73.358 44.4312L73.6397 44.4296L73.8018 44.2176C73.8239 44.1887 73.8652 44.1832 73.894 44.2053C73.9229 44.2274 73.9284 44.2687 73.9063 44.2975L73.806 44.4287L74.1172 44.4269C74.1535 44.4267 74.1831 44.456 74.1833 44.4923Z" fill="#FDFDFD"/>
<path fill-rule="evenodd" clip-rule="evenodd" d="M46.5635 45.0981C46.6061 45.0856 46.6508 45.11 46.6634 45.1527L46.7692 45.5131L46.8824 45.3493C46.9077 45.3127 46.9578 45.3036 46.9943 45.3288C47.0309 45.3541 47.04 45.4042 47.0148 45.4407L46.8275 45.7117L46.9217 46.0322L47.1265 45.7262C47.1512 45.6893 47.2012 45.6794 47.2381 45.7041C47.275 45.7288 47.2849 45.7787 47.2602 45.8157L46.9807 46.2332L47.2232 47.0589L47.6447 46.3117L47.4353 45.837C47.4174 45.7964 47.4358 45.7489 47.4764 45.731C47.5171 45.7131 47.5646 45.7315 47.5825 45.7721L47.7434 46.1368L47.9125 45.8369L47.7859 45.5362C47.7687 45.4952 47.7879 45.4481 47.8288 45.4308C47.8698 45.4136 47.9169 45.4328 47.9342 45.4737L48.0125 45.6597L48.1994 45.3284C48.2212 45.2897 48.2703 45.2761 48.309 45.2979C48.3476 45.3197 48.3613 45.3688 48.3395 45.4074L48.1549 45.7347L48.3513 45.7016C48.3951 45.6942 48.4366 45.7237 48.444 45.7675C48.4514 45.8113 48.4218 45.8528 48.378 45.8602L48.0532 45.9149L47.889 46.2059L48.2513 46.1393C48.295 46.1313 48.3369 46.1602 48.3449 46.2039C48.353 46.2476 48.324 46.2895 48.2804 46.2976L47.7861 46.3884L47.3674 47.1307L48.1819 46.8891L48.3616 46.4024C48.3769 46.3607 48.4232 46.3394 48.4649 46.3548C48.5066 46.3702 48.5279 46.4164 48.5125 46.4581L48.3745 46.8321L48.7046 46.7342L48.8227 46.43C48.8388 46.3886 48.8854 46.3681 48.9268 46.3841C48.9683 46.4002 48.9888 46.4468 48.9727 46.4882L48.8997 46.6763L49.2644 46.5682C49.3069 46.5556 49.3517 46.5799 49.3643 46.6225C49.377 46.665 49.3527 46.7098 49.3101 46.7224L48.9498 46.8292L49.114 46.942C49.1506 46.9672 49.1599 47.0172 49.1347 47.0538C49.1096 47.0905 49.0595 47.0997 49.0229 47.0746L48.7514 46.8881L48.4311 46.983L48.7377 47.1871C48.7747 47.2117 48.7847 47.2616 48.7601 47.2986C48.7355 47.3356 48.6855 47.3456 48.6485 47.321L48.2302 47.0426L47.4149 47.2844L48.169 47.6716L48.6351 47.4437C48.6751 47.4242 48.7232 47.4408 48.7427 47.4807C48.7622 47.5206 48.7457 47.5687 48.7058 47.5882L48.3476 47.7633L48.654 47.9206L48.9495 47.7822C48.9897 47.7634 49.0376 47.7808 49.0565 47.821C49.0753 47.8612 49.0579 47.9091 49.0177 47.9279L48.8349 48.0135L49.1733 48.1872C49.2128 48.2075 49.2284 48.256 49.2081 48.2955C49.1878 48.335 49.1393 48.3506 49.0998 48.3303L48.7656 48.1587L48.8063 48.3536C48.8154 48.3971 48.7876 48.4397 48.7441 48.4488C48.7006 48.4579 48.658 48.43 48.6489 48.3866L48.5815 48.0642L48.2842 47.9116L48.365 48.2709C48.3747 48.3142 48.3474 48.3572 48.3041 48.367C48.2608 48.3767 48.2177 48.3495 48.208 48.3061L48.0979 47.8159L47.3304 47.4218L47.5752 48.2463L48.0621 48.4256C48.1038 48.441 48.1251 48.4872 48.1097 48.5289C48.0944 48.5706 48.0481 48.5919 48.0064 48.5766L47.6324 48.4388L47.7304 48.7688L48.0347 48.8868C48.0761 48.9029 48.0966 48.9494 48.0806 48.9909C48.0645 49.0323 48.0179 49.0528 47.9765 49.0368L47.7884 48.9638L47.8967 49.3284C47.9093 49.371 47.885 49.4158 47.8424 49.4284C47.7999 49.4411 47.7551 49.4168 47.7424 49.3742L47.6355 49.0141L47.5228 49.1783C47.4976 49.2149 47.4475 49.2242 47.4109 49.1991C47.3743 49.174 47.365 49.1239 47.3901 49.0873L47.5765 48.8157L47.4814 48.4954L47.2775 48.8021C47.2529 48.8391 47.203 48.8492 47.166 48.8246C47.129 48.8 47.119 48.7501 47.1435 48.7131L47.4218 48.2946L47.1772 47.4711L46.7626 48.2205L46.9759 48.6934C46.9942 48.7339 46.9762 48.7815 46.9357 48.7998C46.8952 48.8181 46.8476 48.8001 46.8293 48.7596L46.6654 48.3963L46.4987 48.6976L46.6278 48.9972C46.6454 49.038 46.6266 49.0853 46.5858 49.1029C46.545 49.1205 46.4977 49.1017 46.4801 49.0609L46.4002 48.8756L46.2161 49.2084C46.1946 49.2473 46.1457 49.2613 46.1068 49.2398C46.0679 49.2183 46.0538 49.1694 46.0753 49.1305L46.2572 48.8018L46.0611 48.8365C46.0174 48.8443 45.9756 48.8151 45.9679 48.7714C45.9601 48.7276 45.9893 48.6859 46.033 48.6781L46.3574 48.6207L46.5191 48.3283L46.1575 48.3979C46.1138 48.4063 46.0717 48.3778 46.0633 48.3341C46.0549 48.2905 46.0834 48.2484 46.1271 48.24L46.6205 48.145L47.0338 47.3979L46.2184 47.642L46.04 48.1292C46.0248 48.1709 45.9786 48.1923 45.9368 48.1771C45.8951 48.1618 45.8737 48.1156 45.889 48.0739L46.026 47.6996L45.6961 47.7984L45.5788 48.1028C45.5628 48.1443 45.5163 48.1649 45.4748 48.149C45.4333 48.133 45.4127 48.0864 45.4287 48.045L45.5012 47.8567L45.1368 47.9658C45.0943 47.9785 45.0494 47.9544 45.0367 47.9118C45.0239 47.8692 45.0481 47.8244 45.0907 47.8117L45.4506 47.7039L45.2862 47.5916C45.2495 47.5665 45.2401 47.5165 45.2651 47.4798C45.2902 47.4431 45.3402 47.4337 45.3769 47.4588L45.6489 47.6446L45.969 47.5487L45.6619 47.3455C45.6248 47.321 45.6146 47.2711 45.6392 47.2341C45.6637 47.197 45.7136 47.1869 45.7506 47.2114L46.1697 47.4887L46.9872 47.2439L46.2334 46.8497L45.7656 47.074C45.7255 47.0932 45.6775 47.0763 45.6583 47.0363C45.6391 46.9962 45.656 46.9482 45.696 46.929L46.0555 46.7566L45.7503 46.5971L45.4538 46.7332C45.4134 46.7517 45.3656 46.734 45.3471 46.6936C45.3286 46.6532 45.3463 46.6055 45.3867 46.587L45.5701 46.5028L45.233 46.3265C45.1936 46.3059 45.1784 46.2573 45.199 46.218C45.2196 46.1786 45.2682 46.1634 45.3076 46.184L45.6405 46.3581L45.6012 46.1629C45.5924 46.1193 45.6206 46.0769 45.6642 46.0681C45.7077 46.0594 45.7502 46.0876 45.7589 46.1311L45.8239 46.454L46.12 46.6088L46.042 46.2489C46.0326 46.2055 46.0601 46.1627 46.1035 46.1533C46.147 46.1439 46.1898 46.1714 46.1992 46.2149L46.3056 46.7059L47.0691 47.1052L46.8271 46.2811L46.3408 46.1003C46.2992 46.0848 46.278 46.0385 46.2935 45.9968C46.309 45.9552 46.3553 45.934 46.3969 45.9495L46.7705 46.0885L46.6735 45.7581L46.3696 45.6392C46.3283 45.623 46.3078 45.5764 46.324 45.535C46.3402 45.4936 46.3869 45.4732 46.4282 45.4894L46.6162 45.5629L46.509 45.198C46.4965 45.1554 46.5209 45.1107 46.5635 45.0981Z" fill="#FDFDFD"/>
<path fill-rule="evenodd" clip-rule="evenodd" d="M22.1942 33.6497C22.2829 33.6135 22.3841 33.6561 22.4203 33.7448L22.7263 34.4952L22.9334 34.1188C22.9796 34.0349 23.0851 34.0043 23.169 34.0505C23.253 34.0967 23.2836 34.2022 23.2374 34.2861L22.8948 34.9085L23.1669 35.5758L23.5395 34.8743C23.5845 34.7897 23.6895 34.7575 23.7741 34.8025C23.8588 34.8474 23.8909 34.9524 23.846 35.037L23.3375 35.9942L24.0382 37.7129L24.7794 36.0174L24.2263 35.0446C24.179 34.9614 24.2081 34.8554 24.2914 34.8081C24.3747 34.7607 24.4806 34.7899 24.528 34.8732L24.9529 35.6205L25.2504 34.94L24.9129 34.3224C24.867 34.2384 24.8979 34.133 24.982 34.087C25.0661 34.0411 25.1715 34.072 25.2174 34.1561L25.4261 34.538L25.7547 33.7863C25.7931 33.6985 25.8954 33.6584 25.9832 33.6968C26.071 33.7351 26.1111 33.8374 26.0727 33.9252L25.7481 34.6677L26.1623 34.5538C26.2547 34.5283 26.3502 34.5826 26.3756 34.675C26.401 34.7674 26.3467 34.8629 26.2543 34.8883L25.5693 35.0768L25.2806 35.737L26.0433 35.515C26.1353 35.4882 26.2316 35.5411 26.2584 35.6331C26.2852 35.7251 26.2323 35.8213 26.1403 35.8481L25.0996 36.1511L24.3634 37.8353L26.0584 37.1391L26.3375 36.0554C26.3614 35.9626 26.456 35.9068 26.5488 35.9307C26.6416 35.9545 26.6974 36.0491 26.6735 36.1419L26.4591 36.9745L27.1462 36.6923L27.3331 36.0138C27.3586 35.9214 27.4541 35.8672 27.5465 35.8926C27.6389 35.9181 27.6931 36.0136 27.6676 36.106L27.552 36.5256L28.3109 36.2138C28.3996 36.1774 28.5009 36.2197 28.5373 36.3084C28.5737 36.397 28.5314 36.4983 28.4428 36.5348L27.6931 36.8427L28.07 37.0488C28.1541 37.0948 28.1849 37.2002 28.139 37.2842C28.093 37.3683 27.9876 37.3992 27.9035 37.3532L27.2802 37.0123L26.6136 37.2861L27.3161 37.6569C27.4008 37.7016 27.4332 37.8066 27.3885 37.8913C27.3437 37.976 27.2388 38.0085 27.1541 37.9637L26.1956 37.4578L24.4988 38.1548L26.2017 38.8208L27.1521 38.23C27.2335 38.1795 27.3405 38.2044 27.3911 38.2858C27.4416 38.3671 27.4167 38.4741 27.3353 38.5247L26.6051 38.9786L27.2968 39.2491L27.9007 38.8877C27.9829 38.8385 28.0894 38.8653 28.1386 38.9475C28.1878 39.0297 28.1611 39.1362 28.0789 39.1854L27.7054 39.4089L28.4694 39.7078C28.5586 39.7427 28.6027 39.8433 28.5678 39.9325C28.5329 40.0218 28.4322 40.0658 28.343 40.0309L27.5883 39.7357L27.7184 40.1451C27.7474 40.2364 27.6969 40.3339 27.6056 40.363C27.5142 40.392 27.4167 40.3415 27.3877 40.2502L27.1725 39.5731L26.5014 39.3106L26.7531 40.064C26.7835 40.1548 26.7345 40.2531 26.6436 40.2835C26.5527 40.3139 26.4544 40.2648 26.424 40.1739L26.0806 39.146L24.3475 38.4681L25.0532 40.1838L26.137 40.4623C26.2298 40.4861 26.2857 40.5807 26.2619 40.6735C26.238 40.7663 26.1435 40.8221 26.0507 40.7983L25.218 40.5843L25.5005 41.2712L26.1791 41.4578C26.2714 41.4832 26.3257 41.5787 26.3003 41.6711C26.2749 41.7634 26.1794 41.8177 26.087 41.7923L25.6674 41.6769L25.9794 42.4356C26.0159 42.5242 25.9736 42.6256 25.885 42.6621C25.7963 42.6985 25.695 42.6562 25.6585 42.5676L25.3503 41.8182L25.1443 42.1952C25.0984 42.2793 24.993 42.3102 24.9089 42.2643C24.8248 42.2183 24.7939 42.1129 24.8398 42.0288L25.1805 41.4054L24.9064 40.739L24.5358 41.4416C24.4911 41.5264 24.3862 41.5588 24.3015 41.5142C24.2167 41.4695 24.1842 41.3645 24.2289 41.2798L24.7345 40.3211L24.0296 38.6074L23.3038 40.3062L23.8649 41.2743C23.913 41.3572 23.8847 41.4633 23.8018 41.5114C23.7189 41.5594 23.6128 41.5312 23.5647 41.4483L23.1336 40.7045L22.8418 41.3875L23.1844 42.0022C23.231 42.0859 23.201 42.1915 23.1173 42.2382C23.0336 42.2848 22.9279 42.2548 22.8813 42.1711L22.6694 41.7909L22.3471 42.5454C22.3094 42.6335 22.2075 42.6744 22.1194 42.6367C22.0313 42.5991 21.9904 42.4972 22.028 42.4091L22.3464 41.6639L21.9332 41.7813C21.841 41.8075 21.7451 41.754 21.7189 41.6618C21.6927 41.5697 21.7462 41.4737 21.8383 41.4475L22.5218 41.2533L22.8049 40.5907L22.0441 40.8191C21.9523 40.8466 21.8556 40.7946 21.828 40.7028C21.8005 40.611 21.8526 40.5143 21.9443 40.4868L22.9825 40.1752L23.706 38.4816L22.0096 39.1837L21.7334 40.2681C21.7097 40.3609 21.6153 40.417 21.5224 40.3934C21.4296 40.3698 21.3735 40.2753 21.3971 40.1825L21.6093 39.3493L20.923 39.6334L20.7379 40.3123C20.7126 40.4048 20.6173 40.4593 20.5248 40.434C20.4324 40.4088 20.3779 40.3135 20.4031 40.221L20.5176 39.8011L19.7595 40.1149C19.671 40.1515 19.5695 40.1095 19.5329 40.0209C19.4963 39.9324 19.5383 39.8309 19.6269 39.7943L20.3757 39.4844L19.9983 39.2793C19.9141 39.2335 19.8829 39.1282 19.9287 39.044C19.9744 38.9598 20.0798 38.9287 20.164 38.9744L20.7882 39.3137L21.4541 39.0381L20.7506 38.6692C20.6658 38.6247 20.633 38.5198 20.6776 38.435C20.7221 38.3501 20.8269 38.3174 20.9118 38.3619L21.8716 38.8653L23.5723 38.1615L21.8687 37.4803L20.9138 38.0639C20.8321 38.1139 20.7253 38.0881 20.6753 38.0064C20.6253 37.9246 20.6511 37.8179 20.7329 37.7679L21.4665 37.3195L20.7768 37.0438L20.1702 37.4006C20.0876 37.4492 19.9813 37.4217 19.9327 37.3391C19.8841 37.2565 19.9117 37.1502 19.9943 37.1016L20.3695 36.8809L19.6077 36.5763C19.5187 36.5407 19.4754 36.4398 19.511 36.3508C19.5466 36.2619 19.6476 36.2186 19.7365 36.2542L20.489 36.555L20.362 36.1447C20.3337 36.0531 20.3849 35.956 20.4764 35.9277C20.568 35.8993 20.6651 35.9505 20.6935 36.0421L20.9035 36.7207L21.5726 36.9883L21.3266 36.233C21.2969 36.1419 21.3467 36.044 21.4378 36.0143C21.5289 35.9847 21.6268 36.0345 21.6565 36.1256L21.9922 37.156L23.7178 37.846L23.0183 36.1305L21.9353 35.8487C21.8426 35.8246 21.787 35.7299 21.8111 35.6371C21.8353 35.5444 21.93 35.4888 22.0227 35.5129L22.8548 35.7294L22.5744 35.0417L21.8964 34.853C21.8041 34.8274 21.7501 34.7317 21.7758 34.6394C21.8015 34.5471 21.8971 34.4931 21.9894 34.5188L22.4088 34.6355L22.099 33.8758C22.0628 33.7871 22.1054 33.6859 22.1942 33.6497Z" fill="#FDFDFD"/>
<path fill-rule="evenodd" clip-rule="evenodd" d="M12.1075 46.8044C12.1567 46.7814 12.2153 46.8026 12.2384 46.8519L12.4332 47.2684L12.5399 47.0492C12.5636 47.0003 12.6226 46.98 12.6715 47.0037C12.7204 47.0275 12.7407 47.0864 12.7169 47.1353L12.5406 47.4979L12.7139 47.8683L12.905 47.46C12.9281 47.4108 12.9867 47.3896 13.0359 47.4126C13.0852 47.4357 13.1064 47.4943 13.0833 47.5435L12.8225 48.1006L13.2689 49.0546L13.6404 48.0725L13.2992 47.537C13.2699 47.4911 13.2834 47.4302 13.3293 47.401C13.3751 47.3718 13.436 47.3853 13.4652 47.4311L13.7274 47.8426L13.8766 47.4484L13.6676 47.108C13.6392 47.0616 13.6537 47.001 13.7001 46.9726C13.7464 46.9441 13.807 46.9586 13.8355 47.005L13.9647 47.2155L14.1294 46.78C14.1487 46.7292 14.2055 46.7035 14.2564 46.7228C14.3072 46.742 14.3329 46.7988 14.3136 46.8497L14.1509 47.2798L14.3824 47.2034C14.434 47.1863 14.4897 47.2143 14.5067 47.266C14.5238 47.3176 14.4957 47.3733 14.4441 47.3903L14.0612 47.5168L13.9165 47.8992L14.3425 47.7516C14.3938 47.7338 14.4499 47.761 14.4677 47.8124C14.4855 47.8637 14.4583 47.9198 14.407 47.9376L13.8258 48.1391L13.4566 49.1148L14.3975 48.6716L14.5246 48.0495C14.5355 47.9962 14.5875 47.9618 14.6408 47.9727C14.6941 47.9836 14.7285 48.0356 14.7176 48.0889L14.6199 48.5669L15.0012 48.3873L15.0878 47.9974C15.0995 47.9443 15.1521 47.9108 15.2052 47.9226C15.2583 47.9344 15.2918 47.987 15.28 48.0401L15.2265 48.2812L15.6477 48.0828C15.6969 48.0596 15.7555 48.0807 15.7787 48.1299C15.8019 48.1791 15.7808 48.2378 15.7316 48.2609L15.3155 48.4569L15.535 48.5629C15.584 48.5866 15.6045 48.6455 15.5808 48.6944C15.5572 48.7434 15.4983 48.7639 15.4493 48.7402L15.0863 48.5649L14.7163 48.7391L15.1251 48.9292C15.1744 48.9521 15.1958 49.0107 15.1728 49.06C15.1499 49.1093 15.0913 49.1306 15.042 49.1077L14.4843 48.8484L13.5426 49.2919L14.5268 49.6207L15.0486 49.2587C15.0932 49.2277 15.1546 49.2388 15.1856 49.2835C15.2166 49.3281 15.2055 49.3895 15.1608 49.4205L14.7599 49.6986L15.1597 49.8322L15.4916 49.6101C15.5368 49.5798 15.598 49.5919 15.6282 49.6371C15.6585 49.6823 15.6463 49.7435 15.6011 49.7737L15.3958 49.9111L15.8374 50.0586C15.889 50.0758 15.9169 50.1316 15.8996 50.1832C15.8824 50.2347 15.8266 50.2626 15.775 50.2454L15.3388 50.0996L15.4243 50.3279C15.4433 50.3789 15.4175 50.4356 15.3666 50.4547C15.3156 50.4737 15.2589 50.4479 15.2398 50.397L15.0985 50.0194L14.7107 49.8898L14.8749 50.3096C14.8947 50.3602 14.8697 50.4173 14.8191 50.4371C14.7684 50.4569 14.7113 50.432 14.6915 50.3813L14.4674 49.8085L13.4658 49.4739L13.9148 50.4261L14.5371 50.5529C14.5904 50.5638 14.6247 50.6158 14.6139 50.6691C14.603 50.7224 14.551 50.7567 14.4977 50.7459L14.0196 50.6484L14.1994 51.0296L14.5894 51.116C14.6424 51.1278 14.6759 51.1803 14.6642 51.2334C14.6524 51.2865 14.5999 51.32 14.5468 51.3082L14.3056 51.2548L14.5042 51.6759C14.5274 51.7251 14.5063 51.7838 14.4571 51.807C14.4079 51.8302 14.3493 51.8091 14.3261 51.7599L14.1299 51.344L14.024 51.5635C14.0003 51.6125 13.9415 51.633 13.8925 51.6094C13.8435 51.5858 13.823 51.5269 13.8466 51.478L14.0219 51.1148L13.8475 50.745L13.6575 51.1538C13.6346 51.2031 13.5761 51.2245 13.5268 51.2016C13.4775 51.1787 13.456 51.1202 13.479 51.0709L13.7381 50.513L13.2896 49.5619L12.9268 50.5455L13.2725 51.0782C13.3021 51.1238 13.2891 51.1847 13.2435 51.2144C13.1979 51.244 13.1369 51.231 13.1073 51.1854L12.8417 50.7761L12.6958 51.1716L12.9076 51.5102C12.9364 51.5563 12.9224 51.617 12.8763 51.6459C12.8302 51.6747 12.7695 51.6607 12.7406 51.6146L12.6097 51.4052L12.4486 51.842C12.4297 51.893 12.3731 51.9191 12.3221 51.9003C12.2711 51.8815 12.245 51.8249 12.2638 51.7739L12.423 51.3424L12.1921 51.4208C12.1406 51.4383 12.0847 51.4107 12.0672 51.3592C12.0497 51.3077 12.0773 51.2518 12.1288 51.2343L12.5106 51.1047L12.6521 50.721L12.2274 50.8722C12.1762 50.8905 12.1199 50.8637 12.1017 50.8125C12.0834 50.7613 12.1102 50.705 12.1614 50.6868L12.7409 50.4804L13.1026 49.4999L12.1611 49.9463L12.0356 50.5688C12.0248 50.6221 11.9729 50.6566 11.9196 50.6459C11.8663 50.6352 11.8318 50.5832 11.8426 50.5299L11.939 50.0517L11.5581 50.2323L11.4726 50.6224C11.461 50.6755 11.4085 50.7091 11.3553 50.6975C11.3022 50.6858 11.2686 50.6333 11.2803 50.5802L11.3332 50.339L10.9125 50.5385C10.8633 50.5618 10.8046 50.5408 10.7813 50.4917C10.758 50.4426 10.779 50.3839 10.8281 50.3606L11.2436 50.1635L11.0239 50.058C10.9748 50.0345 10.9542 49.9757 10.9777 49.9267C11.0012 49.8777 11.06 49.857 11.1091 49.8805L11.4726 50.0549L11.8421 49.8797L11.4328 49.6907C11.3835 49.6679 11.3619 49.6094 11.3847 49.5601C11.4075 49.5107 11.466 49.4892 11.5154 49.512L12.0738 49.7698L13.0176 49.3222L12.0325 48.9849L11.508 49.343C11.4631 49.3737 11.4019 49.3621 11.3712 49.3172C11.3405 49.2723 11.3521 49.211 11.397 49.1804L11.8 48.9053L11.4012 48.7687L11.0676 48.9883C11.0222 49.0182 10.9611 49.0056 10.9312 48.9602C10.9013 48.9148 10.9139 48.8538 10.9593 48.8239L11.1657 48.688L10.7252 48.5372C10.6737 48.5196 10.6463 48.4636 10.6639 48.4122C10.6816 48.3607 10.7375 48.3333 10.789 48.3509L11.2241 48.4999L11.1404 48.271C11.1217 48.2199 11.1479 48.1634 11.199 48.1447C11.2501 48.126 11.3066 48.1523 11.3253 48.2033L11.4638 48.582L11.8506 48.7145L11.6896 48.2935C11.6702 48.2427 11.6956 48.1858 11.7464 48.1663C11.7972 48.1469 11.8541 48.1723 11.8735 48.2231L12.0933 48.7976L13.091 49.1393L12.6455 48.187L12.0236 48.0582C11.9704 48.0472 11.9362 47.9951 11.9472 47.9419C11.9582 47.8886 12.0103 47.8544 12.0636 47.8654L12.5414 47.9643L12.3628 47.5826L11.9731 47.495C11.92 47.4831 11.8867 47.4304 11.8986 47.3774C11.9105 47.3243 11.9632 47.291 12.0163 47.3029L12.2573 47.357L12.06 46.9353C12.0369 46.8861 12.0582 46.8275 12.1075 46.8044Z" fill="#FDFDFD"/>
<circle cx="70.7446" cy="34.0154" r="0.383577" transform="rotate(0.771285 70.7446 34.0154)" fill="#FDFDFD"/>
<circle cx="61.6331" cy="53.575" r="0.383577" transform="rotate(0.771285 61.6331 53.575)" fill="#FDFDFD"/>
<circle cx="27.1111" cy="48.972" r="0.383577" transform="rotate(0.771285 27.1111 48.972)" fill="#FDFDFD"/>
<circle cx="9.46657" cy="32.8616" r="0.383577" transform="rotate(0.771285 9.46657 32.8616)" fill="#FDFDFD"/>
<circle cx="38.6185" cy="40.5332" r="0.383577" transform="rotate(0.771285 38.6185 40.5332)" fill="#FDFDFD"/>
<path fill-rule="evenodd" clip-rule="evenodd" d="M126.694 13.9224C116.593 11.2644 110.461 19.4475 114.134 27.1614C114.891 28.7512 116.618 29.5272 118.361 29.5225L129.444 29.4926C129.842 26.6379 132.681 25.0326 135.931 25.4232C137.276 22.1371 142.555 21.7235 144.796 24.4008C148.637 17.9125 159.807 17.8824 162.124 23.7549C166.59 23.3435 169.982 25.7309 169.991 29.3834L196.461 29.3121C197.673 29.3088 198.799 28.5238 198.938 27.3053C199.599 21.5283 194.07 18.8588 190.344 21.0398C189.816 17.7191 188.759 16.5885 186.807 14.4618C182.657 9.94041 176.012 8.58837 169.946 12.4079C169.255 5.15451 164.822 1.20085 159.759 0.307776C156.933 -0.190716 153.911 0.264346 151.233 1.63138C148.541 3.00631 146.197 5.30377 144.753 8.48147C143.246 7.17704 141.312 6.52201 139.265 6.40473C134.126 6.1103 128.279 9.205 126.694 13.9224Z" fill="#F1F1F1"/>
<path d="M135.931 25.4232C132.681 25.0326 129.842 26.6379 129.444 29.4926L169.991 29.3834C169.982 25.7309 166.59 23.3435 162.124 23.7549C159.807 17.8824 148.637 17.9125 144.796 24.4008C142.555 21.7235 137.276 22.1371 135.931 25.4232Z" fill="#D9D9D9"/>
<path fill-rule="evenodd" clip-rule="evenodd" d="M175.567 34.1074C175.656 34.1418 175.701 34.2421 175.667 34.3315L175.376 35.0881L175.785 34.9554C175.876 34.9258 175.974 34.9757 176.004 35.0668C176.033 35.1579 175.983 35.2558 175.892 35.2854L175.216 35.5048L174.958 36.1775L175.71 35.921C175.801 35.8901 175.899 35.9385 175.93 36.0292C175.961 36.1199 175.913 36.2185 175.822 36.2494L174.796 36.5993L174.131 38.3321L175.832 37.603L176.094 36.5152C176.117 36.4221 176.21 36.3648 176.303 36.3873C176.397 36.4098 176.454 36.5035 176.431 36.5966L176.23 37.4324L176.913 37.1397L177.089 36.4585C177.113 36.3657 177.208 36.31 177.301 36.3341C177.393 36.3581 177.449 36.4528 177.425 36.5455L177.316 36.9669L178.07 36.6436C178.158 36.6058 178.26 36.6466 178.298 36.7347C178.335 36.8227 178.295 36.9247 178.207 36.9625L177.462 37.2818L177.842 37.4821C177.926 37.5268 177.959 37.6317 177.914 37.7165C177.87 37.8012 177.765 37.8337 177.68 37.789L177.051 37.4577L176.389 37.7416L177.097 38.1017C177.183 38.1451 177.217 38.2495 177.173 38.3349C177.13 38.4203 177.025 38.4543 176.94 38.4109L175.974 37.9197L174.284 38.6439L175.997 39.2962L176.942 38.697C177.023 38.6457 177.13 38.6697 177.181 38.7506C177.233 38.8315 177.209 38.9387 177.128 38.99L176.402 39.4504L177.096 39.7148L177.696 39.348C177.778 39.2981 177.885 39.3239 177.935 39.4057C177.985 39.4874 177.959 39.5942 177.877 39.6441L177.506 39.8709L178.272 40.163C178.362 40.1971 178.407 40.2973 178.373 40.3869C178.339 40.4764 178.238 40.5213 178.149 40.4872L177.392 40.1987L177.525 40.6069C177.555 40.698 177.506 40.796 177.415 40.8258C177.323 40.8556 177.225 40.806 177.196 40.715L176.974 40.0398L176.301 39.7833L176.559 40.5344C176.591 40.625 176.542 40.7237 176.452 40.7549C176.361 40.7861 176.263 40.7379 176.231 40.6473L175.879 39.6225L174.165 38.9695L174.95 40.6205L176.048 40.8401C176.142 40.859 176.203 40.9504 176.184 41.0443C176.165 41.1382 176.074 41.1992 175.98 41.1804L175.137 41.0116L175.456 41.6822L176.143 41.832C176.237 41.8524 176.296 41.9448 176.276 42.0384C176.256 42.132 176.163 42.1914 176.07 42.171L175.644 42.0784L175.997 42.8191C176.038 42.9057 176.001 43.0092 175.915 43.0503C175.828 43.0915 175.725 43.0547 175.684 42.9682L175.335 42.2365L175.15 42.6241C175.109 42.7105 175.005 42.7471 174.919 42.7057C174.832 42.6644 174.796 42.5608 174.837 42.4744L175.143 41.8334L174.834 41.1828L174.502 41.9044C174.462 41.9914 174.359 42.0295 174.272 41.9895C174.185 41.9494 174.146 41.8464 174.187 41.7593L174.64 40.7748L173.84 39.0945L173.18 40.8284L173.78 41.7732C173.831 41.8541 173.807 41.9613 173.726 42.0126C173.646 42.064 173.538 42.04 173.487 41.9591L173.026 41.2332L172.762 41.9274L173.129 42.5278C173.179 42.6096 173.154 42.7164 173.072 42.7663C172.99 42.8163 172.883 42.7905 172.833 42.7088L172.606 42.3375L172.315 43.1042C172.281 43.1938 172.18 43.2388 172.091 43.2047C172.001 43.1706 171.956 43.0704 171.99 42.9809L172.278 42.2235L171.87 42.3574C171.779 42.3873 171.681 42.3377 171.651 42.2467C171.621 42.1556 171.671 42.0576 171.762 42.0277L172.437 41.8062L172.693 41.1328L171.942 41.3915C171.852 41.4227 171.753 41.3746 171.722 41.284C171.69 41.1935 171.739 41.0947 171.829 41.0635L172.854 40.7104L173.513 38.9785L171.821 39.7205L171.568 40.8104C171.546 40.9037 171.453 40.9618 171.359 40.9401C171.266 40.9184 171.208 40.8252 171.23 40.7318L171.424 39.8945L170.744 40.1928L170.573 40.8755C170.55 40.9684 170.456 41.0249 170.363 41.0016C170.27 40.9784 170.213 40.8841 170.237 40.7912L170.342 40.369L169.591 40.6985C169.503 40.737 169.401 40.6971 169.362 40.6093C169.324 40.5216 169.364 40.4193 169.452 40.3808L170.194 40.0553L169.812 39.8581C169.727 39.8141 169.693 39.7095 169.737 39.6244C169.781 39.5393 169.886 39.5059 169.971 39.5499L170.602 39.876L171.262 39.5865L170.551 39.2324C170.466 39.1897 170.431 39.0856 170.473 38.9998C170.516 38.914 170.62 38.8791 170.706 38.9219L171.676 39.405L173.363 38.6653L171.645 38.0163L170.702 38.618C170.621 38.6695 170.514 38.6458 170.462 38.565C170.411 38.4843 170.434 38.377 170.515 38.3255L171.24 37.8632L170.545 37.6007L169.946 37.969C169.864 38.0192 169.757 37.9936 169.707 37.912C169.657 37.8304 169.682 37.7235 169.764 37.6734L170.135 37.4456L169.367 37.1556C169.278 37.1217 169.233 37.0216 169.266 36.9319C169.3 36.8423 169.4 36.7971 169.49 36.831L170.248 37.1175L170.113 36.7096C170.083 36.6187 170.133 36.5205 170.224 36.4905C170.315 36.4604 170.413 36.5098 170.443 36.6007L170.666 37.2753L171.34 37.53L171.079 36.7796C171.048 36.6891 171.096 36.5903 171.186 36.5588C171.277 36.5274 171.376 36.5753 171.407 36.6659L171.763 37.6898L173.484 38.3404L172.708 36.6779L171.613 36.45C171.519 36.4305 171.459 36.3386 171.478 36.2448C171.498 36.151 171.589 36.0908 171.683 36.1103L172.525 36.2854L172.211 35.6124L171.524 35.4575C171.431 35.4364 171.372 35.3435 171.393 35.25C171.414 35.1566 171.507 35.0979 171.601 35.119L172.025 35.2148L171.678 34.4714C171.638 34.3846 171.675 34.2814 171.762 34.2408C171.849 34.2003 171.952 34.2379 171.993 34.3247L172.335 35.059L172.524 34.6729C172.566 34.5867 172.669 34.551 172.756 34.5929C172.842 34.6349 172.877 34.7388 172.836 34.8249L172.524 35.4635L172.829 36.1165L173.166 35.3974C173.207 35.3107 173.31 35.2733 173.397 35.314C173.484 35.3547 173.521 35.458 173.481 35.5448L173.02 36.5259L173.806 38.2099L174.47 36.4804L173.873 35.5337C173.822 35.4527 173.847 35.3456 173.928 35.2945C174.009 35.2434 174.116 35.2677 174.167 35.3487L174.625 36.076L174.892 35.3826L174.526 34.7811C174.477 34.6992 174.503 34.5925 174.585 34.5428C174.667 34.493 174.773 34.5191 174.823 34.601L175.049 34.9731L175.343 34.2072C175.377 34.1177 175.478 34.0731 175.567 34.1074Z" fill="#FDFDFD"/>
<path fill-rule="evenodd" clip-rule="evenodd" d="M187.183 44.4923C187.184 44.5287 187.154 44.5583 187.118 44.5585L186.811 44.5602L186.914 44.6863C186.937 44.7144 186.933 44.7558 186.905 44.7789C186.876 44.8019 186.835 44.7978 186.812 44.7697L186.641 44.5612L186.368 44.5627L186.562 44.793C186.586 44.8207 186.582 44.8622 186.554 44.8857C186.527 44.9091 186.485 44.9056 186.462 44.8778L186.197 44.5637L185.493 44.5677L185.985 45.068L186.405 45.0107C186.441 45.0057 186.475 45.031 186.479 45.067C186.484 45.103 186.459 45.1361 186.423 45.141L186.1 45.1851L186.298 45.3859L186.563 45.3543C186.599 45.35 186.631 45.3758 186.636 45.4119C186.64 45.448 186.614 45.4807 186.578 45.485L186.414 45.5045L186.632 45.7263C186.658 45.7522 186.658 45.7939 186.632 45.8194C186.606 45.8449 186.564 45.8445 186.539 45.8186L186.323 45.5995L186.305 45.7614C186.301 45.7975 186.268 45.8235 186.232 45.8194C186.196 45.8153 186.17 45.7827 186.174 45.7466L186.204 45.4788L186.013 45.284L185.983 45.5838C185.98 45.62 185.947 45.6464 185.911 45.6428C185.875 45.6393 185.849 45.6071 185.852 45.5709L185.893 45.1618L185.404 44.6648L185.409 45.3598L185.751 45.611C185.781 45.6326 185.787 45.6737 185.766 45.703C185.744 45.7323 185.703 45.7386 185.674 45.7171L185.411 45.5241L185.413 45.8057L185.626 45.9674C185.654 45.9894 185.66 46.0307 185.638 46.0596C185.616 46.0885 185.575 46.0941 185.546 46.0721L185.414 45.9721L185.417 46.2833C185.417 46.3196 185.388 46.3493 185.352 46.3496C185.315 46.3499 185.286 46.3207 185.285 46.2844L185.283 45.977L185.157 46.0806C185.129 46.1037 185.088 46.0997 185.065 46.0716C185.041 46.0436 185.045 46.0021 185.074 45.979L185.282 45.8077L185.279 45.5344L185.05 45.7293C185.022 45.7528 184.98 45.7494 184.957 45.7217C184.933 45.694 184.937 45.6525 184.964 45.629L185.278 45.363L185.272 44.6674L184.797 45.1727L184.871 45.5907C184.877 45.6265 184.853 45.6606 184.818 45.6669C184.782 45.6732 184.748 45.6494 184.741 45.6136L184.685 45.2924L184.492 45.4977L184.534 45.7613C184.539 45.7972 184.515 45.8309 184.479 45.8366C184.443 45.8423 184.41 45.8179 184.404 45.782L184.378 45.619L184.165 45.8457C184.14 45.8722 184.098 45.8735 184.072 45.8486C184.045 45.8237 184.044 45.7821 184.069 45.7556L184.279 45.5316L184.117 45.5196C184.081 45.5169 184.053 45.4854 184.056 45.4491C184.059 45.4129 184.09 45.3857 184.127 45.3883L184.395 45.4082L184.582 45.2091L184.282 45.1913C184.245 45.1891 184.218 45.158 184.22 45.1217C184.222 45.0854 184.253 45.0578 184.29 45.0599L184.7 45.0842L185.183 44.5699L184.48 44.576L184.229 44.9182C184.207 44.9475 184.166 44.9538 184.137 44.9323C184.107 44.9108 184.101 44.8696 184.122 44.8403L184.315 44.5774L184.034 44.5799L183.872 44.7924C183.85 44.8213 183.809 44.8269 183.78 44.805C183.751 44.783 183.745 44.7417 183.767 44.7127L183.867 44.5813L183.556 44.584C183.52 44.5843 183.49 44.5551 183.49 44.5188C183.49 44.4825 183.519 44.4528 183.555 44.4524L183.862 44.4498L183.759 44.324C183.736 44.296 183.74 44.2545 183.768 44.2314C183.796 44.2083 183.837 44.2123 183.86 44.2403L184.032 44.4483L184.305 44.4459L184.11 44.2163C184.086 44.1886 184.09 44.147 184.118 44.1235C184.145 44.1 184.187 44.1034 184.21 44.1311L184.476 44.4444L185.179 44.4383L184.684 43.9429L184.264 44.0037C184.228 44.009 184.194 43.984 184.189 43.9481C184.184 43.9121 184.209 43.8787 184.245 43.8735L184.567 43.8268L184.368 43.6276L184.103 43.6614C184.067 43.666 184.034 43.6405 184.03 43.6045C184.025 43.5684 184.051 43.5355 184.087 43.5309L184.251 43.51L184.031 43.29C184.005 43.2643 184.005 43.2226 184.031 43.1969C184.056 43.1712 184.098 43.1712 184.124 43.1969L184.341 43.4142L184.358 43.2522C184.362 43.216 184.394 43.1898 184.43 43.1936C184.466 43.1974 184.493 43.2298 184.489 43.2659L184.461 43.5339L184.654 43.7272L184.681 43.4271C184.684 43.3909 184.716 43.3642 184.752 43.3675C184.789 43.3707 184.815 43.4027 184.812 43.4389L184.775 43.8483L185.269 44.3422L185.261 43.6459L184.919 43.3955C184.889 43.3741 184.883 43.3329 184.904 43.3036C184.926 43.2742 184.967 43.2678 184.996 43.2893L185.26 43.4816L185.257 43.1999L185.044 43.0389C185.015 43.0169 185.009 42.9757 185.031 42.9467C185.053 42.9177 185.094 42.912 185.123 42.9339L185.255 43.0335L185.251 42.7224C185.251 42.686 185.28 42.6563 185.317 42.6559C185.353 42.6555 185.383 42.6846 185.383 42.721L185.386 43.0283L185.512 42.9244C185.54 42.9012 185.581 42.9051 185.604 42.9331C185.628 42.9611 185.624 43.0026 185.596 43.0258L185.388 43.1976L185.391 43.4709L185.62 43.2754C185.648 43.2518 185.69 43.2551 185.713 43.2827C185.737 43.3104 185.733 43.3519 185.706 43.3755L185.393 43.6423L185.401 44.3403L185.881 43.8368L185.81 43.4183C185.804 43.3825 185.828 43.3485 185.864 43.3425C185.9 43.3364 185.934 43.3606 185.94 43.3964L185.994 43.718L186.189 43.5141L186.149 43.2502C186.143 43.2143 186.168 43.1808 186.204 43.1753C186.24 43.1699 186.273 43.1946 186.279 43.2305L186.304 43.3937L186.518 43.1686C186.544 43.1423 186.585 43.1413 186.611 43.1664C186.638 43.1915 186.639 43.2332 186.614 43.2595L186.401 43.4818L186.564 43.4951C186.6 43.498 186.627 43.5298 186.624 43.566C186.621 43.6022 186.589 43.6292 186.553 43.6262L186.285 43.6043L186.096 43.8021L186.397 43.8221C186.433 43.8245 186.46 43.8559 186.458 43.8922C186.455 43.9284 186.424 43.9559 186.388 43.9534L185.978 43.9261L185.491 44.4361L186.194 44.4321L186.446 44.0907C186.467 44.0615 186.509 44.0553 186.538 44.0768C186.567 44.0984 186.573 44.1396 186.552 44.1689L186.358 44.4312L186.64 44.4296L186.802 44.2176C186.824 44.1887 186.865 44.1832 186.894 44.2053C186.923 44.2274 186.928 44.2687 186.906 44.2975L186.806 44.4287L187.117 44.4269C187.154 44.4267 187.183 44.456 187.183 44.4923Z" fill="#FDFDFD"/>
<path fill-rule="evenodd" clip-rule="evenodd" d="M159.564 45.0981C159.606 45.0856 159.651 45.11 159.663 45.1527L159.769 45.5131L159.882 45.3493C159.908 45.3127 159.958 45.3036 159.994 45.3288C160.031 45.3541 160.04 45.4042 160.015 45.4407L159.828 45.7117L159.922 46.0322L160.127 45.7262C160.151 45.6893 160.201 45.6794 160.238 45.7041C160.275 45.7288 160.285 45.7787 160.26 45.8157L159.981 46.2332L160.223 47.0589L160.645 46.3117L160.435 45.837C160.417 45.7964 160.436 45.7489 160.476 45.731C160.517 45.7131 160.565 45.7315 160.582 45.7721L160.743 46.1368L160.913 45.8369L160.786 45.5362C160.769 45.4952 160.788 45.4481 160.829 45.4308C160.87 45.4136 160.917 45.4328 160.934 45.4737L161.012 45.6597L161.199 45.3284C161.221 45.2897 161.27 45.2761 161.309 45.2979C161.348 45.3197 161.361 45.3688 161.34 45.4074L161.155 45.7347L161.351 45.7016C161.395 45.6942 161.437 45.7237 161.444 45.7675C161.451 45.8113 161.422 45.8528 161.378 45.8602L161.053 45.9149L160.889 46.2059L161.251 46.1393C161.295 46.1313 161.337 46.1602 161.345 46.2039C161.353 46.2476 161.324 46.2895 161.28 46.2976L160.786 46.3884L160.367 47.1307L161.182 46.8891L161.362 46.4024C161.377 46.3607 161.423 46.3394 161.465 46.3548C161.507 46.3702 161.528 46.4164 161.512 46.4581L161.374 46.8321L161.705 46.7342L161.823 46.43C161.839 46.3886 161.885 46.3681 161.927 46.3841C161.968 46.4002 161.989 46.4468 161.973 46.4882L161.9 46.6763L162.264 46.5682C162.307 46.5556 162.352 46.5799 162.364 46.6225C162.377 46.665 162.353 46.7098 162.31 46.7224L161.95 46.8292L162.114 46.942C162.151 46.9672 162.16 47.0172 162.135 47.0538C162.11 47.0905 162.06 47.0997 162.023 47.0746L161.751 46.8881L161.431 46.983L161.738 47.1871C161.775 47.2117 161.785 47.2616 161.76 47.2986C161.735 47.3356 161.686 47.3456 161.649 47.321L161.23 47.0426L160.415 47.2844L161.169 47.6716L161.635 47.4437C161.675 47.4242 161.723 47.4408 161.743 47.4807C161.762 47.5206 161.746 47.5687 161.706 47.5882L161.348 47.7633L161.654 47.9206L161.95 47.7822C161.99 47.7634 162.038 47.7808 162.056 47.821C162.075 47.8612 162.058 47.9091 162.018 47.9279L161.835 48.0135L162.173 48.1872C162.213 48.2075 162.228 48.256 162.208 48.2955C162.188 48.335 162.139 48.3506 162.1 48.3303L161.766 48.1587L161.806 48.3536C161.815 48.3971 161.788 48.4397 161.744 48.4488C161.701 48.4579 161.658 48.43 161.649 48.3866L161.581 48.0642L161.284 47.9116L161.365 48.2709C161.375 48.3142 161.347 48.3572 161.304 48.367C161.261 48.3767 161.218 48.3495 161.208 48.3061L161.098 47.8159L160.33 47.4218L160.575 48.2463L161.062 48.4256C161.104 48.441 161.125 48.4872 161.11 48.5289C161.094 48.5706 161.048 48.5919 161.006 48.5766L160.632 48.4388L160.73 48.7688L161.035 48.8868C161.076 48.9029 161.097 48.9494 161.081 48.9909C161.065 49.0323 161.018 49.0528 160.977 49.0368L160.788 48.9638L160.897 49.3284C160.909 49.371 160.885 49.4158 160.842 49.4284C160.8 49.4411 160.755 49.4168 160.742 49.3742L160.635 49.0141L160.523 49.1783C160.498 49.2149 160.448 49.2242 160.411 49.1991C160.374 49.174 160.365 49.1239 160.39 49.0873L160.577 48.8157L160.481 48.4954L160.278 48.8021C160.253 48.8391 160.203 48.8492 160.166 48.8246C160.129 48.8 160.119 48.7501 160.144 48.7131L160.422 48.2946L160.177 47.4711L159.763 48.2205L159.976 48.6934C159.994 48.7339 159.976 48.7815 159.936 48.7998C159.895 48.8181 159.848 48.8001 159.829 48.7596L159.665 48.3963L159.499 48.6976L159.628 48.9972C159.645 49.038 159.627 49.0853 159.586 49.1029C159.545 49.1205 159.498 49.1017 159.48 49.0609L159.4 48.8756L159.216 49.2084C159.195 49.2473 159.146 49.2613 159.107 49.2398C159.068 49.2183 159.054 49.1694 159.075 49.1305L159.257 48.8018L159.061 48.8365C159.017 48.8443 158.976 48.8151 158.968 48.7714C158.96 48.7276 158.989 48.6859 159.033 48.6781L159.357 48.6207L159.519 48.3283L159.157 48.3979C159.114 48.4063 159.072 48.3778 159.063 48.3341C159.055 48.2905 159.083 48.2484 159.127 48.24L159.621 48.145L160.034 47.3979L159.218 47.642L159.04 48.1292C159.025 48.1709 158.979 48.1923 158.937 48.1771C158.895 48.1618 158.874 48.1156 158.889 48.0739L159.026 47.6996L158.696 47.7984L158.579 48.1028C158.563 48.1443 158.516 48.1649 158.475 48.149C158.433 48.133 158.413 48.0864 158.429 48.045L158.501 47.8567L158.137 47.9658C158.094 47.9785 158.049 47.9544 158.037 47.9118C158.024 47.8692 158.048 47.8244 158.091 47.8117L158.451 47.7039L158.286 47.5916C158.25 47.5665 158.24 47.5165 158.265 47.4798C158.29 47.4431 158.34 47.4337 158.377 47.4588L158.649 47.6446L158.969 47.5487L158.662 47.3455C158.625 47.321 158.615 47.2711 158.639 47.2341C158.664 47.197 158.714 47.1869 158.751 47.2114L159.17 47.4887L159.987 47.2439L159.233 46.8497L158.766 47.074C158.726 47.0932 158.677 47.0763 158.658 47.0363C158.639 46.9962 158.656 46.9482 158.696 46.929L159.055 46.7566L158.75 46.5971L158.454 46.7332C158.413 46.7517 158.366 46.734 158.347 46.6936C158.329 46.6532 158.346 46.6055 158.387 46.587L158.57 46.5028L158.233 46.3265C158.194 46.3059 158.178 46.2573 158.199 46.218C158.22 46.1786 158.268 46.1634 158.308 46.184L158.641 46.3581L158.601 46.1629C158.592 46.1193 158.621 46.0769 158.664 46.0681C158.708 46.0594 158.75 46.0876 158.759 46.1311L158.824 46.454L159.12 46.6088L159.042 46.2489C159.033 46.2055 159.06 46.1627 159.104 46.1533C159.147 46.1439 159.19 46.1714 159.199 46.2149L159.306 46.7059L160.069 47.1052L159.827 46.2811L159.341 46.1003C159.299 46.0848 159.278 46.0385 159.293 45.9968C159.309 45.9552 159.355 45.934 159.397 45.9495L159.771 46.0885L159.673 45.7581L159.37 45.6392C159.328 45.623 159.308 45.5764 159.324 45.535C159.34 45.4936 159.387 45.4732 159.428 45.4894L159.616 45.5629L159.509 45.198C159.496 45.1554 159.521 45.1107 159.564 45.0981Z" fill="#FDFDFD"/>
<path fill-rule="evenodd" clip-rule="evenodd" d="M135.194 33.6497C135.283 33.6135 135.384 33.6561 135.42 33.7448L135.726 34.4952L135.933 34.1188C135.98 34.0349 136.085 34.0043 136.169 34.0505C136.253 34.0967 136.284 34.2022 136.237 34.2861L135.895 34.9085L136.167 35.5758L136.54 34.8743C136.585 34.7897 136.69 34.7575 136.774 34.8025C136.859 34.8474 136.891 34.9524 136.846 35.037L136.337 35.9942L137.038 37.7129L137.779 36.0174L137.226 35.0446C137.179 34.9614 137.208 34.8554 137.291 34.8081C137.375 34.7607 137.481 34.7899 137.528 34.8732L137.953 35.6205L138.25 34.94L137.913 34.3224C137.867 34.2384 137.898 34.133 137.982 34.087C138.066 34.0411 138.171 34.072 138.217 34.1561L138.426 34.538L138.755 33.7863C138.793 33.6985 138.895 33.6584 138.983 33.6968C139.071 33.7351 139.111 33.8374 139.073 33.9252L138.748 34.6677L139.162 34.5538C139.255 34.5283 139.35 34.5826 139.376 34.675C139.401 34.7674 139.347 34.8629 139.254 34.8883L138.569 35.0768L138.281 35.737L139.043 35.515C139.135 35.4882 139.232 35.5411 139.258 35.6331C139.285 35.7251 139.232 35.8213 139.14 35.8481L138.1 36.1511L137.363 37.8353L139.058 37.1391L139.338 36.0554C139.361 35.9626 139.456 35.9068 139.549 35.9307C139.642 35.9545 139.697 36.0491 139.674 36.1419L139.459 36.9745L140.146 36.6923L140.333 36.0138C140.359 35.9214 140.454 35.8672 140.546 35.8926C140.639 35.9181 140.693 36.0136 140.668 36.106L140.552 36.5256L141.311 36.2138C141.4 36.1774 141.501 36.2197 141.537 36.3084C141.574 36.397 141.531 36.4983 141.443 36.5348L140.693 36.8427L141.07 37.0488C141.154 37.0948 141.185 37.2002 141.139 37.2842C141.093 37.3683 140.988 37.3992 140.904 37.3532L140.28 37.0123L139.614 37.2861L140.316 37.6569C140.401 37.7016 140.433 37.8066 140.388 37.8913C140.344 37.976 140.239 38.0085 140.154 37.9637L139.196 37.4578L137.499 38.1548L139.202 38.8208L140.152 38.23C140.234 38.1795 140.34 38.2044 140.391 38.2858C140.442 38.3671 140.417 38.4741 140.335 38.5247L139.605 38.9786L140.297 39.2491L140.901 38.8877C140.983 38.8385 141.089 38.8653 141.139 38.9475C141.188 39.0297 141.161 39.1362 141.079 39.1854L140.705 39.4089L141.469 39.7078C141.559 39.7427 141.603 39.8433 141.568 39.9325C141.533 40.0218 141.432 40.0658 141.343 40.0309L140.588 39.7357L140.718 40.1451C140.747 40.2364 140.697 40.3339 140.606 40.363C140.514 40.392 140.417 40.3415 140.388 40.2502L140.173 39.5731L139.501 39.3106L139.753 40.064C139.784 40.1548 139.734 40.2531 139.644 40.2835C139.553 40.3139 139.454 40.2648 139.424 40.1739L139.081 39.146L137.348 38.4681L138.053 40.1838L139.137 40.4623C139.23 40.4861 139.286 40.5807 139.262 40.6735C139.238 40.7663 139.143 40.8221 139.051 40.7983L138.218 40.5843L138.5 41.2712L139.179 41.4578C139.271 41.4832 139.326 41.5787 139.3 41.6711C139.275 41.7634 139.179 41.8177 139.087 41.7923L138.667 41.6769L138.979 42.4356C139.016 42.5242 138.974 42.6256 138.885 42.6621C138.796 42.6985 138.695 42.6562 138.659 42.5676L138.35 41.8182L138.144 42.1952C138.098 42.2793 137.993 42.3102 137.909 42.2643C137.825 42.2183 137.794 42.1129 137.84 42.0288L138.18 41.4054L137.906 40.739L137.536 41.4416C137.491 41.5264 137.386 41.5588 137.301 41.5142C137.217 41.4695 137.184 41.3645 137.229 41.2798L137.734 40.3211L137.03 38.6074L136.304 40.3062L136.865 41.2743C136.913 41.3572 136.885 41.4633 136.802 41.5114C136.719 41.5594 136.613 41.5312 136.565 41.4483L136.134 40.7045L135.842 41.3875L136.184 42.0022C136.231 42.0859 136.201 42.1915 136.117 42.2382C136.034 42.2848 135.928 42.2548 135.881 42.1711L135.669 41.7909L135.347 42.5454C135.309 42.6335 135.207 42.6744 135.119 42.6367C135.031 42.5991 134.99 42.4972 135.028 42.4091L135.346 41.6639L134.933 41.7813C134.841 41.8075 134.745 41.754 134.719 41.6618C134.693 41.5697 134.746 41.4737 134.838 41.4475L135.522 41.2533L135.805 40.5907L135.044 40.8191C134.952 40.8466 134.856 40.7946 134.828 40.7028C134.801 40.611 134.853 40.5143 134.944 40.4868L135.982 40.1752L136.706 38.4816L135.01 39.1837L134.733 40.2681C134.71 40.3609 134.615 40.417 134.522 40.3934C134.43 40.3698 134.373 40.2753 134.397 40.1825L134.609 39.3493L133.923 39.6334L133.738 40.3123C133.713 40.4048 133.617 40.4593 133.525 40.434C133.432 40.4088 133.378 40.3135 133.403 40.221L133.518 39.8011L132.76 40.1149C132.671 40.1515 132.57 40.1095 132.533 40.0209C132.496 39.9324 132.538 39.8309 132.627 39.7943L133.376 39.4844L132.998 39.2793C132.914 39.2335 132.883 39.1282 132.929 39.044C132.974 38.9598 133.08 38.9287 133.164 38.9744L133.788 39.3137L134.454 39.0381L133.751 38.6692C133.666 38.6247 133.633 38.5198 133.678 38.435C133.722 38.3501 133.827 38.3174 133.912 38.3619L134.872 38.8653L136.572 38.1615L134.869 37.4803L133.914 38.0639C133.832 38.1139 133.725 38.0881 133.675 38.0064C133.625 37.9246 133.651 37.8179 133.733 37.7679L134.466 37.3195L133.777 37.0438L133.17 37.4006C133.088 37.4492 132.981 37.4217 132.933 37.3391C132.884 37.2565 132.912 37.1502 132.994 37.1016L133.369 36.8809L132.608 36.5763C132.519 36.5407 132.475 36.4398 132.511 36.3508C132.547 36.2619 132.648 36.2186 132.737 36.2542L133.489 36.555L133.362 36.1447C133.334 36.0531 133.385 35.956 133.476 35.9277C133.568 35.8993 133.665 35.9505 133.693 36.0421L133.904 36.7207L134.573 36.9883L134.327 36.233C134.297 36.1419 134.347 36.044 134.438 36.0143C134.529 35.9847 134.627 36.0345 134.656 36.1256L134.992 37.156L136.718 37.846L136.018 36.1305L134.935 35.8487C134.843 35.8246 134.787 35.7299 134.811 35.6371C134.835 35.5444 134.93 35.4888 135.023 35.5129L135.855 35.7294L135.574 35.0417L134.896 34.853C134.804 34.8274 134.75 34.7317 134.776 34.6394C134.801 34.5471 134.897 34.4931 134.989 34.5188L135.409 34.6355L135.099 33.8758C135.063 33.7871 135.105 33.6859 135.194 33.6497Z" fill="#FDFDFD"/>
<path fill-rule="evenodd" clip-rule="evenodd" d="M125.107 46.8044C125.157 46.7814 125.215 46.8026 125.238 46.8519L125.433 47.2684L125.54 47.0492C125.564 47.0003 125.623 46.98 125.671 47.0037C125.72 47.0275 125.741 47.0864 125.717 47.1353L125.541 47.4979L125.714 47.8683L125.905 47.46C125.928 47.4108 125.987 47.3896 126.036 47.4126C126.085 47.4357 126.106 47.4943 126.083 47.5435L125.823 48.1006L126.269 49.0546L126.64 48.0725L126.299 47.537C126.27 47.4911 126.283 47.4302 126.329 47.401C126.375 47.3718 126.436 47.3853 126.465 47.4311L126.727 47.8426L126.877 47.4484L126.668 47.108C126.639 47.0616 126.654 47.001 126.7 46.9726C126.746 46.9441 126.807 46.9586 126.835 47.005L126.965 47.2155L127.129 46.78C127.149 46.7292 127.206 46.7035 127.256 46.7228C127.307 46.742 127.333 46.7988 127.314 46.8497L127.151 47.2798L127.382 47.2034C127.434 47.1863 127.49 47.2143 127.507 47.266C127.524 47.3176 127.496 47.3733 127.444 47.3903L127.061 47.5168L126.917 47.8992L127.342 47.7516C127.394 47.7338 127.45 47.761 127.468 47.8124C127.486 47.8637 127.458 47.9198 127.407 47.9376L126.826 48.1391L126.457 49.1148L127.397 48.6716L127.525 48.0495C127.536 47.9962 127.588 47.9618 127.641 47.9727C127.694 47.9836 127.728 48.0356 127.718 48.0889L127.62 48.5669L128.001 48.3873L128.088 47.9974C128.1 47.9443 128.152 47.9108 128.205 47.9226C128.258 47.9344 128.292 47.987 128.28 48.0401L128.226 48.2812L128.648 48.0828C128.697 48.0596 128.756 48.0807 128.779 48.1299C128.802 48.1791 128.781 48.2378 128.732 48.2609L128.316 48.4569L128.535 48.5629C128.584 48.5866 128.604 48.6455 128.581 48.6944C128.557 48.7434 128.498 48.7639 128.449 48.7402L128.086 48.5649L127.716 48.7391L128.125 48.9292C128.174 48.9521 128.196 49.0107 128.173 49.06C128.15 49.1093 128.091 49.1306 128.042 49.1077L127.484 48.8484L126.543 49.2919L127.527 49.6207L128.049 49.2587C128.093 49.2277 128.155 49.2388 128.186 49.2835C128.217 49.3281 128.205 49.3895 128.161 49.4205L127.76 49.6986L128.16 49.8322L128.492 49.6101C128.537 49.5798 128.598 49.5919 128.628 49.6371C128.658 49.6823 128.646 49.7435 128.601 49.7737L128.396 49.9111L128.837 50.0586C128.889 50.0758 128.917 50.1316 128.9 50.1832C128.882 50.2347 128.827 50.2626 128.775 50.2454L128.339 50.0996L128.424 50.3279C128.443 50.3789 128.417 50.4356 128.367 50.4547C128.316 50.4737 128.259 50.4479 128.24 50.397L128.099 50.0194L127.711 49.8898L127.875 50.3096C127.895 50.3602 127.87 50.4173 127.819 50.4371C127.768 50.4569 127.711 50.432 127.691 50.3813L127.467 49.8085L126.466 49.4739L126.915 50.4261L127.537 50.5529C127.59 50.5638 127.625 50.6158 127.614 50.6691C127.603 50.7224 127.551 50.7567 127.498 50.7459L127.02 50.6484L127.199 51.0296L127.589 51.116C127.642 51.1278 127.676 51.1803 127.664 51.2334C127.652 51.2865 127.6 51.32 127.547 51.3082L127.306 51.2548L127.504 51.6759C127.527 51.7251 127.506 51.7838 127.457 51.807C127.408 51.8302 127.349 51.8091 127.326 51.7599L127.13 51.344L127.024 51.5635C127 51.6125 126.941 51.633 126.893 51.6094C126.844 51.5858 126.823 51.5269 126.847 51.478L127.022 51.1148L126.847 50.745L126.658 51.1538C126.635 51.2031 126.576 51.2245 126.527 51.2016C126.477 51.1787 126.456 51.1202 126.479 51.0709L126.738 50.513L126.29 49.5619L125.927 50.5455L126.273 51.0782C126.302 51.1238 126.289 51.1847 126.244 51.2144C126.198 51.244 126.137 51.231 126.107 51.1854L125.842 50.7761L125.696 51.1716L125.908 51.5102C125.936 51.5563 125.922 51.617 125.876 51.6459C125.83 51.6747 125.769 51.6607 125.741 51.6146L125.61 51.4052L125.449 51.842C125.43 51.893 125.373 51.9191 125.322 51.9003C125.271 51.8815 125.245 51.8249 125.264 51.7739L125.423 51.3424L125.192 51.4208C125.141 51.4383 125.085 51.4107 125.067 51.3592C125.05 51.3077 125.077 51.2518 125.129 51.2343L125.511 51.1047L125.652 50.721L125.227 50.8722C125.176 50.8905 125.12 50.8637 125.102 50.8125C125.083 50.7613 125.11 50.705 125.161 50.6868L125.741 50.4804L126.103 49.4999L125.161 49.9463L125.036 50.5688C125.025 50.6221 124.973 50.6566 124.92 50.6459C124.866 50.6352 124.832 50.5832 124.843 50.5299L124.939 50.0517L124.558 50.2323L124.473 50.6224C124.461 50.6755 124.408 50.7091 124.355 50.6975C124.302 50.6858 124.269 50.6333 124.28 50.5802L124.333 50.339L123.912 50.5385C123.863 50.5618 123.805 50.5408 123.781 50.4917C123.758 50.4426 123.779 50.3839 123.828 50.3606L124.244 50.1635L124.024 50.058C123.975 50.0345 123.954 49.9757 123.978 49.9267C124.001 49.8777 124.06 49.857 124.109 49.8805L124.473 50.0549L124.842 49.8797L124.433 49.6907C124.383 49.6679 124.362 49.6094 124.385 49.5601C124.408 49.5107 124.466 49.4892 124.515 49.512L125.074 49.7698L126.018 49.3222L125.033 48.9849L124.508 49.343C124.463 49.3737 124.402 49.3621 124.371 49.3172C124.341 49.2723 124.352 49.211 124.397 49.1804L124.8 48.9053L124.401 48.7687L124.068 48.9883C124.022 49.0182 123.961 49.0056 123.931 48.9602C123.901 48.9148 123.914 48.8538 123.959 48.8239L124.166 48.688L123.725 48.5372C123.674 48.5196 123.646 48.4636 123.664 48.4122C123.682 48.3607 123.738 48.3333 123.789 48.3509L124.224 48.4999L124.14 48.271C124.122 48.2199 124.148 48.1634 124.199 48.1447C124.25 48.126 124.307 48.1523 124.325 48.2033L124.464 48.582L124.851 48.7145L124.69 48.2935C124.67 48.2427 124.696 48.1858 124.746 48.1663C124.797 48.1469 124.854 48.1723 124.874 48.2231L125.093 48.7976L126.091 49.1393L125.646 48.187L125.024 48.0582C124.97 48.0472 124.936 47.9951 124.947 47.9419C124.958 47.8886 125.01 47.8544 125.064 47.8654L125.541 47.9643L125.363 47.5826L124.973 47.495C124.92 47.4831 124.887 47.4304 124.899 47.3774C124.911 47.3243 124.963 47.291 125.016 47.3029L125.257 47.357L125.06 46.9353C125.037 46.8861 125.058 46.8275 125.107 46.8044Z" fill="#FDFDFD"/>
<circle cx="183.745" cy="34.0154" r="0.383577" transform="rotate(0.771285 183.745 34.0154)" fill="#FDFDFD"/>
<circle cx="174.633" cy="53.575" r="0.383577" transform="rotate(0.771285 174.633 53.575)" fill="#FDFDFD"/>
<circle cx="140.111" cy="48.972" r="0.383577" transform="rotate(0.771285 140.111 48.972)" fill="#FDFDFD"/>
<circle cx="122.467" cy="32.8616" r="0.383577" transform="rotate(0.771285 122.467 32.8616)" fill="#FDFDFD"/>
<circle cx="151.618" cy="40.5332" r="0.383577" transform="rotate(0.771285 151.618 40.5332)" fill="#FDFDFD"/>
</svg>
