<svg width="199" height="56" viewBox="0 0 199 56" fill="none" xmlns="http://www.w3.org/2000/svg">
<path fill-rule="evenodd" clip-rule="evenodd" d="M13.3518 16.7C3.48361 14.0967 -2.53268 22.0141 1.03792 29.5023C1.77382 31.0456 3.45958 31.8024 5.1642 31.8024H15.9988C16.3959 29.0358 19.1754 27.4868 22.352 27.8741C23.6757 24.6917 28.8376 24.3045 31.0215 26.906C34.7937 20.6257 45.7132 20.6257 47.9631 26.3251C52.3309 25.9379 55.64 28.2613 55.64 31.8024H81.5176C82.7024 31.8024 83.8051 31.0443 83.9446 29.8633C84.6056 24.2643 79.2078 21.6618 75.5597 23.7666C75.0516 20.5458 74.0212 19.4469 72.1185 17.38C68.0733 12.9857 61.5811 11.6576 55.64 15.3447C54.9843 8.31082 50.6607 4.46621 45.7132 3.58715C42.9516 3.09649 39.9957 3.52977 37.3747 4.8481C34.7386 6.17404 32.4413 8.39529 31.0215 11.4723C29.5511 10.2037 27.6617 9.56359 25.661 9.44454C20.6383 9.14567 14.9136 12.1307 13.3518 16.7Z" fill="#F1F1F1"/>
<path d="M22.352 27.8741C19.1754 27.4868 16.3959 29.0358 15.9988 31.8024H55.64C55.64 28.2613 52.3309 25.9379 47.9631 26.3251C45.7132 20.6257 34.7937 20.6257 31.0215 26.906C28.8376 24.3045 23.6757 24.6917 22.352 27.8741Z" fill="#D9D9D9"/>
<path fill-rule="evenodd" clip-rule="evenodd" d="M16.839 39.4802C17.1792 39.651 17.3171 40.0663 17.147 40.4078L13.0143 48.7041C12.8441 49.0456 12.4304 49.184 12.0901 49.0133C11.7499 48.8425 11.612 48.4272 11.7821 48.0857L15.9148 39.7894C16.085 39.4479 16.4987 39.3095 16.839 39.4802Z" fill="#94D2FF"/>
<path fill-rule="evenodd" clip-rule="evenodd" d="M52.656 33.9495C52.9962 34.1202 53.1341 34.5355 52.964 34.877L50.2089 40.4079C50.0387 40.7494 49.625 40.8878 49.2848 40.7171C48.9445 40.5463 48.8066 40.131 48.9767 39.7895L51.7319 34.2587C51.902 33.9172 52.3157 33.7787 52.656 33.9495Z" fill="#94D2FF"/>
<path fill-rule="evenodd" clip-rule="evenodd" d="M52.656 49.1593C52.9962 49.3301 53.1341 49.7454 52.964 50.0869L50.2089 55.6177C50.0387 55.9592 49.625 56.0977 49.2848 55.9269C48.9445 55.7561 48.8066 55.3409 48.9767 54.9994L51.7319 49.4685C51.902 49.127 52.3157 48.9886 52.656 49.1593Z" fill="#94D2FF"/>
<path fill-rule="evenodd" clip-rule="evenodd" d="M76.1542 39.5175C76.4968 39.6836 76.6403 40.0969 76.4749 40.4407L72.8553 47.963C72.6899 48.3069 72.278 48.451 71.9355 48.2849C71.5929 48.1189 71.4494 47.7055 71.6148 47.3617L75.2344 39.8394C75.3998 39.4956 75.8117 39.3515 76.1542 39.5175Z" fill="#94D2FF"/>
<path fill-rule="evenodd" clip-rule="evenodd" d="M65.8232 44.3557C66.1668 44.5196 66.313 44.9321 66.1497 45.2769L63.8981 50.0324C63.7348 50.3773 63.3239 50.524 62.9803 50.3601C62.6367 50.1962 62.4906 49.7838 62.6539 49.4389L64.9055 44.6834C65.0688 44.3386 65.4797 44.1918 65.8232 44.3557Z" fill="#94D2FF"/>
<path fill-rule="evenodd" clip-rule="evenodd" d="M27.8596 33.9495C28.1998 34.1202 28.3377 34.5355 28.1676 34.877L26.79 37.6425C26.6199 37.984 26.2062 38.1224 25.8659 37.9516C25.5257 37.7809 25.3878 37.3656 25.5579 37.0241L26.9355 34.2587C27.1056 33.9172 27.5193 33.7787 27.8596 33.9495Z" fill="#94D2FF"/>
<path fill-rule="evenodd" clip-rule="evenodd" d="M69.1869 35.3322C69.5272 35.5029 69.6651 35.9182 69.495 36.2597L68.1174 39.0252C67.9473 39.3667 67.5335 39.5051 67.1933 39.3343C66.853 39.1636 66.7151 38.7483 66.8852 38.4068L68.2628 35.6414C68.433 35.2998 68.8467 35.1614 69.1869 35.3322Z" fill="#94D2FF"/>
<path fill-rule="evenodd" clip-rule="evenodd" d="M11.2191 33.8827C11.5512 34.0689 11.67 34.4901 11.4845 34.8234L8.31546 40.5175C8.12994 40.8508 7.71033 40.9701 7.37822 40.7839C7.04612 40.5977 6.92729 40.1765 7.11281 39.8432L10.2818 34.1491C10.4673 33.8158 10.8869 33.6965 11.2191 33.8827Z" fill="#94D2FF"/>
<path fill-rule="evenodd" clip-rule="evenodd" d="M60.9215 39.4802C61.2617 39.651 61.3996 40.0663 61.2295 40.4078L58.4743 45.9386C58.3042 46.2802 57.8905 46.4186 57.5502 46.2478C57.21 46.0771 57.0721 45.6618 57.2422 45.3203L59.9974 39.7894C60.1675 39.4479 60.5812 39.3095 60.9215 39.4802Z" fill="#94D2FF"/>
<path fill-rule="evenodd" clip-rule="evenodd" d="M26.5038 43.6398C26.8378 43.8227 26.9608 44.2426 26.7787 44.5778L22.6459 52.1828C22.4638 52.518 22.0454 52.6415 21.7114 52.4586C21.3775 52.2758 21.2544 51.8559 21.4366 51.5206L25.5693 43.9157C25.7515 43.5805 26.1699 43.457 26.5038 43.6398Z" fill="#94D2FF"/>
<path fill-rule="evenodd" clip-rule="evenodd" d="M43.0129 43.6284C43.3532 43.7992 43.4911 44.2145 43.321 44.556L39.1883 52.8523C39.0181 53.1938 38.6044 53.3322 38.2641 53.1615C37.9239 52.9907 37.786 52.5754 37.9561 52.2339L42.0888 43.9376C42.259 43.5961 42.6727 43.4577 43.0129 43.6284Z" fill="#94D2FF"/>
<path fill-rule="evenodd" clip-rule="evenodd" d="M37.5026 33.9495C37.8429 34.1202 37.9808 34.5355 37.8107 34.877L33.6779 43.1733C33.5078 43.5148 33.0941 43.6533 32.7538 43.4825C32.4136 43.3117 32.2757 42.8965 32.4458 42.5549L36.5785 34.2587C36.7487 33.9172 37.1624 33.7787 37.5026 33.9495Z" fill="#94D2FF"/>
<path fill-rule="evenodd" clip-rule="evenodd" d="M128.352 16.7C118.484 14.0967 112.467 22.0141 116.038 29.5023C116.774 31.0456 118.46 31.8024 120.164 31.8024H130.999C131.396 29.0358 134.175 27.4868 137.352 27.8741C138.676 24.6917 143.838 24.3045 146.022 26.906C149.794 20.6257 160.713 20.6257 162.963 26.3251C167.331 25.9379 170.64 28.2613 170.64 31.8024H196.518C197.702 31.8024 198.805 31.0443 198.945 29.8633C199.606 24.2643 194.208 21.6618 190.56 23.7666C190.052 20.5458 189.021 19.4469 187.119 17.38C183.073 12.9857 176.581 11.6576 170.64 15.3447C169.984 8.31082 165.661 4.46621 160.713 3.58715C157.952 3.09649 154.996 3.52977 152.375 4.8481C149.739 6.17404 147.441 8.39529 146.022 11.4723C144.551 10.2037 142.662 9.56359 140.661 9.44454C135.638 9.14567 129.914 12.1307 128.352 16.7Z" fill="#F1F1F1"/>
<path d="M137.352 27.8741C134.175 27.4868 131.396 29.0358 130.999 31.8024H170.64C170.64 28.2613 167.331 25.9379 162.963 26.3251C160.713 20.6257 149.794 20.6257 146.022 26.906C143.838 24.3045 138.676 24.6917 137.352 27.8741Z" fill="#D9D9D9"/>
<path fill-rule="evenodd" clip-rule="evenodd" d="M131.839 39.4802C132.179 39.651 132.317 40.0663 132.147 40.4078L128.014 48.7041C127.844 49.0456 127.43 49.184 127.09 49.0133C126.75 48.8425 126.612 48.4272 126.782 48.0857L130.915 39.7894C131.085 39.4479 131.499 39.3095 131.839 39.4802Z" fill="#94D2FF"/>
<path fill-rule="evenodd" clip-rule="evenodd" d="M167.656 33.9495C167.996 34.1202 168.134 34.5355 167.964 34.877L165.209 40.4079C165.039 40.7494 164.625 40.8878 164.285 40.7171C163.945 40.5463 163.807 40.131 163.977 39.7895L166.732 34.2587C166.902 33.9172 167.316 33.7787 167.656 33.9495Z" fill="#94D2FF"/>
<path fill-rule="evenodd" clip-rule="evenodd" d="M167.656 49.1593C167.996 49.3301 168.134 49.7454 167.964 50.0869L165.209 55.6177C165.039 55.9592 164.625 56.0977 164.285 55.9269C163.945 55.7561 163.807 55.3409 163.977 54.9994L166.732 49.4685C166.902 49.127 167.316 48.9886 167.656 49.1593Z" fill="#94D2FF"/>
<path fill-rule="evenodd" clip-rule="evenodd" d="M191.154 39.5175C191.497 39.6836 191.64 40.0969 191.475 40.4407L187.855 47.963C187.69 48.3069 187.278 48.451 186.935 48.2849C186.593 48.1189 186.449 47.7055 186.615 47.3617L190.234 39.8394C190.4 39.4956 190.812 39.3515 191.154 39.5175Z" fill="#94D2FF"/>
<path fill-rule="evenodd" clip-rule="evenodd" d="M180.823 44.3557C181.167 44.5196 181.313 44.9321 181.15 45.2769L178.898 50.0324C178.735 50.3773 178.324 50.524 177.98 50.3601C177.637 50.1962 177.491 49.7838 177.654 49.4389L179.905 44.6834C180.069 44.3386 180.48 44.1918 180.823 44.3557Z" fill="#94D2FF"/>
<path fill-rule="evenodd" clip-rule="evenodd" d="M142.86 33.9495C143.2 34.1202 143.338 34.5355 143.168 34.877L141.79 37.6425C141.62 37.984 141.206 38.1224 140.866 37.9516C140.526 37.7809 140.388 37.3656 140.558 37.0241L141.935 34.2587C142.106 33.9172 142.519 33.7787 142.86 33.9495Z" fill="#94D2FF"/>
<path fill-rule="evenodd" clip-rule="evenodd" d="M184.187 35.3322C184.527 35.5029 184.665 35.9182 184.495 36.2597L183.117 39.0252C182.947 39.3667 182.534 39.5051 182.193 39.3343C181.853 39.1636 181.715 38.7483 181.885 38.4068L183.263 35.6414C183.433 35.2998 183.847 35.1614 184.187 35.3322Z" fill="#94D2FF"/>
<path fill-rule="evenodd" clip-rule="evenodd" d="M126.219 33.8827C126.551 34.0689 126.67 34.4901 126.484 34.8234L123.315 40.5175C123.13 40.8508 122.71 40.9701 122.378 40.7839C122.046 40.5977 121.927 40.1765 122.113 39.8432L125.282 34.1491C125.467 33.8158 125.887 33.6965 126.219 33.8827Z" fill="#94D2FF"/>
<path fill-rule="evenodd" clip-rule="evenodd" d="M175.921 39.4802C176.262 39.651 176.4 40.0663 176.229 40.4078L173.474 45.9386C173.304 46.2802 172.89 46.4186 172.55 46.2478C172.21 46.0771 172.072 45.6618 172.242 45.3203L174.997 39.7894C175.167 39.4479 175.581 39.3095 175.921 39.4802Z" fill="#94D2FF"/>
<path fill-rule="evenodd" clip-rule="evenodd" d="M141.504 43.6398C141.838 43.8227 141.961 44.2426 141.779 44.5778L137.646 52.1828C137.464 52.518 137.045 52.6415 136.711 52.4586C136.377 52.2758 136.254 51.8559 136.437 51.5206L140.569 43.9157C140.751 43.5805 141.17 43.457 141.504 43.6398Z" fill="#94D2FF"/>
<path fill-rule="evenodd" clip-rule="evenodd" d="M158.013 43.6284C158.353 43.7992 158.491 44.2145 158.321 44.556L154.188 52.8523C154.018 53.1938 153.604 53.3322 153.264 53.1615C152.924 52.9907 152.786 52.5754 152.956 52.2339L157.089 43.9376C157.259 43.5961 157.673 43.4577 158.013 43.6284Z" fill="#94D2FF"/>
<path fill-rule="evenodd" clip-rule="evenodd" d="M152.503 33.9495C152.843 34.1202 152.981 34.5355 152.811 34.877L148.678 43.1733C148.508 43.5148 148.094 43.6533 147.754 43.4825C147.414 43.3117 147.276 42.8965 147.446 42.5549L151.579 34.2587C151.749 33.9172 152.162 33.7787 152.503 33.9495Z" fill="#94D2FF"/>
</svg>
