<svg width="211" height="60" viewBox="0 0 211 60" fill="none" xmlns="http://www.w3.org/2000/svg">
<path d="M156.714 47.6609C156.714 49.7053 155.021 51.3627 152.934 51.3627C150.846 51.3627 149.154 49.7053 149.154 47.6609C149.154 45.6165 150.846 43.9592 152.934 43.9592C155.021 43.9592 156.714 45.6165 156.714 47.6609Z" fill="#DBDBDB"/>
<path d="M148.398 42.1084C148.398 43.1306 147.552 43.9592 146.508 43.9592C145.464 43.9592 144.618 43.1306 144.618 42.1084C144.618 41.0862 145.464 40.2575 146.508 40.2575C147.552 40.2575 148.398 41.0862 148.398 42.1084Z" fill="#DBDBDB"/>
<path d="M164.273 52.72C164.273 53.4696 163.653 54.0773 162.887 54.0773C162.122 54.0773 161.501 53.4696 161.501 52.72C161.501 51.9703 162.122 51.3627 162.887 51.3627C163.653 51.3627 164.273 51.9703 164.273 52.72Z" fill="#DBDBDB"/>
<path d="M140.838 25.4506C140.838 28.3128 138.469 30.633 135.546 30.633C132.624 30.633 130.255 28.3128 130.255 25.4506C130.255 22.5885 132.624 20.2682 135.546 20.2682C138.469 20.2682 140.838 22.5885 140.838 25.4506Z" fill="#C1C1C1"/>
<path d="M145.374 22.4893C145.374 23.7159 144.359 24.7103 143.106 24.7103C141.854 24.7103 140.838 23.7159 140.838 22.4893C140.838 21.2626 141.854 20.2682 143.106 20.2682C144.359 20.2682 145.374 21.2626 145.374 22.4893Z" fill="#C1C1C1"/>
<path d="M130.255 19.0343C130.255 19.9884 129.465 20.7618 128.491 20.7618C127.517 20.7618 126.727 19.9884 126.727 19.0343C126.727 18.0803 127.517 17.3069 128.491 17.3069C129.465 17.3069 130.255 18.0803 130.255 19.0343Z" fill="#C1C1C1"/>
<path d="M136.806 17.4303C136.806 17.771 136.524 18.0472 136.176 18.0472C135.829 18.0472 135.546 17.771 135.546 17.4303C135.546 17.0895 135.829 16.8133 136.176 16.8133C136.524 16.8133 136.806 17.0895 136.806 17.4303Z" fill="#C1C1C1"/>
<path d="M140.838 54.0773C140.838 54.7587 140.274 55.3112 139.578 55.3112C138.882 55.3112 138.318 54.7587 138.318 54.0773C138.318 53.3958 138.882 52.8433 139.578 52.8433C140.274 52.8433 140.838 53.3958 140.838 54.0773Z" fill="#DBDBDB"/>
<path d="M126.727 35.9388C126.727 36.5522 126.219 37.0494 125.593 37.0494C124.967 37.0494 124.459 36.5522 124.459 35.9388C124.459 35.3255 124.967 34.8283 125.593 34.8283C126.219 34.8283 126.727 35.3255 126.727 35.9388Z" fill="#C1C1C1"/>
<path d="M159.738 39.5172C159.738 39.926 159.399 40.2575 158.982 40.2575C158.564 40.2575 158.226 39.926 158.226 39.5172C158.226 39.1083 158.564 38.7768 158.982 38.7768C159.399 38.7768 159.738 39.1083 159.738 39.5172Z" fill="#DBDBDB"/>
<path d="M170.573 48.2779C170.573 48.6186 170.291 48.8948 169.943 48.8948C169.595 48.8948 169.313 48.6186 169.313 48.2779C169.313 47.9372 169.595 47.6609 169.943 47.6609C170.291 47.6609 170.573 47.9372 170.573 48.2779Z" fill="#DBDBDB"/>
<path d="M152.934 7.80579C152.934 8.82799 152.088 9.65665 151.044 9.65665C150 9.65665 149.154 8.82799 149.154 7.80579C149.154 6.78359 150 5.95494 151.044 5.95494C152.088 5.95494 152.934 6.78359 152.934 7.80579Z" fill="#C1C1C1"/>
<path d="M156.714 11.7543C156.714 12.2313 156.319 12.618 155.832 12.618C155.345 12.618 154.95 12.2313 154.95 11.7543C154.95 11.2773 155.345 10.8906 155.832 10.8906C156.319 10.8906 156.714 11.2773 156.714 11.7543Z" fill="#C1C1C1"/>
<path d="M165.533 17.4303C165.533 18.9976 164.236 20.2682 162.635 20.2682C161.035 20.2682 159.738 18.9976 159.738 17.4303C159.738 15.8629 161.035 14.5923 162.635 14.5923C164.236 14.5923 165.533 15.8629 165.533 17.4303Z" fill="#C1C1C1"/>
<path d="M168.053 22.9828C168.053 23.6643 167.489 24.2167 166.793 24.2167C166.097 24.2167 165.533 23.6643 165.533 22.9828C165.533 22.3014 166.097 21.7489 166.793 21.7489C167.489 21.7489 168.053 22.3014 168.053 22.9828Z" fill="#DBDBDB"/>
<path d="M162.005 12.8648C162.005 13.0011 161.753 13.1116 161.753 13.1116C161.753 13.1116 161.501 13.0011 161.501 12.8648C161.501 12.7285 161.614 12.618 161.753 12.618C161.893 12.618 162.005 12.7285 162.005 12.8648Z" fill="#C1C1C1"/>
<path d="M171.329 16.8133C171.329 17.3585 170.878 17.8004 170.321 17.8004C169.764 17.8004 169.313 17.3585 169.313 16.8133C169.313 16.2681 169.764 15.8262 170.321 15.8262C170.878 15.8262 171.329 16.2681 171.329 16.8133Z" fill="#C1C1C1"/>
<path d="M179.393 27.7951C179.393 29.0899 178.321 30.1395 176.999 30.1395C175.677 30.1395 174.605 29.0899 174.605 27.7951C174.605 26.5003 175.677 25.4506 176.999 25.4506C178.321 25.4506 179.393 26.5003 179.393 27.7951Z" fill="#DBDBDB"/>
<path d="M124.425 3.125L125.373 5.63406L127.935 6.5625L125.373 7.49094L124.425 10L123.477 7.49094L120.915 6.5625L123.477 5.63406L124.425 3.125Z" fill="#FFDE6A"/>
<path d="M128.564 43.1341L127.616 40.625L126.668 43.1341L125.083 43.7083C125.227 44.0012 125.376 44.2913 125.53 44.5786L126.668 44.9909L127.616 47.5L128.564 44.9909L131.126 44.0625L128.564 43.1341Z" fill="#FFDE6A"/>
<path d="M125.53 44.5786C125.376 44.2913 125.227 44.0012 125.083 43.7083L124.106 44.0625L125.53 44.5786Z" fill="#FFDE6A"/>
<path d="M137.189 47.5L137.792 49.0967L139.422 49.6875L137.792 50.2783L137.189 51.875L136.585 50.2783L134.955 49.6875L136.585 49.0967L137.189 47.5Z" fill="#FFDE6A"/>
<path d="M141.656 38.125L142.259 39.7217L143.89 40.3125L142.259 40.9033L141.656 42.5L141.053 40.9033L139.422 40.3125L141.053 39.7217L141.656 38.125Z" fill="#FFDE6A"/>
<path d="M119.957 8.125L120.216 8.80929L120.915 9.0625L120.216 9.31571L119.957 10L119.699 9.31571L119 9.0625L119.699 8.80929L119.957 8.125Z" fill="#FFDE6A"/>
<path d="M125.063 11.25L125.321 11.9343L126.02 12.1875L125.321 12.4407L125.063 13.125L124.804 12.4407L124.106 12.1875L124.804 11.9343L125.063 11.25Z" fill="#FFDE6A"/>
<path d="M133.998 0.625L134.256 1.30929L134.955 1.5625L134.256 1.81571L133.998 2.5L133.739 1.81571L133.04 1.5625L133.739 1.30929L133.998 0.625Z" fill="#FFDE6A"/>
<path d="M161.44 1.25L161.698 1.93429L162.397 2.1875L161.698 2.44071L161.44 3.125L161.181 2.44071L160.483 2.1875L161.181 1.93429L161.44 1.25Z" fill="#FFDE6A"/>
<path d="M175.273 11.7655L174.842 10.625L174.411 11.7655L173.456 12.1117C173.524 12.1864 173.591 12.2615 173.659 12.3368L174.411 12.6095L174.842 13.75L175.273 12.6095L176.437 12.1875L175.273 11.7655Z" fill="#FFDE6A"/>
<path d="M173.456 12.1117L173.246 12.1875L173.659 12.3368C173.591 12.2615 173.524 12.1864 173.456 12.1117Z" fill="#FFDE6A"/>
<path d="M173.566 51.875L173.996 53.0155L175.161 53.4375L173.996 53.8595L173.566 55L173.135 53.8595L171.97 53.4375L173.135 53.0155L173.566 51.875Z" fill="#FFDE6A"/>
<path fill-rule="evenodd" clip-rule="evenodd" d="M151.548 60C167.761 60 180.905 47.1282 180.905 31.25C180.905 24.0083 178.171 17.3919 173.659 12.3368L173.246 12.1875L173.456 12.1117C172.111 10.6372 170.614 9.29916 168.989 8.12158L168.945 8.09013L168.46 9.375L167.638 7.19882C163.017 4.22803 157.488 2.5 151.548 2.5C135.334 2.5 122.191 15.3718 122.191 31.25C122.191 35.7134 123.23 39.9392 125.083 43.7083L126.668 43.1341L127.616 40.625L128.564 43.1341L131.126 44.0625L128.564 44.9909L127.616 47.5L126.668 44.9909L125.53 44.5786C130.436 53.7457 140.246 60 151.548 60ZM135.546 30.633C138.469 30.633 140.838 28.3128 140.838 25.4506C140.838 22.5885 138.469 20.2682 135.546 20.2682C132.624 20.2682 130.255 22.5885 130.255 25.4506C130.255 28.3128 132.624 30.633 135.546 30.633ZM143.106 24.7103C144.359 24.7103 145.374 23.7159 145.374 22.4893C145.374 21.2626 144.359 20.2682 143.106 20.2682C141.854 20.2682 140.838 21.2626 140.838 22.4893C140.838 23.7159 141.854 24.7103 143.106 24.7103ZM162.635 20.2682C164.236 20.2682 165.533 18.9976 165.533 17.4303C165.533 15.8629 164.236 14.5923 162.635 14.5923C161.035 14.5923 159.738 15.8629 159.738 17.4303C159.738 18.9976 161.035 20.2682 162.635 20.2682ZM155.832 12.618C156.319 12.618 156.714 12.2313 156.714 11.7543C156.714 11.2773 156.319 10.8906 155.832 10.8906C155.345 10.8906 154.95 11.2773 154.95 11.7543C154.95 12.2313 155.345 12.618 155.832 12.618ZM151.044 9.65665C152.088 9.65665 152.934 8.82799 152.934 7.80579C152.934 6.78359 152.088 5.95494 151.044 5.95494C150 5.95494 149.154 6.78359 149.154 7.80579C149.154 8.82799 150 9.65665 151.044 9.65665ZM170.321 17.8004C170.878 17.8004 171.329 17.3585 171.329 16.8133C171.329 16.2681 170.878 15.8262 170.321 15.8262C169.764 15.8262 169.313 16.2681 169.313 16.8133C169.313 17.3585 169.764 17.8004 170.321 17.8004ZM161.753 13.1116C161.753 13.1116 162.005 13.0011 162.005 12.8648C162.005 12.7285 161.893 12.618 161.753 12.618C161.614 12.618 161.501 12.7285 161.501 12.8648C161.501 13.0011 161.753 13.1116 161.753 13.1116ZM166.793 24.2167C167.489 24.2167 168.053 23.6643 168.053 22.9828C168.053 22.3014 167.489 21.7489 166.793 21.7489C166.097 21.7489 165.533 22.3014 165.533 22.9828C165.533 23.6643 166.097 24.2167 166.793 24.2167ZM176.999 30.1395C178.321 30.1395 179.393 29.0899 179.393 27.7951C179.393 26.5003 178.321 25.4506 176.999 25.4506C175.677 25.4506 174.605 26.5003 174.605 27.7951C174.605 29.0899 175.677 30.1395 176.999 30.1395ZM152.934 51.3627C155.021 51.3627 156.714 49.7053 156.714 47.6609C156.714 45.6165 155.021 43.9592 152.934 43.9592C150.846 43.9592 149.154 45.6165 149.154 47.6609C149.154 49.7053 150.846 51.3627 152.934 51.3627ZM158.982 40.2575C159.399 40.2575 159.738 39.926 159.738 39.5172C159.738 39.1083 159.399 38.7768 158.982 38.7768C158.564 38.7768 158.226 39.1083 158.226 39.5172C158.226 39.926 158.564 40.2575 158.982 40.2575ZM146.508 43.9592C147.552 43.9592 148.398 43.1306 148.398 42.1084C148.398 41.0862 147.552 40.2575 146.508 40.2575C145.464 40.2575 144.618 41.0862 144.618 42.1084C144.618 43.1306 145.464 43.9592 146.508 43.9592ZM169.943 48.8948C170.291 48.8948 170.573 48.6186 170.573 48.2779C170.573 47.9372 170.291 47.6609 169.943 47.6609C169.595 47.6609 169.313 47.9372 169.313 48.2779C169.313 48.6186 169.595 48.8948 169.943 48.8948ZM162.887 54.0773C163.653 54.0773 164.273 53.4696 164.273 52.72C164.273 51.9703 163.653 51.3627 162.887 51.3627C162.122 51.3627 161.501 51.9703 161.501 52.72C161.501 53.4696 162.122 54.0773 162.887 54.0773ZM139.578 55.3112C140.274 55.3112 140.838 54.7587 140.838 54.0773C140.838 53.3958 140.274 52.8433 139.578 52.8433C138.882 52.8433 138.318 53.3958 138.318 54.0773C138.318 54.7587 138.882 55.3112 139.578 55.3112ZM125.593 37.0494C126.219 37.0494 126.727 36.5522 126.727 35.9388C126.727 35.3255 126.219 34.8283 125.593 34.8283C124.967 34.8283 124.459 35.3255 124.459 35.9388C124.459 36.5522 124.967 37.0494 125.593 37.0494ZM136.176 18.0472C136.524 18.0472 136.806 17.771 136.806 17.4303C136.806 17.0895 136.524 16.8133 136.176 16.8133C135.829 16.8133 135.546 17.0895 135.546 17.4303C135.546 17.771 135.829 18.0472 136.176 18.0472ZM128.491 20.7618C129.465 20.7618 130.255 19.9884 130.255 19.0343C130.255 18.0803 129.465 17.3069 128.491 17.3069C127.517 17.3069 126.727 18.0803 126.727 19.0343C126.727 19.9884 127.517 20.7618 128.491 20.7618ZM135.877 9.09668L135.274 7.5L134.671 9.09668L133.04 9.6875L134.671 10.2783L135.274 11.875L135.877 10.2783L137.508 9.6875L135.877 9.09668ZM142.259 39.7217L141.656 38.125L141.053 39.7217L139.422 40.3125L141.053 40.9033L141.656 42.5L142.259 40.9033L143.89 40.3125L142.259 39.7217ZM137.792 49.0967L137.189 47.5L136.585 49.0967L134.955 49.6875L136.585 50.2783L137.189 51.875L137.792 50.2783L139.422 49.6875L137.792 49.0967Z" fill="#E0E0E0"/>
<path d="M167.638 7.19882L168.46 9.375L168.945 8.09013C168.518 7.78182 168.082 7.48457 167.638 7.19882Z" fill="#FFDE6A"/>
<path fill-rule="evenodd" clip-rule="evenodd" d="M168.46 0L169.753 3.42145L173.246 4.6875L169.753 5.95355L168.945 8.09013C168.518 7.78182 168.082 7.48457 167.638 7.19882L167.167 5.95355L163.674 4.6875L167.167 3.42145L168.46 0Z" fill="#FFDE6A"/>
<path d="M135.274 7.5L135.877 9.09668L137.508 9.6875L135.877 10.2783L135.274 11.875L134.671 10.2783L133.04 9.6875L134.671 9.09668L135.274 7.5Z" fill="#FFDE6A"/>
<path d="M173.566 51.875L173.996 53.0155L175.161 53.4375L173.996 53.8595L173.566 55L173.135 53.8595L171.97 53.4375L173.135 53.0155L173.566 51.875Z" fill="#FFDE6A"/>
<path d="M128.908 53.1649L129.253 54.0773L130.185 54.4149L129.253 54.7525L128.908 55.6649L128.564 54.7525L127.632 54.4149L128.564 54.0773L128.908 53.1649Z" fill="#FFDE6A"/>
<g filter="url(#filter0_d_8_569)">
<path fill-rule="evenodd" clip-rule="evenodd" d="M144.557 45.6479C135.048 43.1131 129.342 51.0738 133.24 58.3377C133.83 59.4366 135.047 60 136.294 60H147.046C147.42 57.3708 150.034 55.8988 153.021 56.2668C154.266 53.2426 159.121 52.8746 161.175 55.3468C164.723 49.3786 174.992 49.3786 177.108 54.7948C181.216 54.4268 184.328 56.6348 184.328 60H209.085C209.948 60 210.739 59.4464 210.885 58.5956C211.846 52.9736 206.586 50.3091 203.062 52.3634C202.584 49.3026 201.615 48.2583 199.826 46.2941C196.021 42.1181 189.916 40.8559 184.328 44.3599C183.711 37.6754 179.645 34.0218 174.992 33.1864C172.395 32.7201 169.615 33.1319 167.15 34.3847C164.671 35.6448 162.51 37.7557 161.175 40.6798C159.792 39.4743 158.015 38.866 156.134 38.7528C151.41 38.4688 146.026 41.3055 144.557 45.6479Z" fill="#F1F1F1"/>
<path d="M153.021 56.2668C150.034 55.8988 147.42 57.3708 147.046 60H184.328C184.328 56.6348 181.216 54.4268 177.108 54.7948C174.992 49.3786 164.723 49.3786 161.175 55.3468C159.121 52.8746 154.266 53.2426 153.021 56.2668Z" fill="#D9D9D9"/>
</g>
<path d="M29.747 0.258174L36.4655 7.66325L46.0358 4.93616L47.7243 14.8347L57.235 17.7669L53.3575 27.0162L59.789 34.6768L51.5765 40.3403L52.8868 50.2971L42.9468 50.5766L38.7199 59.6683L30.2082 54.4751L21.7861 59.8153L17.4052 50.7982L7.46187 50.6913L8.6026 40.7132L0.294978 35.1932L6.5952 27.4221L2.56088 18.2415L12.0203 15.1446L13.5402 5.2182L23.1555 7.77877L29.747 0.258174Z" fill="#FFC736"/>
<path d="M48.7383 30.6983C48.6398 41.3344 40.0241 49.8761 29.4944 49.7766C18.9647 49.6772 10.5085 40.9743 10.6069 30.3382C10.7053 19.7021 19.3211 11.1604 29.8508 11.2599C40.3805 11.3593 48.8367 20.0622 48.7383 30.6983Z" fill="#E86A23"/>
<path fill-rule="evenodd" clip-rule="evenodd" d="M29.5363 2.96069C29.8932 2.96069 30.1826 3.25299 30.1826 3.61355V8.50996C30.1826 8.87053 29.8932 9.16282 29.5363 9.16282C29.1793 9.16282 28.89 8.87053 28.89 8.50996V3.61355C28.89 3.25299 29.1793 2.96069 29.5363 2.96069Z" fill="#FFE5A1"/>
<path fill-rule="evenodd" clip-rule="evenodd" d="M44.1245 7.37145C44.4246 7.56662 44.5113 7.9706 44.3181 8.27378L41.6942 12.3909C41.501 12.694 41.1011 12.7816 40.8009 12.5864C40.5008 12.3913 40.4141 11.9873 40.6073 11.6841L43.2312 7.56701C43.4244 7.26384 43.8244 7.17628 44.1245 7.37145Z" fill="#FFE5A1"/>
<path fill-rule="evenodd" clip-rule="evenodd" d="M14.9043 8.05332C15.2011 7.853 15.6024 7.93365 15.8007 8.23345L18.4938 12.3047C18.6921 12.6045 18.6122 13.0099 18.3154 13.2102C18.0186 13.4105 17.6173 13.3299 17.419 13.0301L14.7259 8.95885C14.5276 8.65905 14.6075 8.25363 14.9043 8.05332Z" fill="#FFE5A1"/>
<path fill-rule="evenodd" clip-rule="evenodd" d="M4.40534 18.9756C4.57293 18.6572 4.96428 18.5364 5.27945 18.7057L9.55941 21.0045C9.87458 21.1738 9.99422 21.5691 9.82663 21.8874C9.65904 22.2058 9.26769 22.3266 8.95252 22.1573L4.67256 19.8585C4.35739 19.6892 4.23775 19.2939 4.40534 18.9756Z" fill="#FFE5A1"/>
<path fill-rule="evenodd" clip-rule="evenodd" d="M3.26225 34.1098C3.18994 33.7567 3.4147 33.4113 3.76425 33.3383L8.51118 32.3464C8.86073 32.2734 9.20272 32.5004 9.27503 32.8535C9.34733 33.2066 9.12258 33.552 8.77303 33.6251L4.0261 34.6169C3.67654 34.6899 3.33456 34.4629 3.26225 34.1098Z" fill="#FFE5A1"/>
<path fill-rule="evenodd" clip-rule="evenodd" d="M48.969 21.5897C48.8226 21.2609 48.9677 20.8744 49.2932 20.7264L53.7137 18.7172C54.0392 18.5692 54.4219 18.7159 54.5683 19.0447C54.7148 19.3735 54.5697 19.76 54.2442 19.9079L49.8237 21.9172C49.4981 22.0651 49.1155 21.9185 48.969 21.5897Z" fill="#FFE5A1"/>
<path fill-rule="evenodd" clip-rule="evenodd" d="M50.2305 32.8672C50.2988 32.5133 50.6381 32.2823 50.9885 32.3512L55.7465 33.2873C56.0969 33.3562 56.3256 33.699 56.2574 34.0529C56.1891 34.4068 55.8498 34.6379 55.4994 34.5689L50.7414 33.6329C50.391 33.5639 50.1623 33.2212 50.2305 32.8672Z" fill="#FFE5A1"/>
<path fill-rule="evenodd" clip-rule="evenodd" d="M45.8691 44.2969C46.1133 44.0339 46.5223 44.0205 46.7827 44.2671L50.3191 47.6159C50.5795 47.8625 50.5927 48.2757 50.3486 48.5387C50.1045 48.8018 49.6955 48.8151 49.4351 48.5685L45.8986 45.2197C45.6382 44.9731 45.625 44.56 45.8691 44.2969Z" fill="#FFE5A1"/>
<path fill-rule="evenodd" clip-rule="evenodd" d="M9.66774 48.4707C9.42798 48.2036 9.448 47.7907 9.71246 47.5485L13.3037 44.2597C13.5681 44.0176 13.9769 44.0378 14.2166 44.3049C14.4564 44.572 14.4364 44.9849 14.1719 45.2271L10.5807 48.5158C10.3162 48.758 9.90749 48.7378 9.66774 48.4707Z" fill="#FFE5A1"/>
<path fill-rule="evenodd" clip-rule="evenodd" d="M35.7671 50.6628C36.1002 50.5331 36.4742 50.7007 36.6026 51.0372L38.3459 55.606C38.4743 55.9424 38.3084 56.3203 37.9753 56.4499C37.6422 56.5796 37.2681 56.412 37.1398 56.0756L35.3964 51.5068C35.2681 51.1703 35.434 50.7925 35.7671 50.6628Z" fill="#FFE5A1"/>
<path fill-rule="evenodd" clip-rule="evenodd" d="M50.2305 32.8672C50.2988 32.5133 50.6381 32.2823 50.9885 32.3512L55.7465 33.2873C56.0969 33.3562 56.3256 33.699 56.2574 34.0529C56.1891 34.4068 55.8498 34.6379 55.4994 34.5689L50.7414 33.6329C50.391 33.5639 50.1623 33.2212 50.2305 32.8672Z" fill="#FFE5A1"/>
<path fill-rule="evenodd" clip-rule="evenodd" d="M22.2315 56.5621C21.8912 56.4532 21.7028 56.0862 21.8106 55.7425L23.2749 51.0748C23.3827 50.7311 23.746 50.5408 24.0862 50.6497C24.4265 50.7586 24.615 51.1255 24.5071 51.4692L23.0428 56.1369C22.935 56.4806 22.5718 56.671 22.2315 56.5621Z" fill="#FFE5A1"/>
<path fill-rule="evenodd" clip-rule="evenodd" d="M22.557 45.6479C13.0482 43.1131 7.34224 51.0738 11.24 58.3377C11.8297 59.4366 13.0469 60 14.2939 60H25.0465C25.4199 57.3708 28.034 55.8988 31.0215 56.2668C32.2664 53.2426 37.1211 52.8746 39.175 55.3468C42.7226 49.3786 52.9922 49.3786 55.1082 54.7948C59.216 54.4268 62.3281 56.6348 62.3281 60H87.0845C87.9477 60 88.7393 59.4464 88.8847 58.5956C89.8456 52.9736 84.586 50.3091 81.0621 52.3634C80.5842 49.3026 79.6152 48.2583 77.8258 46.2941C74.0213 42.1181 67.9156 40.8559 62.3281 44.3599C61.7115 37.6754 57.6452 34.0218 52.9922 33.1864C50.395 32.7201 47.615 33.1319 45.15 34.3847C42.6708 35.6448 40.5103 37.7557 39.175 40.6798C37.7921 39.4743 36.0152 38.866 34.1336 38.7528C29.4098 38.4688 24.0259 41.3055 22.557 45.6479Z" fill="#F1F1F1"/>
<path d="M31.0215 56.2668C28.034 55.8988 25.4199 57.3708 25.0465 60H62.3281C62.3281 56.6348 59.216 54.4268 55.1082 54.7948C52.9922 49.3786 42.7226 49.3786 39.175 55.3468C37.1211 52.8746 32.2664 53.2426 31.0215 56.2668Z" fill="#D9D9D9"/>
<defs>
<filter id="filter0_d_8_569" x="129" y="30" width="82" height="30" filterUnits="userSpaceOnUse" color-interpolation-filters="sRGB">
<feFlood flood-opacity="0" result="BackgroundImageFix"/>
<feColorMatrix in="SourceAlpha" type="matrix" values="0 0 0 0 0 0 0 0 0 0 0 0 0 0 0 0 0 0 127 0" result="hardAlpha"/>
<feOffset dx="-2" dy="-2"/>
<feGaussianBlur stdDeviation="0.5"/>
<feComposite in2="hardAlpha" operator="out"/>
<feColorMatrix type="matrix" values="0 0 0 0 0 0 0 0 0 0 0 0 0 0 0 0 0 0 0.14 0"/>
<feBlend mode="normal" in2="BackgroundImageFix" result="effect1_dropShadow_8_569"/>
<feBlend mode="normal" in="SourceGraphic" in2="effect1_dropShadow_8_569" result="shape"/>
</filter>
</defs>
</svg>
