<svg width="199" height="85" viewBox="0 0 199 85" fill="none" xmlns="http://www.w3.org/2000/svg">
<path d="M155.714 47.6609C155.714 49.7053 154.021 51.3627 151.934 51.3627C149.846 51.3627 148.154 49.7053 148.154 47.6609C148.154 45.6165 149.846 43.9592 151.934 43.9592C154.021 43.9592 155.714 45.6165 155.714 47.6609Z" fill="#DBDBDB"/>
<path d="M147.398 42.1084C147.398 43.1306 146.552 43.9592 145.508 43.9592C144.464 43.9592 143.618 43.1306 143.618 42.1084C143.618 41.0862 144.464 40.2575 145.508 40.2575C146.552 40.2575 147.398 41.0862 147.398 42.1084Z" fill="#DBDBDB"/>
<path d="M163.273 52.72C163.273 53.4696 162.653 54.0773 161.887 54.0773C161.122 54.0773 160.501 53.4696 160.501 52.72C160.501 51.9703 161.122 51.3627 161.887 51.3627C162.653 51.3627 163.273 51.9703 163.273 52.72Z" fill="#DBDBDB"/>
<path d="M139.838 25.4506C139.838 28.3128 137.469 30.633 134.546 30.633C131.624 30.633 129.255 28.3128 129.255 25.4506C129.255 22.5885 131.624 20.2682 134.546 20.2682C137.469 20.2682 139.838 22.5885 139.838 25.4506Z" fill="#C1C1C1"/>
<path d="M144.374 22.4893C144.374 23.7159 143.359 24.7103 142.106 24.7103C140.854 24.7103 139.838 23.7159 139.838 22.4893C139.838 21.2626 140.854 20.2682 142.106 20.2682C143.359 20.2682 144.374 21.2626 144.374 22.4893Z" fill="#C1C1C1"/>
<path d="M129.255 19.0343C129.255 19.9884 128.465 20.7618 127.491 20.7618C126.517 20.7618 125.727 19.9884 125.727 19.0343C125.727 18.0803 126.517 17.3069 127.491 17.3069C128.465 17.3069 129.255 18.0803 129.255 19.0343Z" fill="#C1C1C1"/>
<path d="M135.806 17.4303C135.806 17.771 135.524 18.0472 135.176 18.0472C134.829 18.0472 134.546 17.771 134.546 17.4303C134.546 17.0895 134.829 16.8133 135.176 16.8133C135.524 16.8133 135.806 17.0895 135.806 17.4303Z" fill="#C1C1C1"/>
<path d="M139.838 54.0773C139.838 54.7587 139.274 55.3112 138.578 55.3112C137.882 55.3112 137.318 54.7587 137.318 54.0773C137.318 53.3958 137.882 52.8433 138.578 52.8433C139.274 52.8433 139.838 53.3958 139.838 54.0773Z" fill="#DBDBDB"/>
<path d="M125.727 35.9388C125.727 36.5522 125.219 37.0494 124.593 37.0494C123.967 37.0494 123.459 36.5522 123.459 35.9388C123.459 35.3255 123.967 34.8283 124.593 34.8283C125.219 34.8283 125.727 35.3255 125.727 35.9388Z" fill="#C1C1C1"/>
<path d="M158.738 39.5172C158.738 39.926 158.399 40.2575 157.982 40.2575C157.564 40.2575 157.226 39.926 157.226 39.5172C157.226 39.1083 157.564 38.7768 157.982 38.7768C158.399 38.7768 158.738 39.1083 158.738 39.5172Z" fill="#DBDBDB"/>
<path d="M169.573 48.2779C169.573 48.6186 169.291 48.8948 168.943 48.8948C168.595 48.8948 168.313 48.6186 168.313 48.2779C168.313 47.9372 168.595 47.6609 168.943 47.6609C169.291 47.6609 169.573 47.9372 169.573 48.2779Z" fill="#DBDBDB"/>
<path d="M151.934 7.80579C151.934 8.82799 151.088 9.65665 150.044 9.65665C149 9.65665 148.154 8.82799 148.154 7.80579C148.154 6.78359 149 5.95494 150.044 5.95494C151.088 5.95494 151.934 6.78359 151.934 7.80579Z" fill="#C1C1C1"/>
<path d="M155.714 11.7543C155.714 12.2313 155.319 12.618 154.832 12.618C154.345 12.618 153.95 12.2313 153.95 11.7543C153.95 11.2773 154.345 10.8906 154.832 10.8906C155.319 10.8906 155.714 11.2773 155.714 11.7543Z" fill="#C1C1C1"/>
<path d="M164.533 17.4303C164.533 18.9976 163.236 20.2682 161.635 20.2682C160.035 20.2682 158.738 18.9976 158.738 17.4303C158.738 15.8629 160.035 14.5923 161.635 14.5923C163.236 14.5923 164.533 15.8629 164.533 17.4303Z" fill="#C1C1C1"/>
<path d="M167.053 22.9828C167.053 23.6643 166.489 24.2167 165.793 24.2167C165.097 24.2167 164.533 23.6643 164.533 22.9828C164.533 22.3014 165.097 21.7489 165.793 21.7489C166.489 21.7489 167.053 22.3014 167.053 22.9828Z" fill="#DBDBDB"/>
<path d="M161.005 12.8648C161.005 13.0011 160.753 13.1116 160.753 13.1116C160.753 13.1116 160.501 13.0011 160.501 12.8648C160.501 12.7285 160.614 12.618 160.753 12.618C160.893 12.618 161.005 12.7285 161.005 12.8648Z" fill="#C1C1C1"/>
<path d="M170.329 16.8133C170.329 17.3585 169.878 17.8004 169.321 17.8004C168.764 17.8004 168.313 17.3585 168.313 16.8133C168.313 16.2681 168.764 15.8262 169.321 15.8262C169.878 15.8262 170.329 16.2681 170.329 16.8133Z" fill="#C1C1C1"/>
<path d="M178.393 27.7951C178.393 29.0899 177.321 30.1395 175.999 30.1395C174.677 30.1395 173.605 29.0899 173.605 27.7951C173.605 26.5003 174.677 25.4506 175.999 25.4506C177.321 25.4506 178.393 26.5003 178.393 27.7951Z" fill="#DBDBDB"/>
<path d="M123.425 3.125L124.373 5.63406L126.935 6.5625L124.373 7.49094L123.425 10L122.477 7.49094L119.915 6.5625L122.477 5.63406L123.425 3.125Z" fill="#FFDE6A"/>
<path d="M127.564 43.1341L126.616 40.625L125.668 43.1341L124.083 43.7083C124.227 44.0012 124.376 44.2913 124.53 44.5786L125.668 44.9909L126.616 47.5L127.564 44.9909L130.126 44.0625L127.564 43.1341Z" fill="#FFDE6A"/>
<path d="M124.53 44.5786C124.376 44.2913 124.227 44.0012 124.083 43.7083L123.106 44.0625L124.53 44.5786Z" fill="#FFDE6A"/>
<path d="M136.189 47.5L136.792 49.0967L138.422 49.6875L136.792 50.2783L136.189 51.875L135.585 50.2783L133.955 49.6875L135.585 49.0967L136.189 47.5Z" fill="#FFDE6A"/>
<path d="M140.656 38.125L141.259 39.7217L142.89 40.3125L141.259 40.9033L140.656 42.5L140.053 40.9033L138.422 40.3125L140.053 39.7217L140.656 38.125Z" fill="#FFDE6A"/>
<path d="M118.957 8.125L119.216 8.80929L119.915 9.0625L119.216 9.31571L118.957 10L118.699 9.31571L118 9.0625L118.699 8.80929L118.957 8.125Z" fill="#FFDE6A"/>
<path d="M124.063 11.25L124.321 11.9343L125.02 12.1875L124.321 12.4407L124.063 13.125L123.804 12.4407L123.106 12.1875L123.804 11.9343L124.063 11.25Z" fill="#FFDE6A"/>
<path d="M132.998 0.625L133.256 1.30929L133.955 1.5625L133.256 1.81571L132.998 2.5L132.739 1.81571L132.04 1.5625L132.739 1.30929L132.998 0.625Z" fill="#FFDE6A"/>
<path d="M160.44 1.25L160.698 1.93429L161.397 2.1875L160.698 2.44071L160.44 3.125L160.181 2.44071L159.483 2.1875L160.181 1.93429L160.44 1.25Z" fill="#FFDE6A"/>
<path d="M174.273 11.7655L173.842 10.625L173.411 11.7655L172.456 12.1117C172.524 12.1864 172.591 12.2615 172.659 12.3368L173.411 12.6095L173.842 13.75L174.273 12.6095L175.437 12.1875L174.273 11.7655Z" fill="#FFDE6A"/>
<path d="M172.456 12.1117L172.246 12.1875L172.659 12.3368C172.591 12.2615 172.524 12.1864 172.456 12.1117Z" fill="#FFDE6A"/>
<path d="M172.566 51.875L172.996 53.0155L174.161 53.4375L172.996 53.8595L172.566 55L172.135 53.8595L170.97 53.4375L172.135 53.0155L172.566 51.875Z" fill="#FFDE6A"/>
<path fill-rule="evenodd" clip-rule="evenodd" d="M150.548 60C166.761 60 179.905 47.1282 179.905 31.25C179.905 24.0083 177.171 17.3919 172.659 12.3368L172.246 12.1875L172.456 12.1117C171.111 10.6372 169.614 9.29916 167.989 8.12158L167.945 8.09013L167.46 9.375L166.638 7.19882C162.017 4.22803 156.488 2.5 150.548 2.5C134.334 2.5 121.191 15.3718 121.191 31.25C121.191 35.7134 122.23 39.9392 124.083 43.7083L125.668 43.1341L126.616 40.625L127.564 43.1341L130.126 44.0625L127.564 44.9909L126.616 47.5L125.668 44.9909L124.53 44.5786C129.436 53.7457 139.246 60 150.548 60ZM134.546 30.633C137.469 30.633 139.838 28.3128 139.838 25.4506C139.838 22.5885 137.469 20.2682 134.546 20.2682C131.624 20.2682 129.255 22.5885 129.255 25.4506C129.255 28.3128 131.624 30.633 134.546 30.633ZM142.106 24.7103C143.359 24.7103 144.374 23.7159 144.374 22.4893C144.374 21.2626 143.359 20.2682 142.106 20.2682C140.854 20.2682 139.838 21.2626 139.838 22.4893C139.838 23.7159 140.854 24.7103 142.106 24.7103ZM161.635 20.2682C163.236 20.2682 164.533 18.9976 164.533 17.4303C164.533 15.8629 163.236 14.5923 161.635 14.5923C160.035 14.5923 158.738 15.8629 158.738 17.4303C158.738 18.9976 160.035 20.2682 161.635 20.2682ZM154.832 12.618C155.319 12.618 155.714 12.2313 155.714 11.7543C155.714 11.2773 155.319 10.8906 154.832 10.8906C154.345 10.8906 153.95 11.2773 153.95 11.7543C153.95 12.2313 154.345 12.618 154.832 12.618ZM150.044 9.65665C151.088 9.65665 151.934 8.82799 151.934 7.80579C151.934 6.78359 151.088 5.95494 150.044 5.95494C149 5.95494 148.154 6.78359 148.154 7.80579C148.154 8.82799 149 9.65665 150.044 9.65665ZM169.321 17.8004C169.878 17.8004 170.329 17.3585 170.329 16.8133C170.329 16.2681 169.878 15.8262 169.321 15.8262C168.764 15.8262 168.313 16.2681 168.313 16.8133C168.313 17.3585 168.764 17.8004 169.321 17.8004ZM160.753 13.1116C160.753 13.1116 161.005 13.0011 161.005 12.8648C161.005 12.7285 160.893 12.618 160.753 12.618C160.614 12.618 160.501 12.7285 160.501 12.8648C160.501 13.0011 160.753 13.1116 160.753 13.1116ZM165.793 24.2167C166.489 24.2167 167.053 23.6643 167.053 22.9828C167.053 22.3014 166.489 21.7489 165.793 21.7489C165.097 21.7489 164.533 22.3014 164.533 22.9828C164.533 23.6643 165.097 24.2167 165.793 24.2167ZM175.999 30.1395C177.321 30.1395 178.393 29.0899 178.393 27.7951C178.393 26.5003 177.321 25.4506 175.999 25.4506C174.677 25.4506 173.605 26.5003 173.605 27.7951C173.605 29.0899 174.677 30.1395 175.999 30.1395ZM151.934 51.3627C154.021 51.3627 155.714 49.7053 155.714 47.6609C155.714 45.6165 154.021 43.9592 151.934 43.9592C149.846 43.9592 148.154 45.6165 148.154 47.6609C148.154 49.7053 149.846 51.3627 151.934 51.3627ZM157.982 40.2575C158.399 40.2575 158.738 39.926 158.738 39.5172C158.738 39.1083 158.399 38.7768 157.982 38.7768C157.564 38.7768 157.226 39.1083 157.226 39.5172C157.226 39.926 157.564 40.2575 157.982 40.2575ZM145.508 43.9592C146.552 43.9592 147.398 43.1306 147.398 42.1084C147.398 41.0862 146.552 40.2575 145.508 40.2575C144.464 40.2575 143.618 41.0862 143.618 42.1084C143.618 43.1306 144.464 43.9592 145.508 43.9592ZM168.943 48.8948C169.291 48.8948 169.573 48.6186 169.573 48.2779C169.573 47.9372 169.291 47.6609 168.943 47.6609C168.595 47.6609 168.313 47.9372 168.313 48.2779C168.313 48.6186 168.595 48.8948 168.943 48.8948ZM161.887 54.0773C162.653 54.0773 163.273 53.4696 163.273 52.72C163.273 51.9703 162.653 51.3627 161.887 51.3627C161.122 51.3627 160.501 51.9703 160.501 52.72C160.501 53.4696 161.122 54.0773 161.887 54.0773ZM138.578 55.3112C139.274 55.3112 139.838 54.7587 139.838 54.0773C139.838 53.3958 139.274 52.8433 138.578 52.8433C137.882 52.8433 137.318 53.3958 137.318 54.0773C137.318 54.7587 137.882 55.3112 138.578 55.3112ZM124.593 37.0494C125.219 37.0494 125.727 36.5522 125.727 35.9388C125.727 35.3255 125.219 34.8283 124.593 34.8283C123.967 34.8283 123.459 35.3255 123.459 35.9388C123.459 36.5522 123.967 37.0494 124.593 37.0494ZM135.176 18.0472C135.524 18.0472 135.806 17.771 135.806 17.4303C135.806 17.0895 135.524 16.8133 135.176 16.8133C134.829 16.8133 134.546 17.0895 134.546 17.4303C134.546 17.771 134.829 18.0472 135.176 18.0472ZM127.491 20.7618C128.465 20.7618 129.255 19.9884 129.255 19.0343C129.255 18.0803 128.465 17.3069 127.491 17.3069C126.517 17.3069 125.727 18.0803 125.727 19.0343C125.727 19.9884 126.517 20.7618 127.491 20.7618ZM134.877 9.09668L134.274 7.5L133.671 9.09668L132.04 9.6875L133.671 10.2783L134.274 11.875L134.877 10.2783L136.508 9.6875L134.877 9.09668ZM141.259 39.7217L140.656 38.125L140.053 39.7217L138.422 40.3125L140.053 40.9033L140.656 42.5L141.259 40.9033L142.89 40.3125L141.259 39.7217ZM136.792 49.0967L136.189 47.5L135.585 49.0967L133.955 49.6875L135.585 50.2783L136.189 51.875L136.792 50.2783L138.422 49.6875L136.792 49.0967Z" fill="#E0E0E0"/>
<path d="M166.638 7.19882L167.46 9.375L167.945 8.09013C167.518 7.78182 167.082 7.48457 166.638 7.19882Z" fill="#FFDE6A"/>
<path fill-rule="evenodd" clip-rule="evenodd" d="M167.46 0L168.753 3.42145L172.246 4.6875L168.753 5.95355L167.945 8.09013C167.518 7.78182 167.082 7.48457 166.638 7.19882L166.167 5.95355L162.674 4.6875L166.167 3.42145L167.46 0Z" fill="#FFDE6A"/>
<path d="M134.274 7.5L134.877 9.09668L136.508 9.6875L134.877 10.2783L134.274 11.875L133.671 10.2783L132.04 9.6875L133.671 9.09668L134.274 7.5Z" fill="#FFDE6A"/>
<path d="M172.566 51.875L172.996 53.0155L174.161 53.4375L172.996 53.8595L172.566 55L172.135 53.8595L170.97 53.4375L172.135 53.0155L172.566 51.875Z" fill="#FFDE6A"/>
<path d="M127.908 53.1649L128.253 54.0773L129.185 54.4149L128.253 54.7525L127.908 55.6649L127.564 54.7525L126.632 54.4149L127.564 54.0773L127.908 53.1649Z" fill="#FFDE6A"/>
<path d="M29.747 0.258174L36.4655 7.66325L46.0358 4.93616L47.7243 14.8347L57.235 17.7669L53.3575 27.0162L59.789 34.6768L51.5765 40.3403L52.8868 50.2971L42.9468 50.5766L38.7199 59.6683L30.2082 54.4751L21.7861 59.8153L17.4052 50.7982L7.46187 50.6913L8.6026 40.7132L0.294978 35.1932L6.5952 27.4221L2.56088 18.2415L12.0203 15.1446L13.5402 5.2182L23.1555 7.77877L29.747 0.258174Z" fill="#FFC736"/>
<path d="M48.7383 30.6983C48.6398 41.3344 40.0241 49.8761 29.4944 49.7766C18.9647 49.6772 10.5085 40.9743 10.6069 30.3382C10.7053 19.7021 19.3211 11.1604 29.8508 11.2599C40.3805 11.3593 48.8367 20.0622 48.7383 30.6983Z" fill="#E86A23"/>
<path fill-rule="evenodd" clip-rule="evenodd" d="M29.5363 2.96069C29.8932 2.96069 30.1826 3.25299 30.1826 3.61355V8.50996C30.1826 8.87053 29.8932 9.16282 29.5363 9.16282C29.1793 9.16282 28.89 8.87053 28.89 8.50996V3.61355C28.89 3.25299 29.1793 2.96069 29.5363 2.96069Z" fill="#FFE5A1"/>
<path fill-rule="evenodd" clip-rule="evenodd" d="M44.1245 7.37145C44.4246 7.56662 44.5113 7.9706 44.3181 8.27378L41.6942 12.3909C41.501 12.694 41.1011 12.7816 40.8009 12.5864C40.5008 12.3913 40.4141 11.9873 40.6073 11.6841L43.2312 7.56701C43.4244 7.26384 43.8244 7.17628 44.1245 7.37145Z" fill="#FFE5A1"/>
<path fill-rule="evenodd" clip-rule="evenodd" d="M14.9043 8.05332C15.2011 7.853 15.6024 7.93365 15.8007 8.23345L18.4938 12.3047C18.6921 12.6045 18.6122 13.0099 18.3154 13.2102C18.0186 13.4105 17.6173 13.3299 17.419 13.0301L14.7259 8.95885C14.5276 8.65905 14.6075 8.25363 14.9043 8.05332Z" fill="#FFE5A1"/>
<path fill-rule="evenodd" clip-rule="evenodd" d="M4.40534 18.9756C4.57293 18.6572 4.96428 18.5364 5.27945 18.7057L9.55941 21.0045C9.87458 21.1738 9.99422 21.5691 9.82663 21.8874C9.65904 22.2058 9.26769 22.3266 8.95252 22.1573L4.67256 19.8585C4.35739 19.6892 4.23775 19.2939 4.40534 18.9756Z" fill="#FFE5A1"/>
<path fill-rule="evenodd" clip-rule="evenodd" d="M3.26225 34.1098C3.18994 33.7567 3.4147 33.4113 3.76425 33.3383L8.51118 32.3464C8.86073 32.2734 9.20272 32.5004 9.27503 32.8535C9.34733 33.2066 9.12258 33.552 8.77303 33.6251L4.0261 34.6169C3.67654 34.6899 3.33456 34.4629 3.26225 34.1098Z" fill="#FFE5A1"/>
<path fill-rule="evenodd" clip-rule="evenodd" d="M48.969 21.5897C48.8226 21.2609 48.9677 20.8744 49.2932 20.7264L53.7137 18.7172C54.0392 18.5692 54.4219 18.7159 54.5683 19.0447C54.7148 19.3735 54.5697 19.76 54.2442 19.9079L49.8237 21.9172C49.4981 22.0651 49.1155 21.9185 48.969 21.5897Z" fill="#FFE5A1"/>
<path fill-rule="evenodd" clip-rule="evenodd" d="M50.2305 32.8672C50.2988 32.5133 50.6381 32.2823 50.9885 32.3512L55.7465 33.2873C56.0969 33.3562 56.3256 33.699 56.2574 34.0529C56.1891 34.4068 55.8498 34.6379 55.4994 34.5689L50.7414 33.6329C50.391 33.5639 50.1623 33.2212 50.2305 32.8672Z" fill="#FFE5A1"/>
<path fill-rule="evenodd" clip-rule="evenodd" d="M45.8691 44.2969C46.1133 44.0339 46.5223 44.0205 46.7827 44.2671L50.3191 47.6159C50.5795 47.8625 50.5927 48.2757 50.3486 48.5387C50.1045 48.8018 49.6955 48.8151 49.4351 48.5685L45.8986 45.2197C45.6382 44.9731 45.625 44.56 45.8691 44.2969Z" fill="#FFE5A1"/>
<path fill-rule="evenodd" clip-rule="evenodd" d="M9.66774 48.4707C9.42798 48.2036 9.448 47.7907 9.71246 47.5485L13.3037 44.2597C13.5681 44.0176 13.9769 44.0378 14.2166 44.3049C14.4564 44.572 14.4364 44.9849 14.1719 45.2271L10.5807 48.5158C10.3162 48.758 9.90749 48.7378 9.66774 48.4707Z" fill="#FFE5A1"/>
<path fill-rule="evenodd" clip-rule="evenodd" d="M35.7671 50.6628C36.1002 50.5331 36.4742 50.7007 36.6026 51.0372L38.3459 55.606C38.4743 55.9424 38.3084 56.3203 37.9753 56.4499C37.6422 56.5796 37.2681 56.412 37.1398 56.0756L35.3964 51.5068C35.2681 51.1703 35.434 50.7925 35.7671 50.6628Z" fill="#FFE5A1"/>
<path fill-rule="evenodd" clip-rule="evenodd" d="M50.2305 32.8672C50.2988 32.5133 50.6381 32.2823 50.9885 32.3512L55.7465 33.2873C56.0969 33.3562 56.3256 33.699 56.2574 34.0529C56.1891 34.4068 55.8498 34.6379 55.4994 34.5689L50.7414 33.6329C50.391 33.5639 50.1623 33.2212 50.2305 32.8672Z" fill="#FFE5A1"/>
<path fill-rule="evenodd" clip-rule="evenodd" d="M22.2315 56.5621C21.8912 56.4532 21.7028 56.0862 21.8106 55.7425L23.2749 51.0748C23.3827 50.7311 23.746 50.5408 24.0862 50.6497C24.4265 50.7586 24.615 51.1255 24.5071 51.4692L23.0428 56.1369C22.935 56.4806 22.5718 56.671 22.2315 56.5621Z" fill="#FFE5A1"/>
<path d="M46.6385 37.0166C50.8204 37.7559 54.4749 40.989 55.0291 46.9041C60.0507 43.8034 65.5381 44.9203 68.9573 48.6157C68.9573 41.9424 62.8604 39.0176 57.9939 39.9945C57.3226 32.8302 49.3235 32.4127 46.6385 37.0166Z" fill="#9E9E9E"/>
<path d="M29.6897 41.9424C31.3808 42.0425 32.9777 42.5808 34.2206 43.6476C35.4206 41.06 37.3624 39.1921 39.5905 38.077C35.7309 35.5064 30.1931 37.9488 29.6897 41.9424Z" fill="#9E9E9E"/>
<path fill-rule="evenodd" clip-rule="evenodd" d="M19.2854 48.0439C10.8183 45.8215 5.70622 52.7162 9.01979 59.0953C9.58976 60.1926 10.8044 60.7442 12.0409 60.7442H21.5228C21.8584 58.4176 24.2078 57.115 26.8927 57.4407C28.0116 54.7645 32.3746 54.4389 34.2206 56.6266C37.409 51.3452 46.6385 51.3452 48.5403 56.1381C52.2321 55.8124 55.0291 57.7663 55.0291 60.7442H77.1391C77.9988 60.7442 78.7927 60.1955 78.9218 59.3454C79.6608 54.4774 74.9997 52.1877 71.8659 53.9865C71.4365 51.278 70.5656 50.3539 68.9573 48.6157C65.5381 44.9203 60.0507 43.8034 55.0291 46.9041C54.4749 40.989 50.8204 37.7559 46.6385 37.0166C44.3043 36.604 41.8058 36.9684 39.5905 38.077C37.3624 39.1921 35.4206 41.06 34.2206 43.6476C32.9777 42.5808 31.3808 42.0425 29.6897 41.9424C25.4443 41.6911 20.6055 44.2013 19.2854 48.0439Z" fill="#F1F1F1"/>
<path d="M26.8927 57.4407C24.2078 57.115 21.8584 58.4176 21.5228 60.7442H55.0291C55.0291 57.7663 52.2321 55.8124 48.5403 56.1381C46.6385 51.3452 37.409 51.3452 34.2206 56.6266C32.3746 54.4389 28.0116 54.7645 26.8927 57.4407Z" fill="#D9D9D9"/>
<path d="M20.8082 67.7209L17.315 74.6977" stroke="#94D2FF" stroke-linecap="round"/>
<path d="M27.7945 65.3954L25.4657 70.0465" stroke="#94D2FF" stroke-linecap="round"/>
<path d="M52.2465 63.0698L49.9177 67.721" stroke="#94D2FF" stroke-linecap="round"/>
<path d="M38.2739 72.3721L35.9452 77.0232" stroke="#94D2FF" stroke-linecap="round"/>
<path d="M51.0821 74.6976L48.7534 79.3488" stroke="#94D2FF" stroke-linecap="round"/>
<path d="M60.9794 77.0232L59.2328 81.093" stroke="#94D2FF" stroke-linecap="round"/>
<path d="M63.3081 65.3954L60.3972 71.2093" stroke="#94D2FF" stroke-linecap="round"/>
<path d="M47.589 70.0465L46.4246 72.3721" stroke="#94D2FF" stroke-linecap="round"/>
<path d="M39.4383 65.3954L38.2739 67.721" stroke="#94D2FF" stroke-linecap="round"/>
<path d="M32.452 63.0698L31.2876 65.3954" stroke="#94D2FF" stroke-linecap="round"/>
<path d="M21.9726 61.907L20.8082 64.2326" stroke="#94D2FF" stroke-linecap="round"/>
<path d="M73.2054 64.2325L70.8766 68.8837" stroke="#94D2FF" stroke-linecap="round"/>
<path d="M67.3835 72.3721L66.2191 74.6977" stroke="#94D2FF" stroke-linecap="round"/>
<path d="M14.9863 64.2325L13.8219 66.5581" stroke="#94D2FF" stroke-linecap="round"/>
<path d="M32.452 81.6744L31.2876 84" stroke="#94D2FF" stroke-linecap="round"/>
<path d="M28.9589 74.6976L27.7945 77.0232" stroke="#94D2FF" stroke-linecap="round"/>
<path d="M56.6936 73.4284L54.7857 77.7111" stroke="#94D2FF" stroke-linecap="round"/>
<path d="M68.5478 64.2325L66.2191 68.8837" stroke="#94D2FF" stroke-linecap="round"/>
<path d="M24.3013 74.6976L20.8082 81.6744" stroke="#94D2FF" stroke-linecap="round"/>
<path d="M45.2602 64.2325L41.7671 71.2093" stroke="#94D2FF" stroke-linecap="round"/>
<path d="M59.2328 63.0698L55.7396 70.0466" stroke="#94D2FF" stroke-linecap="round"/>
<path d="M46.4246 75.8605L42.9314 82.8372" stroke="#94D2FF" stroke-linecap="round"/>
<path d="M35.9452 65.3954L32.452 72.3721" stroke="#94D2FF" stroke-linecap="round"/>
<path d="M166.639 37.0166C170.82 37.7559 174.475 40.989 175.029 46.9041C180.051 43.8034 185.538 44.9203 188.957 48.6157C188.957 41.9424 182.86 39.0176 177.994 39.9945C177.323 32.8302 169.324 32.4127 166.639 37.0166Z" fill="#9E9E9E"/>
<path d="M149.69 41.9424C151.381 42.0425 152.978 42.5808 154.221 43.6476C155.421 41.06 157.362 39.1921 159.59 38.077C155.731 35.5064 150.193 37.9488 149.69 41.9424Z" fill="#9E9E9E"/>
<path fill-rule="evenodd" clip-rule="evenodd" d="M139.285 48.0439C130.818 45.8215 125.706 52.7162 129.02 59.0953C129.59 60.1926 130.804 60.7442 132.041 60.7442H141.523C141.858 58.4176 144.208 57.115 146.893 57.4407C148.012 54.7645 152.375 54.4389 154.221 56.6266C157.409 51.3452 166.639 51.3452 168.54 56.1381C172.232 55.8124 175.029 57.7663 175.029 60.7442H197.139C197.999 60.7442 198.793 60.1955 198.922 59.3454C199.661 54.4774 195 52.1877 191.866 53.9865C191.436 51.278 190.566 50.3539 188.957 48.6157C185.538 44.9203 180.051 43.8034 175.029 46.9041C174.475 40.989 170.82 37.7559 166.639 37.0166C164.304 36.604 161.806 36.9684 159.59 38.077C157.362 39.1921 155.421 41.06 154.221 43.6476C152.978 42.5808 151.381 42.0425 149.69 41.9424C145.444 41.6911 140.606 44.2013 139.285 48.0439Z" fill="#F1F1F1"/>
<path d="M146.893 57.4407C144.208 57.115 141.858 58.4176 141.523 60.7442H175.029C175.029 57.7663 172.232 55.8124 168.54 56.1381C166.639 51.3452 157.409 51.3452 154.221 56.6266C152.375 54.4389 148.012 54.7645 146.893 57.4407Z" fill="#D9D9D9"/>
<path d="M140.808 67.7209L137.315 74.6977" stroke="#94D2FF" stroke-linecap="round"/>
<path d="M147.794 65.3954L145.466 70.0465" stroke="#94D2FF" stroke-linecap="round"/>
<path d="M172.247 63.0698L169.918 67.721" stroke="#94D2FF" stroke-linecap="round"/>
<path d="M158.274 72.3721L155.945 77.0232" stroke="#94D2FF" stroke-linecap="round"/>
<path d="M171.082 74.6976L168.753 79.3488" stroke="#94D2FF" stroke-linecap="round"/>
<path d="M180.979 77.0232L179.233 81.093" stroke="#94D2FF" stroke-linecap="round"/>
<path d="M183.308 65.3954L180.397 71.2093" stroke="#94D2FF" stroke-linecap="round"/>
<path d="M167.589 70.0465L166.425 72.3721" stroke="#94D2FF" stroke-linecap="round"/>
<path d="M159.438 65.3954L158.274 67.721" stroke="#94D2FF" stroke-linecap="round"/>
<path d="M152.452 63.0698L151.288 65.3954" stroke="#94D2FF" stroke-linecap="round"/>
<path d="M141.973 61.907L140.808 64.2326" stroke="#94D2FF" stroke-linecap="round"/>
<path d="M193.205 64.2325L190.877 68.8837" stroke="#94D2FF" stroke-linecap="round"/>
<path d="M187.383 72.3721L186.219 74.6977" stroke="#94D2FF" stroke-linecap="round"/>
<path d="M134.986 64.2325L133.822 66.5581" stroke="#94D2FF" stroke-linecap="round"/>
<path d="M152.452 81.6744L151.288 84" stroke="#94D2FF" stroke-linecap="round"/>
<path d="M148.959 74.6976L147.794 77.0232" stroke="#94D2FF" stroke-linecap="round"/>
<path d="M176.694 73.4284L174.786 77.7111" stroke="#94D2FF" stroke-linecap="round"/>
<path d="M188.548 64.2325L186.219 68.8837" stroke="#94D2FF" stroke-linecap="round"/>
<path d="M144.301 74.6976L140.808 81.6744" stroke="#94D2FF" stroke-linecap="round"/>
<path d="M165.26 64.2325L161.767 71.2093" stroke="#94D2FF" stroke-linecap="round"/>
<path d="M179.233 63.0698L175.74 70.0466" stroke="#94D2FF" stroke-linecap="round"/>
<path d="M166.425 75.8605L162.931 82.8372" stroke="#94D2FF" stroke-linecap="round"/>
<path d="M155.945 65.3954L152.452 72.3721" stroke="#94D2FF" stroke-linecap="round"/>
</svg>
