<svg width="203" height="60" viewBox="0 0 203 60" fill="none" xmlns="http://www.w3.org/2000/svg">
<path d="M154.714 47.6609C154.714 49.7053 153.021 51.3627 150.934 51.3627C148.846 51.3627 147.154 49.7053 147.154 47.6609C147.154 45.6165 148.846 43.9592 150.934 43.9592C153.021 43.9592 154.714 45.6165 154.714 47.6609Z" fill="#DBDBDB"/>
<path d="M146.398 42.1084C146.398 43.1306 145.552 43.9592 144.508 43.9592C143.464 43.9592 142.618 43.1306 142.618 42.1084C142.618 41.0862 143.464 40.2575 144.508 40.2575C145.552 40.2575 146.398 41.0862 146.398 42.1084Z" fill="#DBDBDB"/>
<path d="M162.273 52.72C162.273 53.4696 161.653 54.0773 160.887 54.0773C160.122 54.0773 159.501 53.4696 159.501 52.72C159.501 51.9703 160.122 51.3627 160.887 51.3627C161.653 51.3627 162.273 51.9703 162.273 52.72Z" fill="#DBDBDB"/>
<path d="M138.838 25.4506C138.838 28.3128 136.469 30.633 133.546 30.633C130.624 30.633 128.255 28.3128 128.255 25.4506C128.255 22.5885 130.624 20.2682 133.546 20.2682C136.469 20.2682 138.838 22.5885 138.838 25.4506Z" fill="#C1C1C1"/>
<path d="M143.374 22.4893C143.374 23.7159 142.359 24.7103 141.106 24.7103C139.854 24.7103 138.838 23.7159 138.838 22.4893C138.838 21.2626 139.854 20.2682 141.106 20.2682C142.359 20.2682 143.374 21.2626 143.374 22.4893Z" fill="#C1C1C1"/>
<path d="M128.255 19.0343C128.255 19.9884 127.465 20.7618 126.491 20.7618C125.517 20.7618 124.727 19.9884 124.727 19.0343C124.727 18.0803 125.517 17.3069 126.491 17.3069C127.465 17.3069 128.255 18.0803 128.255 19.0343Z" fill="#C1C1C1"/>
<path d="M134.806 17.4303C134.806 17.771 134.524 18.0472 134.176 18.0472C133.829 18.0472 133.546 17.771 133.546 17.4303C133.546 17.0895 133.829 16.8133 134.176 16.8133C134.524 16.8133 134.806 17.0895 134.806 17.4303Z" fill="#C1C1C1"/>
<path d="M138.838 54.0773C138.838 54.7587 138.274 55.3112 137.578 55.3112C136.882 55.3112 136.318 54.7587 136.318 54.0773C136.318 53.3958 136.882 52.8433 137.578 52.8433C138.274 52.8433 138.838 53.3958 138.838 54.0773Z" fill="#DBDBDB"/>
<path d="M124.727 35.9388C124.727 36.5522 124.219 37.0494 123.593 37.0494C122.967 37.0494 122.459 36.5522 122.459 35.9388C122.459 35.3255 122.967 34.8283 123.593 34.8283C124.219 34.8283 124.727 35.3255 124.727 35.9388Z" fill="#C1C1C1"/>
<path d="M157.738 39.5172C157.738 39.926 157.399 40.2575 156.982 40.2575C156.564 40.2575 156.226 39.926 156.226 39.5172C156.226 39.1083 156.564 38.7768 156.982 38.7768C157.399 38.7768 157.738 39.1083 157.738 39.5172Z" fill="#DBDBDB"/>
<path d="M168.573 48.2779C168.573 48.6186 168.291 48.8948 167.943 48.8948C167.595 48.8948 167.313 48.6186 167.313 48.2779C167.313 47.9372 167.595 47.6609 167.943 47.6609C168.291 47.6609 168.573 47.9372 168.573 48.2779Z" fill="#DBDBDB"/>
<path d="M150.934 7.80579C150.934 8.82799 150.088 9.65665 149.044 9.65665C148 9.65665 147.154 8.82799 147.154 7.80579C147.154 6.78359 148 5.95494 149.044 5.95494C150.088 5.95494 150.934 6.78359 150.934 7.80579Z" fill="#C1C1C1"/>
<path d="M154.714 11.7543C154.714 12.2313 154.319 12.618 153.832 12.618C153.345 12.618 152.95 12.2313 152.95 11.7543C152.95 11.2773 153.345 10.8906 153.832 10.8906C154.319 10.8906 154.714 11.2773 154.714 11.7543Z" fill="#C1C1C1"/>
<path d="M163.533 17.4303C163.533 18.9976 162.236 20.2682 160.635 20.2682C159.035 20.2682 157.738 18.9976 157.738 17.4303C157.738 15.8629 159.035 14.5923 160.635 14.5923C162.236 14.5923 163.533 15.8629 163.533 17.4303Z" fill="#C1C1C1"/>
<path d="M166.053 22.9828C166.053 23.6643 165.489 24.2167 164.793 24.2167C164.097 24.2167 163.533 23.6643 163.533 22.9828C163.533 22.3014 164.097 21.7489 164.793 21.7489C165.489 21.7489 166.053 22.3014 166.053 22.9828Z" fill="#DBDBDB"/>
<path d="M160.005 12.8648C160.005 13.0011 159.753 13.1116 159.753 13.1116C159.753 13.1116 159.501 13.0011 159.501 12.8648C159.501 12.7285 159.614 12.618 159.753 12.618C159.893 12.618 160.005 12.7285 160.005 12.8648Z" fill="#C1C1C1"/>
<path d="M169.329 16.8133C169.329 17.3585 168.878 17.8004 168.321 17.8004C167.764 17.8004 167.313 17.3585 167.313 16.8133C167.313 16.2681 167.764 15.8262 168.321 15.8262C168.878 15.8262 169.329 16.2681 169.329 16.8133Z" fill="#C1C1C1"/>
<path d="M177.393 27.7951C177.393 29.0899 176.321 30.1395 174.999 30.1395C173.677 30.1395 172.605 29.0899 172.605 27.7951C172.605 26.5003 173.677 25.4506 174.999 25.4506C176.321 25.4506 177.393 26.5003 177.393 27.7951Z" fill="#DBDBDB"/>
<path d="M122.425 3.125L123.373 5.63406L125.935 6.5625L123.373 7.49094L122.425 10L121.477 7.49094L118.915 6.5625L121.477 5.63406L122.425 3.125Z" fill="#FFDE6A"/>
<path d="M126.564 43.1341L125.616 40.625L124.668 43.1341L123.083 43.7083C123.227 44.0012 123.376 44.2913 123.53 44.5786L124.668 44.9909L125.616 47.5L126.564 44.9909L129.126 44.0625L126.564 43.1341Z" fill="#FFDE6A"/>
<path d="M123.53 44.5786C123.376 44.2913 123.227 44.0012 123.083 43.7083L122.106 44.0625L123.53 44.5786Z" fill="#FFDE6A"/>
<path d="M135.189 47.5L135.792 49.0967L137.422 49.6875L135.792 50.2783L135.189 51.875L134.585 50.2783L132.955 49.6875L134.585 49.0967L135.189 47.5Z" fill="#FFDE6A"/>
<path d="M139.656 38.125L140.259 39.7217L141.89 40.3125L140.259 40.9033L139.656 42.5L139.053 40.9033L137.422 40.3125L139.053 39.7217L139.656 38.125Z" fill="#FFDE6A"/>
<path d="M117.957 8.125L118.216 8.80929L118.915 9.0625L118.216 9.31571L117.957 10L117.699 9.31571L117 9.0625L117.699 8.80929L117.957 8.125Z" fill="#FFDE6A"/>
<path d="M123.063 11.25L123.321 11.9343L124.02 12.1875L123.321 12.4407L123.063 13.125L122.804 12.4407L122.106 12.1875L122.804 11.9343L123.063 11.25Z" fill="#FFDE6A"/>
<path d="M131.998 0.625L132.256 1.30929L132.955 1.5625L132.256 1.81571L131.998 2.5L131.739 1.81571L131.04 1.5625L131.739 1.30929L131.998 0.625Z" fill="#FFDE6A"/>
<path d="M159.44 1.25L159.698 1.93429L160.397 2.1875L159.698 2.44071L159.44 3.125L159.181 2.44071L158.483 2.1875L159.181 1.93429L159.44 1.25Z" fill="#FFDE6A"/>
<path d="M173.273 11.7655L172.842 10.625L172.411 11.7655L171.456 12.1117C171.524 12.1864 171.591 12.2615 171.659 12.3368L172.411 12.6095L172.842 13.75L173.273 12.6095L174.437 12.1875L173.273 11.7655Z" fill="#FFDE6A"/>
<path d="M171.456 12.1117L171.246 12.1875L171.659 12.3368C171.591 12.2615 171.524 12.1864 171.456 12.1117Z" fill="#FFDE6A"/>
<path d="M171.566 51.875L171.996 53.0155L173.161 53.4375L171.996 53.8595L171.566 55L171.135 53.8595L169.97 53.4375L171.135 53.0155L171.566 51.875Z" fill="#FFDE6A"/>
<path fill-rule="evenodd" clip-rule="evenodd" d="M149.548 60C165.761 60 178.905 47.1282 178.905 31.25C178.905 24.0083 176.171 17.3919 171.659 12.3368L171.246 12.1875L171.456 12.1117C170.111 10.6372 168.614 9.29916 166.989 8.12158L166.945 8.09013L166.46 9.375L165.638 7.19882C161.017 4.22803 155.488 2.5 149.548 2.5C133.334 2.5 120.191 15.3718 120.191 31.25C120.191 35.7134 121.23 39.9392 123.083 43.7083L124.668 43.1341L125.616 40.625L126.564 43.1341L129.126 44.0625L126.564 44.9909L125.616 47.5L124.668 44.9909L123.53 44.5786C128.436 53.7457 138.246 60 149.548 60ZM133.546 30.633C136.469 30.633 138.838 28.3128 138.838 25.4506C138.838 22.5885 136.469 20.2682 133.546 20.2682C130.624 20.2682 128.255 22.5885 128.255 25.4506C128.255 28.3128 130.624 30.633 133.546 30.633ZM141.106 24.7103C142.359 24.7103 143.374 23.7159 143.374 22.4893C143.374 21.2626 142.359 20.2682 141.106 20.2682C139.854 20.2682 138.838 21.2626 138.838 22.4893C138.838 23.7159 139.854 24.7103 141.106 24.7103ZM160.635 20.2682C162.236 20.2682 163.533 18.9976 163.533 17.4303C163.533 15.8629 162.236 14.5923 160.635 14.5923C159.035 14.5923 157.738 15.8629 157.738 17.4303C157.738 18.9976 159.035 20.2682 160.635 20.2682ZM153.832 12.618C154.319 12.618 154.714 12.2313 154.714 11.7543C154.714 11.2773 154.319 10.8906 153.832 10.8906C153.345 10.8906 152.95 11.2773 152.95 11.7543C152.95 12.2313 153.345 12.618 153.832 12.618ZM149.044 9.65665C150.088 9.65665 150.934 8.82799 150.934 7.80579C150.934 6.78359 150.088 5.95494 149.044 5.95494C148 5.95494 147.154 6.78359 147.154 7.80579C147.154 8.82799 148 9.65665 149.044 9.65665ZM168.321 17.8004C168.878 17.8004 169.329 17.3585 169.329 16.8133C169.329 16.2681 168.878 15.8262 168.321 15.8262C167.764 15.8262 167.313 16.2681 167.313 16.8133C167.313 17.3585 167.764 17.8004 168.321 17.8004ZM159.753 13.1116C159.753 13.1116 160.005 13.0011 160.005 12.8648C160.005 12.7285 159.893 12.618 159.753 12.618C159.614 12.618 159.501 12.7285 159.501 12.8648C159.501 13.0011 159.753 13.1116 159.753 13.1116ZM164.793 24.2167C165.489 24.2167 166.053 23.6643 166.053 22.9828C166.053 22.3014 165.489 21.7489 164.793 21.7489C164.097 21.7489 163.533 22.3014 163.533 22.9828C163.533 23.6643 164.097 24.2167 164.793 24.2167ZM174.999 30.1395C176.321 30.1395 177.393 29.0899 177.393 27.7951C177.393 26.5003 176.321 25.4506 174.999 25.4506C173.677 25.4506 172.605 26.5003 172.605 27.7951C172.605 29.0899 173.677 30.1395 174.999 30.1395ZM150.934 51.3627C153.021 51.3627 154.714 49.7053 154.714 47.6609C154.714 45.6165 153.021 43.9592 150.934 43.9592C148.846 43.9592 147.154 45.6165 147.154 47.6609C147.154 49.7053 148.846 51.3627 150.934 51.3627ZM156.982 40.2575C157.399 40.2575 157.738 39.926 157.738 39.5172C157.738 39.1083 157.399 38.7768 156.982 38.7768C156.564 38.7768 156.226 39.1083 156.226 39.5172C156.226 39.926 156.564 40.2575 156.982 40.2575ZM144.508 43.9592C145.552 43.9592 146.398 43.1306 146.398 42.1084C146.398 41.0862 145.552 40.2575 144.508 40.2575C143.464 40.2575 142.618 41.0862 142.618 42.1084C142.618 43.1306 143.464 43.9592 144.508 43.9592ZM167.943 48.8948C168.291 48.8948 168.573 48.6186 168.573 48.2779C168.573 47.9372 168.291 47.6609 167.943 47.6609C167.595 47.6609 167.313 47.9372 167.313 48.2779C167.313 48.6186 167.595 48.8948 167.943 48.8948ZM160.887 54.0773C161.653 54.0773 162.273 53.4696 162.273 52.72C162.273 51.9703 161.653 51.3627 160.887 51.3627C160.122 51.3627 159.501 51.9703 159.501 52.72C159.501 53.4696 160.122 54.0773 160.887 54.0773ZM137.578 55.3112C138.274 55.3112 138.838 54.7587 138.838 54.0773C138.838 53.3958 138.274 52.8433 137.578 52.8433C136.882 52.8433 136.318 53.3958 136.318 54.0773C136.318 54.7587 136.882 55.3112 137.578 55.3112ZM123.593 37.0494C124.219 37.0494 124.727 36.5522 124.727 35.9388C124.727 35.3255 124.219 34.8283 123.593 34.8283C122.967 34.8283 122.459 35.3255 122.459 35.9388C122.459 36.5522 122.967 37.0494 123.593 37.0494ZM134.176 18.0472C134.524 18.0472 134.806 17.771 134.806 17.4303C134.806 17.0895 134.524 16.8133 134.176 16.8133C133.829 16.8133 133.546 17.0895 133.546 17.4303C133.546 17.771 133.829 18.0472 134.176 18.0472ZM126.491 20.7618C127.465 20.7618 128.255 19.9884 128.255 19.0343C128.255 18.0803 127.465 17.3069 126.491 17.3069C125.517 17.3069 124.727 18.0803 124.727 19.0343C124.727 19.9884 125.517 20.7618 126.491 20.7618ZM133.877 9.09668L133.274 7.5L132.671 9.09668L131.04 9.6875L132.671 10.2783L133.274 11.875L133.877 10.2783L135.508 9.6875L133.877 9.09668ZM140.259 39.7217L139.656 38.125L139.053 39.7217L137.422 40.3125L139.053 40.9033L139.656 42.5L140.259 40.9033L141.89 40.3125L140.259 39.7217ZM135.792 49.0967L135.189 47.5L134.585 49.0967L132.955 49.6875L134.585 50.2783L135.189 51.875L135.792 50.2783L137.422 49.6875L135.792 49.0967Z" fill="#E0E0E0"/>
<path d="M165.638 7.19882L166.46 9.375L166.945 8.09013C166.518 7.78182 166.082 7.48457 165.638 7.19882Z" fill="#FFDE6A"/>
<path fill-rule="evenodd" clip-rule="evenodd" d="M166.46 0L167.753 3.42145L171.246 4.6875L167.753 5.95355L166.945 8.09013C166.518 7.78182 166.082 7.48457 165.638 7.19882L165.167 5.95355L161.674 4.6875L165.167 3.42145L166.46 0Z" fill="#FFDE6A"/>
<path d="M133.274 7.5L133.877 9.09668L135.508 9.6875L133.877 10.2783L133.274 11.875L132.671 10.2783L131.04 9.6875L132.671 9.09668L133.274 7.5Z" fill="#FFDE6A"/>
<path d="M171.566 51.875L171.996 53.0155L173.161 53.4375L171.996 53.8595L171.566 55L171.135 53.8595L169.97 53.4375L171.135 53.0155L171.566 51.875Z" fill="#FFDE6A"/>
<path d="M126.908 53.1649L127.253 54.0773L128.185 54.4149L127.253 54.7525L126.908 55.6649L126.564 54.7525L125.632 54.4149L126.564 54.0773L126.908 53.1649Z" fill="#FFDE6A"/>
<path d="M29.747 0.258174L36.4655 7.66325L46.0358 4.93616L47.7243 14.8347L57.235 17.7669L53.3575 27.0162L59.789 34.6768L51.5765 40.3403L52.8868 50.2971L42.9468 50.5766L38.7199 59.6683L30.2082 54.4751L21.7861 59.8153L17.4052 50.7982L7.46187 50.6913L8.6026 40.7132L0.294978 35.1932L6.5952 27.4221L2.56088 18.2415L12.0203 15.1446L13.5402 5.2182L23.1555 7.77877L29.747 0.258174Z" fill="#FFC736"/>
<path d="M48.7383 30.6983C48.6398 41.3344 40.0241 49.8761 29.4944 49.7766C18.9647 49.6772 10.5085 40.9743 10.6069 30.3382C10.7053 19.7021 19.3211 11.1604 29.8508 11.2599C40.3805 11.3593 48.8367 20.0622 48.7383 30.6983Z" fill="#E86A23"/>
<path fill-rule="evenodd" clip-rule="evenodd" d="M29.5363 2.96069C29.8932 2.96069 30.1826 3.25299 30.1826 3.61355V8.50996C30.1826 8.87053 29.8932 9.16282 29.5363 9.16282C29.1793 9.16282 28.89 8.87053 28.89 8.50996V3.61355C28.89 3.25299 29.1793 2.96069 29.5363 2.96069Z" fill="#FFE5A1"/>
<path fill-rule="evenodd" clip-rule="evenodd" d="M44.1245 7.37145C44.4246 7.56662 44.5113 7.9706 44.3181 8.27378L41.6942 12.3909C41.501 12.694 41.1011 12.7816 40.8009 12.5864C40.5008 12.3913 40.4141 11.9873 40.6073 11.6841L43.2312 7.56701C43.4244 7.26384 43.8244 7.17628 44.1245 7.37145Z" fill="#FFE5A1"/>
<path fill-rule="evenodd" clip-rule="evenodd" d="M14.9043 8.05332C15.2011 7.853 15.6024 7.93365 15.8007 8.23345L18.4938 12.3047C18.6921 12.6045 18.6122 13.0099 18.3154 13.2102C18.0186 13.4105 17.6173 13.3299 17.419 13.0301L14.7259 8.95885C14.5276 8.65905 14.6075 8.25363 14.9043 8.05332Z" fill="#FFE5A1"/>
<path fill-rule="evenodd" clip-rule="evenodd" d="M4.40534 18.9756C4.57293 18.6572 4.96428 18.5364 5.27945 18.7057L9.55941 21.0045C9.87458 21.1738 9.99422 21.5691 9.82663 21.8874C9.65904 22.2058 9.26769 22.3266 8.95252 22.1573L4.67256 19.8585C4.35739 19.6892 4.23775 19.2939 4.40534 18.9756Z" fill="#FFE5A1"/>
<path fill-rule="evenodd" clip-rule="evenodd" d="M3.26225 34.1098C3.18994 33.7567 3.4147 33.4113 3.76425 33.3383L8.51118 32.3464C8.86073 32.2734 9.20272 32.5004 9.27503 32.8535C9.34733 33.2066 9.12258 33.552 8.77303 33.6251L4.0261 34.6169C3.67654 34.6899 3.33456 34.4629 3.26225 34.1098Z" fill="#FFE5A1"/>
<path fill-rule="evenodd" clip-rule="evenodd" d="M48.969 21.5897C48.8226 21.2609 48.9677 20.8744 49.2932 20.7264L53.7137 18.7172C54.0392 18.5692 54.4219 18.7159 54.5683 19.0447C54.7148 19.3735 54.5697 19.76 54.2442 19.9079L49.8237 21.9172C49.4981 22.0651 49.1155 21.9185 48.969 21.5897Z" fill="#FFE5A1"/>
<path fill-rule="evenodd" clip-rule="evenodd" d="M50.2305 32.8672C50.2988 32.5133 50.6381 32.2823 50.9885 32.3512L55.7465 33.2873C56.0969 33.3562 56.3256 33.699 56.2574 34.0529C56.1891 34.4068 55.8498 34.6379 55.4994 34.5689L50.7414 33.6329C50.391 33.5639 50.1623 33.2212 50.2305 32.8672Z" fill="#FFE5A1"/>
<path fill-rule="evenodd" clip-rule="evenodd" d="M45.8691 44.2969C46.1133 44.0339 46.5223 44.0205 46.7827 44.2671L50.3191 47.6159C50.5795 47.8625 50.5927 48.2757 50.3486 48.5387C50.1045 48.8018 49.6955 48.8151 49.4351 48.5685L45.8986 45.2197C45.6382 44.9731 45.625 44.56 45.8691 44.2969Z" fill="#FFE5A1"/>
<path fill-rule="evenodd" clip-rule="evenodd" d="M9.66774 48.4707C9.42798 48.2036 9.448 47.7907 9.71246 47.5485L13.3037 44.2597C13.5681 44.0176 13.9769 44.0378 14.2166 44.3049C14.4564 44.572 14.4364 44.9849 14.1719 45.2271L10.5807 48.5158C10.3162 48.758 9.90749 48.7378 9.66774 48.4707Z" fill="#FFE5A1"/>
<path fill-rule="evenodd" clip-rule="evenodd" d="M35.7671 50.6628C36.1002 50.5331 36.4742 50.7007 36.6026 51.0372L38.3459 55.606C38.4743 55.9424 38.3084 56.3203 37.9753 56.4499C37.6422 56.5796 37.2681 56.412 37.1398 56.0756L35.3964 51.5068C35.2681 51.1703 35.434 50.7925 35.7671 50.6628Z" fill="#FFE5A1"/>
<path fill-rule="evenodd" clip-rule="evenodd" d="M50.2305 32.8672C50.2988 32.5133 50.6381 32.2823 50.9885 32.3512L55.7465 33.2873C56.0969 33.3562 56.3256 33.699 56.2574 34.0529C56.1891 34.4068 55.8498 34.6379 55.4994 34.5689L50.7414 33.6329C50.391 33.5639 50.1623 33.2212 50.2305 32.8672Z" fill="#FFE5A1"/>
<path fill-rule="evenodd" clip-rule="evenodd" d="M22.2315 56.5621C21.8912 56.4532 21.7028 56.0862 21.8106 55.7425L23.2749 51.0748C23.3827 50.7311 23.746 50.5408 24.0862 50.6497C24.4265 50.7586 24.615 51.1255 24.5071 51.4692L23.0428 56.1369C22.935 56.4806 22.5718 56.671 22.2315 56.5621Z" fill="#FFE5A1"/>
<path fill-rule="evenodd" clip-rule="evenodd" d="M33.6922 32.6253C26.5288 30.7425 22.1615 36.4686 24.7534 41.8841C25.2876 43.0002 26.5114 43.5476 27.7488 43.5476H35.6137C35.902 41.5467 37.9196 40.4265 40.2255 40.7065C41.1864 38.405 44.9336 38.125 46.5189 40.0064C49.2572 35.4644 57.1837 35.4644 58.817 39.5863C61.9876 39.3063 64.3897 40.9866 64.3897 43.5476H83.1745C84.0346 43.5476 84.8351 42.9993 84.9363 42.1452C85.4162 38.0959 81.4979 36.2138 78.8497 37.7359C78.4808 35.4066 77.7329 34.6119 76.3517 33.1171C73.4152 29.9391 68.7025 28.9785 64.3897 31.6451C63.9138 26.5581 60.7752 23.7776 57.1837 23.1419C55.1791 22.787 53.0333 23.1004 51.1307 24.0538C49.2171 25.0127 47.5495 26.6192 46.5189 28.8445C45.4515 27.9271 44.08 27.4641 42.6276 27.378C38.9816 27.1619 34.8259 29.3207 33.6922 32.6253Z" fill="#F1F1F1"/>
<path d="M40.2255 40.7065C37.9196 40.4265 35.902 41.5467 35.6137 43.5476H64.3897C64.3897 40.9866 61.9876 39.3063 58.817 39.5863C57.1837 35.4644 49.2572 35.4644 46.5189 40.0064C44.9336 38.125 41.1864 38.405 40.2255 40.7065Z" fill="#D9D9D9"/>
<g filter="url(#filter0_d_8_568)">
<path fill-rule="evenodd" clip-rule="evenodd" d="M151.692 32.6253C144.529 30.7425 140.162 36.4686 142.753 41.8841C143.288 43.0002 144.511 43.5476 145.749 43.5476H153.614C153.902 41.5467 155.92 40.4265 158.226 40.7065C159.186 38.405 162.934 38.125 164.519 40.0064C167.257 35.4644 175.184 35.4644 176.817 39.5863C179.988 39.3063 182.39 40.9866 182.39 43.5476H201.175C202.035 43.5476 202.835 42.9993 202.936 42.1452C203.416 38.0959 199.498 36.2138 196.85 37.7359C196.481 35.4066 195.733 34.6119 194.352 33.1171C191.415 29.9391 186.702 28.9785 182.39 31.6451C181.914 26.5581 178.775 23.7776 175.184 23.1419C173.179 22.787 171.033 23.1004 169.131 24.0538C167.217 25.0127 165.55 26.6192 164.519 28.8445C163.451 27.9271 162.08 27.4641 160.628 27.378C156.982 27.1619 152.826 29.3207 151.692 32.6253Z" fill="#F1F1F1"/>
<path d="M158.226 40.7065C155.92 40.4265 153.902 41.5467 153.614 43.5476H182.39C182.39 40.9866 179.988 39.3063 176.817 39.5863C175.184 35.4644 167.257 35.4644 164.519 40.0064C162.934 38.125 159.186 38.405 158.226 40.7065Z" fill="#D9D9D9"/>
</g>
<defs>
<filter id="filter0_d_8_568" x="139" y="20" width="63.9766" height="23.5476" filterUnits="userSpaceOnUse" color-interpolation-filters="sRGB">
<feFlood flood-opacity="0" result="BackgroundImageFix"/>
<feColorMatrix in="SourceAlpha" type="matrix" values="0 0 0 0 0 0 0 0 0 0 0 0 0 0 0 0 0 0 127 0" result="hardAlpha"/>
<feOffset dx="-2" dy="-2"/>
<feGaussianBlur stdDeviation="0.5"/>
<feComposite in2="hardAlpha" operator="out"/>
<feColorMatrix type="matrix" values="0 0 0 0 0 0 0 0 0 0 0 0 0 0 0 0 0 0 0.14 0"/>
<feBlend mode="normal" in2="BackgroundImageFix" result="effect1_dropShadow_8_568"/>
<feBlend mode="normal" in="SourceGraphic" in2="effect1_dropShadow_8_568" result="shape"/>
</filter>
</defs>
</svg>
