<svg width="199" height="58" viewBox="0 0 199 58" fill="none" xmlns="http://www.w3.org/2000/svg">
<path fill-rule="evenodd" clip-rule="evenodd" d="M33.3101 47.4107C33.3854 47.4396 33.4229 47.524 33.3941 47.5992L33.1499 48.2352L33.4934 48.1237C33.57 48.0988 33.6523 48.1407 33.6772 48.2174C33.7021 48.294 33.6602 48.3763 33.5835 48.4011L33.0154 48.5856L32.7983 49.1512L33.4304 48.9356C33.5066 48.9096 33.5895 48.9503 33.6155 49.0265C33.6415 49.1028 33.6008 49.1857 33.5246 49.2117L32.6621 49.5059L32.1029 50.9628L33.5328 50.3498L33.7534 49.4352C33.7723 49.3569 33.8511 49.3087 33.9294 49.3276C34.0077 49.3465 34.0559 49.4253 34.037 49.5036L33.8675 50.2063L34.4414 49.9602L34.5899 49.3875C34.6101 49.3095 34.6897 49.2627 34.7677 49.2829C34.8457 49.3031 34.8925 49.3827 34.8723 49.4607L34.7805 49.8149L35.4145 49.5431C35.4885 49.5114 35.5743 49.5457 35.606 49.6197C35.6378 49.6937 35.6035 49.7795 35.5295 49.8112L34.9032 50.0797L35.2227 50.2481C35.294 50.2857 35.3213 50.3739 35.2837 50.4452C35.2462 50.5164 35.1579 50.5438 35.0867 50.5062L34.5582 50.2276L34.0014 50.4663L34.5967 50.769C34.6685 50.8055 34.6972 50.8933 34.6607 50.9652C34.6241 51.037 34.5363 51.0656 34.4645 51.0291L33.6522 50.616L32.2317 51.2249L33.6715 51.7734L34.4661 51.2696C34.5342 51.2264 34.6243 51.2466 34.6675 51.3147C34.7106 51.3827 34.6904 51.4728 34.6224 51.516L34.0119 51.903L34.5955 52.1253L35.1005 51.8169C35.1692 51.775 35.259 51.7967 35.301 51.8654C35.343 51.9342 35.3213 52.0239 35.2525 52.0659L34.9402 52.2566L35.5849 52.5022C35.6601 52.5308 35.6979 52.6151 35.6693 52.6904C35.6406 52.7657 35.5563 52.8035 35.481 52.7748L34.8443 52.5322L34.9567 52.8754C34.9818 52.952 34.9401 53.0344 34.8635 53.0595C34.787 53.0845 34.7046 53.0428 34.6795 52.9663L34.4935 52.3986L33.9273 52.1829L34.1446 52.8145C34.1708 52.8906 34.1303 52.9736 34.0541 52.9998C33.978 53.026 33.895 52.9855 33.8688 52.9094L33.5722 52.0477L32.131 51.4987L32.7917 52.8868L33.7143 53.0715C33.7933 53.0873 33.8446 53.1642 33.8288 53.2432C33.8129 53.3222 33.7361 53.3734 33.6571 53.3576L32.9483 53.2157L33.2167 53.7795L33.7948 53.9054C33.8736 53.9226 33.9235 54.0003 33.9063 54.079C33.8892 54.1577 33.8115 54.2076 33.7328 54.1905L33.3752 54.1126L33.6717 54.7354C33.7063 54.8082 33.6754 54.8952 33.6027 54.9298C33.5299 54.9644 33.4429 54.9335 33.4083 54.8608L33.1154 54.2456L32.9596 54.5714C32.9249 54.6441 32.8378 54.6748 32.7651 54.6401C32.6924 54.6053 32.6617 54.5182 32.6964 54.4456L32.9541 53.9067L32.6937 53.3596L32.4145 53.9663C32.3809 54.0395 32.2942 54.0715 32.221 54.0378C32.1479 54.0042 32.1158 53.9175 32.1495 53.8444L32.5304 53.0166L31.8579 51.6038L31.3034 53.0616L31.8076 53.856C31.8508 53.924 31.8307 54.0141 31.7627 54.0573C31.6947 54.1005 31.6045 54.0803 31.5613 54.0123L31.1739 53.402L30.9519 53.9857L31.2606 54.4905C31.3026 54.5592 31.281 54.649 31.2122 54.691C31.1435 54.733 31.0537 54.7114 31.0117 54.6427L30.8208 54.3304L30.5756 54.9751C30.5469 55.0504 30.4627 55.0882 30.3874 55.0596C30.3121 55.031 30.2743 54.9467 30.3029 54.8714L30.5451 54.2346L30.2019 54.3472C30.1254 54.3723 30.043 54.3306 30.0179 54.2541C29.9927 54.1776 30.0344 54.0951 30.111 54.07L30.6785 53.8838L30.8939 53.3175L30.2625 53.5351C30.1863 53.5614 30.1033 53.5209 30.0771 53.4447C30.0508 53.3686 30.0913 53.2856 30.1674 53.2593L31.029 52.9624L31.5829 51.5062L30.1605 52.1301L29.9475 53.0465C29.9292 53.125 29.8508 53.1738 29.7724 53.1556C29.6939 53.1373 29.6451 53.0589 29.6633 52.9805L29.8269 52.2764L29.2551 52.5272L29.1114 53.1012C29.0918 53.1793 29.0126 53.2268 28.9345 53.2073C28.8563 53.1877 28.8088 53.1085 28.8284 53.0304L28.9172 52.6754L28.2855 52.9524C28.2118 52.9848 28.1257 52.9512 28.0934 52.8775C28.061 52.8037 28.0946 52.7177 28.1683 52.6853L28.7923 52.4116L28.4714 52.2458C28.3998 52.2089 28.3718 52.1209 28.4088 52.0493C28.4457 51.9777 28.5337 51.9497 28.6053 51.9867L29.136 52.2609L29.6909 52.0175L29.093 51.7198C29.0209 51.6838 28.9916 51.5963 29.0275 51.5242C29.0634 51.4521 29.151 51.4227 29.2231 51.4586L30.0388 51.8649L31.4569 51.243L30.0128 50.6973L29.2196 51.2032C29.1516 51.2465 29.0615 51.2266 29.0181 51.1586C28.9748 51.0907 28.9948 51.0005 29.0627 50.9572L29.6722 50.5686L29.088 50.3478L28.5838 50.6575C28.5151 50.6997 28.4253 50.6782 28.3831 50.6096C28.341 50.5409 28.3624 50.4511 28.4311 50.4089L28.7429 50.2174L28.0976 49.9736C28.0222 49.9451 27.9842 49.8609 28.0127 49.7856C28.0412 49.7102 28.1254 49.6722 28.2007 49.7007L28.8381 49.9415L28.7247 49.5986C28.6995 49.5221 28.741 49.4396 28.8175 49.4144C28.8939 49.3891 28.9764 49.4306 29.0017 49.5071L29.1893 50.0742L29.756 50.2884L29.537 49.6575C29.5106 49.5814 29.5509 49.4983 29.627 49.4719C29.7031 49.4454 29.7862 49.4857 29.8126 49.5618L30.1115 50.4227L31.5591 50.9697L30.9065 49.5719L29.9853 49.3803C29.9065 49.3639 29.8558 49.2867 29.8722 49.2078C29.8886 49.1289 29.9659 49.0783 30.0447 49.0947L30.7525 49.2419L30.4883 48.6761L29.9111 48.5458C29.8325 48.5281 29.7832 48.45 29.8009 48.3714C29.8186 48.2928 29.8967 48.2435 29.9753 48.2613L30.3323 48.3418L30.0405 47.7168C30.0064 47.6438 30.038 47.557 30.111 47.5229C30.184 47.4888 30.2708 47.5204 30.3049 47.5934L30.5931 48.2108L30.7513 47.8861C30.7866 47.8137 30.8739 47.7836 30.9463 47.8189C31.0188 47.8542 31.0489 47.9415 31.0136 48.014L30.7519 48.5509L31.0081 49.0999L31.2918 48.4953C31.3261 48.4224 31.4129 48.391 31.4859 48.4252C31.5588 48.4595 31.5902 48.5463 31.5559 48.6192L31.1688 49.4442L31.8298 50.86L32.388 49.4059L31.8862 48.61C31.8432 48.5418 31.8636 48.4518 31.9318 48.4088C31.9999 48.3658 32.09 48.3863 32.133 48.4544L32.5185 49.0659L32.7423 48.4829L32.4352 47.9771C32.3934 47.9083 32.4153 47.8186 32.4842 47.7768C32.553 47.735 32.6428 47.7569 32.6846 47.8257L32.8745 48.1386L33.1217 47.4946C33.1506 47.4194 33.2349 47.3818 33.3101 47.4107Z" fill="#FDFDFD"/>
<path fill-rule="evenodd" clip-rule="evenodd" d="M67.0043 46.7093C67.038 46.766 67.0194 46.8393 66.9627 46.873L66.4831 47.1579L66.7604 47.2605C66.8223 47.2833 66.8539 47.352 66.831 47.4139C66.8082 47.4758 66.7395 47.5074 66.6776 47.4845L66.2189 47.3148L65.7925 47.5682L66.3081 47.7502C66.3703 47.7722 66.4029 47.8404 66.3809 47.9026C66.359 47.9648 66.2908 47.9974 66.2286 47.9754L65.5251 47.727L64.4267 48.3796L65.6565 48.711L66.2622 48.2352C66.3141 48.1944 66.3892 48.2034 66.4299 48.2553C66.4707 48.3072 66.4616 48.3822 66.4098 48.423L65.9444 48.7886L66.438 48.9216L66.824 48.6288C66.8765 48.5889 66.9514 48.5992 66.9913 48.6518C67.0311 48.7043 67.0209 48.7792 66.9683 48.8191L66.7296 49.0002L67.2749 49.1471C67.3386 49.1643 67.3763 49.2298 67.3592 49.2935C67.342 49.3572 67.2765 49.3949 67.2128 49.3777L66.6742 49.2326L66.7941 49.5029C66.8208 49.5632 66.7936 49.6337 66.7333 49.6605C66.673 49.6872 66.6025 49.66 66.5757 49.5997L66.3775 49.1526L65.8985 49.0236L66.1276 49.5201C66.1552 49.58 66.129 49.6509 66.0692 49.6785C66.0093 49.7062 65.9383 49.68 65.9107 49.6201L65.5982 48.9426L64.3765 48.6134L65.0236 49.6962L65.7897 49.7755C65.8553 49.7823 65.903 49.841 65.8962 49.9066C65.8894 49.9722 65.8308 50.0199 65.7652 50.0131L65.1765 49.9521L65.4388 50.391L65.9197 50.449C65.9852 50.4569 66.0319 50.5164 66.024 50.5819C66.0161 50.6474 65.9566 50.6941 65.8911 50.6862L65.5937 50.6503L65.8834 51.1351C65.9172 51.1917 65.8988 51.265 65.8422 51.2989C65.7855 51.3327 65.7122 51.3142 65.6784 51.2576L65.3922 50.7787L65.2904 51.0563C65.2677 51.1183 65.1991 51.15 65.1372 51.1273C65.0753 51.1046 65.0435 51.036 65.0662 50.9741L65.2346 50.5149L64.9801 50.0891L64.7995 50.6052C64.7777 50.6674 64.7095 50.7002 64.6473 50.6784C64.585 50.6566 64.5522 50.5885 64.574 50.5262L64.8206 49.8221L64.1729 48.7382L63.8934 49.9654L64.3926 50.5521C64.4353 50.6023 64.4292 50.6777 64.379 50.7205C64.3288 50.7632 64.2534 50.7571 64.2107 50.7069L63.8271 50.2561L63.7136 50.7546L64.0213 51.1288C64.0632 51.1798 64.0558 51.255 64.0049 51.2969C63.954 51.3388 63.8787 51.3315 63.8368 51.2805L63.6465 51.0491L63.5211 51.5997C63.5065 51.664 63.4425 51.7043 63.3782 51.6896C63.3138 51.675 63.2736 51.611 63.2882 51.5467L63.4121 51.0028L63.1467 51.1331C63.0875 51.1622 63.016 51.1378 62.9869 51.0786C62.9578 51.0194 62.9822 50.9478 63.0414 50.9187L63.4804 50.7031L63.5905 50.2195L63.1034 50.4678C63.0446 50.4977 62.9727 50.4744 62.9428 50.4156C62.9128 50.3568 62.9362 50.2849 62.9949 50.255L63.6596 49.9162L63.9441 48.6672L62.8482 49.3228L62.7693 50.089C62.7626 50.1547 62.7039 50.2024 62.6383 50.1956C62.5727 50.1888 62.525 50.1302 62.5318 50.0646L62.5924 49.4758L62.1537 49.7383L62.0959 50.2193C62.0881 50.2848 62.0286 50.3315 61.9631 50.3236C61.8977 50.3158 61.8509 50.2563 61.8588 50.1908L61.8945 49.8933L61.4099 50.1832C61.3533 50.2171 61.28 50.1987 61.2461 50.1421C61.2123 50.0855 61.2307 50.0121 61.2873 49.9783L61.766 49.6919L61.4883 49.5902C61.4264 49.5675 61.3946 49.4989 61.4173 49.437C61.4399 49.375 61.5085 49.3432 61.5705 49.3659L62.0297 49.5342L62.4553 49.2795L61.9392 49.099C61.8769 49.0773 61.8441 49.0091 61.8659 48.9469C61.8876 48.8846 61.9557 48.8518 62.018 48.8736L62.7222 49.1198L63.8168 48.465L62.5863 48.1444L61.9846 48.6253C61.9331 48.6664 61.8579 48.658 61.8167 48.6065C61.7756 48.555 61.7839 48.4798 61.8355 48.4387L62.2978 48.0692L61.803 47.9403L61.4196 48.2363C61.3674 48.2766 61.2924 48.2669 61.2521 48.2147C61.2118 48.1625 61.2214 48.0875 61.2736 48.0472L61.5108 47.8642L60.9643 47.7218C60.9005 47.7051 60.8622 47.6399 60.8788 47.5761C60.8955 47.5123 60.9607 47.474 61.0245 47.4906L61.5643 47.6313L61.4422 47.362C61.4149 47.3019 61.4416 47.2311 61.5016 47.2039C61.5617 47.1767 61.6325 47.2033 61.6597 47.2634L61.8617 47.7088L62.3417 47.8338L62.1085 47.3392C62.0804 47.2796 62.106 47.2084 62.1656 47.1803C62.2253 47.1522 62.2964 47.1777 62.3245 47.2374L62.6427 47.9123L63.8694 48.2319L63.2183 47.1488L62.4519 47.0715C62.3862 47.0648 62.3384 47.0063 62.345 46.9407C62.3516 46.875 62.4102 46.8272 62.4758 46.8338L63.0646 46.8932L62.8012 46.455L62.3201 46.3983C62.2546 46.3906 62.2078 46.3312 62.2155 46.2657C62.2232 46.2002 62.2826 46.1534 62.3481 46.1611L62.6456 46.1962L62.3546 45.7121C62.3206 45.6556 62.3389 45.5822 62.3954 45.5483C62.452 45.5143 62.5253 45.5326 62.5593 45.5891L62.8467 46.0672L62.9478 45.7893C62.9704 45.7274 63.0389 45.6954 63.1009 45.7179C63.1628 45.7405 63.1948 45.809 63.1723 45.871L63.0051 46.3306L63.2606 46.7557L63.44 46.2392C63.4616 46.1769 63.5296 46.1439 63.5919 46.1655C63.6542 46.1872 63.6872 46.2552 63.6656 46.3175L63.4209 47.0223L64.0737 48.1082L64.3634 46.8789L63.8686 46.2885C63.8263 46.2379 63.8329 46.1626 63.8835 46.1203C63.934 46.0779 64.0093 46.0845 64.0517 46.1351L64.4318 46.5887L64.5491 46.0911L64.2442 45.7146C64.2027 45.6633 64.2106 45.5881 64.2619 45.5466C64.3131 45.5051 64.3883 45.513 64.4298 45.5643L64.6184 45.7971L64.7479 45.2474C64.7631 45.1833 64.8274 45.1435 64.8916 45.1586C64.9558 45.1738 64.9955 45.2381 64.9804 45.3023L64.8524 45.8452L65.1188 45.7169C65.1782 45.6882 65.2496 45.7132 65.2782 45.7726C65.3069 45.832 65.2819 45.9034 65.2225 45.932L64.7819 46.1443L64.6682 46.6271L65.1572 46.3825C65.2161 46.353 65.2879 46.3769 65.3174 46.4359C65.3469 46.4949 65.323 46.5666 65.264 46.5961L64.5968 46.9299L64.3033 48.175L65.3997 47.5237L65.4809 46.7577C65.4879 46.6921 65.5467 46.6446 65.6123 46.6515C65.6779 46.6585 65.7254 46.7173 65.7184 46.7829L65.656 47.3714L66.0955 47.1103L66.1547 46.6295C66.1628 46.564 66.2224 46.5175 66.2879 46.5256C66.3533 46.5336 66.3998 46.5933 66.3918 46.6587L66.3552 46.9561L66.8407 46.6677C66.8974 46.634 66.9706 46.6526 67.0043 46.7093Z" fill="#FDFDFD"/>
<path fill-rule="evenodd" clip-rule="evenodd" d="M62.7545 37.4443C62.7771 37.4925 62.7563 37.5498 62.7082 37.5724L62.3009 37.7632L62.5154 37.8673C62.5632 37.8906 62.5831 37.9482 62.5599 37.996C62.5367 38.0439 62.4791 38.0638 62.4313 38.0406L62.0766 37.8683L61.7144 38.038L62.1138 38.2247C62.1619 38.2472 62.1827 38.3045 62.1602 38.3527C62.1377 38.4009 62.0804 38.4217 62.0322 38.3991L61.4873 38.1444L60.5545 38.5814L61.5152 38.9443L62.0388 38.6102C62.0836 38.5816 62.1431 38.5947 62.1717 38.6396C62.2003 38.6844 62.1872 38.7439 62.1424 38.7725L61.7401 39.0292L62.1257 39.1749L62.4585 38.9703C62.5038 38.9425 62.5631 38.9567 62.5909 39.002C62.6188 39.0473 62.6046 39.1066 62.5593 39.1344L62.3535 39.2609L62.7795 39.4218C62.8292 39.4406 62.8543 39.4961 62.8356 39.5459C62.8168 39.5956 62.7612 39.6207 62.7115 39.6019L62.2907 39.443L62.3656 39.6694C62.3823 39.7199 62.3549 39.7743 62.3044 39.791C62.2539 39.8077 62.1995 39.7803 62.1828 39.7299L62.0589 39.3555L61.6848 39.2142L61.8294 39.6306C61.8469 39.6809 61.8203 39.7357 61.7701 39.7532C61.7198 39.7706 61.665 39.744 61.6475 39.6938L61.4502 39.1255L60.4958 38.7651L60.9297 39.6849L61.5382 39.809C61.5903 39.8196 61.6239 39.8704 61.6133 39.9226C61.6027 39.9747 61.5519 40.0083 61.4998 39.9977L61.0322 39.9024L61.2081 40.2752L61.5894 40.3597C61.6413 40.3712 61.6741 40.4226 61.6626 40.4745C61.6511 40.5264 61.5997 40.5592 61.5478 40.5477L61.312 40.4955L61.5062 40.9073C61.5289 40.9554 61.5083 41.0128 61.4602 41.0355C61.4121 41.0581 61.3547 41.0375 61.332 40.9894L61.1402 40.5826L61.0366 40.7974C61.0135 40.8453 60.9559 40.8654 60.908 40.8423C60.8601 40.8191 60.84 40.7616 60.8631 40.7137L61.0345 40.3585L60.8638 39.9968L60.6782 40.3967C60.6558 40.4449 60.5985 40.4658 60.5503 40.4434C60.5021 40.421 60.4811 40.3638 60.5035 40.3155L60.7569 39.77L60.3226 38.8492L60.0015 39.8119L60.3559 40.322C60.3862 40.3657 60.3754 40.4257 60.3317 40.456C60.2881 40.4864 60.2281 40.4755 60.1977 40.4319L59.9255 40.0399L59.7951 40.431L60.0125 40.7555C60.0421 40.7997 60.0303 40.8595 59.9861 40.8891C59.9419 40.9187 59.8821 40.9069 59.8525 40.8627L59.7181 40.662L59.574 41.0939C59.5572 41.1444 59.5027 41.1716 59.4522 41.1548C59.4018 41.138 59.3745 41.0835 59.3913 41.033L59.5336 40.6063L59.3104 40.69C59.2606 40.7087 59.2051 40.6834 59.1864 40.6336C59.1678 40.5839 59.193 40.5284 59.2428 40.5097L59.612 40.3713L59.7385 39.9919L59.328 40.1527C59.2785 40.1721 59.2227 40.1477 59.2033 40.0982C59.1839 40.0487 59.2083 39.9928 59.2578 39.9734L59.8179 39.754L60.1446 38.7742L59.2136 39.2138L59.0899 39.8225C59.0793 39.8746 59.0284 39.9082 58.9763 39.8976C58.9242 39.887 58.8906 39.8362 58.9012 39.7841L58.9962 39.3165L58.6235 39.4925L58.5392 39.8739C58.5278 39.9258 58.4764 39.9586 58.4244 39.9472C58.3725 39.9357 58.3397 39.8843 58.3512 39.8324L58.4033 39.5965L57.9916 39.7909C57.9435 39.8136 57.8861 39.793 57.8634 39.7449C57.8407 39.6969 57.8613 39.6395 57.9093 39.6168L58.316 39.4247L58.1013 39.3212C58.0533 39.2981 58.0332 39.2406 58.0563 39.1927C58.0794 39.1448 58.1369 39.1246 58.1848 39.1477L58.5401 39.3189L58.9017 39.1481L58.5017 38.9626C58.4535 38.9403 58.4325 38.883 58.4549 38.8348C58.4773 38.7865 58.5345 38.7656 58.5828 38.7879L59.1285 39.0411L60.0584 38.6019L59.0963 38.2476L58.5755 38.586C58.5309 38.615 58.4713 38.6024 58.4423 38.5578C58.4133 38.5132 58.426 38.4535 58.4706 38.4246L58.8707 38.1645L58.4838 38.0221L58.1528 38.2294C58.1077 38.2576 58.0483 38.244 58.0201 38.1989C57.9919 38.1538 58.0055 38.0944 58.0506 38.0662L58.2553 37.938L57.8281 37.7806C57.7782 37.7623 57.7526 37.7069 57.771 37.657C57.7893 37.6071 57.8447 37.5815 57.8946 37.5999L58.3166 37.7553L58.2399 37.5296C58.2228 37.4793 58.2497 37.4246 58.3 37.4074C58.3504 37.3903 58.4051 37.4173 58.4222 37.4676L58.5491 37.8409L58.9245 37.9791L58.7763 37.5639C58.7585 37.5138 58.7846 37.4587 58.8347 37.4408C58.8848 37.423 58.9399 37.4491 58.9577 37.4992L59.1598 38.0658L60.119 38.419L59.6818 37.4985L59.073 37.3761C59.0208 37.3656 58.9871 37.3148 58.9975 37.2627C59.008 37.2106 59.0588 37.1768 59.1109 37.1873L59.5787 37.2813L59.4019 36.909L59.0203 36.8255C58.9684 36.8142 58.9354 36.7628 58.9468 36.7109C58.9582 36.6589 59.0095 36.626 59.0614 36.6374L59.2974 36.689L59.1021 36.2777C59.0793 36.2296 59.0997 36.1722 59.1477 36.1494C59.1958 36.1266 59.2532 36.147 59.276 36.1951L59.469 36.6014L59.572 36.3864C59.595 36.3384 59.6525 36.3181 59.7004 36.3411C59.7484 36.3641 59.7686 36.4216 59.7456 36.4696L59.5753 36.8252L59.7468 37.1865L59.9314 36.7861C59.9537 36.7378 60.0109 36.7167 60.0592 36.739C60.1075 36.7613 60.1286 36.8185 60.1063 36.8668L59.8544 37.413L60.2926 38.3358L60.622 37.3722L60.2715 36.8595C60.2415 36.8156 60.2528 36.7556 60.2967 36.7256C60.3406 36.6956 60.4005 36.7069 60.4305 36.7508L60.6998 37.1448L60.8331 36.7547L60.6182 36.4285C60.5889 36.3841 60.6012 36.3244 60.6456 36.2952C60.69 36.2659 60.7497 36.2782 60.7789 36.3226L60.9119 36.5243L61.0592 36.0934C61.0764 36.0431 61.1311 36.0163 61.1814 36.0335C61.2317 36.0507 61.2586 36.1054 61.2414 36.1557L61.0959 36.5813L61.3198 36.4993C61.3697 36.481 61.425 36.5067 61.4433 36.5566C61.4616 36.6066 61.4359 36.6619 61.386 36.6802L61.0158 36.8158L60.8864 37.1942L61.2981 37.0365C61.3477 37.0175 61.4034 37.0423 61.4224 37.0919C61.4414 37.1416 61.4166 37.1973 61.367 37.2163L60.8053 37.4315L60.4716 38.4075L61.4027 37.9713L61.5283 37.3631C61.5391 37.311 61.59 37.2775 61.6421 37.2882C61.6941 37.299 61.7276 37.3499 61.7169 37.402L61.6204 37.8693L61.9937 37.6945L62.0791 37.3133C62.0907 37.2614 62.1422 37.2288 62.1941 37.2404C62.246 37.252 62.2786 37.3035 62.267 37.3554L62.2142 37.5912L62.6265 37.398C62.6746 37.3754 62.732 37.3962 62.7545 37.4443Z" fill="#FDFDFD"/>
<path fill-rule="evenodd" clip-rule="evenodd" d="M41.4665 37.3769C41.4623 37.4158 41.4273 37.4439 41.3884 37.4397L41.0593 37.404L41.1544 37.5515C41.1756 37.5844 41.1661 37.6283 41.1332 37.6495C41.1003 37.6707 41.0565 37.6612 41.0352 37.6283L40.878 37.3844L40.5854 37.3526L40.7652 37.6227C40.7869 37.6553 40.7781 37.6993 40.7455 37.721C40.7129 37.7427 40.6689 37.7338 40.6472 37.7013L40.4019 37.3327L39.6482 37.251L40.1137 37.8464L40.5707 37.8365C40.6098 37.8356 40.6422 37.8667 40.6431 37.9058C40.6439 37.9449 40.6129 37.9773 40.5738 37.9782L40.2227 37.9858L40.4095 38.2248L40.697 38.2234C40.7361 38.2232 40.768 38.2548 40.7682 38.2939C40.7684 38.3331 40.7368 38.365 40.6976 38.3652L40.5199 38.366L40.7263 38.63C40.7504 38.6609 40.7449 38.7054 40.7141 38.7295C40.6832 38.7536 40.6387 38.7482 40.6146 38.7173L40.4108 38.4565L40.3713 38.6275C40.3625 38.6657 40.3245 38.6895 40.2863 38.6807C40.2482 38.6719 40.2244 38.6338 40.2332 38.5957L40.2985 38.3129L40.1172 38.081L40.0489 38.3982C40.0407 38.4365 40.003 38.4608 39.9648 38.4526C39.9265 38.4443 39.9022 38.4067 39.9104 38.3684L40.0035 37.9356L39.5411 37.344L39.4623 38.0884L39.7976 38.399C39.8263 38.4256 39.828 38.4705 39.8014 38.4992C39.7748 38.5279 39.73 38.5296 39.7013 38.503L39.4437 38.2643L39.4118 38.566L39.6193 38.7649C39.6476 38.792 39.6485 38.8369 39.6214 38.8651C39.5944 38.8934 39.5495 38.8943 39.5213 38.8673L39.3929 38.7443L39.3576 39.0775C39.3535 39.1164 39.3186 39.1446 39.2797 39.1405C39.2408 39.1364 39.2126 39.1015 39.2167 39.0626L39.2515 38.7334L39.1043 38.8289C39.0715 38.8501 39.0276 38.8408 39.0063 38.8079C38.985 38.7751 38.9944 38.7312 39.0272 38.7099L39.2707 38.5521L39.3017 38.2594L39.0321 38.4399C38.9996 38.4616 38.9556 38.4529 38.9338 38.4204C38.912 38.3879 38.9207 38.3438 38.9533 38.3221L39.3211 38.0758L39.4 37.3307L38.8301 37.8134L38.8579 38.2697C38.8603 38.3088 38.8306 38.3424 38.7915 38.3447C38.7525 38.3471 38.7189 38.3174 38.7165 38.2783L38.6951 37.9278L38.4636 38.1239L38.4763 38.4111C38.478 38.4502 38.4477 38.4832 38.4086 38.485C38.3695 38.4867 38.3364 38.4564 38.3347 38.4173L38.3269 38.2397L38.0711 38.4563C38.0413 38.4816 37.9966 38.4779 37.9713 38.448C37.946 38.4181 37.9497 38.3734 37.9796 38.3481L38.2321 38.1342L38.0598 38.1015C38.0213 38.0942 37.9961 38.0571 38.0034 38.0186C38.0107 37.9802 38.0477 37.9549 38.0862 37.9622L38.3713 38.0163L38.5959 37.8261L38.2763 37.7703C38.2377 37.7636 38.2119 37.7269 38.2186 37.6883C38.2254 37.6498 38.2621 37.624 38.3006 37.6307L38.7367 37.7068L39.3168 37.2155L38.5632 37.1361L38.2527 37.4716C38.2261 37.5003 38.1813 37.502 38.1526 37.4755C38.1239 37.4489 38.1221 37.404 38.1487 37.3753L38.3872 37.1176L38.0856 37.0858L37.8868 37.2934C37.8597 37.3217 37.8149 37.3227 37.7866 37.2956C37.7583 37.2686 37.7573 37.2237 37.7844 37.1954L37.9073 37.067L37.5741 37.0319C37.5352 37.0278 37.507 36.9929 37.5111 36.954C37.5152 36.9151 37.55 36.8868 37.5889 36.8909L37.9181 36.9256L37.8226 36.7784C37.8013 36.7456 37.8107 36.7017 37.8435 36.6804C37.8763 36.6591 37.9202 36.6684 37.9415 36.7013L38.0995 36.9447L38.3922 36.9756L38.2116 36.706C38.1898 36.6735 38.1985 36.6295 38.231 36.6077C38.2635 36.5859 38.3075 36.5946 38.3293 36.6271L38.5757 36.9949L39.3284 37.0742L38.8588 36.4836L38.4019 36.4974C38.3628 36.4986 38.3301 36.4678 38.329 36.4287C38.3278 36.3896 38.3585 36.3569 38.3977 36.3557L38.7487 36.3451L38.5598 36.1077L38.2724 36.1115C38.2333 36.112 38.2011 36.0807 38.2006 36.0416C38.2001 36.0024 38.2314 35.9703 38.2705 35.9698L38.4483 35.9674L38.2397 35.7051C38.2154 35.6745 38.2204 35.6299 38.2511 35.6056C38.2817 35.5812 38.3263 35.5863 38.3506 35.6169L38.5567 35.876L38.5947 35.7047C38.6032 35.6665 38.641 35.6424 38.6792 35.6509C38.7174 35.6593 38.7415 35.6972 38.733 35.7354L38.6702 36.0187L38.8534 36.2491L38.919 35.9313C38.9269 35.893 38.9644 35.8683 39.0027 35.8762C39.041 35.8842 39.0657 35.9216 39.0577 35.96L38.9682 36.3936L39.4364 36.9823L39.5134 36.2364L39.1773 35.9266C39.1485 35.9001 39.1467 35.8552 39.1732 35.8265C39.1997 35.7977 39.2446 35.7959 39.2733 35.8224L39.5316 36.0604L39.5627 35.7586L39.3546 35.5602C39.3263 35.5332 39.3252 35.4884 39.3522 35.46C39.3792 35.4317 39.4241 35.4306 39.4524 35.4576L39.5811 35.5803L39.6155 35.247C39.6195 35.208 39.6543 35.1797 39.6933 35.1837C39.7322 35.1878 39.7605 35.2226 39.7565 35.2615L39.7225 35.5908L39.8695 35.4949C39.9022 35.4736 39.9461 35.4828 39.9675 35.5156C39.9889 35.5484 39.9796 35.5923 39.9469 35.6137L39.7038 35.7722L39.6736 36.065L39.9427 35.8838C39.9752 35.8619 40.0192 35.8705 40.041 35.903C40.0629 35.9354 40.0543 35.9795 40.0218 36.0013L39.6546 36.2486L39.5774 36.9964L40.1529 36.5164L40.1285 36.0599C40.1264 36.0208 40.1564 35.9874 40.1955 35.9854C40.2346 35.9833 40.268 36.0133 40.2701 36.0523L40.2888 36.403L40.5218 36.2087L40.5113 35.9214C40.5098 35.8823 40.5404 35.8494 40.5795 35.848C40.6186 35.8466 40.6515 35.8771 40.6529 35.9162L40.6594 36.0939L40.9167 35.8792C40.9468 35.8542 40.9914 35.8582 41.0165 35.8883C41.0416 35.9183 41.0375 35.963 41.0075 35.9881L40.7533 36.2001L40.9254 36.2341C40.9638 36.2417 40.9888 36.279 40.9812 36.3174C40.9736 36.3558 40.9364 36.3807 40.898 36.3732L40.6133 36.3169L40.3873 36.5055L40.7064 36.5636C40.7449 36.5707 40.7705 36.6076 40.7634 36.6461C40.7564 36.6846 40.7195 36.7101 40.681 36.7031L40.2455 36.6237L39.6626 37.1099L40.4149 37.1916L40.7264 36.857C40.7531 36.8284 40.7979 36.8268 40.8265 36.8535C40.8552 36.8801 40.8568 36.925 40.8301 36.9536L40.5908 37.2106L40.8924 37.2433L41.0918 37.0363C41.1189 37.0081 41.1638 37.0073 41.192 37.0344C41.2202 37.0616 41.221 37.1064 41.1939 37.1346L41.0705 37.2627L41.4037 37.2988C41.4426 37.303 41.4707 37.338 41.4665 37.3769Z" fill="#FDFDFD"/>
<path fill-rule="evenodd" clip-rule="evenodd" d="M8.46357 45.2002C8.48613 45.2484 8.46539 45.3057 8.41724 45.3282L8.00997 45.519L8.22443 45.6232C8.27226 45.6464 8.29221 45.7041 8.26898 45.7519C8.24575 45.7997 8.18814 45.8197 8.14031 45.7964L7.78561 45.6242L7.42347 45.7938L7.82284 45.9806C7.87101 46.0031 7.89181 46.0604 7.86929 46.1086C7.84677 46.1567 7.78946 46.1775 7.74129 46.155L7.19637 45.9002L6.26355 46.3372L7.22428 46.7001L7.74783 46.366C7.79266 46.3374 7.85218 46.3506 7.88079 46.3954C7.90939 46.4403 7.89624 46.4998 7.85141 46.5284L7.44917 46.7851L7.8348 46.9307L8.16756 46.7262C8.21286 46.6984 8.27216 46.7125 8.3 46.7578C8.32784 46.8031 8.31369 46.8624 8.26839 46.8903L8.0626 47.0168L8.48856 47.1776C8.53831 47.1964 8.56341 47.252 8.54462 47.3017C8.52584 47.3515 8.47028 47.3766 8.42053 47.3578L7.99978 47.1989L8.07466 47.4252C8.09136 47.4757 8.06398 47.5302 8.01349 47.5469C7.96301 47.5636 7.90854 47.5362 7.89184 47.4857L7.76799 47.1113L7.39385 46.97L7.53849 47.3865C7.55594 47.4367 7.52936 47.4916 7.47913 47.509C7.4289 47.5265 7.37403 47.4999 7.35659 47.4497L7.15923 46.8814L6.20485 46.5209L6.63872 47.4408L7.24727 47.5648C7.29938 47.5755 7.33301 47.6263 7.32239 47.6784C7.31178 47.7305 7.26093 47.7642 7.20883 47.7535L6.74128 47.6582L6.91713 48.0311L7.29848 48.1155C7.3504 48.127 7.38317 48.1784 7.37168 48.2304C7.36019 48.2823 7.30878 48.315 7.25686 48.3035L7.02101 48.2513L7.21526 48.6632C7.23795 48.7113 7.21735 48.7686 7.16926 48.7913C7.12117 48.814 7.06379 48.7934 7.0411 48.7453L6.84923 48.3385L6.74564 48.5532C6.72254 48.6011 6.66498 48.6212 6.61709 48.5981C6.56919 48.575 6.5491 48.5174 6.5722 48.4695L6.74353 48.1144L6.57291 47.7527L6.38725 48.1525C6.36485 48.2008 6.3076 48.2217 6.25937 48.1993C6.21114 48.1769 6.1902 48.1196 6.21259 48.0714L6.46591 47.5258L6.03162 46.605L5.7106 47.5677L6.06493 48.0779C6.09527 48.1215 6.08446 48.1815 6.04079 48.2119C5.99712 48.2422 5.93712 48.2314 5.90678 48.1877L5.63455 47.7958L5.50415 48.1868L5.72155 48.5114C5.75115 48.5556 5.73933 48.6154 5.69515 48.645C5.65097 48.6746 5.59117 48.6627 5.56157 48.6186L5.42712 48.4178L5.28308 48.8498C5.26625 48.9003 5.21172 48.9275 5.16128 48.9107C5.11083 48.8939 5.08358 48.8393 5.1004 48.7889L5.24268 48.3622L5.01944 48.4459C4.96965 48.4645 4.91416 48.4393 4.89549 48.3895C4.87682 48.3397 4.90205 48.2842 4.95184 48.2656L5.32106 48.1271L5.44758 47.7477L5.03711 47.9086C4.9876 47.928 4.93174 47.9036 4.91234 47.854C4.89294 47.8045 4.91734 47.7487 4.96685 47.7293L5.52691 47.5098L5.85364 46.53L4.92263 46.9697L4.79892 47.5783C4.78833 47.6304 4.7375 47.6641 4.68539 47.6535C4.63328 47.6429 4.59962 47.5921 4.61022 47.54L4.70526 47.0723L4.33254 47.2484L4.24829 47.6298C4.23682 47.6817 4.18543 47.7145 4.13351 47.703C4.08159 47.6915 4.04879 47.6401 4.06026 47.5882L4.11236 47.3523L3.70064 47.5468C3.65256 47.5695 3.59517 47.5489 3.57247 47.5008C3.54976 47.4527 3.57033 47.3953 3.61841 47.3726L4.02509 47.1806L3.81031 47.0771C3.76241 47.054 3.74229 46.9964 3.76537 46.9485C3.78845 46.9006 3.846 46.8805 3.8939 46.9036L4.24912 47.0748L4.61075 46.904L4.21081 46.7185C4.16257 46.6961 4.14159 46.6389 4.16396 46.5906C4.18634 46.5424 4.24358 46.5214 4.29182 46.5438L4.83752 46.7969L5.76747 46.3578L4.80533 46.0035L4.28458 46.3419C4.24 46.3709 4.18036 46.3582 4.15138 46.3136C4.12241 46.269 4.13506 46.2094 4.17965 46.1804L4.57974 45.9204L4.19291 45.778L3.86187 45.9853C3.8168 46.0135 3.75739 45.9998 3.72917 45.9547C3.70094 45.9097 3.7146 45.8502 3.75967 45.822L3.9644 45.6938L3.53711 45.5365C3.48721 45.5181 3.46165 45.4628 3.48002 45.4129C3.49839 45.363 3.55373 45.3374 3.60364 45.3558L4.0257 45.5112L3.94893 45.2855C3.93181 45.2351 3.95874 45.1804 4.00909 45.1633C4.05943 45.1462 4.11412 45.1731 4.13124 45.2235L4.25821 45.5968L4.63351 45.735L4.48541 45.3197C4.46754 45.2696 4.49366 45.2146 4.54375 45.1967C4.59383 45.1788 4.64891 45.205 4.66678 45.255L4.86886 45.8217L5.82803 46.1748L5.39091 45.2544L4.78202 45.1319C4.72989 45.1214 4.69613 45.0707 4.70661 45.0185C4.71708 44.9664 4.76784 44.9326 4.81997 44.9431L5.28777 45.0372L5.11094 44.6648L4.72936 44.5814C4.67741 44.57 4.64451 44.5187 4.65586 44.4667C4.66722 44.4148 4.71854 44.3819 4.77049 44.3932L5.00648 44.4449L4.81114 44.0335C4.78833 43.9855 4.80877 43.928 4.8568 43.9052C4.90484 43.8824 4.96227 43.9029 4.98508 43.9509L5.17803 44.3572L5.28105 44.1422C5.30403 44.0943 5.36153 44.074 5.40949 44.097C5.45744 44.12 5.47769 44.1775 5.45471 44.2254L5.28432 44.581L5.45589 44.9423L5.6405 44.542C5.66276 44.4937 5.71996 44.4726 5.76825 44.4949C5.81654 44.5171 5.83763 44.5743 5.81537 44.6226L5.56348 45.1689L6.0017 46.0917L6.33109 45.1281L5.9806 44.6153C5.95059 44.5714 5.96185 44.5115 6.00574 44.4815C6.04964 44.4515 6.10956 44.4628 6.13957 44.5067L6.40885 44.9006L6.54218 44.5106L6.32723 44.1844C6.29796 44.14 6.31023 44.0803 6.35463 44.051C6.39903 44.0218 6.45874 44.034 6.48801 44.0784L6.62095 44.2801L6.76823 43.8493C6.78543 43.799 6.84017 43.7721 6.89048 43.7893C6.9408 43.8065 6.96764 43.8613 6.95044 43.9116L6.80496 44.3372L7.02882 44.2552C7.07875 44.2369 7.13406 44.2625 7.15235 44.3125C7.17064 44.3624 7.14499 44.4177 7.09506 44.436L6.72482 44.5716L6.59545 44.9501L7.00712 44.7923C7.05677 44.7733 7.11245 44.7981 7.13148 44.8478C7.15051 44.8975 7.12568 44.9531 7.07602 44.9722L6.51433 45.1874L6.1807 46.1634L7.11178 45.7272L7.23736 45.1189C7.24811 45.0668 7.29904 45.0333 7.35112 45.0441C7.4032 45.0548 7.4367 45.1058 7.42595 45.1579L7.32947 45.6252L7.70273 45.4503L7.78814 45.0692C7.79977 45.0173 7.85126 44.9846 7.90315 44.9963C7.95504 45.0079 7.98768 45.0594 7.97605 45.1113L7.92322 45.347L8.33554 45.1538C8.38369 45.1313 8.44101 45.152 8.46357 45.2002Z" fill="#FDFDFD"/>
<circle cx="36.8455" cy="44.6012" r="0.387792" transform="rotate(0.771285 36.8455 44.6012)" fill="#FDFDFD"/>
<circle cx="75.6247" cy="41.4989" r="0.387792" transform="rotate(0.771285 75.6247 41.4989)" fill="#FDFDFD"/>
<circle cx="53.9083" cy="46.9281" r="0.387792" transform="rotate(0.771285 53.9083 46.9281)" fill="#FDFDFD"/>
<circle cx="60.113" cy="53.9084" r="0.387792" transform="rotate(0.771285 60.113 53.9084)" fill="#FDFDFD"/>
<circle cx="67.0933" cy="36.8454" r="0.387792" transform="rotate(0.771285 67.0933 36.8454)" fill="#FDFDFD"/>
<circle cx="22.1093" cy="48.4792" r="0.387792" transform="rotate(0.771285 22.1093 48.4792)" fill="#FDFDFD"/>
<circle cx="17.4558" cy="55.4594" r="0.387792" transform="rotate(0.771285 17.4558 55.4594)" fill="#FDFDFD"/>
<circle cx="21.3338" cy="37.621" r="0.387792" transform="rotate(0.771285 21.3338 37.621)" fill="#FDFDFD"/>
<path fill-rule="evenodd" clip-rule="evenodd" d="M17.4404 40.8902C17.7928 41.0671 17.9356 41.4972 17.7594 41.8509L13.4791 50.4435C13.3029 50.7972 12.8743 50.9405 12.5219 50.7637C12.1696 50.5868 12.0267 50.1567 12.2029 49.803L16.4832 41.2104C16.6594 40.8567 17.088 40.7133 17.4404 40.8902Z" fill="#94D2FF"/>
<path fill-rule="evenodd" clip-rule="evenodd" d="M54.5366 35.1619C54.889 35.3388 55.0318 35.7689 54.8556 36.1226L52.002 41.851C51.8258 42.2047 51.3973 42.3481 51.0449 42.1712C50.6925 41.9944 50.5497 41.5643 50.7259 41.2105L53.5794 35.4822C53.7556 35.1284 54.1842 34.9851 54.5366 35.1619Z" fill="#94D2FF"/>
<path fill-rule="evenodd" clip-rule="evenodd" d="M54.5366 50.9149C54.889 51.0917 55.0318 51.5218 54.8556 51.8755L52.002 57.6039C51.8258 57.9576 51.3973 58.101 51.0449 57.9241C50.6925 57.7473 50.5497 57.3172 50.7259 56.9635L53.5794 51.2351C53.7556 50.8814 54.1842 50.738 54.5366 50.9149Z" fill="#94D2FF"/>
<path fill-rule="evenodd" clip-rule="evenodd" d="M78.874 40.9287C79.2288 41.1007 79.3775 41.5288 79.2061 41.8849L75.4573 49.6758C75.2859 50.0319 74.8594 50.1812 74.5046 50.0092C74.1498 49.8372 74.0011 49.4091 74.1725 49.053L77.9214 41.2621C78.0927 40.906 78.5192 40.7567 78.874 40.9287Z" fill="#94D2FF"/>
<path fill-rule="evenodd" clip-rule="evenodd" d="M28.8546 35.1619C29.207 35.3388 29.3498 35.7689 29.1736 36.1226L27.7468 38.9868C27.5706 39.3405 27.1421 39.4839 26.7897 39.307C26.4373 39.1302 26.2945 38.7001 26.4707 38.3464L27.8975 35.4822C28.0737 35.1284 28.5022 34.9851 28.8546 35.1619Z" fill="#94D2FF"/>
<path fill-rule="evenodd" clip-rule="evenodd" d="M11.6197 35.0926C11.9637 35.2855 12.0868 35.7217 11.8946 36.067L8.61244 41.9644C8.4203 42.3096 7.98569 42.4332 7.64173 42.2403C7.29777 42.0474 7.17469 41.6112 7.36684 41.266L10.649 35.3686C10.8412 35.0233 11.2758 34.8998 11.6197 35.0926Z" fill="#94D2FF"/>
<path fill-rule="evenodd" clip-rule="evenodd" d="M44.5491 45.1866C44.9015 45.3634 45.0444 45.7936 44.8682 46.1473L40.5878 54.7398C40.4116 55.0936 39.9831 55.2369 39.6307 55.0601C39.2783 54.8832 39.1355 54.4531 39.3117 54.0994L43.592 45.5068C43.7682 45.1531 44.1967 45.0097 44.5491 45.1866Z" fill="#94D2FF"/>
<path fill-rule="evenodd" clip-rule="evenodd" d="M45.4594 37.0758C45.8118 37.2526 45.9546 37.6827 45.7784 38.0364L44.3516 40.9006C44.1754 41.2543 43.7469 41.3977 43.3945 41.2208C43.0421 41.044 42.8993 40.6139 43.0755 40.2602L44.5022 37.396C44.6784 37.0423 45.107 36.8989 45.4594 37.0758Z" fill="#94D2FF"/>
<path fill-rule="evenodd" clip-rule="evenodd" d="M28.4594 45.0758C28.8118 45.2526 28.9546 45.6827 28.7784 46.0364L27.3516 48.9006C27.1754 49.2543 26.7469 49.3977 26.3945 49.2208C26.0421 49.044 25.8993 48.6139 26.0755 48.2602L27.5022 45.396C27.6784 45.0423 28.107 44.8989 28.4594 45.0758Z" fill="#94D2FF"/>
<path fill-rule="evenodd" clip-rule="evenodd" d="M71.8861 36.0758C72.2385 36.2526 72.3814 36.6827 72.2052 37.0364L69.3516 42.7648C69.1754 43.1185 68.7469 43.2619 68.3945 43.085C68.0421 42.9082 67.8993 42.4781 68.0755 42.1244L70.929 36.396C71.1052 36.0423 71.5337 35.8989 71.8861 36.0758Z" fill="#94D2FF"/>
<path d="M48.3531 4.60946C53.4017 5.49398 57.8138 9.36248 58.4829 16.44C64.5455 12.73 71.1703 14.0664 75.2983 18.488C75.2983 10.5032 67.9375 7.00363 62.0622 8.17254C61.2519 -0.399648 51.5946 -0.899212 48.3531 4.60946Z" fill="#9E9E9E"/>
<path d="M27.8909 10.5032C29.9325 10.623 31.8604 11.2671 33.361 12.5436C34.8098 9.44747 37.154 7.21243 39.844 5.87824C35.1843 2.80244 28.4986 5.72478 27.8909 10.5032Z" fill="#9E9E9E"/>
<path fill-rule="evenodd" clip-rule="evenodd" d="M15.3299 17.8038C2.36376 16.44 -1.89078 26.5708 0.742999 33H18.031C18.4362 30.2162 21.2726 28.6576 24.5141 29.0473C25.8649 25.8452 31.1324 25.4555 33.361 28.0732C37.2103 21.7539 48.3531 21.7539 50.649 27.4887C55.1061 27.099 58.4829 29.4369 58.4829 33H86.9137C87.7241 27.3501 82.6592 23.1609 78.8098 24.9143C78.2914 21.6735 77.2399 20.5678 75.2983 18.488C71.1703 14.0664 64.5455 12.73 58.4829 16.44C57.8138 9.36248 53.4017 5.49398 48.3531 4.60946C45.535 4.11575 42.5186 4.55172 39.844 5.87824C37.154 7.21243 34.8098 9.44747 33.361 12.5436C31.8604 11.2671 29.9325 10.623 27.8909 10.5032C22.7654 10.2025 16.9236 13.2061 15.3299 17.8038Z" fill="#F1F1F1"/>
<path d="M24.5141 29.0473C21.2726 28.6576 18.4362 30.2162 18.031 33H58.4829C58.4829 29.4369 55.1061 27.099 50.649 27.4887C48.3531 21.7539 37.2103 21.7539 33.361 28.0732C31.1324 25.4555 25.8649 25.8452 24.5141 29.0473Z" fill="#D9D9D9"/>
<path fill-rule="evenodd" clip-rule="evenodd" d="M145.31 47.4107C145.385 47.4396 145.423 47.524 145.394 47.5992L145.15 48.2352L145.493 48.1237C145.57 48.0988 145.652 48.1407 145.677 48.2174C145.702 48.294 145.66 48.3763 145.584 48.4011L145.015 48.5856L144.798 49.1512L145.43 48.9356C145.507 48.9096 145.59 48.9503 145.616 49.0265C145.642 49.1028 145.601 49.1857 145.525 49.2117L144.662 49.5059L144.103 50.9628L145.533 50.3498L145.753 49.4352C145.772 49.3569 145.851 49.3087 145.929 49.3276C146.008 49.3465 146.056 49.4253 146.037 49.5036L145.867 50.2063L146.441 49.9602L146.59 49.3875C146.61 49.3095 146.69 49.2627 146.768 49.2829C146.846 49.3031 146.892 49.3827 146.872 49.4607L146.78 49.8149L147.414 49.5431C147.489 49.5114 147.574 49.5457 147.606 49.6197C147.638 49.6937 147.603 49.7795 147.529 49.8112L146.903 50.0797L147.223 50.2481C147.294 50.2857 147.321 50.3739 147.284 50.4452C147.246 50.5164 147.158 50.5438 147.087 50.5062L146.558 50.2276L146.001 50.4663L146.597 50.769C146.669 50.8055 146.697 50.8933 146.661 50.9652C146.624 51.037 146.536 51.0656 146.465 51.0291L145.652 50.616L144.232 51.2249L145.672 51.7734L146.466 51.2696C146.534 51.2264 146.624 51.2466 146.667 51.3147C146.711 51.3827 146.69 51.4728 146.622 51.516L146.012 51.903L146.595 52.1253L147.1 51.8169C147.169 51.775 147.259 51.7967 147.301 51.8654C147.343 51.9342 147.321 52.0239 147.253 52.0659L146.94 52.2566L147.585 52.5022C147.66 52.5308 147.698 52.6151 147.669 52.6904C147.641 52.7657 147.556 52.8035 147.481 52.7748L146.844 52.5322L146.957 52.8754C146.982 52.952 146.94 53.0344 146.864 53.0595C146.787 53.0845 146.705 53.0428 146.68 52.9663L146.493 52.3986L145.927 52.1829L146.145 52.8145C146.171 52.8906 146.13 52.9736 146.054 52.9998C145.978 53.026 145.895 52.9855 145.869 52.9094L145.572 52.0477L144.131 51.4987L144.792 52.8868L145.714 53.0715C145.793 53.0873 145.845 53.1642 145.829 53.2432C145.813 53.3222 145.736 53.3734 145.657 53.3576L144.948 53.2157L145.217 53.7795L145.795 53.9054C145.874 53.9226 145.923 54.0003 145.906 54.079C145.889 54.1577 145.812 54.2076 145.733 54.1905L145.375 54.1126L145.672 54.7354C145.706 54.8082 145.675 54.8952 145.603 54.9298C145.53 54.9644 145.443 54.9335 145.408 54.8608L145.115 54.2456L144.96 54.5714C144.925 54.6441 144.838 54.6748 144.765 54.6401C144.692 54.6053 144.662 54.5182 144.696 54.4456L144.954 53.9067L144.694 53.3596L144.415 53.9663C144.381 54.0395 144.294 54.0715 144.221 54.0378C144.148 54.0042 144.116 53.9175 144.149 53.8444L144.53 53.0166L143.858 51.6038L143.303 53.0616L143.808 53.856C143.851 53.924 143.831 54.0141 143.763 54.0573C143.695 54.1005 143.605 54.0803 143.561 54.0123L143.174 53.402L142.952 53.9857L143.261 54.4905C143.303 54.5592 143.281 54.649 143.212 54.691C143.143 54.733 143.054 54.7114 143.012 54.6427L142.821 54.3304L142.576 54.9751C142.547 55.0504 142.463 55.0882 142.387 55.0596C142.312 55.031 142.274 54.9467 142.303 54.8714L142.545 54.2346L142.202 54.3472C142.125 54.3723 142.043 54.3306 142.018 54.2541C141.993 54.1776 142.034 54.0951 142.111 54.07L142.679 53.8838L142.894 53.3175L142.262 53.5351C142.186 53.5614 142.103 53.5209 142.077 53.4447C142.051 53.3686 142.091 53.2856 142.167 53.2593L143.029 52.9624L143.583 51.5062L142.16 52.1301L141.947 53.0465C141.929 53.125 141.851 53.1738 141.772 53.1556C141.694 53.1373 141.645 53.0589 141.663 52.9805L141.827 52.2764L141.255 52.5272L141.111 53.1012C141.092 53.1793 141.013 53.2268 140.934 53.2073C140.856 53.1877 140.809 53.1085 140.828 53.0304L140.917 52.6754L140.286 52.9524C140.212 52.9848 140.126 52.9512 140.093 52.8775C140.061 52.8037 140.095 52.7177 140.168 52.6853L140.792 52.4116L140.471 52.2458C140.4 52.2089 140.372 52.1209 140.409 52.0493C140.446 51.9777 140.534 51.9497 140.605 51.9867L141.136 52.2609L141.691 52.0175L141.093 51.7198C141.021 51.6838 140.992 51.5963 141.027 51.5242C141.063 51.4521 141.151 51.4227 141.223 51.4586L142.039 51.8649L143.457 51.243L142.013 50.6973L141.22 51.2032C141.152 51.2465 141.061 51.2266 141.018 51.1586C140.975 51.0907 140.995 51.0005 141.063 50.9572L141.672 50.5686L141.088 50.3478L140.584 50.6575C140.515 50.6997 140.425 50.6782 140.383 50.6096C140.341 50.5409 140.362 50.4511 140.431 50.4089L140.743 50.2174L140.098 49.9736C140.022 49.9451 139.984 49.8609 140.013 49.7856C140.041 49.7102 140.125 49.6722 140.201 49.7007L140.838 49.9415L140.725 49.5986C140.699 49.5221 140.741 49.4396 140.817 49.4144C140.894 49.3891 140.976 49.4306 141.002 49.5071L141.189 50.0742L141.756 50.2884L141.537 49.6575C141.511 49.5814 141.551 49.4983 141.627 49.4719C141.703 49.4454 141.786 49.4857 141.813 49.5618L142.111 50.4227L143.559 50.9697L142.907 49.5719L141.985 49.3803C141.906 49.3639 141.856 49.2867 141.872 49.2078C141.889 49.1289 141.966 49.0783 142.045 49.0947L142.752 49.2419L142.488 48.6761L141.911 48.5458C141.833 48.5281 141.783 48.45 141.801 48.3714C141.819 48.2928 141.897 48.2435 141.975 48.2613L142.332 48.3418L142.041 47.7168C142.006 47.6438 142.038 47.557 142.111 47.5229C142.184 47.4888 142.271 47.5204 142.305 47.5934L142.593 48.2108L142.751 47.8861C142.787 47.8137 142.874 47.7836 142.946 47.8189C143.019 47.8542 143.049 47.9415 143.014 48.014L142.752 48.5509L143.008 49.0999L143.292 48.4953C143.326 48.4224 143.413 48.391 143.486 48.4252C143.559 48.4595 143.59 48.5463 143.556 48.6192L143.169 49.4442L143.83 50.86L144.388 49.4059L143.886 48.61C143.843 48.5418 143.864 48.4518 143.932 48.4088C144 48.3658 144.09 48.3863 144.133 48.4544L144.519 49.0659L144.742 48.4829L144.435 47.9771C144.393 47.9083 144.415 47.8186 144.484 47.7768C144.553 47.735 144.643 47.7569 144.685 47.8257L144.875 48.1386L145.122 47.4946C145.151 47.4194 145.235 47.3818 145.31 47.4107Z" fill="#FDFDFD"/>
<path fill-rule="evenodd" clip-rule="evenodd" d="M179.004 46.7093C179.038 46.766 179.019 46.8393 178.963 46.873L178.483 47.1579L178.76 47.2605C178.822 47.2833 178.854 47.352 178.831 47.4139C178.808 47.4758 178.739 47.5074 178.678 47.4845L178.219 47.3148L177.792 47.5682L178.308 47.7502C178.37 47.7722 178.403 47.8404 178.381 47.9026C178.359 47.9648 178.291 47.9974 178.229 47.9754L177.525 47.727L176.427 48.3796L177.657 48.711L178.262 48.2352C178.314 48.1944 178.389 48.2034 178.43 48.2553C178.471 48.3072 178.462 48.3822 178.41 48.423L177.944 48.7886L178.438 48.9216L178.824 48.6288C178.877 48.5889 178.951 48.5992 178.991 48.6518C179.031 48.7043 179.021 48.7792 178.968 48.8191L178.73 49.0002L179.275 49.1471C179.339 49.1643 179.376 49.2298 179.359 49.2935C179.342 49.3572 179.276 49.3949 179.213 49.3777L178.674 49.2326L178.794 49.5029C178.821 49.5632 178.794 49.6337 178.733 49.6605C178.673 49.6872 178.602 49.66 178.576 49.5997L178.377 49.1526L177.899 49.0236L178.128 49.5201C178.155 49.58 178.129 49.6509 178.069 49.6785C178.009 49.7062 177.938 49.68 177.911 49.6201L177.598 48.9426L176.376 48.6134L177.024 49.6962L177.79 49.7755C177.855 49.7823 177.903 49.841 177.896 49.9066C177.889 49.9722 177.831 50.0199 177.765 50.0131L177.177 49.9521L177.439 50.391L177.92 50.449C177.985 50.4569 178.032 50.5164 178.024 50.5819C178.016 50.6474 177.957 50.6941 177.891 50.6862L177.594 50.6503L177.883 51.1351C177.917 51.1917 177.899 51.265 177.842 51.2989C177.786 51.3327 177.712 51.3142 177.678 51.2576L177.392 50.7787L177.29 51.0563C177.268 51.1183 177.199 51.15 177.137 51.1273C177.075 51.1046 177.043 51.036 177.066 50.9741L177.235 50.5149L176.98 50.0891L176.799 50.6052C176.778 50.6674 176.71 50.7002 176.647 50.6784C176.585 50.6566 176.552 50.5885 176.574 50.5262L176.821 49.8221L176.173 48.7382L175.893 49.9654L176.393 50.5521C176.435 50.6023 176.429 50.6777 176.379 50.7205C176.329 50.7632 176.253 50.7571 176.211 50.7069L175.827 50.2561L175.714 50.7546L176.021 51.1288C176.063 51.1798 176.056 51.255 176.005 51.2969C175.954 51.3388 175.879 51.3315 175.837 51.2805L175.647 51.0491L175.521 51.5997C175.506 51.664 175.442 51.7043 175.378 51.6896C175.314 51.675 175.274 51.611 175.288 51.5467L175.412 51.0028L175.147 51.1331C175.088 51.1622 175.016 51.1378 174.987 51.0786C174.958 51.0194 174.982 50.9478 175.041 50.9187L175.48 50.7031L175.591 50.2195L175.103 50.4678C175.045 50.4977 174.973 50.4744 174.943 50.4156C174.913 50.3568 174.936 50.2849 174.995 50.255L175.66 49.9162L175.944 48.6672L174.848 49.3228L174.769 50.089C174.763 50.1547 174.704 50.2024 174.638 50.1956C174.573 50.1888 174.525 50.1302 174.532 50.0646L174.592 49.4758L174.154 49.7383L174.096 50.2193C174.088 50.2848 174.029 50.3315 173.963 50.3236C173.898 50.3158 173.851 50.2563 173.859 50.1908L173.895 49.8933L173.41 50.1832C173.353 50.2171 173.28 50.1987 173.246 50.1421C173.212 50.0855 173.231 50.0121 173.287 49.9783L173.766 49.6919L173.488 49.5902C173.426 49.5675 173.395 49.4989 173.417 49.437C173.44 49.375 173.509 49.3432 173.57 49.3659L174.03 49.5342L174.455 49.2795L173.939 49.099C173.877 49.0773 173.844 49.0091 173.866 48.9469C173.888 48.8846 173.956 48.8518 174.018 48.8736L174.722 49.1198L175.817 48.465L174.586 48.1444L173.985 48.6253C173.933 48.6664 173.858 48.658 173.817 48.6065C173.776 48.555 173.784 48.4798 173.835 48.4387L174.298 48.0692L173.803 47.9403L173.42 48.2363C173.367 48.2766 173.292 48.2669 173.252 48.2147C173.212 48.1625 173.221 48.0875 173.274 48.0472L173.511 47.8642L172.964 47.7218C172.9 47.7051 172.862 47.6399 172.879 47.5761C172.895 47.5123 172.961 47.474 173.025 47.4906L173.564 47.6313L173.442 47.362C173.415 47.3019 173.442 47.2311 173.502 47.2039C173.562 47.1767 173.632 47.2033 173.66 47.2634L173.862 47.7088L174.342 47.8338L174.109 47.3392C174.08 47.2796 174.106 47.2084 174.166 47.1803C174.225 47.1522 174.296 47.1777 174.325 47.2374L174.643 47.9123L175.869 48.2319L175.218 47.1488L174.452 47.0715C174.386 47.0648 174.338 47.0063 174.345 46.9407C174.352 46.875 174.41 46.8272 174.476 46.8338L175.065 46.8932L174.801 46.455L174.32 46.3983C174.255 46.3906 174.208 46.3312 174.215 46.2657C174.223 46.2002 174.283 46.1534 174.348 46.1611L174.646 46.1962L174.355 45.7121C174.321 45.6556 174.339 45.5822 174.395 45.5483C174.452 45.5143 174.525 45.5326 174.559 45.5891L174.847 46.0672L174.948 45.7893C174.97 45.7274 175.039 45.6954 175.101 45.7179C175.163 45.7405 175.195 45.809 175.172 45.871L175.005 46.3306L175.261 46.7557L175.44 46.2392C175.462 46.1769 175.53 46.1439 175.592 46.1655C175.654 46.1872 175.687 46.2552 175.666 46.3175L175.421 47.0223L176.074 48.1082L176.363 46.8789L175.869 46.2885C175.826 46.2379 175.833 46.1626 175.883 46.1203C175.934 46.0779 176.009 46.0845 176.052 46.1351L176.432 46.5887L176.549 46.0911L176.244 45.7146C176.203 45.6633 176.211 45.5881 176.262 45.5466C176.313 45.5051 176.388 45.513 176.43 45.5643L176.618 45.7971L176.748 45.2474C176.763 45.1833 176.827 45.1435 176.892 45.1586C176.956 45.1738 176.996 45.2381 176.98 45.3023L176.852 45.8452L177.119 45.7169C177.178 45.6882 177.25 45.7132 177.278 45.7726C177.307 45.832 177.282 45.9034 177.222 45.932L176.782 46.1443L176.668 46.6271L177.157 46.3825C177.216 46.353 177.288 46.3769 177.317 46.4359C177.347 46.4949 177.323 46.5666 177.264 46.5961L176.597 46.9299L176.303 48.175L177.4 47.5237L177.481 46.7577C177.488 46.6921 177.547 46.6446 177.612 46.6515C177.678 46.6585 177.725 46.7173 177.718 46.7829L177.656 47.3714L178.096 47.1103L178.155 46.6295C178.163 46.564 178.222 46.5175 178.288 46.5256C178.353 46.5336 178.4 46.5933 178.392 46.6587L178.355 46.9561L178.841 46.6677C178.897 46.634 178.971 46.6526 179.004 46.7093Z" fill="#FDFDFD"/>
<path fill-rule="evenodd" clip-rule="evenodd" d="M174.755 37.4443C174.777 37.4925 174.756 37.5498 174.708 37.5724L174.301 37.7632L174.515 37.8673C174.563 37.8906 174.583 37.9482 174.56 37.996C174.537 38.0439 174.479 38.0638 174.431 38.0406L174.077 37.8683L173.714 38.038L174.114 38.2247C174.162 38.2472 174.183 38.3045 174.16 38.3527C174.138 38.4009 174.08 38.4217 174.032 38.3991L173.487 38.1444L172.554 38.5814L173.515 38.9443L174.039 38.6102C174.084 38.5816 174.143 38.5947 174.172 38.6396C174.2 38.6844 174.187 38.7439 174.142 38.7725L173.74 39.0292L174.126 39.1749L174.459 38.9703C174.504 38.9425 174.563 38.9567 174.591 39.002C174.619 39.0473 174.605 39.1066 174.559 39.1344L174.354 39.2609L174.78 39.4218C174.829 39.4406 174.854 39.4961 174.836 39.5459C174.817 39.5956 174.761 39.6207 174.711 39.6019L174.291 39.443L174.366 39.6694C174.382 39.7199 174.355 39.7743 174.304 39.791C174.254 39.8077 174.199 39.7803 174.183 39.7299L174.059 39.3555L173.685 39.2142L173.829 39.6306C173.847 39.6809 173.82 39.7357 173.77 39.7532C173.72 39.7706 173.665 39.744 173.648 39.6938L173.45 39.1255L172.496 38.7651L172.93 39.6849L173.538 39.809C173.59 39.8196 173.624 39.8704 173.613 39.9226C173.603 39.9747 173.552 40.0083 173.5 39.9977L173.032 39.9024L173.208 40.2752L173.589 40.3597C173.641 40.3712 173.674 40.4226 173.663 40.4745C173.651 40.5264 173.6 40.5592 173.548 40.5477L173.312 40.4955L173.506 40.9073C173.529 40.9554 173.508 41.0128 173.46 41.0355C173.412 41.0581 173.355 41.0375 173.332 40.9894L173.14 40.5826L173.037 40.7974C173.013 40.8453 172.956 40.8654 172.908 40.8423C172.86 40.8191 172.84 40.7616 172.863 40.7137L173.034 40.3585L172.864 39.9968L172.678 40.3967C172.656 40.4449 172.599 40.4658 172.55 40.4434C172.502 40.421 172.481 40.3638 172.504 40.3155L172.757 39.77L172.323 38.8492L172.002 39.8119L172.356 40.322C172.386 40.3657 172.375 40.4257 172.332 40.456C172.288 40.4864 172.228 40.4755 172.198 40.4319L171.925 40.0399L171.795 40.431L172.012 40.7555C172.042 40.7997 172.03 40.8595 171.986 40.8891C171.942 40.9187 171.882 40.9069 171.853 40.8627L171.718 40.662L171.574 41.0939C171.557 41.1444 171.503 41.1716 171.452 41.1548C171.402 41.138 171.375 41.0835 171.391 41.033L171.534 40.6063L171.31 40.69C171.261 40.7087 171.205 40.6834 171.186 40.6336C171.168 40.5839 171.193 40.5284 171.243 40.5097L171.612 40.3713L171.739 39.9919L171.328 40.1527C171.279 40.1721 171.223 40.1477 171.203 40.0982C171.184 40.0487 171.208 39.9928 171.258 39.9734L171.818 39.754L172.145 38.7742L171.214 39.2138L171.09 39.8225C171.079 39.8746 171.028 39.9082 170.976 39.8976C170.924 39.887 170.891 39.8362 170.901 39.7841L170.996 39.3165L170.623 39.4925L170.539 39.8739C170.528 39.9258 170.476 39.9586 170.424 39.9472C170.373 39.9357 170.34 39.8843 170.351 39.8324L170.403 39.5965L169.992 39.7909C169.944 39.8136 169.886 39.793 169.863 39.7449C169.841 39.6969 169.861 39.6395 169.909 39.6168L170.316 39.4247L170.101 39.3212C170.053 39.2981 170.033 39.2406 170.056 39.1927C170.079 39.1448 170.137 39.1246 170.185 39.1477L170.54 39.3189L170.902 39.1481L170.502 38.9626C170.454 38.9403 170.433 38.883 170.455 38.8348C170.477 38.7865 170.535 38.7656 170.583 38.7879L171.128 39.0411L172.058 38.6019L171.096 38.2476L170.576 38.586C170.531 38.615 170.471 38.6024 170.442 38.5578C170.413 38.5132 170.426 38.4535 170.471 38.4246L170.871 38.1645L170.484 38.0221L170.153 38.2294C170.108 38.2576 170.048 38.244 170.02 38.1989C169.992 38.1538 170.006 38.0944 170.051 38.0662L170.255 37.938L169.828 37.7806C169.778 37.7623 169.753 37.7069 169.771 37.657C169.789 37.6071 169.845 37.5815 169.895 37.5999L170.317 37.7553L170.24 37.5296C170.223 37.4793 170.25 37.4246 170.3 37.4074C170.35 37.3903 170.405 37.4173 170.422 37.4676L170.549 37.8409L170.924 37.9791L170.776 37.5639C170.758 37.5138 170.785 37.4587 170.835 37.4408C170.885 37.423 170.94 37.4491 170.958 37.4992L171.16 38.0658L172.119 38.419L171.682 37.4985L171.073 37.3761C171.021 37.3656 170.987 37.3148 170.998 37.2627C171.008 37.2106 171.059 37.1768 171.111 37.1873L171.579 37.2813L171.402 36.909L171.02 36.8255C170.968 36.8142 170.935 36.7628 170.947 36.7109C170.958 36.6589 171.009 36.626 171.061 36.6374L171.297 36.689L171.102 36.2777C171.079 36.2296 171.1 36.1722 171.148 36.1494C171.196 36.1266 171.253 36.147 171.276 36.1951L171.469 36.6014L171.572 36.3864C171.595 36.3384 171.652 36.3181 171.7 36.3411C171.748 36.3641 171.769 36.4216 171.746 36.4696L171.575 36.8252L171.747 37.1865L171.931 36.7861C171.954 36.7378 172.011 36.7167 172.059 36.739C172.107 36.7613 172.129 36.8185 172.106 36.8668L171.854 37.413L172.293 38.3358L172.622 37.3722L172.272 36.8595C172.242 36.8156 172.253 36.7556 172.297 36.7256C172.341 36.6956 172.401 36.7069 172.431 36.7508L172.7 37.1448L172.833 36.7547L172.618 36.4285C172.589 36.3841 172.601 36.3244 172.646 36.2952C172.69 36.2659 172.75 36.2782 172.779 36.3226L172.912 36.5243L173.059 36.0934C173.076 36.0431 173.131 36.0163 173.181 36.0335C173.232 36.0507 173.259 36.1054 173.241 36.1557L173.096 36.5813L173.32 36.4993C173.37 36.481 173.425 36.5067 173.443 36.5566C173.462 36.6066 173.436 36.6619 173.386 36.6802L173.016 36.8158L172.886 37.1942L173.298 37.0365C173.348 37.0175 173.403 37.0423 173.422 37.0919C173.441 37.1416 173.417 37.1973 173.367 37.2163L172.805 37.4315L172.472 38.4075L173.403 37.9713L173.528 37.3631C173.539 37.311 173.59 37.2775 173.642 37.2882C173.694 37.299 173.728 37.3499 173.717 37.402L173.62 37.8693L173.994 37.6945L174.079 37.3133C174.091 37.2614 174.142 37.2288 174.194 37.2404C174.246 37.252 174.279 37.3035 174.267 37.3554L174.214 37.5912L174.626 37.398C174.675 37.3754 174.732 37.3962 174.755 37.4443Z" fill="#FDFDFD"/>
<path fill-rule="evenodd" clip-rule="evenodd" d="M153.466 37.3769C153.462 37.4158 153.427 37.4439 153.388 37.4397L153.059 37.404L153.154 37.5515C153.176 37.5844 153.166 37.6283 153.133 37.6495C153.1 37.6707 153.056 37.6612 153.035 37.6283L152.878 37.3844L152.585 37.3526L152.765 37.6227C152.787 37.6553 152.778 37.6993 152.745 37.721C152.713 37.7427 152.669 37.7338 152.647 37.7013L152.402 37.3327L151.648 37.251L152.114 37.8464L152.571 37.8365C152.61 37.8356 152.642 37.8667 152.643 37.9058C152.644 37.9449 152.613 37.9773 152.574 37.9782L152.223 37.9858L152.41 38.2248L152.697 38.2234C152.736 38.2232 152.768 38.2548 152.768 38.2939C152.768 38.3331 152.737 38.365 152.698 38.3652L152.52 38.366L152.726 38.63C152.75 38.6609 152.745 38.7054 152.714 38.7295C152.683 38.7536 152.639 38.7482 152.615 38.7173L152.411 38.4565L152.371 38.6275C152.363 38.6657 152.324 38.6895 152.286 38.6807C152.248 38.6719 152.224 38.6338 152.233 38.5957L152.298 38.3129L152.117 38.081L152.049 38.3982C152.041 38.4365 152.003 38.4608 151.965 38.4526C151.926 38.4443 151.902 38.4067 151.91 38.3684L152.004 37.9356L151.541 37.344L151.462 38.0884L151.798 38.399C151.826 38.4256 151.828 38.4705 151.801 38.4992C151.775 38.5279 151.73 38.5296 151.701 38.503L151.444 38.2643L151.412 38.566L151.619 38.7649C151.648 38.792 151.649 38.8369 151.621 38.8651C151.594 38.8934 151.55 38.8943 151.521 38.8673L151.393 38.7443L151.358 39.0775C151.354 39.1164 151.319 39.1446 151.28 39.1405C151.241 39.1364 151.213 39.1015 151.217 39.0626L151.252 38.7334L151.104 38.8289C151.071 38.8501 151.028 38.8408 151.006 38.8079C150.985 38.7751 150.994 38.7312 151.027 38.7099L151.271 38.5521L151.302 38.2594L151.032 38.4399C151 38.4616 150.956 38.4529 150.934 38.4204C150.912 38.3879 150.921 38.3438 150.953 38.3221L151.321 38.0758L151.4 37.3307L150.83 37.8134L150.858 38.2697C150.86 38.3088 150.831 38.3424 150.792 38.3447C150.752 38.3471 150.719 38.3174 150.716 38.2783L150.695 37.9278L150.464 38.1239L150.476 38.4111C150.478 38.4502 150.448 38.4832 150.409 38.485C150.37 38.4867 150.336 38.4564 150.335 38.4173L150.327 38.2397L150.071 38.4563C150.041 38.4816 149.997 38.4779 149.971 38.448C149.946 38.4181 149.95 38.3734 149.98 38.3481L150.232 38.1342L150.06 38.1015C150.021 38.0942 149.996 38.0571 150.003 38.0186C150.011 37.9802 150.048 37.9549 150.086 37.9622L150.371 38.0163L150.596 37.8261L150.276 37.7703C150.238 37.7636 150.212 37.7269 150.219 37.6883C150.225 37.6498 150.262 37.624 150.301 37.6307L150.737 37.7068L151.317 37.2155L150.563 37.1361L150.253 37.4716C150.226 37.5003 150.181 37.502 150.153 37.4755C150.124 37.4489 150.122 37.404 150.149 37.3753L150.387 37.1176L150.086 37.0858L149.887 37.2934C149.86 37.3217 149.815 37.3227 149.787 37.2956C149.758 37.2686 149.757 37.2237 149.784 37.1954L149.907 37.067L149.574 37.0319C149.535 37.0278 149.507 36.9929 149.511 36.954C149.515 36.9151 149.55 36.8868 149.589 36.8909L149.918 36.9256L149.823 36.7784C149.801 36.7456 149.811 36.7017 149.843 36.6804C149.876 36.6591 149.92 36.6684 149.942 36.7013L150.099 36.9447L150.392 36.9756L150.212 36.706C150.19 36.6735 150.198 36.6295 150.231 36.6077C150.263 36.5859 150.308 36.5946 150.329 36.6271L150.576 36.9949L151.328 37.0742L150.859 36.4836L150.402 36.4974C150.363 36.4986 150.33 36.4678 150.329 36.4287C150.328 36.3896 150.359 36.3569 150.398 36.3557L150.749 36.3451L150.56 36.1077L150.272 36.1115C150.233 36.112 150.201 36.0807 150.201 36.0416C150.2 36.0024 150.231 35.9703 150.271 35.9698L150.448 35.9674L150.24 35.7051C150.215 35.6745 150.22 35.6299 150.251 35.6056C150.282 35.5812 150.326 35.5863 150.351 35.6169L150.557 35.876L150.595 35.7047C150.603 35.6665 150.641 35.6424 150.679 35.6509C150.717 35.6593 150.742 35.6972 150.733 35.7354L150.67 36.0187L150.853 36.2491L150.919 35.9313C150.927 35.893 150.964 35.8683 151.003 35.8762C151.041 35.8842 151.066 35.9216 151.058 35.96L150.968 36.3936L151.436 36.9823L151.513 36.2364L151.177 35.9266C151.149 35.9001 151.147 35.8552 151.173 35.8265C151.2 35.7977 151.245 35.7959 151.273 35.8224L151.532 36.0604L151.563 35.7586L151.355 35.5602C151.326 35.5332 151.325 35.4884 151.352 35.46C151.379 35.4317 151.424 35.4306 151.452 35.4576L151.581 35.5803L151.615 35.247C151.62 35.208 151.654 35.1797 151.693 35.1837C151.732 35.1878 151.76 35.2226 151.756 35.2615L151.722 35.5908L151.869 35.4949C151.902 35.4736 151.946 35.4828 151.968 35.5156C151.989 35.5484 151.98 35.5923 151.947 35.6137L151.704 35.7722L151.674 36.065L151.943 35.8838C151.975 35.8619 152.019 35.8705 152.041 35.903C152.063 35.9354 152.054 35.9795 152.022 36.0013L151.655 36.2486L151.577 36.9964L152.153 36.5164L152.129 36.0599C152.126 36.0208 152.156 35.9874 152.196 35.9854C152.235 35.9833 152.268 36.0133 152.27 36.0523L152.289 36.403L152.522 36.2087L152.511 35.9214C152.51 35.8823 152.54 35.8494 152.579 35.848C152.619 35.8466 152.651 35.8771 152.653 35.9162L152.659 36.0939L152.917 35.8792C152.947 35.8542 152.991 35.8582 153.017 35.8883C153.042 35.9183 153.038 35.963 153.007 35.9881L152.753 36.2001L152.925 36.2341C152.964 36.2417 152.989 36.279 152.981 36.3174C152.974 36.3558 152.936 36.3807 152.898 36.3732L152.613 36.3169L152.387 36.5055L152.706 36.5636C152.745 36.5707 152.77 36.6076 152.763 36.6461C152.756 36.6846 152.72 36.7101 152.681 36.7031L152.246 36.6237L151.663 37.1099L152.415 37.1916L152.726 36.857C152.753 36.8284 152.798 36.8268 152.827 36.8535C152.855 36.8801 152.857 36.925 152.83 36.9536L152.591 37.2106L152.892 37.2433L153.092 37.0363C153.119 37.0081 153.164 37.0073 153.192 37.0344C153.22 37.0616 153.221 37.1064 153.194 37.1346L153.071 37.2627L153.404 37.2988C153.443 37.303 153.471 37.338 153.466 37.3769Z" fill="#FDFDFD"/>
<path fill-rule="evenodd" clip-rule="evenodd" d="M120.464 45.2002C120.486 45.2484 120.465 45.3057 120.417 45.3282L120.01 45.519L120.224 45.6232C120.272 45.6464 120.292 45.7041 120.269 45.7519C120.246 45.7997 120.188 45.8197 120.14 45.7964L119.786 45.6242L119.423 45.7938L119.823 45.9806C119.871 46.0031 119.892 46.0604 119.869 46.1086C119.847 46.1567 119.789 46.1775 119.741 46.155L119.196 45.9002L118.264 46.3372L119.224 46.7001L119.748 46.366C119.793 46.3374 119.852 46.3506 119.881 46.3954C119.909 46.4403 119.896 46.4998 119.851 46.5284L119.449 46.7851L119.835 46.9307L120.168 46.7262C120.213 46.6984 120.272 46.7125 120.3 46.7578C120.328 46.8031 120.314 46.8624 120.268 46.8903L120.063 47.0168L120.489 47.1776C120.538 47.1964 120.563 47.252 120.545 47.3017C120.526 47.3515 120.47 47.3766 120.421 47.3578L120 47.1989L120.075 47.4252C120.091 47.4757 120.064 47.5302 120.013 47.5469C119.963 47.5636 119.909 47.5362 119.892 47.4857L119.768 47.1113L119.394 46.97L119.538 47.3865C119.556 47.4367 119.529 47.4916 119.479 47.509C119.429 47.5265 119.374 47.4999 119.357 47.4497L119.159 46.8814L118.205 46.5209L118.639 47.4408L119.247 47.5648C119.299 47.5755 119.333 47.6263 119.322 47.6784C119.312 47.7305 119.261 47.7642 119.209 47.7535L118.741 47.6582L118.917 48.0311L119.298 48.1155C119.35 48.127 119.383 48.1784 119.372 48.2304C119.36 48.2823 119.309 48.315 119.257 48.3035L119.021 48.2513L119.215 48.6632C119.238 48.7113 119.217 48.7686 119.169 48.7913C119.121 48.814 119.064 48.7934 119.041 48.7453L118.849 48.3385L118.746 48.5532C118.723 48.6011 118.665 48.6212 118.617 48.5981C118.569 48.575 118.549 48.5174 118.572 48.4695L118.744 48.1144L118.573 47.7527L118.387 48.1525C118.365 48.2008 118.308 48.2217 118.259 48.1993C118.211 48.1769 118.19 48.1196 118.213 48.0714L118.466 47.5258L118.032 46.605L117.711 47.5677L118.065 48.0779C118.095 48.1215 118.084 48.1815 118.041 48.2119C117.997 48.2422 117.937 48.2314 117.907 48.1877L117.635 47.7958L117.504 48.1868L117.722 48.5114C117.751 48.5556 117.739 48.6154 117.695 48.645C117.651 48.6746 117.591 48.6627 117.562 48.6186L117.427 48.4178L117.283 48.8498C117.266 48.9003 117.212 48.9275 117.161 48.9107C117.111 48.8939 117.084 48.8393 117.1 48.7889L117.243 48.3622L117.019 48.4459C116.97 48.4645 116.914 48.4393 116.895 48.3895C116.877 48.3397 116.902 48.2842 116.952 48.2656L117.321 48.1271L117.448 47.7477L117.037 47.9086C116.988 47.928 116.932 47.9036 116.912 47.854C116.893 47.8045 116.917 47.7487 116.967 47.7293L117.527 47.5098L117.854 46.53L116.923 46.9697L116.799 47.5783C116.788 47.6304 116.738 47.6641 116.685 47.6535C116.633 47.6429 116.6 47.5921 116.61 47.54L116.705 47.0723L116.333 47.2484L116.248 47.6298C116.237 47.6817 116.185 47.7145 116.134 47.703C116.082 47.6915 116.049 47.6401 116.06 47.5882L116.112 47.3523L115.701 47.5468C115.653 47.5695 115.595 47.5489 115.572 47.5008C115.55 47.4527 115.57 47.3953 115.618 47.3726L116.025 47.1806L115.81 47.0771C115.762 47.054 115.742 46.9964 115.765 46.9485C115.788 46.9006 115.846 46.8805 115.894 46.9036L116.249 47.0748L116.611 46.904L116.211 46.7185C116.163 46.6961 116.142 46.6389 116.164 46.5906C116.186 46.5424 116.244 46.5214 116.292 46.5438L116.838 46.7969L117.767 46.3578L116.805 46.0035L116.285 46.3419C116.24 46.3709 116.18 46.3582 116.151 46.3136C116.122 46.269 116.135 46.2094 116.18 46.1804L116.58 45.9204L116.193 45.778L115.862 45.9853C115.817 46.0135 115.757 45.9998 115.729 45.9547C115.701 45.9097 115.715 45.8502 115.76 45.822L115.964 45.6938L115.537 45.5365C115.487 45.5181 115.462 45.4628 115.48 45.4129C115.498 45.363 115.554 45.3374 115.604 45.3558L116.026 45.5112L115.949 45.2855C115.932 45.2351 115.959 45.1804 116.009 45.1633C116.059 45.1462 116.114 45.1731 116.131 45.2235L116.258 45.5968L116.634 45.735L116.485 45.3197C116.468 45.2696 116.494 45.2146 116.544 45.1967C116.594 45.1788 116.649 45.205 116.667 45.255L116.869 45.8217L117.828 46.1748L117.391 45.2544L116.782 45.1319C116.73 45.1214 116.696 45.0707 116.707 45.0185C116.717 44.9664 116.768 44.9326 116.82 44.9431L117.288 45.0372L117.111 44.6648L116.729 44.5814C116.677 44.57 116.645 44.5187 116.656 44.4667C116.667 44.4148 116.719 44.3819 116.77 44.3932L117.006 44.4449L116.811 44.0335C116.788 43.9855 116.809 43.928 116.857 43.9052C116.905 43.8824 116.962 43.9029 116.985 43.9509L117.178 44.3572L117.281 44.1422C117.304 44.0943 117.362 44.074 117.409 44.097C117.457 44.12 117.478 44.1775 117.455 44.2254L117.284 44.581L117.456 44.9423L117.64 44.542C117.663 44.4937 117.72 44.4726 117.768 44.4949C117.817 44.5171 117.838 44.5743 117.815 44.6226L117.563 45.1689L118.002 46.0917L118.331 45.1281L117.981 44.6153C117.951 44.5714 117.962 44.5115 118.006 44.4815C118.05 44.4515 118.11 44.4628 118.14 44.5067L118.409 44.9006L118.542 44.5106L118.327 44.1844C118.298 44.14 118.31 44.0803 118.355 44.051C118.399 44.0218 118.459 44.034 118.488 44.0784L118.621 44.2801L118.768 43.8493C118.785 43.799 118.84 43.7721 118.89 43.7893C118.941 43.8065 118.968 43.8613 118.95 43.9116L118.805 44.3372L119.029 44.2552C119.079 44.2369 119.134 44.2625 119.152 44.3125C119.171 44.3624 119.145 44.4177 119.095 44.436L118.725 44.5716L118.595 44.9501L119.007 44.7923C119.057 44.7733 119.112 44.7981 119.131 44.8478C119.151 44.8975 119.126 44.9531 119.076 44.9722L118.514 45.1874L118.181 46.1634L119.112 45.7272L119.237 45.1189C119.248 45.0668 119.299 45.0333 119.351 45.0441C119.403 45.0548 119.437 45.1058 119.426 45.1579L119.329 45.6252L119.703 45.4503L119.788 45.0692C119.8 45.0173 119.851 44.9846 119.903 44.9963C119.955 45.0079 119.988 45.0594 119.976 45.1113L119.923 45.347L120.336 45.1538C120.384 45.1313 120.441 45.152 120.464 45.2002Z" fill="#FDFDFD"/>
<circle cx="148.845" cy="44.6012" r="0.387792" transform="rotate(0.771285 148.845 44.6012)" fill="#FDFDFD"/>
<circle cx="187.625" cy="41.4989" r="0.387792" transform="rotate(0.771285 187.625 41.4989)" fill="#FDFDFD"/>
<circle cx="165.908" cy="46.9281" r="0.387792" transform="rotate(0.771285 165.908 46.9281)" fill="#FDFDFD"/>
<circle cx="172.113" cy="53.9084" r="0.387792" transform="rotate(0.771285 172.113 53.9084)" fill="#FDFDFD"/>
<circle cx="179.093" cy="36.8454" r="0.387792" transform="rotate(0.771285 179.093 36.8454)" fill="#FDFDFD"/>
<circle cx="134.109" cy="48.4792" r="0.387792" transform="rotate(0.771285 134.109 48.4792)" fill="#FDFDFD"/>
<circle cx="129.456" cy="55.4594" r="0.387792" transform="rotate(0.771285 129.456 55.4594)" fill="#FDFDFD"/>
<circle cx="133.334" cy="37.621" r="0.387792" transform="rotate(0.771285 133.334 37.621)" fill="#FDFDFD"/>
<path fill-rule="evenodd" clip-rule="evenodd" d="M129.44 40.8902C129.793 41.0671 129.936 41.4972 129.759 41.8509L125.479 50.4435C125.303 50.7972 124.874 50.9405 124.522 50.7637C124.17 50.5868 124.027 50.1567 124.203 49.803L128.483 41.2104C128.659 40.8567 129.088 40.7133 129.44 40.8902Z" fill="#94D2FF"/>
<path fill-rule="evenodd" clip-rule="evenodd" d="M166.537 35.1619C166.889 35.3388 167.032 35.7689 166.856 36.1226L164.002 41.851C163.826 42.2047 163.397 42.3481 163.045 42.1712C162.693 41.9944 162.55 41.5643 162.726 41.2105L165.579 35.4822C165.756 35.1284 166.184 34.9851 166.537 35.1619Z" fill="#94D2FF"/>
<path fill-rule="evenodd" clip-rule="evenodd" d="M166.537 50.9149C166.889 51.0917 167.032 51.5218 166.856 51.8755L164.002 57.6039C163.826 57.9576 163.397 58.101 163.045 57.9241C162.693 57.7473 162.55 57.3172 162.726 56.9635L165.579 51.2351C165.756 50.8814 166.184 50.738 166.537 50.9149Z" fill="#94D2FF"/>
<path fill-rule="evenodd" clip-rule="evenodd" d="M190.874 40.9287C191.229 41.1007 191.377 41.5288 191.206 41.8849L187.457 49.6758C187.286 50.0319 186.859 50.1812 186.505 50.0092C186.15 49.8372 186.001 49.4091 186.172 49.053L189.921 41.2621C190.093 40.906 190.519 40.7567 190.874 40.9287Z" fill="#94D2FF"/>
<path fill-rule="evenodd" clip-rule="evenodd" d="M140.855 35.1619C141.207 35.3388 141.35 35.7689 141.174 36.1226L139.747 38.9868C139.571 39.3405 139.142 39.4839 138.79 39.307C138.437 39.1302 138.294 38.7001 138.471 38.3464L139.897 35.4822C140.074 35.1284 140.502 34.9851 140.855 35.1619Z" fill="#94D2FF"/>
<path fill-rule="evenodd" clip-rule="evenodd" d="M123.62 35.0926C123.964 35.2855 124.087 35.7217 123.895 36.067L120.612 41.9644C120.42 42.3096 119.986 42.4332 119.642 42.2403C119.298 42.0474 119.175 41.6112 119.367 41.266L122.649 35.3686C122.841 35.0233 123.276 34.8998 123.62 35.0926Z" fill="#94D2FF"/>
<path fill-rule="evenodd" clip-rule="evenodd" d="M156.549 45.1866C156.902 45.3634 157.044 45.7936 156.868 46.1473L152.588 54.7398C152.412 55.0936 151.983 55.2369 151.631 55.0601C151.278 54.8832 151.135 54.4531 151.312 54.0994L155.592 45.5068C155.768 45.1531 156.197 45.0097 156.549 45.1866Z" fill="#94D2FF"/>
<path fill-rule="evenodd" clip-rule="evenodd" d="M157.459 37.0758C157.812 37.2526 157.955 37.6827 157.778 38.0364L156.352 40.9006C156.175 41.2543 155.747 41.3977 155.395 41.2208C155.042 41.044 154.899 40.6139 155.075 40.2602L156.502 37.396C156.678 37.0423 157.107 36.8989 157.459 37.0758Z" fill="#94D2FF"/>
<path fill-rule="evenodd" clip-rule="evenodd" d="M140.459 45.0758C140.812 45.2526 140.955 45.6827 140.778 46.0364L139.352 48.9006C139.175 49.2543 138.747 49.3977 138.395 49.2208C138.042 49.044 137.899 48.6139 138.075 48.2602L139.502 45.396C139.678 45.0423 140.107 44.8989 140.459 45.0758Z" fill="#94D2FF"/>
<path fill-rule="evenodd" clip-rule="evenodd" d="M183.886 36.0758C184.239 36.2526 184.381 36.6827 184.205 37.0364L181.352 42.7648C181.175 43.1185 180.747 43.2619 180.395 43.085C180.042 42.9082 179.899 42.4781 180.075 42.1244L182.929 36.396C183.105 36.0423 183.534 35.8989 183.886 36.0758Z" fill="#94D2FF"/>
<path d="M160.353 4.60946C165.402 5.49398 169.814 9.36248 170.483 16.44C176.545 12.73 183.17 14.0664 187.298 18.488C187.298 10.5032 179.938 7.00363 174.062 8.17254C173.252 -0.399648 163.595 -0.899212 160.353 4.60946Z" fill="#9E9E9E"/>
<path d="M139.891 10.5032C141.932 10.623 143.86 11.2671 145.361 12.5436C146.81 9.44747 149.154 7.21243 151.844 5.87824C147.184 2.80244 140.499 5.72478 139.891 10.5032Z" fill="#9E9E9E"/>
<path fill-rule="evenodd" clip-rule="evenodd" d="M127.33 17.8038C114.364 16.44 110.109 26.5708 112.743 33H130.031C130.436 30.2162 133.273 28.6576 136.514 29.0473C137.865 25.8452 143.132 25.4555 145.361 28.0732C149.21 21.7539 160.353 21.7539 162.649 27.4887C167.106 27.099 170.483 29.4369 170.483 33H198.914C199.724 27.3501 194.659 23.1609 190.81 24.9143C190.291 21.6735 189.24 20.5678 187.298 18.488C183.17 14.0664 176.545 12.73 170.483 16.44C169.814 9.36248 165.402 5.49398 160.353 4.60946C157.535 4.11575 154.519 4.55172 151.844 5.87824C149.154 7.21243 146.81 9.44747 145.361 12.5436C143.86 11.2671 141.932 10.623 139.891 10.5032C134.765 10.2025 128.924 13.2061 127.33 17.8038Z" fill="#F1F1F1"/>
<path d="M136.514 29.0473C133.273 28.6576 130.436 30.2162 130.031 33H170.483C170.483 29.4369 167.106 27.099 162.649 27.4887C160.353 21.7539 149.21 21.7539 145.361 28.0732C143.132 25.4555 137.865 25.8452 136.514 29.0473Z" fill="#D9D9D9"/>
</svg>
