<svg width="202" height="64" viewBox="0 0 202 64" fill="none" xmlns="http://www.w3.org/2000/svg">
<g filter="url(#filter0_d_8_613)">
<path d="M49.2574 6.61995C54.2638 7.50704 58.6389 11.3868 59.3024 18.4849C65.3143 14.7641 71.8837 16.1044 75.9771 20.5389C75.9771 12.5309 68.6779 9.02109 62.8518 10.1934C62.0482 1.59628 52.4718 1.09527 49.2574 6.61995Z" fill="#9E9E9E"/>
<path d="M28.9665 12.5309C30.9911 12.651 32.9029 13.297 34.3908 14.5771C35.8275 11.472 38.1521 9.23049 40.8196 7.89242C36.1989 4.80768 29.5692 7.73852 28.9665 12.5309Z" fill="#9E9E9E"/>
<path fill-rule="evenodd" clip-rule="evenodd" d="M16.5107 19.8526C6.22248 17.1459 0.07177 25.7093 4.40564 33.4574C5.01003 34.5379 6.21592 35.093 7.45399 35.093H19.1893C19.5911 32.3011 22.4037 30.738 25.6181 31.1288C26.9575 27.9174 32.1809 27.5266 34.3908 30.1519C38.2079 23.8142 49.2574 23.8142 51.5341 29.5657C55.9539 29.1749 59.3024 31.5196 59.3024 35.093H86.0548C86.9151 35.093 87.7029 34.5439 87.8588 33.6978C88.9705 27.6622 83.271 24.7907 79.4592 26.9838C78.9451 23.7336 77.9024 22.6246 75.9771 20.5389C71.8837 16.1044 65.3143 14.7641 59.3024 18.4849C58.6389 11.3868 54.2638 7.50704 49.2574 6.61995C46.463 6.1248 43.4718 6.56205 40.8196 7.89242C38.1521 9.23049 35.8275 11.472 34.3908 14.5771C32.9029 13.297 30.9911 12.651 28.9665 12.5309C23.884 12.2293 18.0911 15.2415 16.5107 19.8526Z" fill="#F1F1F1"/>
<path d="M25.6181 31.1288C22.4037 30.738 19.5911 32.3011 19.1893 35.093H59.3024C59.3024 31.5196 55.9539 29.1749 51.5341 29.5657C49.2574 23.8142 38.2079 23.8142 34.3908 30.1519C32.1809 27.5266 26.9575 27.9174 25.6181 31.1288Z" fill="#D9D9D9"/>
</g>
<path fill-rule="evenodd" clip-rule="evenodd" d="M18.6455 42.8411C18.9898 43.0135 19.1293 43.4325 18.9572 43.7772L14.7752 52.1493C14.6031 52.4939 14.1844 52.6336 13.8401 52.4613C13.4958 52.289 13.3563 51.8699 13.5284 51.5252L17.7104 43.1532C17.8825 42.8085 18.3012 42.6688 18.6455 42.8411Z" fill="#94D2FF"/>
<path fill-rule="evenodd" clip-rule="evenodd" d="M27.0093 40.0504C27.3536 40.2227 27.4932 40.6418 27.321 40.9864L24.5331 46.5678C24.3609 46.9124 23.9423 47.0521 23.598 46.8798C23.2537 46.7075 23.1141 46.2884 23.2863 45.9438L26.0742 40.3624C26.2464 40.0177 26.665 39.8781 27.0093 40.0504Z" fill="#94D2FF"/>
<path fill-rule="evenodd" clip-rule="evenodd" d="M56.2829 37.2597C56.6272 37.432 56.7667 37.8511 56.5946 38.1957L53.8066 43.7771C53.6345 44.1218 53.2158 44.2615 52.8715 44.0892C52.5272 43.9168 52.3876 43.4978 52.5598 43.1531L55.3477 37.5717C55.5199 37.2271 55.9386 37.0874 56.2829 37.2597Z" fill="#94D2FF"/>
<path fill-rule="evenodd" clip-rule="evenodd" d="M39.5551 48.4224C39.8994 48.5948 40.039 49.0138 39.8668 49.3585L37.0789 54.9399C36.9067 55.2845 36.4881 55.4242 36.1438 55.2519C35.7995 55.0796 35.6599 54.6605 35.8321 54.3158L38.62 48.7345C38.7922 48.3898 39.2108 48.2501 39.5551 48.4224Z" fill="#94D2FF"/>
<path fill-rule="evenodd" clip-rule="evenodd" d="M54.8889 51.2132C55.2332 51.3855 55.3727 51.8046 55.2006 52.1492L52.4126 57.7306C52.2405 58.0753 51.8218 58.215 51.4775 58.0426C51.1332 57.8703 50.9937 57.4513 51.1658 57.1066L53.9538 51.5252C54.1259 51.1806 54.5446 51.0409 54.8889 51.2132Z" fill="#94D2FF"/>
<path fill-rule="evenodd" clip-rule="evenodd" d="M66.7005 53.9866C67.0544 54.1384 67.2183 54.5486 67.0666 54.9027L64.9757 59.7865C64.824 60.1406 64.4143 60.3047 64.0605 60.1529C63.7066 60.0011 63.5427 59.591 63.6944 59.2368L65.7854 54.3531C65.937 53.9989 66.3467 53.8349 66.7005 53.9866Z" fill="#94D2FF"/>
<path fill-rule="evenodd" clip-rule="evenodd" d="M69.5256 40.0504C69.8699 40.2227 70.0095 40.6418 69.8374 40.9864L66.3524 47.9631C66.1803 48.3078 65.7616 48.4475 65.4173 48.2752C65.073 48.1028 64.9334 47.6838 65.1056 47.3391L68.5905 40.3624C68.7627 40.0177 69.1814 39.8781 69.5256 40.0504Z" fill="#94D2FF"/>
<path fill-rule="evenodd" clip-rule="evenodd" d="M50.7069 45.6318C51.0512 45.8041 51.1908 46.2232 51.0186 46.5678L49.6247 49.3585C49.4525 49.7032 49.0339 49.8428 48.6896 49.6705C48.3453 49.4982 48.2057 49.0791 48.3779 48.7345L49.7718 45.9438C49.944 45.5992 50.3626 45.4595 50.7069 45.6318Z" fill="#94D2FF"/>
<path fill-rule="evenodd" clip-rule="evenodd" d="M40.9491 40.0504C41.2934 40.2227 41.433 40.6418 41.2608 40.9864L39.8668 43.7771C39.6947 44.1217 39.276 44.2614 38.9317 44.0891C38.5874 43.9168 38.4479 43.4977 38.62 43.1531L40.014 40.3624C40.1861 40.0177 40.6048 39.8781 40.9491 40.0504Z" fill="#94D2FF"/>
<path fill-rule="evenodd" clip-rule="evenodd" d="M32.5852 37.2597C32.9295 37.432 33.0691 37.8511 32.8969 38.1957L31.503 40.9864C31.3308 41.3311 30.9122 41.4708 30.5679 41.2985C30.2236 41.1261 30.084 40.7071 30.2562 40.3624L31.6501 37.5717C31.8223 37.2271 32.2409 37.0874 32.5852 37.2597Z" fill="#94D2FF"/>
<path fill-rule="evenodd" clip-rule="evenodd" d="M20.0394 35.8643C20.3837 36.0367 20.5233 36.4557 20.3511 36.8004L18.9572 39.5911C18.785 39.9357 18.3663 40.0754 18.0221 39.9031C17.6778 39.7308 17.5382 39.3117 17.7103 38.967L19.1043 36.1763C19.2765 35.8317 19.6951 35.692 20.0394 35.8643Z" fill="#94D2FF"/>
<path fill-rule="evenodd" clip-rule="evenodd" d="M81.3745 38.6551C81.7188 38.8274 81.8583 39.2465 81.6862 39.5911L78.8982 45.1725C78.7261 45.5172 78.3074 45.6569 77.9631 45.4845C77.6188 45.3122 77.4793 44.8931 77.6514 44.5485L80.4394 38.9671C80.6115 38.6225 81.0302 38.4828 81.3745 38.6551Z" fill="#94D2FF"/>
<path fill-rule="evenodd" clip-rule="evenodd" d="M74.4046 48.4224C74.7489 48.5948 74.8884 49.0138 74.7163 49.3585L73.3223 52.1492C73.1501 52.4938 72.7315 52.6335 72.3872 52.4612C72.0429 52.2889 71.9033 51.8698 72.0755 51.5251L73.4695 48.7345C73.6416 48.3898 74.0603 48.2501 74.4046 48.4224Z" fill="#94D2FF"/>
<path fill-rule="evenodd" clip-rule="evenodd" d="M11.6756 38.6551C12.0199 38.8274 12.1594 39.2465 11.9873 39.5911L10.5933 42.3818C10.4211 42.7265 10.0025 42.8662 9.65819 42.6938C9.31389 42.5215 9.17434 42.1024 9.34649 41.7578L10.7405 38.9671C10.9126 38.6225 11.3313 38.4828 11.6756 38.6551Z" fill="#94D2FF"/>
<path fill-rule="evenodd" clip-rule="evenodd" d="M32.5852 59.5853C32.9295 59.7576 33.0691 60.1767 32.8969 60.5213L31.503 63.312C31.3308 63.6566 30.9122 63.7963 30.5679 63.624C30.2236 63.4517 30.084 63.0326 30.2562 62.688L31.6501 59.8973C31.8223 59.5527 32.2409 59.413 32.5852 59.5853Z" fill="#94D2FF"/>
<path fill-rule="evenodd" clip-rule="evenodd" d="M28.4033 51.2132C28.7476 51.3855 28.8872 51.8046 28.715 52.1492L27.321 54.9399C27.1489 55.2846 26.7302 55.4243 26.3859 55.2519C26.0416 55.0796 25.9021 54.6606 26.0742 54.3159L27.4682 51.5252C27.6404 51.1806 28.059 51.0409 28.4033 51.2132Z" fill="#94D2FF"/>
<path fill-rule="evenodd" clip-rule="evenodd" d="M61.5784 49.6767C61.9301 49.8333 62.0884 50.2457 61.9319 50.5977L59.6479 55.7369C59.4914 56.089 59.0794 56.2474 58.7277 56.0908C58.376 55.9342 58.2178 55.5218 58.3742 55.1698L60.6583 50.0306C60.8148 49.6785 61.2267 49.5201 61.5784 49.6767Z" fill="#94D2FF"/>
<path fill-rule="evenodd" clip-rule="evenodd" d="M75.7985 38.6551C76.1428 38.8274 76.2824 39.2465 76.1102 39.5911L73.3223 45.1725C73.1501 45.5172 72.7315 45.6569 72.3872 45.4845C72.0429 45.3122 71.9033 44.8931 72.0755 44.5485L74.8634 38.9671C75.0356 38.6225 75.4542 38.4828 75.7985 38.6551Z" fill="#94D2FF"/>
<path fill-rule="evenodd" clip-rule="evenodd" d="M22.8274 51.2132C23.1717 51.3855 23.3112 51.8046 23.1391 52.1492L18.9572 60.5213C18.785 60.866 18.3663 61.0057 18.0221 60.8333C17.6778 60.661 17.5382 60.242 17.7103 59.8973L21.8923 51.5252C22.0644 51.1806 22.4831 51.0409 22.8274 51.2132Z" fill="#94D2FF"/>
<path fill-rule="evenodd" clip-rule="evenodd" d="M47.919 38.6551C48.2633 38.8274 48.4028 39.2465 48.2307 39.5911L44.0488 47.9632C43.8766 48.3079 43.4579 48.4476 43.1136 48.2752C42.7694 48.1029 42.6298 47.6838 42.8019 47.3392L46.9839 38.9671C47.156 38.6225 47.5747 38.4828 47.919 38.6551Z" fill="#94D2FF"/>
<path fill-rule="evenodd" clip-rule="evenodd" d="M64.6467 37.2597C64.991 37.432 65.1306 37.8511 64.9584 38.1957L60.7765 46.5678C60.6043 46.9125 60.1857 47.0522 59.8414 46.8799C59.4971 46.7075 59.3575 46.2885 59.5297 45.9438L63.7116 37.5717C63.8838 37.2271 64.3024 37.0874 64.6467 37.2597Z" fill="#94D2FF"/>
<path fill-rule="evenodd" clip-rule="evenodd" d="M49.313 52.6085C49.6573 52.7808 49.7968 53.1999 49.6247 53.5445L45.4427 61.9166C45.2706 62.2612 44.8519 62.4009 44.5076 62.2286C44.1633 62.0563 44.0238 61.6372 44.1959 61.2926L48.3779 52.9205C48.55 52.5758 48.9687 52.4362 49.313 52.6085Z" fill="#94D2FF"/>
<path fill-rule="evenodd" clip-rule="evenodd" d="M36.7672 40.0504C37.1115 40.2227 37.251 40.6418 37.0789 40.9864L32.8969 49.3585C32.7248 49.7031 32.3061 49.8428 31.9618 49.6705C31.6175 49.4982 31.478 49.0791 31.6501 48.7345L35.8321 40.3624C36.0042 40.0177 36.4229 39.8781 36.7672 40.0504Z" fill="#94D2FF"/>
<g filter="url(#filter1_d_8_613)">
<path d="M163.257 6.61995C168.264 7.50704 172.639 11.3868 173.302 18.4849C179.314 14.7641 185.884 16.1044 189.977 20.5389C189.977 12.5309 182.678 9.02109 176.852 10.1934C176.048 1.59628 166.472 1.09527 163.257 6.61995Z" fill="#9E9E9E"/>
<path d="M142.967 12.5309C144.991 12.651 146.903 13.297 148.391 14.5771C149.828 11.472 152.152 9.23049 154.82 7.89242C150.199 4.80768 143.569 7.73852 142.967 12.5309Z" fill="#9E9E9E"/>
<path fill-rule="evenodd" clip-rule="evenodd" d="M130.511 19.8526C120.222 17.1459 114.072 25.7093 118.406 33.4574C119.01 34.5379 120.216 35.093 121.454 35.093H133.189C133.591 32.3011 136.404 30.738 139.618 31.1288C140.958 27.9174 146.181 27.5266 148.391 30.1519C152.208 23.8142 163.257 23.8142 165.534 29.5657C169.954 29.1749 173.302 31.5196 173.302 35.093H200.055C200.915 35.093 201.703 34.5439 201.859 33.6978C202.97 27.6622 197.271 24.7907 193.459 26.9838C192.945 23.7336 191.902 22.6246 189.977 20.5389C185.884 16.1044 179.314 14.7641 173.302 18.4849C172.639 11.3868 168.264 7.50704 163.257 6.61995C160.463 6.1248 157.472 6.56205 154.82 7.89242C152.152 9.23049 149.828 11.472 148.391 14.5771C146.903 13.297 144.991 12.651 142.967 12.5309C137.884 12.2293 132.091 15.2415 130.511 19.8526Z" fill="#F1F1F1"/>
<path d="M139.618 31.1288C136.404 30.738 133.591 32.3011 133.189 35.093H173.302C173.302 31.5196 169.954 29.1749 165.534 29.5657C163.257 23.8142 152.208 23.8142 148.391 30.1519C146.181 27.5266 140.958 27.9174 139.618 31.1288Z" fill="#D9D9D9"/>
</g>
<path fill-rule="evenodd" clip-rule="evenodd" d="M132.645 42.8411C132.99 43.0135 133.129 43.4325 132.957 43.7772L128.775 52.1493C128.603 52.4939 128.184 52.6336 127.84 52.4613C127.496 52.289 127.356 51.8699 127.528 51.5252L131.71 43.1532C131.882 42.8085 132.301 42.6688 132.645 42.8411Z" fill="#94D2FF"/>
<path fill-rule="evenodd" clip-rule="evenodd" d="M141.009 40.0504C141.354 40.2227 141.493 40.6418 141.321 40.9864L138.533 46.5678C138.361 46.9124 137.942 47.0521 137.598 46.8798C137.254 46.7075 137.114 46.2884 137.286 45.9438L140.074 40.3624C140.246 40.0177 140.665 39.8781 141.009 40.0504Z" fill="#94D2FF"/>
<path fill-rule="evenodd" clip-rule="evenodd" d="M170.283 37.2597C170.627 37.432 170.767 37.8511 170.595 38.1957L167.807 43.7771C167.634 44.1218 167.216 44.2615 166.871 44.0892C166.527 43.9168 166.388 43.4978 166.56 43.1531L169.348 37.5717C169.52 37.2271 169.939 37.0874 170.283 37.2597Z" fill="#94D2FF"/>
<path fill-rule="evenodd" clip-rule="evenodd" d="M153.555 48.4224C153.899 48.5948 154.039 49.0138 153.867 49.3585L151.079 54.9399C150.907 55.2845 150.488 55.4242 150.144 55.2519C149.799 55.0796 149.66 54.6605 149.832 54.3158L152.62 48.7345C152.792 48.3898 153.211 48.2501 153.555 48.4224Z" fill="#94D2FF"/>
<path fill-rule="evenodd" clip-rule="evenodd" d="M168.889 51.2132C169.233 51.3855 169.373 51.8046 169.201 52.1492L166.413 57.7306C166.24 58.0753 165.822 58.215 165.478 58.0426C165.133 57.8703 164.994 57.4513 165.166 57.1066L167.954 51.5252C168.126 51.1806 168.545 51.0409 168.889 51.2132Z" fill="#94D2FF"/>
<path fill-rule="evenodd" clip-rule="evenodd" d="M180.701 53.9866C181.054 54.1384 181.218 54.5486 181.067 54.9027L178.976 59.7865C178.824 60.1406 178.414 60.3047 178.06 60.1529C177.707 60.0011 177.543 59.591 177.694 59.2368L179.785 54.3531C179.937 53.9989 180.347 53.8349 180.701 53.9866Z" fill="#94D2FF"/>
<path fill-rule="evenodd" clip-rule="evenodd" d="M183.526 40.0504C183.87 40.2227 184.01 40.6418 183.837 40.9864L180.352 47.9631C180.18 48.3078 179.762 48.4475 179.417 48.2752C179.073 48.1028 178.933 47.6838 179.106 47.3391L182.591 40.3624C182.763 40.0177 183.181 39.8781 183.526 40.0504Z" fill="#94D2FF"/>
<path fill-rule="evenodd" clip-rule="evenodd" d="M164.707 45.6318C165.051 45.8041 165.191 46.2232 165.019 46.5678L163.625 49.3585C163.453 49.7032 163.034 49.8428 162.69 49.6705C162.345 49.4982 162.206 49.0791 162.378 48.7345L163.772 45.9438C163.944 45.5992 164.363 45.4595 164.707 45.6318Z" fill="#94D2FF"/>
<path fill-rule="evenodd" clip-rule="evenodd" d="M154.949 40.0504C155.293 40.2227 155.433 40.6418 155.261 40.9864L153.867 43.7771C153.695 44.1217 153.276 44.2614 152.932 44.0891C152.587 43.9168 152.448 43.4977 152.62 43.1531L154.014 40.3624C154.186 40.0177 154.605 39.8781 154.949 40.0504Z" fill="#94D2FF"/>
<path fill-rule="evenodd" clip-rule="evenodd" d="M146.585 37.2597C146.93 37.432 147.069 37.8511 146.897 38.1957L145.503 40.9864C145.331 41.3311 144.912 41.4708 144.568 41.2985C144.224 41.1261 144.084 40.7071 144.256 40.3624L145.65 37.5717C145.822 37.2271 146.241 37.0874 146.585 37.2597Z" fill="#94D2FF"/>
<path fill-rule="evenodd" clip-rule="evenodd" d="M134.039 35.8643C134.384 36.0367 134.523 36.4557 134.351 36.8004L132.957 39.5911C132.785 39.9357 132.366 40.0754 132.022 39.9031C131.678 39.7308 131.538 39.3117 131.71 38.967L133.104 36.1763C133.276 35.8317 133.695 35.692 134.039 35.8643Z" fill="#94D2FF"/>
<path fill-rule="evenodd" clip-rule="evenodd" d="M195.374 38.6551C195.719 38.8274 195.858 39.2465 195.686 39.5911L192.898 45.1725C192.726 45.5172 192.307 45.6569 191.963 45.4845C191.619 45.3122 191.479 44.8931 191.651 44.5485L194.439 38.9671C194.612 38.6225 195.03 38.4828 195.374 38.6551Z" fill="#94D2FF"/>
<path fill-rule="evenodd" clip-rule="evenodd" d="M188.405 48.4224C188.749 48.5948 188.888 49.0138 188.716 49.3585L187.322 52.1492C187.15 52.4938 186.731 52.6335 186.387 52.4612C186.043 52.2889 185.903 51.8698 186.075 51.5251L187.469 48.7345C187.642 48.3898 188.06 48.2501 188.405 48.4224Z" fill="#94D2FF"/>
<path fill-rule="evenodd" clip-rule="evenodd" d="M125.676 38.6551C126.02 38.8274 126.159 39.2465 125.987 39.5911L124.593 42.3818C124.421 42.7265 124.002 42.8662 123.658 42.6938C123.314 42.5215 123.174 42.1024 123.346 41.7578L124.74 38.9671C124.913 38.6225 125.331 38.4828 125.676 38.6551Z" fill="#94D2FF"/>
<path fill-rule="evenodd" clip-rule="evenodd" d="M146.585 59.5853C146.93 59.7576 147.069 60.1767 146.897 60.5213L145.503 63.312C145.331 63.6566 144.912 63.7963 144.568 63.624C144.224 63.4517 144.084 63.0326 144.256 62.688L145.65 59.8973C145.822 59.5527 146.241 59.413 146.585 59.5853Z" fill="#94D2FF"/>
<path fill-rule="evenodd" clip-rule="evenodd" d="M142.403 51.2132C142.748 51.3855 142.887 51.8046 142.715 52.1492L141.321 54.9399C141.149 55.2846 140.73 55.4243 140.386 55.2519C140.042 55.0796 139.902 54.6606 140.074 54.3159L141.468 51.5252C141.64 51.1806 142.059 51.0409 142.403 51.2132Z" fill="#94D2FF"/>
<path fill-rule="evenodd" clip-rule="evenodd" d="M175.578 49.6767C175.93 49.8333 176.088 50.2457 175.932 50.5977L173.648 55.7369C173.491 56.089 173.079 56.2474 172.728 56.0908C172.376 55.9342 172.218 55.5218 172.374 55.1698L174.658 50.0306C174.815 49.6785 175.227 49.5201 175.578 49.6767Z" fill="#94D2FF"/>
<path fill-rule="evenodd" clip-rule="evenodd" d="M189.799 38.6551C190.143 38.8274 190.282 39.2465 190.11 39.5911L187.322 45.1725C187.15 45.5172 186.731 45.6569 186.387 45.4845C186.043 45.3122 185.903 44.8931 186.075 44.5485L188.863 38.9671C189.036 38.6225 189.454 38.4828 189.799 38.6551Z" fill="#94D2FF"/>
<path fill-rule="evenodd" clip-rule="evenodd" d="M136.827 51.2132C137.172 51.3855 137.311 51.8046 137.139 52.1492L132.957 60.5213C132.785 60.866 132.366 61.0057 132.022 60.8333C131.678 60.661 131.538 60.242 131.71 59.8973L135.892 51.5252C136.064 51.1806 136.483 51.0409 136.827 51.2132Z" fill="#94D2FF"/>
<path fill-rule="evenodd" clip-rule="evenodd" d="M161.919 38.6551C162.263 38.8274 162.403 39.2465 162.231 39.5911L158.049 47.9632C157.877 48.3079 157.458 48.4476 157.114 48.2752C156.769 48.1029 156.63 47.6838 156.802 47.3392L160.984 38.9671C161.156 38.6225 161.575 38.4828 161.919 38.6551Z" fill="#94D2FF"/>
<path fill-rule="evenodd" clip-rule="evenodd" d="M178.647 37.2597C178.991 37.432 179.131 37.8511 178.958 38.1957L174.776 46.5678C174.604 46.9125 174.186 47.0522 173.841 46.8799C173.497 46.7075 173.358 46.2885 173.53 45.9438L177.712 37.5717C177.884 37.2271 178.302 37.0874 178.647 37.2597Z" fill="#94D2FF"/>
<path fill-rule="evenodd" clip-rule="evenodd" d="M163.313 52.6085C163.657 52.7808 163.797 53.1999 163.625 53.5445L159.443 61.9166C159.271 62.2612 158.852 62.4009 158.508 62.2286C158.163 62.0563 158.024 61.6372 158.196 61.2926L162.378 52.9205C162.55 52.5758 162.969 52.4362 163.313 52.6085Z" fill="#94D2FF"/>
<path fill-rule="evenodd" clip-rule="evenodd" d="M150.767 40.0504C151.111 40.2227 151.251 40.6418 151.079 40.9864L146.897 49.3585C146.725 49.7031 146.306 49.8428 145.962 49.6705C145.618 49.4982 145.478 49.0791 145.65 48.7345L149.832 40.3624C150.004 40.0177 150.423 39.8781 150.767 40.0504Z" fill="#94D2FF"/>
<defs>
<filter id="filter0_d_8_613" x="0" y="0" width="88" height="35.093" filterUnits="userSpaceOnUse" color-interpolation-filters="sRGB">
<feFlood flood-opacity="0" result="BackgroundImageFix"/>
<feColorMatrix in="SourceAlpha" type="matrix" values="0 0 0 0 0 0 0 0 0 0 0 0 0 0 0 0 0 0 127 0" result="hardAlpha"/>
<feOffset dx="-2" dy="-2"/>
<feGaussianBlur stdDeviation="0.5"/>
<feComposite in2="hardAlpha" operator="out"/>
<feColorMatrix type="matrix" values="0 0 0 0 0 0 0 0 0 0 0 0 0 0 0 0 0 0 0.14 0"/>
<feBlend mode="normal" in2="BackgroundImageFix" result="effect1_dropShadow_8_613"/>
<feBlend mode="normal" in="SourceGraphic" in2="effect1_dropShadow_8_613" result="shape"/>
</filter>
<filter id="filter1_d_8_613" x="114" y="0" width="88" height="35.093" filterUnits="userSpaceOnUse" color-interpolation-filters="sRGB">
<feFlood flood-opacity="0" result="BackgroundImageFix"/>
<feColorMatrix in="SourceAlpha" type="matrix" values="0 0 0 0 0 0 0 0 0 0 0 0 0 0 0 0 0 0 127 0" result="hardAlpha"/>
<feOffset dx="-2" dy="-2"/>
<feGaussianBlur stdDeviation="0.5"/>
<feComposite in2="hardAlpha" operator="out"/>
<feColorMatrix type="matrix" values="0 0 0 0 0 0 0 0 0 0 0 0 0 0 0 0 0 0 0.14 0"/>
<feBlend mode="normal" in2="BackgroundImageFix" result="effect1_dropShadow_8_613"/>
<feBlend mode="normal" in="SourceGraphic" in2="effect1_dropShadow_8_613" result="shape"/>
</filter>
</defs>
</svg>
