<svg width="181" height="406" viewBox="0 0 181 406" fill="none" xmlns="http://www.w3.org/2000/svg">
<path d="M137.013 225.273L176 225.27" stroke="#C3D1E6" stroke-width="9" stroke-linecap="round"/>
<path d="M136 197.003L174.987 197" stroke="#C3D1E6" stroke-width="9" stroke-linecap="round"/>
<path d="M136 82.0027L174.987 81.9999" stroke="#C3D1E6" stroke-width="9" stroke-linecap="round"/>
<path d="M136 111.003L174.987 111" stroke="#C3D1E6" stroke-width="9" stroke-linecap="round"/>
<path d="M136 140.003L174.987 140" stroke="#C3D1E6" stroke-width="9" stroke-linecap="round"/>
<path d="M136 168.003L174.987 168" stroke="#C3D1E6" stroke-width="9" stroke-linecap="round"/>
<path d="M136 254.003L174.987 254" stroke="#C3D1E6" stroke-width="9" stroke-linecap="round"/>
<path d="M72 398C107.346 398 136 369.346 136 334C136 313.106 125.988 294.551 110.5 282.871V46.5C110.5 25.2371 93.263 8 72 8C50.737 8 33.5 25.2371 33.5 46.5V282.871C18.012 294.551 8 313.106 8 334C8 369.346 36.6538 398 72 398Z" stroke="#C3D1E6" stroke-width="15" stroke-linejoin="round"/>
<path d="M112 335.99C112 358.087 94.0914 376 72 376C49.9086 376 32 358.087 32 335.99C32 318.851 42.7732 304.229 57.9155 298.53V49.5845C57.9155 41.8059 64.2213 35.5 72 35.5C79.7787 35.5 86.0845 41.8059 86.0845 49.5845V298.53C101.227 304.229 112 318.851 112 335.99Z" fill="#D32929"/>
</svg>
