<svg width="199" height="60" viewBox="0 0 199 60" fill="none" xmlns="http://www.w3.org/2000/svg">
<path fill-rule="evenodd" clip-rule="evenodd" d="M53.4028 47.0738C53.7471 47.2461 53.8867 47.6652 53.7145 48.0098L52.3205 50.8005C52.1484 51.1452 51.7297 51.2849 51.3854 51.1125C51.0411 50.9402 50.9016 50.5212 51.0737 50.1765L52.4677 47.3858C52.6399 47.0412 53.0585 46.9015 53.4028 47.0738Z" fill="#94D2FF"/>
<path fill-rule="evenodd" clip-rule="evenodd" d="M50.4028 40.0738C50.7471 40.2461 50.8867 40.6652 50.7145 41.0098L49.3205 43.8005C49.1484 44.1452 48.7297 44.2849 48.3854 44.1125C48.0411 43.9402 47.9016 43.5212 48.0737 43.1765L49.4677 40.3858C49.6399 40.0412 50.0585 39.9015 50.4028 40.0738Z" fill="#94D2FF"/>
<path fill-rule="evenodd" clip-rule="evenodd" d="M63.4028 52.0738C63.7471 52.2461 63.8867 52.6652 63.7145 53.0098L62.3205 55.8005C62.1484 56.1452 61.7297 56.2849 61.3854 56.1125C61.0411 55.9402 60.9016 55.5212 61.0737 55.1765L62.4677 52.3858C62.6399 52.0412 63.0585 51.9015 63.4028 52.0738Z" fill="#94D2FF"/>
<path fill-rule="evenodd" clip-rule="evenodd" d="M18.4028 41.0738C18.7471 41.2461 18.8867 41.6652 18.7145 42.0098L17.3205 44.8005C17.1484 45.1452 16.7297 45.2849 16.3854 45.1125C16.0411 44.9402 15.9016 44.5212 16.0737 44.1765L17.4677 41.3858C17.6399 41.0412 18.0585 40.9015 18.4028 41.0738Z" fill="#94D2FF"/>
<path fill-rule="evenodd" clip-rule="evenodd" d="M21.4028 54.0738C21.7471 54.2461 21.8867 54.6652 21.7145 55.0098L20.3205 57.8005C20.1484 58.1452 19.7297 58.2849 19.3854 58.1125C19.0411 57.9402 18.9016 57.5212 19.0737 57.1765L20.4677 54.3858C20.6399 54.0412 21.0585 53.9015 21.4028 54.0738Z" fill="#94D2FF"/>
<path fill-rule="evenodd" clip-rule="evenodd" d="M36.7662 54.2933C37.1056 54.4752 37.2334 54.898 37.0517 55.2377L35.5805 57.9884C35.3988 58.3282 34.9764 58.4561 34.637 58.2743C34.2977 58.0924 34.1699 57.6696 34.3515 57.3299L35.8228 54.5792C36.0044 54.2395 36.4268 54.1115 36.7662 54.2933Z" fill="#94D2FF"/>
<path fill-rule="evenodd" clip-rule="evenodd" d="M67.4028 46.0738C67.7471 46.2461 67.8867 46.6652 67.7145 47.0098L66.3205 49.8005C66.1484 50.1452 65.7297 50.2849 65.3854 50.1125C65.0411 49.9402 64.9016 49.5212 65.0737 49.1765L66.4677 46.3858C66.6399 46.0412 67.0585 45.9015 67.4028 46.0738Z" fill="#94D2FF"/>
<path fill-rule="evenodd" clip-rule="evenodd" d="M44.8055 43.1974C45.1676 43.3904 45.2982 43.8258 45.0972 44.1699L40.2141 52.5286C40.0131 52.8727 39.5566 52.9952 39.1945 52.8022C38.8324 52.6092 38.7018 52.1738 38.9028 51.8297L43.7859 43.471C43.9869 43.1269 44.4434 43.0044 44.8055 43.1974Z" fill="#94D2FF"/>
<path fill-rule="evenodd" clip-rule="evenodd" d="M80.7083 36.0275C81.0704 36.2205 81.201 36.6559 81 37L77.4373 43.6595C77.2363 44.0036 76.7798 44.1261 76.4177 43.9331C76.0556 43.7401 75.925 43.3047 76.126 42.9606L79.6887 36.3011C79.8897 35.957 80.3462 35.8345 80.7083 36.0275Z" fill="#94D2FF"/>
<path fill-rule="evenodd" clip-rule="evenodd" d="M28.0288 48.328C28.3909 48.521 28.5215 48.9564 28.3205 49.3004L25.3113 55.1989C25.1103 55.543 24.6538 55.6655 24.2917 55.4725C23.9296 55.2795 23.799 54.8441 24 54.5L27.0092 48.6015C27.2102 48.2574 27.6667 48.1349 28.0288 48.328Z" fill="#94D2FF"/>
<path fill-rule="evenodd" clip-rule="evenodd" d="M51.0288 30.3283C51.3909 30.5213 51.5215 30.9567 51.3204 31.3008L46.4373 39.6595C46.2363 40.0036 45.7798 40.126 45.4177 39.933C45.0556 39.74 44.925 39.3046 45.1261 38.9606L50.0092 30.6019C50.2102 30.2578 50.6667 30.1353 51.0288 30.3283Z" fill="#94D2FF"/>
<path fill-rule="evenodd" clip-rule="evenodd" d="M64.2083 34.5275C64.5704 34.7205 64.701 35.1559 64.5 35.5L60.4373 42.6598C60.2363 43.0039 59.7798 43.1264 59.4177 42.9334C59.0556 42.7404 58.925 42.305 59.126 41.9609L63.1887 34.8011C63.3897 34.457 63.8462 34.3345 64.2083 34.5275Z" fill="#94D2FF"/>
<path fill-rule="evenodd" clip-rule="evenodd" d="M27.0288 33.3278C27.3908 33.5208 27.5214 33.9562 27.3204 34.3003L24.3113 39.1989C24.1103 39.543 23.6538 39.6655 23.2917 39.4725C22.9296 39.2795 22.799 38.8441 23 38.5L26.0091 33.6014C26.2102 33.2573 26.6667 33.1348 27.0288 33.3278Z" fill="#94D2FF"/>
<path fill-rule="evenodd" clip-rule="evenodd" d="M13.1548 47.2507C13.5169 47.4437 13.6475 47.8791 13.4465 48.2231L10.4373 53.1218C10.2363 53.4659 9.77982 53.5883 9.41772 53.3953C9.05563 53.2023 8.92504 52.7669 9.12605 52.4229L12.1352 47.5242C12.3362 47.1801 12.7927 47.0577 13.1548 47.2507Z" fill="#94D2FF"/>
<path fill-rule="evenodd" clip-rule="evenodd" d="M10.1548 35.2507C10.5169 35.4437 10.6475 35.8791 10.4465 36.2231L7.43733 41.1218C7.23631 41.4659 6.77982 41.5883 6.41772 41.3953C6.05563 41.2023 5.92504 40.7669 6.12605 40.4229L9.1352 35.5242C9.33621 35.1801 9.79271 35.0577 10.1548 35.2507Z" fill="#94D2FF"/>
<path fill-rule="evenodd" clip-rule="evenodd" d="M47.5196 51.7264C47.8817 51.9194 48.0123 52.3548 47.8113 52.6989L44.4373 58.6596C44.2363 59.0037 43.7798 59.1262 43.4177 58.9332C43.0556 58.7401 42.9251 58.3048 43.1261 57.9607L46.5 52C46.701 51.6559 47.1575 51.5334 47.5196 51.7264Z" fill="#94D2FF"/>
<path fill-rule="evenodd" clip-rule="evenodd" d="M32.0288 34.3283C32.3909 34.5213 32.5215 34.9567 32.3204 35.3008L27.4373 43.6595C27.2363 44.0036 26.7798 44.126 26.4177 43.933C26.0556 43.74 25.925 43.3046 26.1261 42.9606L31.0092 34.6019C31.2102 34.2578 31.6667 34.1353 32.0288 34.3283Z" fill="#94D2FF"/>
<path fill-rule="evenodd" clip-rule="evenodd" d="M72.0288 34.3283C72.3909 34.5213 72.5215 34.9567 72.3204 35.3008L67.4373 43.6595C67.2363 44.0036 66.7798 44.126 66.4177 43.933C66.0556 43.74 65.925 43.3046 66.1261 42.9606L71.0092 34.6019C71.2102 34.2578 71.6667 34.1353 72.0288 34.3283Z" fill="#94D2FF"/>
<path fill-rule="evenodd" clip-rule="evenodd" d="M59.0288 48.3283C59.3909 48.5213 59.5215 48.9567 59.3204 49.3008L54.4373 57.6595C54.2363 58.0036 53.7798 58.126 53.4177 57.933C53.0556 57.74 52.925 57.3046 53.1261 56.9606L58.0092 48.6019C58.2102 48.2578 58.6667 48.1353 59.0288 48.3283Z" fill="#94D2FF"/>
<path fill-rule="evenodd" clip-rule="evenodd" d="M74.0196 45.2855C74.3817 45.4785 74.5123 45.9139 74.3113 46.258L70.4373 53.2185C70.2363 53.5626 69.7798 53.6851 69.4177 53.4921C69.0556 53.2991 68.925 52.8637 69.1261 52.5196L73 45.5591C73.201 45.215 73.6575 45.0925 74.0196 45.2855Z" fill="#94D2FF"/>
<path fill-rule="evenodd" clip-rule="evenodd" d="M23.0288 44.3283C23.3909 44.5213 23.5215 44.9567 23.3204 45.3008L18.4373 53.6595C18.2363 54.0036 17.7798 54.126 17.4177 53.933C17.0556 53.74 16.925 53.3046 17.1261 52.9606L22.0092 44.6019C22.2102 44.2578 22.6667 44.1353 23.0288 44.3283Z" fill="#94D2FF"/>
<path fill-rule="evenodd" clip-rule="evenodd" d="M17.0288 35.3283C17.3909 35.5213 17.5215 35.9567 17.3204 36.3008L12.4373 44.6595C12.2363 45.0036 11.7798 45.126 11.4177 44.933C11.0556 44.74 10.925 44.3046 11.1261 43.9606L16.0092 35.6019C16.2102 35.2578 16.6667 35.1353 17.0288 35.3283Z" fill="#94D2FF"/>
<path fill-rule="evenodd" clip-rule="evenodd" d="M58.0288 35.3283C58.3909 35.5213 58.5215 35.9567 58.3204 36.3008L53.4373 44.6595C53.2363 45.0036 52.7798 45.126 52.4177 44.933C52.0556 44.74 51.925 44.3046 52.1261 43.9606L57.0092 35.6019C57.2102 35.2578 57.6667 35.1353 58.0288 35.3283Z" fill="#94D2FF"/>
<path fill-rule="evenodd" clip-rule="evenodd" d="M38.5853 33.0756C38.9557 33.252 39.1059 33.681 38.9207 34.0338L34.4209 42.605C34.2357 42.9578 33.7852 43.1009 33.4147 42.9244C33.0443 42.748 32.8941 42.319 33.0793 41.9662L37.5791 33.395C37.7643 33.0422 38.2148 32.8991 38.5853 33.0756Z" fill="#94D2FF"/>
<path d="M37.5161 43.1721L29 46.2897L37.5161 31H43.8L37.5161 39.0952L45 36.9368L29 59L37.5161 43.1721Z" fill="#FFC736"/>
<path d="M48.9088 3.72226C54.0156 4.63441 58.4783 8.62381 59.1551 15.9225C65.2874 12.0966 71.9884 13.4747 76.1638 18.0345C76.1638 9.80022 68.7184 6.19125 62.7756 7.39668C61.9559 -1.44339 52.1876 -1.95856 48.9088 3.72226Z" fill="#9E9E9E"/>
<path d="M28.2114 9.80022C30.2765 9.92376 32.2267 10.588 33.7444 11.9043C35.2099 8.71146 37.5811 6.40656 40.302 5.03069C35.5887 1.85876 28.8262 4.87243 28.2114 9.80022Z" fill="#9E9E9E"/>
<path fill-rule="evenodd" clip-rule="evenodd" d="M15.5061 17.3289C2.39093 15.9225 -1.91251 26.3699 0.751539 33H18.2383C18.6481 30.1292 21.5171 28.5219 24.7959 28.9238C26.1622 25.6216 31.4902 25.2198 33.7444 27.9192C37.638 21.4025 48.9088 21.4025 51.2312 27.3165C55.7395 26.9146 59.1551 29.3256 59.1551 33H87.9127C88.7324 27.1736 83.6093 22.8534 79.7157 24.6616C79.1913 21.3195 78.1278 20.1792 76.1638 18.0345C71.9884 13.4747 65.2874 12.0966 59.1551 15.9225C58.4783 8.62381 54.0156 4.63441 48.9088 3.72226C46.0584 3.21311 43.0073 3.66271 40.302 5.03069C37.5811 6.40656 35.2099 8.71146 33.7444 11.9043C32.2267 10.588 30.2765 9.92376 28.2114 9.80022C23.0271 9.49009 17.1181 12.5875 15.5061 17.3289Z" fill="#F1F1F1"/>
<path d="M24.7959 28.9238C21.5171 28.5219 18.6481 30.1292 18.2383 33H59.1551C59.1551 29.3256 55.7395 26.9146 51.2312 27.3165C48.9088 21.4025 37.638 21.4025 33.7444 27.9192C31.4902 25.2198 26.1622 25.6216 24.7959 28.9238Z" fill="#D9D9D9"/>
<path fill-rule="evenodd" clip-rule="evenodd" d="M164.403 47.0738C164.747 47.2461 164.887 47.6652 164.715 48.0098L163.321 50.8005C163.148 51.1452 162.73 51.2849 162.385 51.1125C162.041 50.9402 161.902 50.5212 162.074 50.1765L163.468 47.3858C163.64 47.0412 164.059 46.9015 164.403 47.0738Z" fill="#94D2FF"/>
<path fill-rule="evenodd" clip-rule="evenodd" d="M161.403 40.0738C161.747 40.2461 161.887 40.6652 161.715 41.0098L160.321 43.8005C160.148 44.1452 159.73 44.2849 159.385 44.1125C159.041 43.9402 158.902 43.5212 159.074 43.1765L160.468 40.3858C160.64 40.0412 161.059 39.9015 161.403 40.0738Z" fill="#94D2FF"/>
<path fill-rule="evenodd" clip-rule="evenodd" d="M174.403 52.0738C174.747 52.2461 174.887 52.6652 174.715 53.0098L173.321 55.8005C173.148 56.1452 172.73 56.2849 172.385 56.1125C172.041 55.9402 171.902 55.5212 172.074 55.1765L173.468 52.3858C173.64 52.0412 174.059 51.9015 174.403 52.0738Z" fill="#94D2FF"/>
<path fill-rule="evenodd" clip-rule="evenodd" d="M129.403 41.0738C129.747 41.2461 129.887 41.6652 129.715 42.0098L128.321 44.8005C128.148 45.1452 127.73 45.2849 127.385 45.1125C127.041 44.9402 126.902 44.5212 127.074 44.1765L128.468 41.3858C128.64 41.0412 129.059 40.9015 129.403 41.0738Z" fill="#94D2FF"/>
<path fill-rule="evenodd" clip-rule="evenodd" d="M132.403 54.0738C132.747 54.2461 132.887 54.6652 132.715 55.0098L131.321 57.8005C131.148 58.1452 130.73 58.2849 130.385 58.1125C130.041 57.9402 129.902 57.5212 130.074 57.1765L131.468 54.3858C131.64 54.0412 132.059 53.9015 132.403 54.0738Z" fill="#94D2FF"/>
<path fill-rule="evenodd" clip-rule="evenodd" d="M147.766 54.2933C148.106 54.4752 148.233 54.898 148.052 55.2377L146.58 57.9884C146.399 58.3282 145.976 58.4561 145.637 58.2743C145.298 58.0924 145.17 57.6696 145.352 57.3299L146.823 54.5792C147.004 54.2395 147.427 54.1115 147.766 54.2933Z" fill="#94D2FF"/>
<path fill-rule="evenodd" clip-rule="evenodd" d="M178.403 46.0738C178.747 46.2461 178.887 46.6652 178.715 47.0098L177.321 49.8005C177.148 50.1452 176.73 50.2849 176.385 50.1125C176.041 49.9402 175.902 49.5212 176.074 49.1765L177.468 46.3858C177.64 46.0412 178.059 45.9015 178.403 46.0738Z" fill="#94D2FF"/>
<path fill-rule="evenodd" clip-rule="evenodd" d="M155.806 43.1974C156.168 43.3904 156.298 43.8258 156.097 44.1699L151.214 52.5286C151.013 52.8727 150.557 52.9952 150.194 52.8022C149.832 52.6092 149.702 52.1738 149.903 51.8297L154.786 43.471C154.987 43.1269 155.443 43.0044 155.806 43.1974Z" fill="#94D2FF"/>
<path fill-rule="evenodd" clip-rule="evenodd" d="M191.708 36.0275C192.07 36.2205 192.201 36.6559 192 37L188.437 43.6595C188.236 44.0036 187.78 44.1261 187.418 43.9331C187.056 43.7401 186.925 43.3047 187.126 42.9606L190.689 36.3011C190.89 35.957 191.346 35.8345 191.708 36.0275Z" fill="#94D2FF"/>
<path fill-rule="evenodd" clip-rule="evenodd" d="M139.029 48.328C139.391 48.521 139.521 48.9564 139.32 49.3004L136.311 55.1989C136.11 55.543 135.654 55.6655 135.292 55.4725C134.93 55.2795 134.799 54.8441 135 54.5L138.009 48.6015C138.21 48.2574 138.667 48.1349 139.029 48.328Z" fill="#94D2FF"/>
<path fill-rule="evenodd" clip-rule="evenodd" d="M162.029 30.3283C162.391 30.5213 162.521 30.9567 162.32 31.3008L157.437 39.6595C157.236 40.0036 156.78 40.126 156.418 39.933C156.056 39.74 155.925 39.3046 156.126 38.9606L161.009 30.6019C161.21 30.2578 161.667 30.1353 162.029 30.3283Z" fill="#94D2FF"/>
<path fill-rule="evenodd" clip-rule="evenodd" d="M175.208 34.5275C175.57 34.7205 175.701 35.1559 175.5 35.5L171.437 42.6598C171.236 43.0039 170.78 43.1264 170.418 42.9334C170.056 42.7404 169.925 42.305 170.126 41.9609L174.189 34.8011C174.39 34.457 174.846 34.3345 175.208 34.5275Z" fill="#94D2FF"/>
<path fill-rule="evenodd" clip-rule="evenodd" d="M138.029 33.3278C138.391 33.5208 138.521 33.9562 138.32 34.3003L135.311 39.1989C135.11 39.543 134.654 39.6655 134.292 39.4725C133.93 39.2795 133.799 38.8441 134 38.5L137.009 33.6014C137.21 33.2573 137.667 33.1348 138.029 33.3278Z" fill="#94D2FF"/>
<path fill-rule="evenodd" clip-rule="evenodd" d="M124.155 47.2507C124.517 47.4437 124.647 47.8791 124.446 48.2231L121.437 53.1218C121.236 53.4659 120.78 53.5883 120.418 53.3953C120.056 53.2023 119.925 52.7669 120.126 52.4229L123.135 47.5242C123.336 47.1801 123.793 47.0577 124.155 47.2507Z" fill="#94D2FF"/>
<path fill-rule="evenodd" clip-rule="evenodd" d="M121.155 35.2507C121.517 35.4437 121.647 35.8791 121.446 36.2231L118.437 41.1218C118.236 41.4659 117.78 41.5883 117.418 41.3953C117.056 41.2023 116.925 40.7669 117.126 40.4229L120.135 35.5242C120.336 35.1801 120.793 35.0577 121.155 35.2507Z" fill="#94D2FF"/>
<path fill-rule="evenodd" clip-rule="evenodd" d="M158.52 51.7264C158.882 51.9194 159.012 52.3548 158.811 52.6989L155.437 58.6596C155.236 59.0037 154.78 59.1262 154.418 58.9332C154.056 58.7401 153.925 58.3048 154.126 57.9607L157.5 52C157.701 51.6559 158.158 51.5334 158.52 51.7264Z" fill="#94D2FF"/>
<path fill-rule="evenodd" clip-rule="evenodd" d="M143.029 34.3283C143.391 34.5213 143.521 34.9567 143.32 35.3008L138.437 43.6595C138.236 44.0036 137.78 44.126 137.418 43.933C137.056 43.74 136.925 43.3046 137.126 42.9606L142.009 34.6019C142.21 34.2578 142.667 34.1353 143.029 34.3283Z" fill="#94D2FF"/>
<path fill-rule="evenodd" clip-rule="evenodd" d="M183.029 34.3283C183.391 34.5213 183.521 34.9567 183.32 35.3008L178.437 43.6595C178.236 44.0036 177.78 44.126 177.418 43.933C177.056 43.74 176.925 43.3046 177.126 42.9606L182.009 34.6019C182.21 34.2578 182.667 34.1353 183.029 34.3283Z" fill="#94D2FF"/>
<path fill-rule="evenodd" clip-rule="evenodd" d="M170.029 48.3283C170.391 48.5213 170.521 48.9567 170.32 49.3008L165.437 57.6595C165.236 58.0036 164.78 58.126 164.418 57.933C164.056 57.74 163.925 57.3046 164.126 56.9606L169.009 48.6019C169.21 48.2578 169.667 48.1353 170.029 48.3283Z" fill="#94D2FF"/>
<path fill-rule="evenodd" clip-rule="evenodd" d="M185.02 45.2855C185.382 45.4785 185.512 45.9139 185.311 46.258L181.437 53.2185C181.236 53.5626 180.78 53.6851 180.418 53.4921C180.056 53.2991 179.925 52.8637 180.126 52.5196L184 45.5591C184.201 45.215 184.658 45.0925 185.02 45.2855Z" fill="#94D2FF"/>
<path fill-rule="evenodd" clip-rule="evenodd" d="M134.029 44.3283C134.391 44.5213 134.521 44.9567 134.32 45.3008L129.437 53.6595C129.236 54.0036 128.78 54.126 128.418 53.933C128.056 53.74 127.925 53.3046 128.126 52.9606L133.009 44.6019C133.21 44.2578 133.667 44.1353 134.029 44.3283Z" fill="#94D2FF"/>
<path fill-rule="evenodd" clip-rule="evenodd" d="M128.029 35.3283C128.391 35.5213 128.521 35.9567 128.32 36.3008L123.437 44.6595C123.236 45.0036 122.78 45.126 122.418 44.933C122.056 44.74 121.925 44.3046 122.126 43.9606L127.009 35.6019C127.21 35.2578 127.667 35.1353 128.029 35.3283Z" fill="#94D2FF"/>
<path fill-rule="evenodd" clip-rule="evenodd" d="M169.029 35.3283C169.391 35.5213 169.521 35.9567 169.32 36.3008L164.437 44.6595C164.236 45.0036 163.78 45.126 163.418 44.933C163.056 44.74 162.925 44.3046 163.126 43.9606L168.009 35.6019C168.21 35.2578 168.667 35.1353 169.029 35.3283Z" fill="#94D2FF"/>
<path fill-rule="evenodd" clip-rule="evenodd" d="M149.585 33.0756C149.956 33.252 150.106 33.681 149.921 34.0338L145.421 42.605C145.236 42.9578 144.785 43.1009 144.415 42.9244C144.044 42.748 143.894 42.319 144.079 41.9662L148.579 33.395C148.764 33.0422 149.215 32.8991 149.585 33.0756Z" fill="#94D2FF"/>
<path d="M148.516 43.1721L140 46.2897L148.516 31H154.8L148.516 39.0952L156 36.9368L140 59L148.516 43.1721Z" fill="#FFC736"/>
<path d="M159.909 3.72226C165.016 4.63441 169.478 8.62381 170.155 15.9225C176.287 12.0966 182.988 13.4747 187.164 18.0345C187.164 9.80022 179.718 6.19125 173.776 7.39668C172.956 -1.44339 163.188 -1.95856 159.909 3.72226Z" fill="#9E9E9E"/>
<path d="M139.211 9.80022C141.277 9.92376 143.227 10.588 144.744 11.9043C146.21 8.71146 148.581 6.40656 151.302 5.03069C146.589 1.85876 139.826 4.87243 139.211 9.80022Z" fill="#9E9E9E"/>
<path fill-rule="evenodd" clip-rule="evenodd" d="M126.506 17.3289C113.391 15.9225 109.087 26.3699 111.752 33H129.238C129.648 30.1292 132.517 28.5219 135.796 28.9238C137.162 25.6216 142.49 25.2198 144.744 27.9192C148.638 21.4025 159.909 21.4025 162.231 27.3165C166.74 26.9146 170.155 29.3256 170.155 33H198.913C199.732 27.1736 194.609 22.8534 190.716 24.6616C190.191 21.3195 189.128 20.1792 187.164 18.0345C182.988 13.4747 176.287 12.0966 170.155 15.9225C169.478 8.62381 165.016 4.63441 159.909 3.72226C157.058 3.21311 154.007 3.66271 151.302 5.03069C148.581 6.40656 146.21 8.71146 144.744 11.9043C143.227 10.588 141.277 9.92376 139.211 9.80022C134.027 9.49009 128.118 12.5875 126.506 17.3289Z" fill="#F1F1F1"/>
<path d="M135.796 28.9238C132.517 28.5219 129.648 30.1292 129.238 33H170.155C170.155 29.3256 166.74 26.9146 162.231 27.3165C159.909 21.4025 148.638 21.4025 144.744 27.9192C142.49 25.2198 137.162 25.6216 135.796 28.9238Z" fill="#D9D9D9"/>
</svg>
