<svg width="199" height="59" viewBox="0 0 199 59" fill="none" xmlns="http://www.w3.org/2000/svg">
<path fill-rule="evenodd" clip-rule="evenodd" d="M13.8286 14.0532C3.60803 11.3043 -2.62313 19.6645 1.07499 27.5713C1.83718 29.2009 3.58314 30 5.34864 30H16.5702C16.9814 27.0787 19.8602 25.4431 23.1502 25.852C24.5212 22.4918 29.8675 22.0829 32.1294 24.8298C36.0363 18.1984 47.3458 18.1984 49.6761 24.2165C54.1999 23.8076 57.6272 26.2609 57.6272 30H84.4289C85.656 30 86.7982 29.1995 86.9426 27.9525C87.6273 22.0405 82.0367 19.2925 78.2582 21.5149C77.732 18.114 76.6649 16.9537 74.6942 14.7712C70.5045 10.1312 63.7805 8.7288 57.6272 12.6221C56.9481 5.19492 52.47 1.13534 47.3458 0.20713C44.4856 -0.310971 41.4241 0.146537 38.7095 1.53858C35.9792 2.93867 33.5999 5.28411 32.1294 8.53313C30.6065 7.19363 28.6497 6.51774 26.5775 6.39203C21.3754 6.07645 15.4462 9.22836 13.8286 14.0532Z" fill="#F1F1F1"/>
<path d="M23.1502 25.852C19.8602 25.4431 16.9814 27.0787 16.5702 30H57.6272C57.6272 26.2609 54.1999 23.8076 49.6761 24.2165C47.3458 18.1984 36.0363 18.1984 32.1294 24.8298C29.8675 22.0829 24.5212 22.4918 23.1502 25.852Z" fill="#D9D9D9"/>
<path d="M37.5161 42.6068L29 45.8357L37.5161 30H43.8L37.5161 38.3843L45 36.1488L29 59L37.5161 42.6068Z" fill="#FFC736"/>
<path fill-rule="evenodd" clip-rule="evenodd" d="M125.829 14.0532C115.608 11.3043 109.377 19.6645 113.075 27.5713C113.837 29.2009 115.583 30 117.349 30H128.57C128.981 27.0787 131.86 25.4431 135.15 25.852C136.521 22.4918 141.868 22.0829 144.129 24.8298C148.036 18.1984 159.346 18.1984 161.676 24.2165C166.2 23.8076 169.627 26.2609 169.627 30H196.429C197.656 30 198.798 29.1995 198.943 27.9525C199.627 22.0405 194.037 19.2925 190.258 21.5149C189.732 18.114 188.665 16.9537 186.694 14.7712C182.504 10.1312 175.78 8.7288 169.627 12.6221C168.948 5.19492 164.47 1.13534 159.346 0.20713C156.486 -0.310971 153.424 0.146537 150.709 1.53858C147.979 2.93867 145.6 5.28411 144.129 8.53313C142.606 7.19363 140.65 6.51774 138.577 6.39203C133.375 6.07645 127.446 9.22836 125.829 14.0532Z" fill="#F1F1F1"/>
<path d="M135.15 25.852C131.86 25.4431 128.981 27.0787 128.57 30H169.627C169.627 26.2609 166.2 23.8076 161.676 24.2165C159.346 18.1984 148.036 18.1984 144.129 24.8298C141.868 22.0829 136.521 22.4918 135.15 25.852Z" fill="#D9D9D9"/>
<path d="M149.516 42.6068L141 45.8357L149.516 30H155.8L149.516 38.3843L157 36.1488L141 59L149.516 42.6068Z" fill="#FFC736"/>
</svg>
