<svg width="422" height="466" viewBox="0 0 422 466" fill="none" xmlns="http://www.w3.org/2000/svg">
<path d="M10 5C10 2.23858 7.76142 0 5 0C2.23858 0 0 2.23858 0 5H10ZM0 461C0 463.761 2.23858 466 5 466C7.76142 466 10 463.761 10 461H0ZM107 110.521L108.428 115.313C110.022 114.837 111.276 113.6 111.773 112.011C112.269 110.423 111.942 108.692 110.901 107.393L107 110.521ZM0 155.744V461H10V155.744H0ZM7.66805 159.972C39.2344 140.056 59.6188 129.853 108.428 115.313L105.572 105.729C55.9016 120.526 34.6809 131.105 2.33195 151.515L7.66805 159.972ZM0 5V35.1488H10V5H0ZM0 35.1488V155.744H10V35.1488H0ZM110.901 107.393C93.4141 85.5814 78.7916 70.393 62.7268 58.611C46.6351 46.8094 29.329 38.5962 6.69417 30.4445L3.30583 39.853C25.4394 47.8241 41.7755 55.6465 56.8128 66.6748C71.8771 77.7229 85.8704 92.159 103.099 113.648L110.901 107.393Z" fill="#4D4D4D"/>
<path d="M399.306 131.432C402.17 117.26 398.575 108.35 382.024 90.5814C378.196 90.8878 374.377 91.3169 370.524 91.8783C383.731 106.221 386.523 115.821 387.024 134.452C391.618 133.165 395.456 132.3 398.745 131.559L399.306 131.432Z" fill="#D9D9D9"/>
<path d="M418.524 120.932C421.375 116.976 422.42 108.6 419.878 101.212C416.904 92.5695 406.755 90.0018 397.615 89.9874C396.58 89.9858 395.55 89.9918 394.524 90.0056C408.666 103.159 411.157 111.772 409.524 128.519C412.932 127.041 415.671 124.891 418.524 120.932Z" fill="#D9D9D9"/>
<path d="M409.524 128.519C411.157 111.772 408.666 103.159 394.524 90.0056C390.312 90.0622 386.163 90.2501 382.024 90.5814C398.575 108.35 402.17 117.26 399.306 131.432C403.458 130.495 406.718 129.735 409.524 128.519Z" fill="#AF0F0F"/>
<path d="M387.024 134.452C386.523 115.821 383.731 106.221 370.524 91.8783C366.899 92.4065 363.244 93.0519 359.524 93.8225C372.63 108.992 376.313 118.622 377.024 137.586C380.716 136.308 384.03 135.291 387.024 134.452Z" fill="#AF0F0F"/>
<path d="M366.351 141.627C370.227 140.04 373.772 138.712 377.024 137.586C376.313 118.622 372.63 108.992 359.524 93.8225C355.768 94.6005 351.947 95.5062 348.024 96.5477C362.138 115.293 366.023 125.142 366.351 141.627Z" fill="#D9D9D9"/>
<path d="M353.024 147.946C350.513 124.846 346.401 114.776 336.024 100.053C332.153 101.281 328.162 102.633 324.024 104.117C335.414 125.751 341.902 136.112 342.331 154.432C345.702 152.088 349.402 149.893 353.024 147.946Z" fill="#D9D9D9"/>
<path d="M331.524 164.432C333.879 160.99 337.809 157.577 342.331 154.432C341.902 136.112 335.414 125.751 324.024 104.117C319.851 105.613 315.527 107.243 311.024 109.013C323.594 129.559 329.435 141.368 331.524 164.432Z" fill="#AF0F0F"/>
<path d="M366.351 141.627C366.023 125.142 362.138 115.293 348.024 96.5477C344.136 97.58 340.147 98.7458 336.024 100.053C346.401 114.776 350.513 124.846 353.024 147.946C357.954 145.296 362.738 143.106 366.351 141.627Z" fill="#AF0F0F"/>
<path d="M288.986 178.365C300.637 186.394 317.534 187.382 325.513 175.697C326.797 173.817 327.663 171.934 328.524 170.058C319.744 156.018 314.991 153.015 306.524 147.946C301.257 164.568 297.817 172.727 287.524 177.37C288.002 177.69 288.49 178.023 288.986 178.365Z" fill="#AF0F0F"/>
<path d="M331.524 164.432C329.435 141.368 323.594 129.559 311.024 109.013C307.007 110.592 302.848 112.283 298.524 114.09C302.797 140.665 299.369 153.955 283.524 174.968C284.753 175.577 286.096 176.415 287.524 177.37C297.817 172.727 301.257 164.568 306.524 147.946C314.991 153.015 319.744 156.018 328.524 170.058L328.535 170.035C329.396 168.158 330.255 166.287 331.524 164.432Z" fill="#D9D9D9"/>
<path d="M276.462 174.859C278.828 174.248 281.334 173.883 283.524 174.968C299.369 153.955 302.797 140.665 298.524 114.09C294.972 115.575 291.309 117.138 287.524 118.783C287.844 139.434 284.999 151.815 272.524 175.865C273.821 175.537 275.134 175.201 276.462 174.859Z" fill="#AF0F0F"/>
<path d="M287.524 118.783C282.728 120.867 277.736 123.081 272.524 125.432C271.18 125.858 269.846 126.268 268.524 126.662C269.335 142.263 267.533 153.857 261.024 178.679C264.724 177.808 268.553 176.87 272.524 175.865C284.999 151.815 287.844 139.434 287.524 118.783Z" fill="#D9D9D9"/>
<path d="M261.024 178.679C267.533 153.857 269.335 142.263 268.524 126.662C263.196 128.251 258.042 129.579 253.024 130.628C254.738 151.957 253.369 162.837 249.024 181.362C252.873 180.552 256.867 179.657 261.024 178.679Z" fill="#AF0F0F"/>
<path d="M249.024 181.362C253.369 162.837 254.738 151.957 253.024 130.628C248.418 131.591 243.928 132.317 239.524 132.792C240.795 154.485 239.933 165.606 236.024 183.873C240.177 183.152 244.501 182.315 249.024 181.362Z" fill="#D9D9D9"/>
<path d="M236.024 183.873C239.933 165.606 240.795 154.485 239.524 132.792C234.422 133.342 229.436 133.554 224.524 133.404C226.002 156.918 225.209 168.288 221.524 186.005C226.138 185.465 230.953 184.755 236.024 183.873Z" fill="#AF0F0F"/>
<path d="M221.524 186.005C225.209 168.288 226.002 156.918 224.524 133.404C220.313 133.274 216.155 132.879 212.024 132.201C213.224 155.845 212.182 167.91 207.024 187.167C211.661 186.982 216.471 186.596 221.524 186.005Z" fill="#D9D9D9"/>
<path d="M207.024 187.167C212.182 167.91 213.224 155.845 212.024 132.201C207.068 131.388 202.15 130.17 197.223 128.519C196.551 154.147 193.723 166.63 185.524 186.47C192.431 187.231 199.499 187.466 207.024 187.167Z" fill="#AF0F0F"/>
<path d="M185.524 186.47C193.723 166.63 196.551 154.147 197.223 128.519C193.337 127.217 189.445 125.646 185.524 123.793C176.651 157.635 171.999 169.175 164.024 182.353C171.239 184.298 178.293 185.672 185.524 186.47Z" fill="#D9D9D9"/>
<path d="M164.024 182.353C171.999 169.175 176.651 157.635 185.524 123.793C180.748 121.536 175.929 118.861 171.024 115.743C161.98 150.261 156.709 165.524 146.524 176.706C152.567 178.939 158.346 180.822 164.024 182.353Z" fill="#AF0F0F"/>
<path d="M132.024 170.932C137.064 173.062 141.873 174.988 146.524 176.706C156.709 165.524 161.98 150.261 171.024 115.743C166.278 112.727 161.452 109.297 156.508 105.432L132.024 170.932Z" fill="#D9D9D9"/>
<path d="M142.853 93.9319C141.586 92.7925 140.31 91.6259 139.024 90.432C136.712 88.285 134.379 85.9439 132.024 83.9319L106.524 154.185C110.894 157.457 115.359 160.782 119.363 163.432L142.853 93.9319Z" fill="#D9D9D9"/>
<path d="M94.524 145.432L117.024 72.4319C112.281 68.8054 105.95 65.5479 101.024 62.432L80.524 137.932C85.6796 140.423 90.1751 142.482 94.524 145.432Z" fill="#D9D9D9"/>
<path d="M66.4151 133.404L85.024 54.432C78.6833 51.3368 70.6874 48.7866 64.024 46.432L52.024 135.773C57.524 133.404 62.381 132.319 66.4151 133.404Z" fill="#D9D9D9"/>
<path d="M30 37.5C28.5826 37.0275 22.4604 34.9351 21.2206 36.0445C20.828 36.3957 21.024 37.0384 21.024 37.5652V150.773C21.024 152.671 27.3255 148.717 27.9708 148.307C28.0091 148.283 28.0433 148.261 28.0819 148.237L38.524 141.773L43.524 41.432C37.6439 40.0964 33 38.5 30 37.5Z" fill="#D9D9D9"/>
<path d="M132.024 170.932L156.508 105.432C152.061 101.956 147.519 98.1278 142.853 93.9319L119.363 163.432C123.215 165.982 127.366 168.504 132.024 170.932Z" fill="#AF0F0F"/>
<path d="M106.524 154.185L132.024 83.9319C129.059 81.3987 120.06 74.7532 117.024 72.4319L94.524 145.432C98.0881 147.85 102.261 150.992 106.524 154.185Z" fill="#AF0F0F"/>
<path d="M80.524 137.932L101.024 62.432C95.1622 58.7242 91.1659 57.4301 85.024 54.432L66.4151 133.404C72.9309 135.156 75.512 135.511 80.524 137.932Z" fill="#AF0F0F"/>
<path d="M52.024 135.773L64.024 46.432C57.0457 43.9661 50.8838 43.1036 43.524 41.432L38.524 141.773L52.024 135.773Z" fill="#AF0F0F"/>
</svg>
